M48
; DRILL file {KiCad (6.0.1)} date Sat 22 Jan 2022 06:42:16 PM EST
; FORMAT={-:-/ absolute / metric / decimal}
; #@! TF.CreationDate,2022-01-22T18:42:16-05:00
; #@! TF.GenerationSoftware,Kicad,Pcbnew,(6.0.1)
; #@! TF.FileFunction,NonPlated,1,2,NPTH
FMAT,2
METRIC
; #@! TA.AperFunction,NonPlated,NPTH,ComponentDrill
T1C0.787
; #@! TA.AperFunction,NonPlated,NPTH,ComponentDrill
T2C0.991
; #@! TA.AperFunction,NonPlated,NPTH,ComponentDrill
T3C1.200
; #@! TA.AperFunction,NonPlated,NPTH,ComponentDrill
T4C1.702
; #@! TA.AperFunction,NonPlated,NPTH,ComponentDrill
T5C3.429
%
G90
G05
T1
X17.82Y-51.1
X19.09Y-51.1
X20.36Y-51.1
X21.63Y-51.1
X22.9Y-51.1
X56.66Y-51.25
X57.93Y-51.25
X59.2Y-51.25
X60.47Y-51.25
X61.74Y-51.25
X74.71Y-51.245
X75.98Y-51.245
X77.25Y-51.245
X78.52Y-51.245
X79.79Y-51.245
X93.06Y-51.25
X94.33Y-51.25
X95.6Y-51.25
X96.87Y-51.25
X98.14Y-51.25
X111.18Y-51.245
X112.45Y-51.245
X113.72Y-51.245
X114.99Y-51.245
X116.26Y-51.245
X129.11Y-51.25
X130.38Y-51.25
X131.65Y-51.25
X132.92Y-51.25
X134.19Y-51.25
X147.4Y-51.296
X160.98Y-51.25
X162.25Y-51.25
X163.52Y-51.25
X164.79Y-51.25
X166.06Y-51.25
X179.08Y-51.25
X180.35Y-51.25
X181.62Y-51.25
X182.89Y-51.25
X184.16Y-51.25
X197.06Y-51.2
X198.33Y-51.2
X199.6Y-51.2
X199.6Y-51.2
X200.87Y-51.2
X202.14Y-51.2
X215.06Y-51.246
X216.33Y-51.246
X217.6Y-51.246
X217.6Y-51.246
X218.87Y-51.246
X220.14Y-51.246
X232.31Y-51.246
X233.58Y-51.246
X234.85Y-51.246
X234.85Y-51.246
X236.12Y-51.246
X237.39Y-51.246
T2
X53.22Y-38.3
X53.22Y-55.3
X53.22Y-72.3
X53.22Y-89.3
X53.22Y-106.3
X71.22Y-38.3
X71.22Y-55.3
X71.22Y-72.3
X71.22Y-89.3
X71.22Y-106.3
X89.22Y-38.3
X89.22Y-55.3
X89.22Y-72.3
X89.22Y-89.3
X89.22Y-106.3
X107.22Y-38.3
X107.22Y-55.3
X107.22Y-72.3
X107.22Y-89.3
X107.22Y-106.3
X125.22Y-38.3
X125.22Y-55.3
X125.22Y-72.3
X125.22Y-89.3
X125.22Y-106.3
X143.22Y-38.3
X143.22Y-55.3
X143.22Y-72.3
X143.22Y-89.3
X143.22Y-106.3
X161.22Y-38.3
X161.22Y-55.3
X161.22Y-72.3
X161.22Y-89.3
X161.22Y-106.3
X179.22Y-38.3
X179.22Y-55.3
X179.22Y-72.3
X179.22Y-89.3
X179.22Y-106.3
X197.22Y-38.3
X197.22Y-55.3
X197.22Y-72.3
X197.22Y-89.3
X197.22Y-106.3
X215.22Y-38.3
X215.22Y-55.3
X215.22Y-72.3
X215.22Y-89.3
X215.22Y-106.3
X233.22Y-38.3
X233.22Y-55.3
X233.22Y-72.3
X233.22Y-89.3
X233.22Y-106.3
X251.22Y-38.3
X251.22Y-55.3
X251.22Y-72.3
X251.22Y-89.3
X251.22Y-106.3
T3
X18.09Y-98.9
T4
X42.5Y-42.5
X42.5Y-59.5
X42.5Y-76.5
X42.5Y-93.5
X42.5Y-110.5
X53.5Y-42.5
X53.5Y-59.5
X53.5Y-76.5
X53.5Y-93.5
X53.5Y-110.5
X60.5Y-42.5
X60.5Y-59.5
X60.5Y-76.5
X60.5Y-93.5
X60.5Y-110.5
X71.5Y-42.5
X71.5Y-59.5
X71.5Y-76.5
X71.5Y-93.5
X71.5Y-110.5
X78.5Y-42.5
X78.5Y-59.5
X78.5Y-76.5
X78.5Y-93.5
X78.5Y-110.5
X89.5Y-42.5
X89.5Y-59.5
X89.5Y-76.5
X89.5Y-93.5
X89.5Y-110.5
X96.5Y-42.5
X96.5Y-59.5
X96.5Y-76.5
X96.5Y-93.5
X96.5Y-110.5
X107.5Y-42.5
X107.5Y-59.5
X107.5Y-76.5
X107.5Y-93.5
X107.5Y-110.5
X114.5Y-42.5
X114.5Y-59.5
X114.5Y-76.5
X114.5Y-93.5
X114.5Y-110.5
X125.5Y-42.5
X125.5Y-59.5
X125.5Y-76.5
X125.5Y-93.5
X125.5Y-110.5
X132.5Y-42.5
X132.5Y-59.5
X132.5Y-76.5
X132.5Y-93.5
X132.5Y-110.5
X143.5Y-42.5
X143.5Y-59.5
X143.5Y-76.5
X143.5Y-93.5
X143.5Y-110.5
X150.5Y-42.5
X150.5Y-59.5
X150.5Y-76.5
X150.5Y-93.5
X150.5Y-110.5
X161.5Y-42.5
X161.5Y-59.5
X161.5Y-76.5
X161.5Y-93.5
X161.5Y-110.5
X168.5Y-42.5
X168.5Y-59.5
X168.5Y-76.5
X168.5Y-93.5
X168.5Y-110.5
X179.5Y-42.5
X179.5Y-59.5
X179.5Y-76.5
X179.5Y-93.5
X179.5Y-110.5
X186.5Y-42.5
X186.5Y-59.5
X186.5Y-76.5
X186.5Y-93.5
X186.5Y-110.5
X197.5Y-42.5
X197.5Y-59.5
X197.5Y-76.5
X197.5Y-93.5
X197.5Y-110.5
X204.5Y-42.5
X204.5Y-59.5
X204.5Y-76.5
X204.5Y-93.5
X204.5Y-110.5
X215.5Y-42.5
X215.5Y-59.5
X215.5Y-76.5
X215.5Y-93.5
X215.5Y-110.5
X222.5Y-42.5
X222.5Y-59.5
X222.5Y-76.5
X222.5Y-93.5
X222.5Y-110.5
X233.5Y-42.5
X233.5Y-59.5
X233.5Y-76.5
X233.5Y-93.5
X233.5Y-110.5
X240.5Y-42.5
X240.5Y-59.5
X240.5Y-76.5
X240.5Y-93.5
X240.5Y-110.5
X251.5Y-42.5
X251.5Y-59.5
X251.5Y-76.5
X251.5Y-93.5
X251.5Y-110.5
T5
X48.0Y-42.5
X48.0Y-59.5
X48.0Y-76.5
X48.0Y-93.5
X48.0Y-110.5
X66.0Y-42.5
X66.0Y-59.5
X66.0Y-76.5
X66.0Y-93.5
X66.0Y-110.5
X84.0Y-42.5
X84.0Y-59.5
X84.0Y-76.5
X84.0Y-93.5
X84.0Y-110.5
X102.0Y-42.5
X102.0Y-59.5
X102.0Y-76.5
X102.0Y-93.5
X102.0Y-110.5
X120.0Y-42.5
X120.0Y-59.5
X120.0Y-76.5
X120.0Y-93.5
X120.0Y-110.5
X138.0Y-42.5
X138.0Y-59.5
X138.0Y-76.5
X138.0Y-93.5
X138.0Y-110.5
X156.0Y-42.5
X156.0Y-59.5
X156.0Y-76.5
X156.0Y-93.5
X156.0Y-110.5
X174.0Y-42.5
X174.0Y-59.5
X174.0Y-76.5
X174.0Y-93.5
X174.0Y-110.5
X192.0Y-42.5
X192.0Y-59.5
X192.0Y-76.5
X192.0Y-93.5
X192.0Y-110.5
X210.0Y-42.5
X210.0Y-59.5
X210.0Y-76.5
X210.0Y-93.5
X210.0Y-110.5
X228.0Y-42.5
X228.0Y-59.5
X228.0Y-76.5
X228.0Y-93.5
X228.0Y-110.5
X246.0Y-42.5
X246.0Y-59.5
X246.0Y-76.5
X246.0Y-93.5
X246.0Y-110.5
T0
M30
