%FSLAX45Y45*%
G04 Gerber Fmt 4.5, Leading zero omitted, Abs format (unit mm)*
G04 Created by KiCad (PCBNEW (6.0.1)) date 2022-01-22 18:42:36*
%MOMM*%
%LPD*%
G01*
G04 APERTURE LIST*
%TA.AperFunction,Profile*%
%ADD10C,0.100000*%
%TD*%
%ADD11C,0.200000*%
%ADD12C,0.078740*%
%ADD13C,0.099060*%
%ADD14C,0.120000*%
%ADD15C,0.170180*%
%ADD16C,0.342900*%
G04 APERTURE END LIST*
D10*
X9075000Y-5185000D02*
G75*
G03*
X9075000Y-5065000I0J60000D01*
G01*
X3765000Y-5190000D02*
G75*
G03*
X3765000Y-5070000I0J60000D01*
G01*
X17677000Y-5185000D02*
G75*
G03*
X17677000Y-5065000I0J60000D01*
G01*
X18645000Y-5060515D02*
G75*
G03*
X18645000Y-5180515I0J-60000D01*
G01*
X11845000Y-5065000D02*
X12680000Y-5065000D01*
X23975000Y-5074885D02*
X25185000Y-5074885D01*
X4600000Y-5065000D02*
X5435000Y-5065000D01*
X10050000Y-5065000D02*
G75*
G03*
X10050000Y-5185000I0J-60000D01*
G01*
X12680000Y-5185000D02*
G75*
G03*
X12680000Y-5065000I0J60000D01*
G01*
X16842000Y-5185000D02*
X17677000Y-5185000D01*
X8240000Y-5065000D02*
G75*
G03*
X8240000Y-5185000I0J-60000D01*
G01*
X15032000Y-5185000D02*
X15867000Y-5185000D01*
X10050000Y-5065000D02*
X10885000Y-5065000D01*
X22270000Y-5190000D02*
X23030000Y-5190000D01*
X23030000Y-5190000D02*
G75*
G03*
X23030000Y-5070000I0J60000D01*
G01*
X2445000Y-5190000D02*
X3765000Y-5190000D01*
X23975000Y-5194885D02*
X25185000Y-5194885D01*
X4600000Y-5185000D02*
X5435000Y-5185000D01*
X20445000Y-5185000D02*
X21280000Y-5185000D01*
X25185000Y-5194885D02*
G75*
G03*
X25185000Y-5074885I0J60000D01*
G01*
X20445000Y-5065000D02*
G75*
G03*
X20445000Y-5185000I0J-60000D01*
G01*
X8240000Y-5065000D02*
X9075000Y-5065000D01*
X15032000Y-5065000D02*
G75*
G03*
X15032000Y-5185000I0J-60000D01*
G01*
X11845000Y-5065000D02*
G75*
G03*
X11845000Y-5185000I0J-60000D01*
G01*
X7245000Y-5185000D02*
G75*
G03*
X7245000Y-5065000I0J60000D01*
G01*
X1660000Y-3400000D02*
X25600000Y-3400000D01*
X25600000Y-3400000D02*
X25600000Y-12320000D01*
X25600000Y-12320000D02*
X1660000Y-12320000D01*
X1660000Y-12320000D02*
X1660000Y-3400000D01*
X15867000Y-5185000D02*
G75*
G03*
X15867000Y-5065000I0J60000D01*
G01*
X22270000Y-5070000D02*
X23030000Y-5070000D01*
X19480000Y-5180515D02*
G75*
G03*
X19480000Y-5060515I0J60000D01*
G01*
X8240000Y-5185000D02*
X9075000Y-5185000D01*
X4600000Y-5065000D02*
G75*
G03*
X4600000Y-5185000I0J-60000D01*
G01*
X16842000Y-5065000D02*
X17677000Y-5065000D01*
X13655000Y-5065000D02*
X14490000Y-5065000D01*
X20445000Y-5065000D02*
X21280000Y-5065000D01*
X21280000Y-5185000D02*
G75*
G03*
X21280000Y-5065000I0J60000D01*
G01*
X15032000Y-5065000D02*
X15867000Y-5065000D01*
X5435000Y-5185000D02*
G75*
G03*
X5435000Y-5065000I0J60000D01*
G01*
X10050000Y-5185000D02*
X10885000Y-5185000D01*
X11845000Y-5185000D02*
X12680000Y-5185000D01*
X6410000Y-5185000D02*
X7245000Y-5185000D01*
X6410000Y-5065000D02*
X7245000Y-5065000D01*
X22270000Y-5070000D02*
G75*
G03*
X22270000Y-5190000I0J-60000D01*
G01*
X13655000Y-5185000D02*
X14490000Y-5185000D01*
X23975000Y-5074885D02*
G75*
G03*
X23975000Y-5194885I0J-60000D01*
G01*
X10885000Y-5185000D02*
G75*
G03*
X10885000Y-5065000I0J60000D01*
G01*
X14490000Y-5185000D02*
G75*
G03*
X14490000Y-5065000I0J60000D01*
G01*
X6410000Y-5065000D02*
G75*
G03*
X6410000Y-5185000I0J-60000D01*
G01*
X18645000Y-5060515D02*
X19480000Y-5060515D01*
X2445000Y-5070000D02*
G75*
G03*
X2445000Y-5190000I0J-60000D01*
G01*
X13655000Y-5065000D02*
G75*
G03*
X13655000Y-5185000I0J-60000D01*
G01*
X18645000Y-5180515D02*
X19480000Y-5180515D01*
X16842000Y-5065000D02*
G75*
G03*
X16842000Y-5185000I0J-60000D01*
G01*
X2445000Y-5070000D02*
X3765000Y-5070000D01*
D11*
D12*
X1742630Y-5070630D02*
X1821370Y-5149370D01*
X1821370Y-5070630D02*
X1742630Y-5149370D01*
X1869630Y-5070630D02*
X1948370Y-5149370D01*
X1948370Y-5070630D02*
X1869630Y-5149370D01*
X1996630Y-5070630D02*
X2075370Y-5149370D01*
X2075370Y-5070630D02*
X1996630Y-5149370D01*
X2123630Y-5070630D02*
X2202370Y-5149370D01*
X2202370Y-5070630D02*
X2123630Y-5149370D01*
X2250630Y-5070630D02*
X2329370Y-5149370D01*
X2329370Y-5070630D02*
X2250630Y-5149370D01*
X5626630Y-5085630D02*
X5705370Y-5164370D01*
X5705370Y-5085630D02*
X5626630Y-5164370D01*
X5753630Y-5085630D02*
X5832370Y-5164370D01*
X5832370Y-5085630D02*
X5753630Y-5164370D01*
X5880630Y-5085630D02*
X5959370Y-5164370D01*
X5959370Y-5085630D02*
X5880630Y-5164370D01*
X6007630Y-5085630D02*
X6086370Y-5164370D01*
X6086370Y-5085630D02*
X6007630Y-5164370D01*
X6134630Y-5085630D02*
X6213370Y-5164370D01*
X6213370Y-5085630D02*
X6134630Y-5164370D01*
X7431630Y-5085115D02*
X7510370Y-5163855D01*
X7510370Y-5085115D02*
X7431630Y-5163855D01*
X7558630Y-5085115D02*
X7637370Y-5163855D01*
X7637370Y-5085115D02*
X7558630Y-5163855D01*
X7685630Y-5085115D02*
X7764370Y-5163855D01*
X7764370Y-5085115D02*
X7685630Y-5163855D01*
X7812630Y-5085115D02*
X7891370Y-5163855D01*
X7891370Y-5085115D02*
X7812630Y-5163855D01*
X7939630Y-5085115D02*
X8018370Y-5163855D01*
X8018370Y-5085115D02*
X7939630Y-5163855D01*
X9266630Y-5085630D02*
X9345370Y-5164370D01*
X9345370Y-5085630D02*
X9266630Y-5164370D01*
X9393630Y-5085630D02*
X9472370Y-5164370D01*
X9472370Y-5085630D02*
X9393630Y-5164370D01*
X9520630Y-5085630D02*
X9599370Y-5164370D01*
X9599370Y-5085630D02*
X9520630Y-5164370D01*
X9647630Y-5085630D02*
X9726370Y-5164370D01*
X9726370Y-5085630D02*
X9647630Y-5164370D01*
X9774630Y-5085630D02*
X9853370Y-5164370D01*
X9853370Y-5085630D02*
X9774630Y-5164370D01*
X11078630Y-5085115D02*
X11157370Y-5163855D01*
X11157370Y-5085115D02*
X11078630Y-5163855D01*
X11205630Y-5085115D02*
X11284370Y-5163855D01*
X11284370Y-5085115D02*
X11205630Y-5163855D01*
X11332630Y-5085115D02*
X11411370Y-5163855D01*
X11411370Y-5085115D02*
X11332630Y-5163855D01*
X11459630Y-5085115D02*
X11538370Y-5163855D01*
X11538370Y-5085115D02*
X11459630Y-5163855D01*
X11586630Y-5085115D02*
X11665370Y-5163855D01*
X11665370Y-5085115D02*
X11586630Y-5163855D01*
X12871630Y-5085630D02*
X12950370Y-5164370D01*
X12950370Y-5085630D02*
X12871630Y-5164370D01*
X12998630Y-5085630D02*
X13077370Y-5164370D01*
X13077370Y-5085630D02*
X12998630Y-5164370D01*
X13125630Y-5085630D02*
X13204370Y-5164370D01*
X13204370Y-5085630D02*
X13125630Y-5164370D01*
X13252630Y-5085630D02*
X13331370Y-5164370D01*
X13331370Y-5085630D02*
X13252630Y-5164370D01*
X13379630Y-5085630D02*
X13458370Y-5164370D01*
X13458370Y-5085630D02*
X13379630Y-5164370D01*
X14700630Y-5090230D02*
X14779370Y-5168970D01*
X14779370Y-5090230D02*
X14700630Y-5168970D01*
X16058630Y-5085630D02*
X16137370Y-5164370D01*
X16137370Y-5085630D02*
X16058630Y-5164370D01*
X16185630Y-5085630D02*
X16264370Y-5164370D01*
X16264370Y-5085630D02*
X16185630Y-5164370D01*
X16312630Y-5085630D02*
X16391370Y-5164370D01*
X16391370Y-5085630D02*
X16312630Y-5164370D01*
X16439630Y-5085630D02*
X16518370Y-5164370D01*
X16518370Y-5085630D02*
X16439630Y-5164370D01*
X16566630Y-5085630D02*
X16645370Y-5164370D01*
X16645370Y-5085630D02*
X16566630Y-5164370D01*
X17868630Y-5085630D02*
X17947370Y-5164370D01*
X17947370Y-5085630D02*
X17868630Y-5164370D01*
X17995630Y-5085630D02*
X18074370Y-5164370D01*
X18074370Y-5085630D02*
X17995630Y-5164370D01*
X18122630Y-5085630D02*
X18201370Y-5164370D01*
X18201370Y-5085630D02*
X18122630Y-5164370D01*
X18249630Y-5085630D02*
X18328370Y-5164370D01*
X18328370Y-5085630D02*
X18249630Y-5164370D01*
X18376630Y-5085630D02*
X18455370Y-5164370D01*
X18455370Y-5085630D02*
X18376630Y-5164370D01*
X19666630Y-5080630D02*
X19745370Y-5159370D01*
X19745370Y-5080630D02*
X19666630Y-5159370D01*
X19793630Y-5080630D02*
X19872370Y-5159370D01*
X19872370Y-5080630D02*
X19793630Y-5159370D01*
X19920630Y-5080630D02*
X19999370Y-5159370D01*
X19999370Y-5080630D02*
X19920630Y-5159370D01*
X19920630Y-5080630D02*
X19999370Y-5159370D01*
X19999370Y-5080630D02*
X19920630Y-5159370D01*
X20047630Y-5080630D02*
X20126370Y-5159370D01*
X20126370Y-5080630D02*
X20047630Y-5159370D01*
X20174630Y-5080630D02*
X20253370Y-5159370D01*
X20253370Y-5080630D02*
X20174630Y-5159370D01*
X21466630Y-5085230D02*
X21545370Y-5163970D01*
X21545370Y-5085230D02*
X21466630Y-5163970D01*
X21593630Y-5085230D02*
X21672370Y-5163970D01*
X21672370Y-5085230D02*
X21593630Y-5163970D01*
X21720630Y-5085230D02*
X21799370Y-5163970D01*
X21799370Y-5085230D02*
X21720630Y-5163970D01*
X21720630Y-5085230D02*
X21799370Y-5163970D01*
X21799370Y-5085230D02*
X21720630Y-5163970D01*
X21847630Y-5085230D02*
X21926370Y-5163970D01*
X21926370Y-5085230D02*
X21847630Y-5163970D01*
X21974630Y-5085230D02*
X22053370Y-5163970D01*
X22053370Y-5085230D02*
X21974630Y-5163970D01*
X23191630Y-5085230D02*
X23270370Y-5163970D01*
X23270370Y-5085230D02*
X23191630Y-5163970D01*
X23318630Y-5085230D02*
X23397370Y-5163970D01*
X23397370Y-5085230D02*
X23318630Y-5163970D01*
X23445630Y-5085230D02*
X23524370Y-5163970D01*
X23524370Y-5085230D02*
X23445630Y-5163970D01*
X23445630Y-5085230D02*
X23524370Y-5163970D01*
X23524370Y-5085230D02*
X23445630Y-5163970D01*
X23572630Y-5085230D02*
X23651370Y-5163970D01*
X23651370Y-5085230D02*
X23572630Y-5163970D01*
X23699630Y-5085230D02*
X23778370Y-5163970D01*
X23778370Y-5085230D02*
X23699630Y-5163970D01*
D13*
X5371530Y-3830000D02*
G75*
G03*
X5371530Y-3830000I-49530J0D01*
G01*
X5371530Y-5530000D02*
G75*
G03*
X5371530Y-5530000I-49530J0D01*
G01*
X5371530Y-7230000D02*
G75*
G03*
X5371530Y-7230000I-49530J0D01*
G01*
X5371530Y-8930000D02*
G75*
G03*
X5371530Y-8930000I-49530J0D01*
G01*
X5371530Y-10630000D02*
G75*
G03*
X5371530Y-10630000I-49530J0D01*
G01*
X7171530Y-3830000D02*
G75*
G03*
X7171530Y-3830000I-49530J0D01*
G01*
X7171530Y-5530000D02*
G75*
G03*
X7171530Y-5530000I-49530J0D01*
G01*
X7171530Y-7230000D02*
G75*
G03*
X7171530Y-7230000I-49530J0D01*
G01*
X7171530Y-8930000D02*
G75*
G03*
X7171530Y-8930000I-49530J0D01*
G01*
X7171530Y-10630000D02*
G75*
G03*
X7171530Y-10630000I-49530J0D01*
G01*
X8971530Y-3830000D02*
G75*
G03*
X8971530Y-3830000I-49530J0D01*
G01*
X8971530Y-5530000D02*
G75*
G03*
X8971530Y-5530000I-49530J0D01*
G01*
X8971530Y-7230000D02*
G75*
G03*
X8971530Y-7230000I-49530J0D01*
G01*
X8971530Y-8930000D02*
G75*
G03*
X8971530Y-8930000I-49530J0D01*
G01*
X8971530Y-10630000D02*
G75*
G03*
X8971530Y-10630000I-49530J0D01*
G01*
X10771530Y-3830000D02*
G75*
G03*
X10771530Y-3830000I-49530J0D01*
G01*
X10771530Y-5530000D02*
G75*
G03*
X10771530Y-5530000I-49530J0D01*
G01*
X10771530Y-7230000D02*
G75*
G03*
X10771530Y-7230000I-49530J0D01*
G01*
X10771530Y-8930000D02*
G75*
G03*
X10771530Y-8930000I-49530J0D01*
G01*
X10771530Y-10630000D02*
G75*
G03*
X10771530Y-10630000I-49530J0D01*
G01*
X12571530Y-3830000D02*
G75*
G03*
X12571530Y-3830000I-49530J0D01*
G01*
X12571530Y-5530000D02*
G75*
G03*
X12571530Y-5530000I-49530J0D01*
G01*
X12571530Y-7230000D02*
G75*
G03*
X12571530Y-7230000I-49530J0D01*
G01*
X12571530Y-8930000D02*
G75*
G03*
X12571530Y-8930000I-49530J0D01*
G01*
X12571530Y-10630000D02*
G75*
G03*
X12571530Y-10630000I-49530J0D01*
G01*
X14371530Y-3830000D02*
G75*
G03*
X14371530Y-3830000I-49530J0D01*
G01*
X14371530Y-5530000D02*
G75*
G03*
X14371530Y-5530000I-49530J0D01*
G01*
X14371530Y-7230000D02*
G75*
G03*
X14371530Y-7230000I-49530J0D01*
G01*
X14371530Y-8930000D02*
G75*
G03*
X14371530Y-8930000I-49530J0D01*
G01*
X14371530Y-10630000D02*
G75*
G03*
X14371530Y-10630000I-49530J0D01*
G01*
X16171530Y-3830000D02*
G75*
G03*
X16171530Y-3830000I-49530J0D01*
G01*
X16171530Y-5530000D02*
G75*
G03*
X16171530Y-5530000I-49530J0D01*
G01*
X16171530Y-7230000D02*
G75*
G03*
X16171530Y-7230000I-49530J0D01*
G01*
X16171530Y-8930000D02*
G75*
G03*
X16171530Y-8930000I-49530J0D01*
G01*
X16171530Y-10630000D02*
G75*
G03*
X16171530Y-10630000I-49530J0D01*
G01*
X17971530Y-3830000D02*
G75*
G03*
X17971530Y-3830000I-49530J0D01*
G01*
X17971530Y-5530000D02*
G75*
G03*
X17971530Y-5530000I-49530J0D01*
G01*
X17971530Y-7230000D02*
G75*
G03*
X17971530Y-7230000I-49530J0D01*
G01*
X17971530Y-8930000D02*
G75*
G03*
X17971530Y-8930000I-49530J0D01*
G01*
X17971530Y-10630000D02*
G75*
G03*
X17971530Y-10630000I-49530J0D01*
G01*
X19771530Y-3830000D02*
G75*
G03*
X19771530Y-3830000I-49530J0D01*
G01*
X19771530Y-5530000D02*
G75*
G03*
X19771530Y-5530000I-49530J0D01*
G01*
X19771530Y-7230000D02*
G75*
G03*
X19771530Y-7230000I-49530J0D01*
G01*
X19771530Y-8930000D02*
G75*
G03*
X19771530Y-8930000I-49530J0D01*
G01*
X19771530Y-10630000D02*
G75*
G03*
X19771530Y-10630000I-49530J0D01*
G01*
X21571530Y-3830000D02*
G75*
G03*
X21571530Y-3830000I-49530J0D01*
G01*
X21571530Y-5530000D02*
G75*
G03*
X21571530Y-5530000I-49530J0D01*
G01*
X21571530Y-7230000D02*
G75*
G03*
X21571530Y-7230000I-49530J0D01*
G01*
X21571530Y-8930000D02*
G75*
G03*
X21571530Y-8930000I-49530J0D01*
G01*
X21571530Y-10630000D02*
G75*
G03*
X21571530Y-10630000I-49530J0D01*
G01*
X23371530Y-3830000D02*
G75*
G03*
X23371530Y-3830000I-49530J0D01*
G01*
X23371530Y-5530000D02*
G75*
G03*
X23371530Y-5530000I-49530J0D01*
G01*
X23371530Y-7230000D02*
G75*
G03*
X23371530Y-7230000I-49530J0D01*
G01*
X23371530Y-8930000D02*
G75*
G03*
X23371530Y-8930000I-49530J0D01*
G01*
X23371530Y-10630000D02*
G75*
G03*
X23371530Y-10630000I-49530J0D01*
G01*
X25171530Y-3830000D02*
G75*
G03*
X25171530Y-3830000I-49530J0D01*
G01*
X25171530Y-5530000D02*
G75*
G03*
X25171530Y-5530000I-49530J0D01*
G01*
X25171530Y-7230000D02*
G75*
G03*
X25171530Y-7230000I-49530J0D01*
G01*
X25171530Y-8930000D02*
G75*
G03*
X25171530Y-8930000I-49530J0D01*
G01*
X25171530Y-10630000D02*
G75*
G03*
X25171530Y-10630000I-49530J0D01*
G01*
D14*
X1809000Y-9830000D02*
X1809000Y-9950000D01*
X1749000Y-9890000D02*
X1869000Y-9890000D01*
D15*
X4310168Y-4310168D02*
X4310168Y-4189832D01*
X4189832Y-4189832D01*
X4189832Y-4310168D01*
X4310168Y-4310168D01*
X4310168Y-6010168D02*
X4310168Y-5889832D01*
X4189832Y-5889832D01*
X4189832Y-6010168D01*
X4310168Y-6010168D01*
X4310168Y-7710168D02*
X4310168Y-7589832D01*
X4189832Y-7589832D01*
X4189832Y-7710168D01*
X4310168Y-7710168D01*
X4310168Y-9410168D02*
X4310168Y-9289832D01*
X4189832Y-9289832D01*
X4189832Y-9410168D01*
X4310168Y-9410168D01*
X4310168Y-11110168D02*
X4310168Y-10989832D01*
X4189832Y-10989832D01*
X4189832Y-11110168D01*
X4310168Y-11110168D01*
X5410168Y-4310168D02*
X5410168Y-4189832D01*
X5289832Y-4189832D01*
X5289832Y-4310168D01*
X5410168Y-4310168D01*
X5410168Y-6010168D02*
X5410168Y-5889832D01*
X5289832Y-5889832D01*
X5289832Y-6010168D01*
X5410168Y-6010168D01*
X5410168Y-7710168D02*
X5410168Y-7589832D01*
X5289832Y-7589832D01*
X5289832Y-7710168D01*
X5410168Y-7710168D01*
X5410168Y-9410168D02*
X5410168Y-9289832D01*
X5289832Y-9289832D01*
X5289832Y-9410168D01*
X5410168Y-9410168D01*
X5410168Y-11110168D02*
X5410168Y-10989832D01*
X5289832Y-10989832D01*
X5289832Y-11110168D01*
X5410168Y-11110168D01*
X6110168Y-4310168D02*
X6110168Y-4189832D01*
X5989832Y-4189832D01*
X5989832Y-4310168D01*
X6110168Y-4310168D01*
X6110168Y-6010168D02*
X6110168Y-5889832D01*
X5989832Y-5889832D01*
X5989832Y-6010168D01*
X6110168Y-6010168D01*
X6110168Y-7710168D02*
X6110168Y-7589832D01*
X5989832Y-7589832D01*
X5989832Y-7710168D01*
X6110168Y-7710168D01*
X6110168Y-9410168D02*
X6110168Y-9289832D01*
X5989832Y-9289832D01*
X5989832Y-9410168D01*
X6110168Y-9410168D01*
X6110168Y-11110168D02*
X6110168Y-10989832D01*
X5989832Y-10989832D01*
X5989832Y-11110168D01*
X6110168Y-11110168D01*
X7210168Y-4310168D02*
X7210168Y-4189832D01*
X7089832Y-4189832D01*
X7089832Y-4310168D01*
X7210168Y-4310168D01*
X7210168Y-6010168D02*
X7210168Y-5889832D01*
X7089832Y-5889832D01*
X7089832Y-6010168D01*
X7210168Y-6010168D01*
X7210168Y-7710168D02*
X7210168Y-7589832D01*
X7089832Y-7589832D01*
X7089832Y-7710168D01*
X7210168Y-7710168D01*
X7210168Y-9410168D02*
X7210168Y-9289832D01*
X7089832Y-9289832D01*
X7089832Y-9410168D01*
X7210168Y-9410168D01*
X7210168Y-11110168D02*
X7210168Y-10989832D01*
X7089832Y-10989832D01*
X7089832Y-11110168D01*
X7210168Y-11110168D01*
X7910168Y-4310168D02*
X7910168Y-4189832D01*
X7789832Y-4189832D01*
X7789832Y-4310168D01*
X7910168Y-4310168D01*
X7910168Y-6010168D02*
X7910168Y-5889832D01*
X7789832Y-5889832D01*
X7789832Y-6010168D01*
X7910168Y-6010168D01*
X7910168Y-7710168D02*
X7910168Y-7589832D01*
X7789832Y-7589832D01*
X7789832Y-7710168D01*
X7910168Y-7710168D01*
X7910168Y-9410168D02*
X7910168Y-9289832D01*
X7789832Y-9289832D01*
X7789832Y-9410168D01*
X7910168Y-9410168D01*
X7910168Y-11110168D02*
X7910168Y-10989832D01*
X7789832Y-10989832D01*
X7789832Y-11110168D01*
X7910168Y-11110168D01*
X9010168Y-4310168D02*
X9010168Y-4189832D01*
X8889832Y-4189832D01*
X8889832Y-4310168D01*
X9010168Y-4310168D01*
X9010168Y-6010168D02*
X9010168Y-5889832D01*
X8889832Y-5889832D01*
X8889832Y-6010168D01*
X9010168Y-6010168D01*
X9010168Y-7710168D02*
X9010168Y-7589832D01*
X8889832Y-7589832D01*
X8889832Y-7710168D01*
X9010168Y-7710168D01*
X9010168Y-9410168D02*
X9010168Y-9289832D01*
X8889832Y-9289832D01*
X8889832Y-9410168D01*
X9010168Y-9410168D01*
X9010168Y-11110168D02*
X9010168Y-10989832D01*
X8889832Y-10989832D01*
X8889832Y-11110168D01*
X9010168Y-11110168D01*
X9710168Y-4310168D02*
X9710168Y-4189832D01*
X9589832Y-4189832D01*
X9589832Y-4310168D01*
X9710168Y-4310168D01*
X9710168Y-6010168D02*
X9710168Y-5889832D01*
X9589832Y-5889832D01*
X9589832Y-6010168D01*
X9710168Y-6010168D01*
X9710168Y-7710168D02*
X9710168Y-7589832D01*
X9589832Y-7589832D01*
X9589832Y-7710168D01*
X9710168Y-7710168D01*
X9710168Y-9410168D02*
X9710168Y-9289832D01*
X9589832Y-9289832D01*
X9589832Y-9410168D01*
X9710168Y-9410168D01*
X9710168Y-11110168D02*
X9710168Y-10989832D01*
X9589832Y-10989832D01*
X9589832Y-11110168D01*
X9710168Y-11110168D01*
X10810168Y-4310168D02*
X10810168Y-4189832D01*
X10689832Y-4189832D01*
X10689832Y-4310168D01*
X10810168Y-4310168D01*
X10810168Y-6010168D02*
X10810168Y-5889832D01*
X10689832Y-5889832D01*
X10689832Y-6010168D01*
X10810168Y-6010168D01*
X10810168Y-7710168D02*
X10810168Y-7589832D01*
X10689832Y-7589832D01*
X10689832Y-7710168D01*
X10810168Y-7710168D01*
X10810168Y-9410168D02*
X10810168Y-9289832D01*
X10689832Y-9289832D01*
X10689832Y-9410168D01*
X10810168Y-9410168D01*
X10810168Y-11110168D02*
X10810168Y-10989832D01*
X10689832Y-10989832D01*
X10689832Y-11110168D01*
X10810168Y-11110168D01*
X11510168Y-4310168D02*
X11510168Y-4189832D01*
X11389832Y-4189832D01*
X11389832Y-4310168D01*
X11510168Y-4310168D01*
X11510168Y-6010168D02*
X11510168Y-5889832D01*
X11389832Y-5889832D01*
X11389832Y-6010168D01*
X11510168Y-6010168D01*
X11510168Y-7710168D02*
X11510168Y-7589832D01*
X11389832Y-7589832D01*
X11389832Y-7710168D01*
X11510168Y-7710168D01*
X11510168Y-9410168D02*
X11510168Y-9289832D01*
X11389832Y-9289832D01*
X11389832Y-9410168D01*
X11510168Y-9410168D01*
X11510168Y-11110168D02*
X11510168Y-10989832D01*
X11389832Y-10989832D01*
X11389832Y-11110168D01*
X11510168Y-11110168D01*
X12610168Y-4310168D02*
X12610168Y-4189832D01*
X12489832Y-4189832D01*
X12489832Y-4310168D01*
X12610168Y-4310168D01*
X12610168Y-6010168D02*
X12610168Y-5889832D01*
X12489832Y-5889832D01*
X12489832Y-6010168D01*
X12610168Y-6010168D01*
X12610168Y-7710168D02*
X12610168Y-7589832D01*
X12489832Y-7589832D01*
X12489832Y-7710168D01*
X12610168Y-7710168D01*
X12610168Y-9410168D02*
X12610168Y-9289832D01*
X12489832Y-9289832D01*
X12489832Y-9410168D01*
X12610168Y-9410168D01*
X12610168Y-11110168D02*
X12610168Y-10989832D01*
X12489832Y-10989832D01*
X12489832Y-11110168D01*
X12610168Y-11110168D01*
X13310168Y-4310168D02*
X13310168Y-4189832D01*
X13189832Y-4189832D01*
X13189832Y-4310168D01*
X13310168Y-4310168D01*
X13310168Y-6010168D02*
X13310168Y-5889832D01*
X13189832Y-5889832D01*
X13189832Y-6010168D01*
X13310168Y-6010168D01*
X13310168Y-7710168D02*
X13310168Y-7589832D01*
X13189832Y-7589832D01*
X13189832Y-7710168D01*
X13310168Y-7710168D01*
X13310168Y-9410168D02*
X13310168Y-9289832D01*
X13189832Y-9289832D01*
X13189832Y-9410168D01*
X13310168Y-9410168D01*
X13310168Y-11110168D02*
X13310168Y-10989832D01*
X13189832Y-10989832D01*
X13189832Y-11110168D01*
X13310168Y-11110168D01*
X14410168Y-4310168D02*
X14410168Y-4189832D01*
X14289832Y-4189832D01*
X14289832Y-4310168D01*
X14410168Y-4310168D01*
X14410168Y-6010168D02*
X14410168Y-5889832D01*
X14289832Y-5889832D01*
X14289832Y-6010168D01*
X14410168Y-6010168D01*
X14410168Y-7710168D02*
X14410168Y-7589832D01*
X14289832Y-7589832D01*
X14289832Y-7710168D01*
X14410168Y-7710168D01*
X14410168Y-9410168D02*
X14410168Y-9289832D01*
X14289832Y-9289832D01*
X14289832Y-9410168D01*
X14410168Y-9410168D01*
X14410168Y-11110168D02*
X14410168Y-10989832D01*
X14289832Y-10989832D01*
X14289832Y-11110168D01*
X14410168Y-11110168D01*
X15110168Y-4310168D02*
X15110168Y-4189832D01*
X14989832Y-4189832D01*
X14989832Y-4310168D01*
X15110168Y-4310168D01*
X15110168Y-6010168D02*
X15110168Y-5889832D01*
X14989832Y-5889832D01*
X14989832Y-6010168D01*
X15110168Y-6010168D01*
X15110168Y-7710168D02*
X15110168Y-7589832D01*
X14989832Y-7589832D01*
X14989832Y-7710168D01*
X15110168Y-7710168D01*
X15110168Y-9410168D02*
X15110168Y-9289832D01*
X14989832Y-9289832D01*
X14989832Y-9410168D01*
X15110168Y-9410168D01*
X15110168Y-11110168D02*
X15110168Y-10989832D01*
X14989832Y-10989832D01*
X14989832Y-11110168D01*
X15110168Y-11110168D01*
X16210168Y-4310168D02*
X16210168Y-4189832D01*
X16089832Y-4189832D01*
X16089832Y-4310168D01*
X16210168Y-4310168D01*
X16210168Y-6010168D02*
X16210168Y-5889832D01*
X16089832Y-5889832D01*
X16089832Y-6010168D01*
X16210168Y-6010168D01*
X16210168Y-7710168D02*
X16210168Y-7589832D01*
X16089832Y-7589832D01*
X16089832Y-7710168D01*
X16210168Y-7710168D01*
X16210168Y-9410168D02*
X16210168Y-9289832D01*
X16089832Y-9289832D01*
X16089832Y-9410168D01*
X16210168Y-9410168D01*
X16210168Y-11110168D02*
X16210168Y-10989832D01*
X16089832Y-10989832D01*
X16089832Y-11110168D01*
X16210168Y-11110168D01*
X16910168Y-4310168D02*
X16910168Y-4189832D01*
X16789832Y-4189832D01*
X16789832Y-4310168D01*
X16910168Y-4310168D01*
X16910168Y-6010168D02*
X16910168Y-5889832D01*
X16789832Y-5889832D01*
X16789832Y-6010168D01*
X16910168Y-6010168D01*
X16910168Y-7710168D02*
X16910168Y-7589832D01*
X16789832Y-7589832D01*
X16789832Y-7710168D01*
X16910168Y-7710168D01*
X16910168Y-9410168D02*
X16910168Y-9289832D01*
X16789832Y-9289832D01*
X16789832Y-9410168D01*
X16910168Y-9410168D01*
X16910168Y-11110168D02*
X16910168Y-10989832D01*
X16789832Y-10989832D01*
X16789832Y-11110168D01*
X16910168Y-11110168D01*
X18010168Y-4310168D02*
X18010168Y-4189832D01*
X17889832Y-4189832D01*
X17889832Y-4310168D01*
X18010168Y-4310168D01*
X18010168Y-6010168D02*
X18010168Y-5889832D01*
X17889832Y-5889832D01*
X17889832Y-6010168D01*
X18010168Y-6010168D01*
X18010168Y-7710168D02*
X18010168Y-7589832D01*
X17889832Y-7589832D01*
X17889832Y-7710168D01*
X18010168Y-7710168D01*
X18010168Y-9410168D02*
X18010168Y-9289832D01*
X17889832Y-9289832D01*
X17889832Y-9410168D01*
X18010168Y-9410168D01*
X18010168Y-11110168D02*
X18010168Y-10989832D01*
X17889832Y-10989832D01*
X17889832Y-11110168D01*
X18010168Y-11110168D01*
X18710168Y-4310168D02*
X18710168Y-4189832D01*
X18589832Y-4189832D01*
X18589832Y-4310168D01*
X18710168Y-4310168D01*
X18710168Y-6010168D02*
X18710168Y-5889832D01*
X18589832Y-5889832D01*
X18589832Y-6010168D01*
X18710168Y-6010168D01*
X18710168Y-7710168D02*
X18710168Y-7589832D01*
X18589832Y-7589832D01*
X18589832Y-7710168D01*
X18710168Y-7710168D01*
X18710168Y-9410168D02*
X18710168Y-9289832D01*
X18589832Y-9289832D01*
X18589832Y-9410168D01*
X18710168Y-9410168D01*
X18710168Y-11110168D02*
X18710168Y-10989832D01*
X18589832Y-10989832D01*
X18589832Y-11110168D01*
X18710168Y-11110168D01*
X19810168Y-4310168D02*
X19810168Y-4189832D01*
X19689832Y-4189832D01*
X19689832Y-4310168D01*
X19810168Y-4310168D01*
X19810168Y-6010168D02*
X19810168Y-5889832D01*
X19689832Y-5889832D01*
X19689832Y-6010168D01*
X19810168Y-6010168D01*
X19810168Y-7710168D02*
X19810168Y-7589832D01*
X19689832Y-7589832D01*
X19689832Y-7710168D01*
X19810168Y-7710168D01*
X19810168Y-9410168D02*
X19810168Y-9289832D01*
X19689832Y-9289832D01*
X19689832Y-9410168D01*
X19810168Y-9410168D01*
X19810168Y-11110168D02*
X19810168Y-10989832D01*
X19689832Y-10989832D01*
X19689832Y-11110168D01*
X19810168Y-11110168D01*
X20510168Y-4310168D02*
X20510168Y-4189832D01*
X20389832Y-4189832D01*
X20389832Y-4310168D01*
X20510168Y-4310168D01*
X20510168Y-6010168D02*
X20510168Y-5889832D01*
X20389832Y-5889832D01*
X20389832Y-6010168D01*
X20510168Y-6010168D01*
X20510168Y-7710168D02*
X20510168Y-7589832D01*
X20389832Y-7589832D01*
X20389832Y-7710168D01*
X20510168Y-7710168D01*
X20510168Y-9410168D02*
X20510168Y-9289832D01*
X20389832Y-9289832D01*
X20389832Y-9410168D01*
X20510168Y-9410168D01*
X20510168Y-11110168D02*
X20510168Y-10989832D01*
X20389832Y-10989832D01*
X20389832Y-11110168D01*
X20510168Y-11110168D01*
X21610168Y-4310168D02*
X21610168Y-4189832D01*
X21489832Y-4189832D01*
X21489832Y-4310168D01*
X21610168Y-4310168D01*
X21610168Y-6010168D02*
X21610168Y-5889832D01*
X21489832Y-5889832D01*
X21489832Y-6010168D01*
X21610168Y-6010168D01*
X21610168Y-7710168D02*
X21610168Y-7589832D01*
X21489832Y-7589832D01*
X21489832Y-7710168D01*
X21610168Y-7710168D01*
X21610168Y-9410168D02*
X21610168Y-9289832D01*
X21489832Y-9289832D01*
X21489832Y-9410168D01*
X21610168Y-9410168D01*
X21610168Y-11110168D02*
X21610168Y-10989832D01*
X21489832Y-10989832D01*
X21489832Y-11110168D01*
X21610168Y-11110168D01*
X22310168Y-4310168D02*
X22310168Y-4189832D01*
X22189832Y-4189832D01*
X22189832Y-4310168D01*
X22310168Y-4310168D01*
X22310168Y-6010168D02*
X22310168Y-5889832D01*
X22189832Y-5889832D01*
X22189832Y-6010168D01*
X22310168Y-6010168D01*
X22310168Y-7710168D02*
X22310168Y-7589832D01*
X22189832Y-7589832D01*
X22189832Y-7710168D01*
X22310168Y-7710168D01*
X22310168Y-9410168D02*
X22310168Y-9289832D01*
X22189832Y-9289832D01*
X22189832Y-9410168D01*
X22310168Y-9410168D01*
X22310168Y-11110168D02*
X22310168Y-10989832D01*
X22189832Y-10989832D01*
X22189832Y-11110168D01*
X22310168Y-11110168D01*
X23410168Y-4310168D02*
X23410168Y-4189832D01*
X23289832Y-4189832D01*
X23289832Y-4310168D01*
X23410168Y-4310168D01*
X23410168Y-6010168D02*
X23410168Y-5889832D01*
X23289832Y-5889832D01*
X23289832Y-6010168D01*
X23410168Y-6010168D01*
X23410168Y-7710168D02*
X23410168Y-7589832D01*
X23289832Y-7589832D01*
X23289832Y-7710168D01*
X23410168Y-7710168D01*
X23410168Y-9410168D02*
X23410168Y-9289832D01*
X23289832Y-9289832D01*
X23289832Y-9410168D01*
X23410168Y-9410168D01*
X23410168Y-11110168D02*
X23410168Y-10989832D01*
X23289832Y-10989832D01*
X23289832Y-11110168D01*
X23410168Y-11110168D01*
X24110168Y-4310168D02*
X24110168Y-4189832D01*
X23989832Y-4189832D01*
X23989832Y-4310168D01*
X24110168Y-4310168D01*
X24110168Y-6010168D02*
X24110168Y-5889832D01*
X23989832Y-5889832D01*
X23989832Y-6010168D01*
X24110168Y-6010168D01*
X24110168Y-7710168D02*
X24110168Y-7589832D01*
X23989832Y-7589832D01*
X23989832Y-7710168D01*
X24110168Y-7710168D01*
X24110168Y-9410168D02*
X24110168Y-9289832D01*
X23989832Y-9289832D01*
X23989832Y-9410168D01*
X24110168Y-9410168D01*
X24110168Y-11110168D02*
X24110168Y-10989832D01*
X23989832Y-10989832D01*
X23989832Y-11110168D01*
X24110168Y-11110168D01*
X25210168Y-4310168D02*
X25210168Y-4189832D01*
X25089832Y-4189832D01*
X25089832Y-4310168D01*
X25210168Y-4310168D01*
X25210168Y-6010168D02*
X25210168Y-5889832D01*
X25089832Y-5889832D01*
X25089832Y-6010168D01*
X25210168Y-6010168D01*
X25210168Y-7710168D02*
X25210168Y-7589832D01*
X25089832Y-7589832D01*
X25089832Y-7710168D01*
X25210168Y-7710168D01*
X25210168Y-9410168D02*
X25210168Y-9289832D01*
X25089832Y-9289832D01*
X25089832Y-9410168D01*
X25210168Y-9410168D01*
X25210168Y-11110168D02*
X25210168Y-10989832D01*
X25089832Y-10989832D01*
X25089832Y-11110168D01*
X25210168Y-11110168D01*
D16*
X4800000Y-4421450D02*
X4971450Y-4250000D01*
X4800000Y-4078550D01*
X4628550Y-4250000D01*
X4800000Y-4421450D01*
X4800000Y-6121450D02*
X4971450Y-5950000D01*
X4800000Y-5778550D01*
X4628550Y-5950000D01*
X4800000Y-6121450D01*
X4800000Y-7821450D02*
X4971450Y-7650000D01*
X4800000Y-7478550D01*
X4628550Y-7650000D01*
X4800000Y-7821450D01*
X4800000Y-9521450D02*
X4971450Y-9350000D01*
X4800000Y-9178550D01*
X4628550Y-9350000D01*
X4800000Y-9521450D01*
X4800000Y-11221450D02*
X4971450Y-11050000D01*
X4800000Y-10878550D01*
X4628550Y-11050000D01*
X4800000Y-11221450D01*
X6600000Y-4421450D02*
X6771450Y-4250000D01*
X6600000Y-4078550D01*
X6428550Y-4250000D01*
X6600000Y-4421450D01*
X6600000Y-6121450D02*
X6771450Y-5950000D01*
X6600000Y-5778550D01*
X6428550Y-5950000D01*
X6600000Y-6121450D01*
X6600000Y-7821450D02*
X6771450Y-7650000D01*
X6600000Y-7478550D01*
X6428550Y-7650000D01*
X6600000Y-7821450D01*
X6600000Y-9521450D02*
X6771450Y-9350000D01*
X6600000Y-9178550D01*
X6428550Y-9350000D01*
X6600000Y-9521450D01*
X6600000Y-11221450D02*
X6771450Y-11050000D01*
X6600000Y-10878550D01*
X6428550Y-11050000D01*
X6600000Y-11221450D01*
X8400000Y-4421450D02*
X8571450Y-4250000D01*
X8400000Y-4078550D01*
X8228550Y-4250000D01*
X8400000Y-4421450D01*
X8400000Y-6121450D02*
X8571450Y-5950000D01*
X8400000Y-5778550D01*
X8228550Y-5950000D01*
X8400000Y-6121450D01*
X8400000Y-7821450D02*
X8571450Y-7650000D01*
X8400000Y-7478550D01*
X8228550Y-7650000D01*
X8400000Y-7821450D01*
X8400000Y-9521450D02*
X8571450Y-9350000D01*
X8400000Y-9178550D01*
X8228550Y-9350000D01*
X8400000Y-9521450D01*
X8400000Y-11221450D02*
X8571450Y-11050000D01*
X8400000Y-10878550D01*
X8228550Y-11050000D01*
X8400000Y-11221450D01*
X10200000Y-4421450D02*
X10371450Y-4250000D01*
X10200000Y-4078550D01*
X10028550Y-4250000D01*
X10200000Y-4421450D01*
X10200000Y-6121450D02*
X10371450Y-5950000D01*
X10200000Y-5778550D01*
X10028550Y-5950000D01*
X10200000Y-6121450D01*
X10200000Y-7821450D02*
X10371450Y-7650000D01*
X10200000Y-7478550D01*
X10028550Y-7650000D01*
X10200000Y-7821450D01*
X10200000Y-9521450D02*
X10371450Y-9350000D01*
X10200000Y-9178550D01*
X10028550Y-9350000D01*
X10200000Y-9521450D01*
X10200000Y-11221450D02*
X10371450Y-11050000D01*
X10200000Y-10878550D01*
X10028550Y-11050000D01*
X10200000Y-11221450D01*
X12000000Y-4421450D02*
X12171450Y-4250000D01*
X12000000Y-4078550D01*
X11828550Y-4250000D01*
X12000000Y-4421450D01*
X12000000Y-6121450D02*
X12171450Y-5950000D01*
X12000000Y-5778550D01*
X11828550Y-5950000D01*
X12000000Y-6121450D01*
X12000000Y-7821450D02*
X12171450Y-7650000D01*
X12000000Y-7478550D01*
X11828550Y-7650000D01*
X12000000Y-7821450D01*
X12000000Y-9521450D02*
X12171450Y-9350000D01*
X12000000Y-9178550D01*
X11828550Y-9350000D01*
X12000000Y-9521450D01*
X12000000Y-11221450D02*
X12171450Y-11050000D01*
X12000000Y-10878550D01*
X11828550Y-11050000D01*
X12000000Y-11221450D01*
X13800000Y-4421450D02*
X13971450Y-4250000D01*
X13800000Y-4078550D01*
X13628550Y-4250000D01*
X13800000Y-4421450D01*
X13800000Y-6121450D02*
X13971450Y-5950000D01*
X13800000Y-5778550D01*
X13628550Y-5950000D01*
X13800000Y-6121450D01*
X13800000Y-7821450D02*
X13971450Y-7650000D01*
X13800000Y-7478550D01*
X13628550Y-7650000D01*
X13800000Y-7821450D01*
X13800000Y-9521450D02*
X13971450Y-9350000D01*
X13800000Y-9178550D01*
X13628550Y-9350000D01*
X13800000Y-9521450D01*
X13800000Y-11221450D02*
X13971450Y-11050000D01*
X13800000Y-10878550D01*
X13628550Y-11050000D01*
X13800000Y-11221450D01*
X15600000Y-4421450D02*
X15771450Y-4250000D01*
X15600000Y-4078550D01*
X15428550Y-4250000D01*
X15600000Y-4421450D01*
X15600000Y-6121450D02*
X15771450Y-5950000D01*
X15600000Y-5778550D01*
X15428550Y-5950000D01*
X15600000Y-6121450D01*
X15600000Y-7821450D02*
X15771450Y-7650000D01*
X15600000Y-7478550D01*
X15428550Y-7650000D01*
X15600000Y-7821450D01*
X15600000Y-9521450D02*
X15771450Y-9350000D01*
X15600000Y-9178550D01*
X15428550Y-9350000D01*
X15600000Y-9521450D01*
X15600000Y-11221450D02*
X15771450Y-11050000D01*
X15600000Y-10878550D01*
X15428550Y-11050000D01*
X15600000Y-11221450D01*
X17400000Y-4421450D02*
X17571450Y-4250000D01*
X17400000Y-4078550D01*
X17228550Y-4250000D01*
X17400000Y-4421450D01*
X17400000Y-6121450D02*
X17571450Y-5950000D01*
X17400000Y-5778550D01*
X17228550Y-5950000D01*
X17400000Y-6121450D01*
X17400000Y-7821450D02*
X17571450Y-7650000D01*
X17400000Y-7478550D01*
X17228550Y-7650000D01*
X17400000Y-7821450D01*
X17400000Y-9521450D02*
X17571450Y-9350000D01*
X17400000Y-9178550D01*
X17228550Y-9350000D01*
X17400000Y-9521450D01*
X17400000Y-11221450D02*
X17571450Y-11050000D01*
X17400000Y-10878550D01*
X17228550Y-11050000D01*
X17400000Y-11221450D01*
X19200000Y-4421450D02*
X19371450Y-4250000D01*
X19200000Y-4078550D01*
X19028550Y-4250000D01*
X19200000Y-4421450D01*
X19200000Y-6121450D02*
X19371450Y-5950000D01*
X19200000Y-5778550D01*
X19028550Y-5950000D01*
X19200000Y-6121450D01*
X19200000Y-7821450D02*
X19371450Y-7650000D01*
X19200000Y-7478550D01*
X19028550Y-7650000D01*
X19200000Y-7821450D01*
X19200000Y-9521450D02*
X19371450Y-9350000D01*
X19200000Y-9178550D01*
X19028550Y-9350000D01*
X19200000Y-9521450D01*
X19200000Y-11221450D02*
X19371450Y-11050000D01*
X19200000Y-10878550D01*
X19028550Y-11050000D01*
X19200000Y-11221450D01*
X21000000Y-4421450D02*
X21171450Y-4250000D01*
X21000000Y-4078550D01*
X20828550Y-4250000D01*
X21000000Y-4421450D01*
X21000000Y-6121450D02*
X21171450Y-5950000D01*
X21000000Y-5778550D01*
X20828550Y-5950000D01*
X21000000Y-6121450D01*
X21000000Y-7821450D02*
X21171450Y-7650000D01*
X21000000Y-7478550D01*
X20828550Y-7650000D01*
X21000000Y-7821450D01*
X21000000Y-9521450D02*
X21171450Y-9350000D01*
X21000000Y-9178550D01*
X20828550Y-9350000D01*
X21000000Y-9521450D01*
X21000000Y-11221450D02*
X21171450Y-11050000D01*
X21000000Y-10878550D01*
X20828550Y-11050000D01*
X21000000Y-11221450D01*
X22800000Y-4421450D02*
X22971450Y-4250000D01*
X22800000Y-4078550D01*
X22628550Y-4250000D01*
X22800000Y-4421450D01*
X22800000Y-6121450D02*
X22971450Y-5950000D01*
X22800000Y-5778550D01*
X22628550Y-5950000D01*
X22800000Y-6121450D01*
X22800000Y-7821450D02*
X22971450Y-7650000D01*
X22800000Y-7478550D01*
X22628550Y-7650000D01*
X22800000Y-7821450D01*
X22800000Y-9521450D02*
X22971450Y-9350000D01*
X22800000Y-9178550D01*
X22628550Y-9350000D01*
X22800000Y-9521450D01*
X22800000Y-11221450D02*
X22971450Y-11050000D01*
X22800000Y-10878550D01*
X22628550Y-11050000D01*
X22800000Y-11221450D01*
X24600000Y-4421450D02*
X24771450Y-4250000D01*
X24600000Y-4078550D01*
X24428550Y-4250000D01*
X24600000Y-4421450D01*
X24600000Y-6121450D02*
X24771450Y-5950000D01*
X24600000Y-5778550D01*
X24428550Y-5950000D01*
X24600000Y-6121450D01*
X24600000Y-7821450D02*
X24771450Y-7650000D01*
X24600000Y-7478550D01*
X24428550Y-7650000D01*
X24600000Y-7821450D01*
X24600000Y-9521450D02*
X24771450Y-9350000D01*
X24600000Y-9178550D01*
X24428550Y-9350000D01*
X24600000Y-9521450D01*
X24600000Y-11221450D02*
X24771450Y-11050000D01*
X24600000Y-10878550D01*
X24428550Y-11050000D01*
X24600000Y-11221450D01*
D11*
X1912619Y-12635476D02*
X1912619Y-12435476D01*
X1960238Y-12435476D01*
X1988809Y-12445000D01*
X2007857Y-12464048D01*
X2017381Y-12483095D01*
X2026905Y-12521190D01*
X2026905Y-12549762D01*
X2017381Y-12587857D01*
X2007857Y-12606905D01*
X1988809Y-12625952D01*
X1960238Y-12635476D01*
X1912619Y-12635476D01*
X2112619Y-12635476D02*
X2112619Y-12502143D01*
X2112619Y-12540238D02*
X2122143Y-12521190D01*
X2131667Y-12511667D01*
X2150714Y-12502143D01*
X2169762Y-12502143D01*
X2236429Y-12635476D02*
X2236429Y-12502143D01*
X2236429Y-12435476D02*
X2226905Y-12445000D01*
X2236429Y-12454524D01*
X2245952Y-12445000D01*
X2236429Y-12435476D01*
X2236429Y-12454524D01*
X2360238Y-12635476D02*
X2341190Y-12625952D01*
X2331667Y-12606905D01*
X2331667Y-12435476D01*
X2465000Y-12635476D02*
X2445952Y-12625952D01*
X2436429Y-12606905D01*
X2436429Y-12435476D01*
X2693571Y-12635476D02*
X2693571Y-12435476D01*
X2760238Y-12578333D01*
X2826905Y-12435476D01*
X2826905Y-12635476D01*
X3007857Y-12635476D02*
X3007857Y-12530714D01*
X2998333Y-12511667D01*
X2979286Y-12502143D01*
X2941190Y-12502143D01*
X2922143Y-12511667D01*
X3007857Y-12625952D02*
X2988809Y-12635476D01*
X2941190Y-12635476D01*
X2922143Y-12625952D01*
X2912619Y-12606905D01*
X2912619Y-12587857D01*
X2922143Y-12568809D01*
X2941190Y-12559286D01*
X2988809Y-12559286D01*
X3007857Y-12549762D01*
X3103095Y-12502143D02*
X3103095Y-12702143D01*
X3103095Y-12511667D02*
X3122143Y-12502143D01*
X3160238Y-12502143D01*
X3179286Y-12511667D01*
X3188809Y-12521190D01*
X3198333Y-12540238D01*
X3198333Y-12597381D01*
X3188809Y-12616428D01*
X3179286Y-12625952D01*
X3160238Y-12635476D01*
X3122143Y-12635476D01*
X3103095Y-12625952D01*
X3284048Y-12616428D02*
X3293571Y-12625952D01*
X3284048Y-12635476D01*
X3274524Y-12625952D01*
X3284048Y-12616428D01*
X3284048Y-12635476D01*
X3284048Y-12511667D02*
X3293571Y-12521190D01*
X3284048Y-12530714D01*
X3274524Y-12521190D01*
X3284048Y-12511667D01*
X3284048Y-12530714D01*
D12*
X1576260Y-12925630D02*
X1655000Y-13004370D01*
X1655000Y-12925630D02*
X1576260Y-13004370D01*
D11*
X1950714Y-12855476D02*
X1969762Y-12855476D01*
X1988809Y-12865000D01*
X1998333Y-12874524D01*
X2007857Y-12893571D01*
X2017381Y-12931667D01*
X2017381Y-12979286D01*
X2007857Y-13017381D01*
X1998333Y-13036428D01*
X1988809Y-13045952D01*
X1969762Y-13055476D01*
X1950714Y-13055476D01*
X1931667Y-13045952D01*
X1922143Y-13036428D01*
X1912619Y-13017381D01*
X1903095Y-12979286D01*
X1903095Y-12931667D01*
X1912619Y-12893571D01*
X1922143Y-12874524D01*
X1931667Y-12865000D01*
X1950714Y-12855476D01*
X2103095Y-13036428D02*
X2112619Y-13045952D01*
X2103095Y-13055476D01*
X2093571Y-13045952D01*
X2103095Y-13036428D01*
X2103095Y-13055476D01*
X2179286Y-12855476D02*
X2312619Y-12855476D01*
X2226905Y-13055476D01*
X2417381Y-12941190D02*
X2398333Y-12931667D01*
X2388810Y-12922143D01*
X2379286Y-12903095D01*
X2379286Y-12893571D01*
X2388810Y-12874524D01*
X2398333Y-12865000D01*
X2417381Y-12855476D01*
X2455476Y-12855476D01*
X2474524Y-12865000D01*
X2484048Y-12874524D01*
X2493571Y-12893571D01*
X2493571Y-12903095D01*
X2484048Y-12922143D01*
X2474524Y-12931667D01*
X2455476Y-12941190D01*
X2417381Y-12941190D01*
X2398333Y-12950714D01*
X2388810Y-12960238D01*
X2379286Y-12979286D01*
X2379286Y-13017381D01*
X2388810Y-13036428D01*
X2398333Y-13045952D01*
X2417381Y-13055476D01*
X2455476Y-13055476D01*
X2474524Y-13045952D01*
X2484048Y-13036428D01*
X2493571Y-13017381D01*
X2493571Y-12979286D01*
X2484048Y-12960238D01*
X2474524Y-12950714D01*
X2455476Y-12941190D01*
X2560238Y-12855476D02*
X2693571Y-12855476D01*
X2607857Y-13055476D01*
X2769762Y-13055476D02*
X2769762Y-12922143D01*
X2769762Y-12941190D02*
X2779286Y-12931667D01*
X2798333Y-12922143D01*
X2826905Y-12922143D01*
X2845952Y-12931667D01*
X2855476Y-12950714D01*
X2855476Y-13055476D01*
X2855476Y-12950714D02*
X2865000Y-12931667D01*
X2884048Y-12922143D01*
X2912619Y-12922143D01*
X2931667Y-12931667D01*
X2941190Y-12950714D01*
X2941190Y-13055476D01*
X3036428Y-13055476D02*
X3036428Y-12922143D01*
X3036428Y-12941190D02*
X3045952Y-12931667D01*
X3065000Y-12922143D01*
X3093571Y-12922143D01*
X3112619Y-12931667D01*
X3122143Y-12950714D01*
X3122143Y-13055476D01*
X3122143Y-12950714D02*
X3131667Y-12931667D01*
X3150714Y-12922143D01*
X3179286Y-12922143D01*
X3198333Y-12931667D01*
X3207857Y-12950714D01*
X3207857Y-13055476D01*
X3598333Y-12845952D02*
X3426905Y-13103095D01*
X3855476Y-12855476D02*
X3874524Y-12855476D01*
X3893571Y-12865000D01*
X3903095Y-12874524D01*
X3912619Y-12893571D01*
X3922143Y-12931667D01*
X3922143Y-12979286D01*
X3912619Y-13017381D01*
X3903095Y-13036428D01*
X3893571Y-13045952D01*
X3874524Y-13055476D01*
X3855476Y-13055476D01*
X3836428Y-13045952D01*
X3826905Y-13036428D01*
X3817381Y-13017381D01*
X3807857Y-12979286D01*
X3807857Y-12931667D01*
X3817381Y-12893571D01*
X3826905Y-12874524D01*
X3836428Y-12865000D01*
X3855476Y-12855476D01*
X4007857Y-13036428D02*
X4017381Y-13045952D01*
X4007857Y-13055476D01*
X3998333Y-13045952D01*
X4007857Y-13036428D01*
X4007857Y-13055476D01*
X4141190Y-12855476D02*
X4160238Y-12855476D01*
X4179286Y-12865000D01*
X4188809Y-12874524D01*
X4198333Y-12893571D01*
X4207857Y-12931667D01*
X4207857Y-12979286D01*
X4198333Y-13017381D01*
X4188809Y-13036428D01*
X4179286Y-13045952D01*
X4160238Y-13055476D01*
X4141190Y-13055476D01*
X4122143Y-13045952D01*
X4112619Y-13036428D01*
X4103095Y-13017381D01*
X4093571Y-12979286D01*
X4093571Y-12931667D01*
X4103095Y-12893571D01*
X4112619Y-12874524D01*
X4122143Y-12865000D01*
X4141190Y-12855476D01*
X4274524Y-12855476D02*
X4398333Y-12855476D01*
X4331667Y-12931667D01*
X4360238Y-12931667D01*
X4379286Y-12941190D01*
X4388810Y-12950714D01*
X4398333Y-12969762D01*
X4398333Y-13017381D01*
X4388810Y-13036428D01*
X4379286Y-13045952D01*
X4360238Y-13055476D01*
X4303095Y-13055476D01*
X4284048Y-13045952D01*
X4274524Y-13036428D01*
X4588810Y-13055476D02*
X4474524Y-13055476D01*
X4531667Y-13055476D02*
X4531667Y-12855476D01*
X4512619Y-12884048D01*
X4493571Y-12903095D01*
X4474524Y-12912619D01*
X4712619Y-12855476D02*
X4731667Y-12855476D01*
X4750714Y-12865000D01*
X4760238Y-12874524D01*
X4769762Y-12893571D01*
X4779286Y-12931667D01*
X4779286Y-12979286D01*
X4769762Y-13017381D01*
X4760238Y-13036428D01*
X4750714Y-13045952D01*
X4731667Y-13055476D01*
X4712619Y-13055476D01*
X4693571Y-13045952D01*
X4684048Y-13036428D01*
X4674524Y-13017381D01*
X4665000Y-12979286D01*
X4665000Y-12931667D01*
X4674524Y-12893571D01*
X4684048Y-12874524D01*
X4693571Y-12865000D01*
X4712619Y-12855476D01*
X4855476Y-12855476D02*
X4855476Y-12893571D01*
X4931667Y-12855476D02*
X4931667Y-12893571D01*
X5226905Y-13131667D02*
X5217381Y-13122143D01*
X5198333Y-13093571D01*
X5188810Y-13074524D01*
X5179286Y-13045952D01*
X5169762Y-12998333D01*
X5169762Y-12960238D01*
X5179286Y-12912619D01*
X5188810Y-12884048D01*
X5198333Y-12865000D01*
X5217381Y-12836428D01*
X5226905Y-12826905D01*
X5398333Y-12855476D02*
X5303095Y-12855476D01*
X5293571Y-12950714D01*
X5303095Y-12941190D01*
X5322143Y-12931667D01*
X5369762Y-12931667D01*
X5388810Y-12941190D01*
X5398333Y-12950714D01*
X5407857Y-12969762D01*
X5407857Y-13017381D01*
X5398333Y-13036428D01*
X5388810Y-13045952D01*
X5369762Y-13055476D01*
X5322143Y-13055476D01*
X5303095Y-13045952D01*
X5293571Y-13036428D01*
X5503095Y-13055476D02*
X5541190Y-13055476D01*
X5560238Y-13045952D01*
X5569762Y-13036428D01*
X5588810Y-13007857D01*
X5598333Y-12969762D01*
X5598333Y-12893571D01*
X5588810Y-12874524D01*
X5579286Y-12865000D01*
X5560238Y-12855476D01*
X5522143Y-12855476D01*
X5503095Y-12865000D01*
X5493571Y-12874524D01*
X5484048Y-12893571D01*
X5484048Y-12941190D01*
X5493571Y-12960238D01*
X5503095Y-12969762D01*
X5522143Y-12979286D01*
X5560238Y-12979286D01*
X5579286Y-12969762D01*
X5588810Y-12960238D01*
X5598333Y-12941190D01*
X5836428Y-13055476D02*
X5836428Y-12855476D01*
X5922143Y-13055476D02*
X5922143Y-12950714D01*
X5912619Y-12931667D01*
X5893571Y-12922143D01*
X5865000Y-12922143D01*
X5845952Y-12931667D01*
X5836428Y-12941190D01*
X6045952Y-13055476D02*
X6026905Y-13045952D01*
X6017381Y-13036428D01*
X6007857Y-13017381D01*
X6007857Y-12960238D01*
X6017381Y-12941190D01*
X6026905Y-12931667D01*
X6045952Y-12922143D01*
X6074524Y-12922143D01*
X6093571Y-12931667D01*
X6103095Y-12941190D01*
X6112619Y-12960238D01*
X6112619Y-13017381D01*
X6103095Y-13036428D01*
X6093571Y-13045952D01*
X6074524Y-13055476D01*
X6045952Y-13055476D01*
X6226905Y-13055476D02*
X6207857Y-13045952D01*
X6198333Y-13026905D01*
X6198333Y-12855476D01*
X6379286Y-13045952D02*
X6360238Y-13055476D01*
X6322143Y-13055476D01*
X6303095Y-13045952D01*
X6293571Y-13026905D01*
X6293571Y-12950714D01*
X6303095Y-12931667D01*
X6322143Y-12922143D01*
X6360238Y-12922143D01*
X6379286Y-12931667D01*
X6388809Y-12950714D01*
X6388809Y-12969762D01*
X6293571Y-12988809D01*
X6465000Y-13045952D02*
X6484048Y-13055476D01*
X6522143Y-13055476D01*
X6541190Y-13045952D01*
X6550714Y-13026905D01*
X6550714Y-13017381D01*
X6541190Y-12998333D01*
X6522143Y-12988809D01*
X6493571Y-12988809D01*
X6474524Y-12979286D01*
X6465000Y-12960238D01*
X6465000Y-12950714D01*
X6474524Y-12931667D01*
X6493571Y-12922143D01*
X6522143Y-12922143D01*
X6541190Y-12931667D01*
X6617381Y-13131667D02*
X6626905Y-13122143D01*
X6645952Y-13093571D01*
X6655476Y-13074524D01*
X6665000Y-13045952D01*
X6674524Y-12998333D01*
X6674524Y-12960238D01*
X6665000Y-12912619D01*
X6655476Y-12884048D01*
X6645952Y-12865000D01*
X6626905Y-12836428D01*
X6617381Y-12826905D01*
X6979286Y-13131667D02*
X6969762Y-13122143D01*
X6950714Y-13093571D01*
X6941190Y-13074524D01*
X6931667Y-13045952D01*
X6922143Y-12998333D01*
X6922143Y-12960238D01*
X6931667Y-12912619D01*
X6941190Y-12884048D01*
X6950714Y-12865000D01*
X6969762Y-12836428D01*
X6979286Y-12826905D01*
X7055476Y-12922143D02*
X7055476Y-13055476D01*
X7055476Y-12941190D02*
X7065000Y-12931667D01*
X7084048Y-12922143D01*
X7112619Y-12922143D01*
X7131667Y-12931667D01*
X7141190Y-12950714D01*
X7141190Y-13055476D01*
X7265000Y-13055476D02*
X7245952Y-13045952D01*
X7236428Y-13036428D01*
X7226905Y-13017381D01*
X7226905Y-12960238D01*
X7236428Y-12941190D01*
X7245952Y-12931667D01*
X7265000Y-12922143D01*
X7293571Y-12922143D01*
X7312619Y-12931667D01*
X7322143Y-12941190D01*
X7331667Y-12960238D01*
X7331667Y-13017381D01*
X7322143Y-13036428D01*
X7312619Y-13045952D01*
X7293571Y-13055476D01*
X7265000Y-13055476D01*
X7388809Y-12922143D02*
X7465000Y-12922143D01*
X7417381Y-12855476D02*
X7417381Y-13026905D01*
X7426905Y-13045952D01*
X7445952Y-13055476D01*
X7465000Y-13055476D01*
X7684048Y-12922143D02*
X7684048Y-13122143D01*
X7684048Y-12931667D02*
X7703095Y-12922143D01*
X7741190Y-12922143D01*
X7760238Y-12931667D01*
X7769762Y-12941190D01*
X7779286Y-12960238D01*
X7779286Y-13017381D01*
X7769762Y-13036428D01*
X7760238Y-13045952D01*
X7741190Y-13055476D01*
X7703095Y-13055476D01*
X7684048Y-13045952D01*
X7893571Y-13055476D02*
X7874524Y-13045952D01*
X7865000Y-13026905D01*
X7865000Y-12855476D01*
X8055476Y-13055476D02*
X8055476Y-12950714D01*
X8045952Y-12931667D01*
X8026905Y-12922143D01*
X7988809Y-12922143D01*
X7969762Y-12931667D01*
X8055476Y-13045952D02*
X8036428Y-13055476D01*
X7988809Y-13055476D01*
X7969762Y-13045952D01*
X7960238Y-13026905D01*
X7960238Y-13007857D01*
X7969762Y-12988809D01*
X7988809Y-12979286D01*
X8036428Y-12979286D01*
X8055476Y-12969762D01*
X8122143Y-12922143D02*
X8198333Y-12922143D01*
X8150714Y-12855476D02*
X8150714Y-13026905D01*
X8160238Y-13045952D01*
X8179286Y-13055476D01*
X8198333Y-13055476D01*
X8341190Y-13045952D02*
X8322143Y-13055476D01*
X8284048Y-13055476D01*
X8265000Y-13045952D01*
X8255476Y-13026905D01*
X8255476Y-12950714D01*
X8265000Y-12931667D01*
X8284048Y-12922143D01*
X8322143Y-12922143D01*
X8341190Y-12931667D01*
X8350714Y-12950714D01*
X8350714Y-12969762D01*
X8255476Y-12988809D01*
X8522143Y-13055476D02*
X8522143Y-12855476D01*
X8522143Y-13045952D02*
X8503095Y-13055476D01*
X8465000Y-13055476D01*
X8445952Y-13045952D01*
X8436429Y-13036428D01*
X8426905Y-13017381D01*
X8426905Y-12960238D01*
X8436429Y-12941190D01*
X8445952Y-12931667D01*
X8465000Y-12922143D01*
X8503095Y-12922143D01*
X8522143Y-12931667D01*
X8598333Y-13131667D02*
X8607857Y-13122143D01*
X8626905Y-13093571D01*
X8636429Y-13074524D01*
X8645952Y-13045952D01*
X8655476Y-12998333D01*
X8655476Y-12960238D01*
X8645952Y-12912619D01*
X8636429Y-12884048D01*
X8626905Y-12865000D01*
X8607857Y-12836428D01*
X8598333Y-12826905D01*
D13*
X1655000Y-13229000D02*
G75*
G03*
X1655000Y-13229000I-49530J0D01*
G01*
D11*
X1950714Y-13119476D02*
X1969762Y-13119476D01*
X1988809Y-13129000D01*
X1998333Y-13138524D01*
X2007857Y-13157571D01*
X2017381Y-13195667D01*
X2017381Y-13243286D01*
X2007857Y-13281381D01*
X1998333Y-13300428D01*
X1988809Y-13309952D01*
X1969762Y-13319476D01*
X1950714Y-13319476D01*
X1931667Y-13309952D01*
X1922143Y-13300428D01*
X1912619Y-13281381D01*
X1903095Y-13243286D01*
X1903095Y-13195667D01*
X1912619Y-13157571D01*
X1922143Y-13138524D01*
X1931667Y-13129000D01*
X1950714Y-13119476D01*
X2103095Y-13300428D02*
X2112619Y-13309952D01*
X2103095Y-13319476D01*
X2093571Y-13309952D01*
X2103095Y-13300428D01*
X2103095Y-13319476D01*
X2207857Y-13319476D02*
X2245952Y-13319476D01*
X2265000Y-13309952D01*
X2274524Y-13300428D01*
X2293571Y-13271857D01*
X2303095Y-13233762D01*
X2303095Y-13157571D01*
X2293571Y-13138524D01*
X2284048Y-13129000D01*
X2265000Y-13119476D01*
X2226905Y-13119476D01*
X2207857Y-13129000D01*
X2198333Y-13138524D01*
X2188810Y-13157571D01*
X2188810Y-13205190D01*
X2198333Y-13224238D01*
X2207857Y-13233762D01*
X2226905Y-13243286D01*
X2265000Y-13243286D01*
X2284048Y-13233762D01*
X2293571Y-13224238D01*
X2303095Y-13205190D01*
X2398333Y-13319476D02*
X2436429Y-13319476D01*
X2455476Y-13309952D01*
X2465000Y-13300428D01*
X2484048Y-13271857D01*
X2493571Y-13233762D01*
X2493571Y-13157571D01*
X2484048Y-13138524D01*
X2474524Y-13129000D01*
X2455476Y-13119476D01*
X2417381Y-13119476D01*
X2398333Y-13129000D01*
X2388810Y-13138524D01*
X2379286Y-13157571D01*
X2379286Y-13205190D01*
X2388810Y-13224238D01*
X2398333Y-13233762D01*
X2417381Y-13243286D01*
X2455476Y-13243286D01*
X2474524Y-13233762D01*
X2484048Y-13224238D01*
X2493571Y-13205190D01*
X2684048Y-13319476D02*
X2569762Y-13319476D01*
X2626905Y-13319476D02*
X2626905Y-13119476D01*
X2607857Y-13148048D01*
X2588810Y-13167095D01*
X2569762Y-13176619D01*
X2769762Y-13319476D02*
X2769762Y-13186143D01*
X2769762Y-13205190D02*
X2779286Y-13195667D01*
X2798333Y-13186143D01*
X2826905Y-13186143D01*
X2845952Y-13195667D01*
X2855476Y-13214714D01*
X2855476Y-13319476D01*
X2855476Y-13214714D02*
X2865000Y-13195667D01*
X2884048Y-13186143D01*
X2912619Y-13186143D01*
X2931667Y-13195667D01*
X2941190Y-13214714D01*
X2941190Y-13319476D01*
X3036428Y-13319476D02*
X3036428Y-13186143D01*
X3036428Y-13205190D02*
X3045952Y-13195667D01*
X3065000Y-13186143D01*
X3093571Y-13186143D01*
X3112619Y-13195667D01*
X3122143Y-13214714D01*
X3122143Y-13319476D01*
X3122143Y-13214714D02*
X3131667Y-13195667D01*
X3150714Y-13186143D01*
X3179286Y-13186143D01*
X3198333Y-13195667D01*
X3207857Y-13214714D01*
X3207857Y-13319476D01*
X3598333Y-13109952D02*
X3426905Y-13367095D01*
X3855476Y-13119476D02*
X3874524Y-13119476D01*
X3893571Y-13129000D01*
X3903095Y-13138524D01*
X3912619Y-13157571D01*
X3922143Y-13195667D01*
X3922143Y-13243286D01*
X3912619Y-13281381D01*
X3903095Y-13300428D01*
X3893571Y-13309952D01*
X3874524Y-13319476D01*
X3855476Y-13319476D01*
X3836428Y-13309952D01*
X3826905Y-13300428D01*
X3817381Y-13281381D01*
X3807857Y-13243286D01*
X3807857Y-13195667D01*
X3817381Y-13157571D01*
X3826905Y-13138524D01*
X3836428Y-13129000D01*
X3855476Y-13119476D01*
X4007857Y-13300428D02*
X4017381Y-13309952D01*
X4007857Y-13319476D01*
X3998333Y-13309952D01*
X4007857Y-13300428D01*
X4007857Y-13319476D01*
X4141190Y-13119476D02*
X4160238Y-13119476D01*
X4179286Y-13129000D01*
X4188809Y-13138524D01*
X4198333Y-13157571D01*
X4207857Y-13195667D01*
X4207857Y-13243286D01*
X4198333Y-13281381D01*
X4188809Y-13300428D01*
X4179286Y-13309952D01*
X4160238Y-13319476D01*
X4141190Y-13319476D01*
X4122143Y-13309952D01*
X4112619Y-13300428D01*
X4103095Y-13281381D01*
X4093571Y-13243286D01*
X4093571Y-13195667D01*
X4103095Y-13157571D01*
X4112619Y-13138524D01*
X4122143Y-13129000D01*
X4141190Y-13119476D01*
X4274524Y-13119476D02*
X4398333Y-13119476D01*
X4331667Y-13195667D01*
X4360238Y-13195667D01*
X4379286Y-13205190D01*
X4388810Y-13214714D01*
X4398333Y-13233762D01*
X4398333Y-13281381D01*
X4388810Y-13300428D01*
X4379286Y-13309952D01*
X4360238Y-13319476D01*
X4303095Y-13319476D01*
X4284048Y-13309952D01*
X4274524Y-13300428D01*
X4493571Y-13319476D02*
X4531667Y-13319476D01*
X4550714Y-13309952D01*
X4560238Y-13300428D01*
X4579286Y-13271857D01*
X4588810Y-13233762D01*
X4588810Y-13157571D01*
X4579286Y-13138524D01*
X4569762Y-13129000D01*
X4550714Y-13119476D01*
X4512619Y-13119476D01*
X4493571Y-13129000D01*
X4484048Y-13138524D01*
X4474524Y-13157571D01*
X4474524Y-13205190D01*
X4484048Y-13224238D01*
X4493571Y-13233762D01*
X4512619Y-13243286D01*
X4550714Y-13243286D01*
X4569762Y-13233762D01*
X4579286Y-13224238D01*
X4588810Y-13205190D01*
X4712619Y-13119476D02*
X4731667Y-13119476D01*
X4750714Y-13129000D01*
X4760238Y-13138524D01*
X4769762Y-13157571D01*
X4779286Y-13195667D01*
X4779286Y-13243286D01*
X4769762Y-13281381D01*
X4760238Y-13300428D01*
X4750714Y-13309952D01*
X4731667Y-13319476D01*
X4712619Y-13319476D01*
X4693571Y-13309952D01*
X4684048Y-13300428D01*
X4674524Y-13281381D01*
X4665000Y-13243286D01*
X4665000Y-13195667D01*
X4674524Y-13157571D01*
X4684048Y-13138524D01*
X4693571Y-13129000D01*
X4712619Y-13119476D01*
X4855476Y-13119476D02*
X4855476Y-13157571D01*
X4931667Y-13119476D02*
X4931667Y-13157571D01*
X5226905Y-13395667D02*
X5217381Y-13386143D01*
X5198333Y-13357571D01*
X5188810Y-13338524D01*
X5179286Y-13309952D01*
X5169762Y-13262333D01*
X5169762Y-13224238D01*
X5179286Y-13176619D01*
X5188810Y-13148048D01*
X5198333Y-13129000D01*
X5217381Y-13100428D01*
X5226905Y-13090905D01*
X5388810Y-13119476D02*
X5350714Y-13119476D01*
X5331667Y-13129000D01*
X5322143Y-13138524D01*
X5303095Y-13167095D01*
X5293571Y-13205190D01*
X5293571Y-13281381D01*
X5303095Y-13300428D01*
X5312619Y-13309952D01*
X5331667Y-13319476D01*
X5369762Y-13319476D01*
X5388810Y-13309952D01*
X5398333Y-13300428D01*
X5407857Y-13281381D01*
X5407857Y-13233762D01*
X5398333Y-13214714D01*
X5388810Y-13205190D01*
X5369762Y-13195667D01*
X5331667Y-13195667D01*
X5312619Y-13205190D01*
X5303095Y-13214714D01*
X5293571Y-13233762D01*
X5531667Y-13119476D02*
X5550714Y-13119476D01*
X5569762Y-13129000D01*
X5579286Y-13138524D01*
X5588810Y-13157571D01*
X5598333Y-13195667D01*
X5598333Y-13243286D01*
X5588810Y-13281381D01*
X5579286Y-13300428D01*
X5569762Y-13309952D01*
X5550714Y-13319476D01*
X5531667Y-13319476D01*
X5512619Y-13309952D01*
X5503095Y-13300428D01*
X5493571Y-13281381D01*
X5484048Y-13243286D01*
X5484048Y-13195667D01*
X5493571Y-13157571D01*
X5503095Y-13138524D01*
X5512619Y-13129000D01*
X5531667Y-13119476D01*
X5836428Y-13319476D02*
X5836428Y-13119476D01*
X5922143Y-13319476D02*
X5922143Y-13214714D01*
X5912619Y-13195667D01*
X5893571Y-13186143D01*
X5865000Y-13186143D01*
X5845952Y-13195667D01*
X5836428Y-13205190D01*
X6045952Y-13319476D02*
X6026905Y-13309952D01*
X6017381Y-13300428D01*
X6007857Y-13281381D01*
X6007857Y-13224238D01*
X6017381Y-13205190D01*
X6026905Y-13195667D01*
X6045952Y-13186143D01*
X6074524Y-13186143D01*
X6093571Y-13195667D01*
X6103095Y-13205190D01*
X6112619Y-13224238D01*
X6112619Y-13281381D01*
X6103095Y-13300428D01*
X6093571Y-13309952D01*
X6074524Y-13319476D01*
X6045952Y-13319476D01*
X6226905Y-13319476D02*
X6207857Y-13309952D01*
X6198333Y-13290905D01*
X6198333Y-13119476D01*
X6379286Y-13309952D02*
X6360238Y-13319476D01*
X6322143Y-13319476D01*
X6303095Y-13309952D01*
X6293571Y-13290905D01*
X6293571Y-13214714D01*
X6303095Y-13195667D01*
X6322143Y-13186143D01*
X6360238Y-13186143D01*
X6379286Y-13195667D01*
X6388809Y-13214714D01*
X6388809Y-13233762D01*
X6293571Y-13252809D01*
X6465000Y-13309952D02*
X6484048Y-13319476D01*
X6522143Y-13319476D01*
X6541190Y-13309952D01*
X6550714Y-13290905D01*
X6550714Y-13281381D01*
X6541190Y-13262333D01*
X6522143Y-13252809D01*
X6493571Y-13252809D01*
X6474524Y-13243286D01*
X6465000Y-13224238D01*
X6465000Y-13214714D01*
X6474524Y-13195667D01*
X6493571Y-13186143D01*
X6522143Y-13186143D01*
X6541190Y-13195667D01*
X6617381Y-13395667D02*
X6626905Y-13386143D01*
X6645952Y-13357571D01*
X6655476Y-13338524D01*
X6665000Y-13309952D01*
X6674524Y-13262333D01*
X6674524Y-13224238D01*
X6665000Y-13176619D01*
X6655476Y-13148048D01*
X6645952Y-13129000D01*
X6626905Y-13100428D01*
X6617381Y-13090905D01*
X6979286Y-13395667D02*
X6969762Y-13386143D01*
X6950714Y-13357571D01*
X6941190Y-13338524D01*
X6931667Y-13309952D01*
X6922143Y-13262333D01*
X6922143Y-13224238D01*
X6931667Y-13176619D01*
X6941190Y-13148048D01*
X6950714Y-13129000D01*
X6969762Y-13100428D01*
X6979286Y-13090905D01*
X7055476Y-13186143D02*
X7055476Y-13319476D01*
X7055476Y-13205190D02*
X7065000Y-13195667D01*
X7084048Y-13186143D01*
X7112619Y-13186143D01*
X7131667Y-13195667D01*
X7141190Y-13214714D01*
X7141190Y-13319476D01*
X7265000Y-13319476D02*
X7245952Y-13309952D01*
X7236428Y-13300428D01*
X7226905Y-13281381D01*
X7226905Y-13224238D01*
X7236428Y-13205190D01*
X7245952Y-13195667D01*
X7265000Y-13186143D01*
X7293571Y-13186143D01*
X7312619Y-13195667D01*
X7322143Y-13205190D01*
X7331667Y-13224238D01*
X7331667Y-13281381D01*
X7322143Y-13300428D01*
X7312619Y-13309952D01*
X7293571Y-13319476D01*
X7265000Y-13319476D01*
X7388809Y-13186143D02*
X7465000Y-13186143D01*
X7417381Y-13119476D02*
X7417381Y-13290905D01*
X7426905Y-13309952D01*
X7445952Y-13319476D01*
X7465000Y-13319476D01*
X7684048Y-13186143D02*
X7684048Y-13386143D01*
X7684048Y-13195667D02*
X7703095Y-13186143D01*
X7741190Y-13186143D01*
X7760238Y-13195667D01*
X7769762Y-13205190D01*
X7779286Y-13224238D01*
X7779286Y-13281381D01*
X7769762Y-13300428D01*
X7760238Y-13309952D01*
X7741190Y-13319476D01*
X7703095Y-13319476D01*
X7684048Y-13309952D01*
X7893571Y-13319476D02*
X7874524Y-13309952D01*
X7865000Y-13290905D01*
X7865000Y-13119476D01*
X8055476Y-13319476D02*
X8055476Y-13214714D01*
X8045952Y-13195667D01*
X8026905Y-13186143D01*
X7988809Y-13186143D01*
X7969762Y-13195667D01*
X8055476Y-13309952D02*
X8036428Y-13319476D01*
X7988809Y-13319476D01*
X7969762Y-13309952D01*
X7960238Y-13290905D01*
X7960238Y-13271857D01*
X7969762Y-13252809D01*
X7988809Y-13243286D01*
X8036428Y-13243286D01*
X8055476Y-13233762D01*
X8122143Y-13186143D02*
X8198333Y-13186143D01*
X8150714Y-13119476D02*
X8150714Y-13290905D01*
X8160238Y-13309952D01*
X8179286Y-13319476D01*
X8198333Y-13319476D01*
X8341190Y-13309952D02*
X8322143Y-13319476D01*
X8284048Y-13319476D01*
X8265000Y-13309952D01*
X8255476Y-13290905D01*
X8255476Y-13214714D01*
X8265000Y-13195667D01*
X8284048Y-13186143D01*
X8322143Y-13186143D01*
X8341190Y-13195667D01*
X8350714Y-13214714D01*
X8350714Y-13233762D01*
X8255476Y-13252809D01*
X8522143Y-13319476D02*
X8522143Y-13119476D01*
X8522143Y-13309952D02*
X8503095Y-13319476D01*
X8465000Y-13319476D01*
X8445952Y-13309952D01*
X8436429Y-13300428D01*
X8426905Y-13281381D01*
X8426905Y-13224238D01*
X8436429Y-13205190D01*
X8445952Y-13195667D01*
X8465000Y-13186143D01*
X8503095Y-13186143D01*
X8522143Y-13195667D01*
X8598333Y-13395667D02*
X8607857Y-13386143D01*
X8626905Y-13357571D01*
X8636429Y-13338524D01*
X8645952Y-13309952D01*
X8655476Y-13262333D01*
X8655476Y-13224238D01*
X8645952Y-13176619D01*
X8636429Y-13148048D01*
X8626905Y-13129000D01*
X8607857Y-13100428D01*
X8598333Y-13090905D01*
D14*
X1595000Y-13433000D02*
X1595000Y-13553000D01*
X1535000Y-13493000D02*
X1655000Y-13493000D01*
D11*
X2017381Y-13583476D02*
X1903095Y-13583476D01*
X1960238Y-13583476D02*
X1960238Y-13383476D01*
X1941190Y-13412048D01*
X1922143Y-13431095D01*
X1903095Y-13440619D01*
X2103095Y-13564428D02*
X2112619Y-13573952D01*
X2103095Y-13583476D01*
X2093571Y-13573952D01*
X2103095Y-13564428D01*
X2103095Y-13583476D01*
X2188810Y-13402524D02*
X2198333Y-13393000D01*
X2217381Y-13383476D01*
X2265000Y-13383476D01*
X2284048Y-13393000D01*
X2293571Y-13402524D01*
X2303095Y-13421571D01*
X2303095Y-13440619D01*
X2293571Y-13469190D01*
X2179286Y-13583476D01*
X2303095Y-13583476D01*
X2426905Y-13383476D02*
X2445952Y-13383476D01*
X2465000Y-13393000D01*
X2474524Y-13402524D01*
X2484048Y-13421571D01*
X2493571Y-13459667D01*
X2493571Y-13507286D01*
X2484048Y-13545381D01*
X2474524Y-13564428D01*
X2465000Y-13573952D01*
X2445952Y-13583476D01*
X2426905Y-13583476D01*
X2407857Y-13573952D01*
X2398333Y-13564428D01*
X2388810Y-13545381D01*
X2379286Y-13507286D01*
X2379286Y-13459667D01*
X2388810Y-13421571D01*
X2398333Y-13402524D01*
X2407857Y-13393000D01*
X2426905Y-13383476D01*
X2617381Y-13383476D02*
X2636429Y-13383476D01*
X2655476Y-13393000D01*
X2665000Y-13402524D01*
X2674524Y-13421571D01*
X2684048Y-13459667D01*
X2684048Y-13507286D01*
X2674524Y-13545381D01*
X2665000Y-13564428D01*
X2655476Y-13573952D01*
X2636429Y-13583476D01*
X2617381Y-13583476D01*
X2598333Y-13573952D01*
X2588810Y-13564428D01*
X2579286Y-13545381D01*
X2569762Y-13507286D01*
X2569762Y-13459667D01*
X2579286Y-13421571D01*
X2588810Y-13402524D01*
X2598333Y-13393000D01*
X2617381Y-13383476D01*
X2769762Y-13583476D02*
X2769762Y-13450143D01*
X2769762Y-13469190D02*
X2779286Y-13459667D01*
X2798333Y-13450143D01*
X2826905Y-13450143D01*
X2845952Y-13459667D01*
X2855476Y-13478714D01*
X2855476Y-13583476D01*
X2855476Y-13478714D02*
X2865000Y-13459667D01*
X2884048Y-13450143D01*
X2912619Y-13450143D01*
X2931667Y-13459667D01*
X2941190Y-13478714D01*
X2941190Y-13583476D01*
X3036428Y-13583476D02*
X3036428Y-13450143D01*
X3036428Y-13469190D02*
X3045952Y-13459667D01*
X3065000Y-13450143D01*
X3093571Y-13450143D01*
X3112619Y-13459667D01*
X3122143Y-13478714D01*
X3122143Y-13583476D01*
X3122143Y-13478714D02*
X3131667Y-13459667D01*
X3150714Y-13450143D01*
X3179286Y-13450143D01*
X3198333Y-13459667D01*
X3207857Y-13478714D01*
X3207857Y-13583476D01*
X3598333Y-13373952D02*
X3426905Y-13631095D01*
X3855476Y-13383476D02*
X3874524Y-13383476D01*
X3893571Y-13393000D01*
X3903095Y-13402524D01*
X3912619Y-13421571D01*
X3922143Y-13459667D01*
X3922143Y-13507286D01*
X3912619Y-13545381D01*
X3903095Y-13564428D01*
X3893571Y-13573952D01*
X3874524Y-13583476D01*
X3855476Y-13583476D01*
X3836428Y-13573952D01*
X3826905Y-13564428D01*
X3817381Y-13545381D01*
X3807857Y-13507286D01*
X3807857Y-13459667D01*
X3817381Y-13421571D01*
X3826905Y-13402524D01*
X3836428Y-13393000D01*
X3855476Y-13383476D01*
X4007857Y-13564428D02*
X4017381Y-13573952D01*
X4007857Y-13583476D01*
X3998333Y-13573952D01*
X4007857Y-13564428D01*
X4007857Y-13583476D01*
X4141190Y-13383476D02*
X4160238Y-13383476D01*
X4179286Y-13393000D01*
X4188809Y-13402524D01*
X4198333Y-13421571D01*
X4207857Y-13459667D01*
X4207857Y-13507286D01*
X4198333Y-13545381D01*
X4188809Y-13564428D01*
X4179286Y-13573952D01*
X4160238Y-13583476D01*
X4141190Y-13583476D01*
X4122143Y-13573952D01*
X4112619Y-13564428D01*
X4103095Y-13545381D01*
X4093571Y-13507286D01*
X4093571Y-13459667D01*
X4103095Y-13421571D01*
X4112619Y-13402524D01*
X4122143Y-13393000D01*
X4141190Y-13383476D01*
X4379286Y-13450143D02*
X4379286Y-13583476D01*
X4331667Y-13373952D02*
X4284048Y-13516809D01*
X4407857Y-13516809D01*
X4465000Y-13383476D02*
X4598333Y-13383476D01*
X4512619Y-13583476D01*
X4665000Y-13402524D02*
X4674524Y-13393000D01*
X4693571Y-13383476D01*
X4741190Y-13383476D01*
X4760238Y-13393000D01*
X4769762Y-13402524D01*
X4779286Y-13421571D01*
X4779286Y-13440619D01*
X4769762Y-13469190D01*
X4655476Y-13583476D01*
X4779286Y-13583476D01*
X4855476Y-13383476D02*
X4855476Y-13421571D01*
X4931667Y-13383476D02*
X4931667Y-13421571D01*
X5226905Y-13659667D02*
X5217381Y-13650143D01*
X5198333Y-13621571D01*
X5188810Y-13602524D01*
X5179286Y-13573952D01*
X5169762Y-13526333D01*
X5169762Y-13488238D01*
X5179286Y-13440619D01*
X5188810Y-13412048D01*
X5198333Y-13393000D01*
X5217381Y-13364428D01*
X5226905Y-13354905D01*
X5407857Y-13583476D02*
X5293571Y-13583476D01*
X5350714Y-13583476D02*
X5350714Y-13383476D01*
X5331667Y-13412048D01*
X5312619Y-13431095D01*
X5293571Y-13440619D01*
X5645952Y-13583476D02*
X5645952Y-13383476D01*
X5731667Y-13583476D02*
X5731667Y-13478714D01*
X5722143Y-13459667D01*
X5703095Y-13450143D01*
X5674524Y-13450143D01*
X5655476Y-13459667D01*
X5645952Y-13469190D01*
X5855476Y-13583476D02*
X5836428Y-13573952D01*
X5826905Y-13564428D01*
X5817381Y-13545381D01*
X5817381Y-13488238D01*
X5826905Y-13469190D01*
X5836428Y-13459667D01*
X5855476Y-13450143D01*
X5884048Y-13450143D01*
X5903095Y-13459667D01*
X5912619Y-13469190D01*
X5922143Y-13488238D01*
X5922143Y-13545381D01*
X5912619Y-13564428D01*
X5903095Y-13573952D01*
X5884048Y-13583476D01*
X5855476Y-13583476D01*
X6036428Y-13583476D02*
X6017381Y-13573952D01*
X6007857Y-13554905D01*
X6007857Y-13383476D01*
X6188809Y-13573952D02*
X6169762Y-13583476D01*
X6131667Y-13583476D01*
X6112619Y-13573952D01*
X6103095Y-13554905D01*
X6103095Y-13478714D01*
X6112619Y-13459667D01*
X6131667Y-13450143D01*
X6169762Y-13450143D01*
X6188809Y-13459667D01*
X6198333Y-13478714D01*
X6198333Y-13497762D01*
X6103095Y-13516809D01*
X6265000Y-13659667D02*
X6274524Y-13650143D01*
X6293571Y-13621571D01*
X6303095Y-13602524D01*
X6312619Y-13573952D01*
X6322143Y-13526333D01*
X6322143Y-13488238D01*
X6312619Y-13440619D01*
X6303095Y-13412048D01*
X6293571Y-13393000D01*
X6274524Y-13364428D01*
X6265000Y-13354905D01*
X6626905Y-13659667D02*
X6617381Y-13650143D01*
X6598333Y-13621571D01*
X6588809Y-13602524D01*
X6579286Y-13573952D01*
X6569762Y-13526333D01*
X6569762Y-13488238D01*
X6579286Y-13440619D01*
X6588809Y-13412048D01*
X6598333Y-13393000D01*
X6617381Y-13364428D01*
X6626905Y-13354905D01*
X6703095Y-13450143D02*
X6703095Y-13583476D01*
X6703095Y-13469190D02*
X6712619Y-13459667D01*
X6731667Y-13450143D01*
X6760238Y-13450143D01*
X6779286Y-13459667D01*
X6788809Y-13478714D01*
X6788809Y-13583476D01*
X6912619Y-13583476D02*
X6893571Y-13573952D01*
X6884048Y-13564428D01*
X6874524Y-13545381D01*
X6874524Y-13488238D01*
X6884048Y-13469190D01*
X6893571Y-13459667D01*
X6912619Y-13450143D01*
X6941190Y-13450143D01*
X6960238Y-13459667D01*
X6969762Y-13469190D01*
X6979286Y-13488238D01*
X6979286Y-13545381D01*
X6969762Y-13564428D01*
X6960238Y-13573952D01*
X6941190Y-13583476D01*
X6912619Y-13583476D01*
X7036428Y-13450143D02*
X7112619Y-13450143D01*
X7065000Y-13383476D02*
X7065000Y-13554905D01*
X7074524Y-13573952D01*
X7093571Y-13583476D01*
X7112619Y-13583476D01*
X7331667Y-13450143D02*
X7331667Y-13650143D01*
X7331667Y-13459667D02*
X7350714Y-13450143D01*
X7388809Y-13450143D01*
X7407857Y-13459667D01*
X7417381Y-13469190D01*
X7426905Y-13488238D01*
X7426905Y-13545381D01*
X7417381Y-13564428D01*
X7407857Y-13573952D01*
X7388809Y-13583476D01*
X7350714Y-13583476D01*
X7331667Y-13573952D01*
X7541190Y-13583476D02*
X7522143Y-13573952D01*
X7512619Y-13554905D01*
X7512619Y-13383476D01*
X7703095Y-13583476D02*
X7703095Y-13478714D01*
X7693571Y-13459667D01*
X7674524Y-13450143D01*
X7636428Y-13450143D01*
X7617381Y-13459667D01*
X7703095Y-13573952D02*
X7684048Y-13583476D01*
X7636428Y-13583476D01*
X7617381Y-13573952D01*
X7607857Y-13554905D01*
X7607857Y-13535857D01*
X7617381Y-13516809D01*
X7636428Y-13507286D01*
X7684048Y-13507286D01*
X7703095Y-13497762D01*
X7769762Y-13450143D02*
X7845952Y-13450143D01*
X7798333Y-13383476D02*
X7798333Y-13554905D01*
X7807857Y-13573952D01*
X7826905Y-13583476D01*
X7845952Y-13583476D01*
X7988809Y-13573952D02*
X7969762Y-13583476D01*
X7931667Y-13583476D01*
X7912619Y-13573952D01*
X7903095Y-13554905D01*
X7903095Y-13478714D01*
X7912619Y-13459667D01*
X7931667Y-13450143D01*
X7969762Y-13450143D01*
X7988809Y-13459667D01*
X7998333Y-13478714D01*
X7998333Y-13497762D01*
X7903095Y-13516809D01*
X8169762Y-13583476D02*
X8169762Y-13383476D01*
X8169762Y-13573952D02*
X8150714Y-13583476D01*
X8112619Y-13583476D01*
X8093571Y-13573952D01*
X8084048Y-13564428D01*
X8074524Y-13545381D01*
X8074524Y-13488238D01*
X8084048Y-13469190D01*
X8093571Y-13459667D01*
X8112619Y-13450143D01*
X8150714Y-13450143D01*
X8169762Y-13459667D01*
X8245952Y-13659667D02*
X8255476Y-13650143D01*
X8274524Y-13621571D01*
X8284048Y-13602524D01*
X8293571Y-13573952D01*
X8303095Y-13526333D01*
X8303095Y-13488238D01*
X8293571Y-13440619D01*
X8284048Y-13412048D01*
X8274524Y-13393000D01*
X8255476Y-13364428D01*
X8245952Y-13354905D01*
D15*
X1630078Y-13817168D02*
X1630078Y-13696832D01*
X1509742Y-13696832D01*
X1509742Y-13817168D01*
X1630078Y-13817168D01*
D11*
X2017381Y-13847476D02*
X1903095Y-13847476D01*
X1960238Y-13847476D02*
X1960238Y-13647476D01*
X1941190Y-13676048D01*
X1922143Y-13695095D01*
X1903095Y-13704619D01*
X2103095Y-13828428D02*
X2112619Y-13837952D01*
X2103095Y-13847476D01*
X2093571Y-13837952D01*
X2103095Y-13828428D01*
X2103095Y-13847476D01*
X2179286Y-13647476D02*
X2312619Y-13647476D01*
X2226905Y-13847476D01*
X2426905Y-13647476D02*
X2445952Y-13647476D01*
X2465000Y-13657000D01*
X2474524Y-13666524D01*
X2484048Y-13685571D01*
X2493571Y-13723667D01*
X2493571Y-13771286D01*
X2484048Y-13809381D01*
X2474524Y-13828428D01*
X2465000Y-13837952D01*
X2445952Y-13847476D01*
X2426905Y-13847476D01*
X2407857Y-13837952D01*
X2398333Y-13828428D01*
X2388810Y-13809381D01*
X2379286Y-13771286D01*
X2379286Y-13723667D01*
X2388810Y-13685571D01*
X2398333Y-13666524D01*
X2407857Y-13657000D01*
X2426905Y-13647476D01*
X2569762Y-13666524D02*
X2579286Y-13657000D01*
X2598333Y-13647476D01*
X2645952Y-13647476D01*
X2665000Y-13657000D01*
X2674524Y-13666524D01*
X2684048Y-13685571D01*
X2684048Y-13704619D01*
X2674524Y-13733190D01*
X2560238Y-13847476D01*
X2684048Y-13847476D01*
X2769762Y-13847476D02*
X2769762Y-13714143D01*
X2769762Y-13733190D02*
X2779286Y-13723667D01*
X2798333Y-13714143D01*
X2826905Y-13714143D01*
X2845952Y-13723667D01*
X2855476Y-13742714D01*
X2855476Y-13847476D01*
X2855476Y-13742714D02*
X2865000Y-13723667D01*
X2884048Y-13714143D01*
X2912619Y-13714143D01*
X2931667Y-13723667D01*
X2941190Y-13742714D01*
X2941190Y-13847476D01*
X3036428Y-13847476D02*
X3036428Y-13714143D01*
X3036428Y-13733190D02*
X3045952Y-13723667D01*
X3065000Y-13714143D01*
X3093571Y-13714143D01*
X3112619Y-13723667D01*
X3122143Y-13742714D01*
X3122143Y-13847476D01*
X3122143Y-13742714D02*
X3131667Y-13723667D01*
X3150714Y-13714143D01*
X3179286Y-13714143D01*
X3198333Y-13723667D01*
X3207857Y-13742714D01*
X3207857Y-13847476D01*
X3598333Y-13637952D02*
X3426905Y-13895095D01*
X3855476Y-13647476D02*
X3874524Y-13647476D01*
X3893571Y-13657000D01*
X3903095Y-13666524D01*
X3912619Y-13685571D01*
X3922143Y-13723667D01*
X3922143Y-13771286D01*
X3912619Y-13809381D01*
X3903095Y-13828428D01*
X3893571Y-13837952D01*
X3874524Y-13847476D01*
X3855476Y-13847476D01*
X3836428Y-13837952D01*
X3826905Y-13828428D01*
X3817381Y-13809381D01*
X3807857Y-13771286D01*
X3807857Y-13723667D01*
X3817381Y-13685571D01*
X3826905Y-13666524D01*
X3836428Y-13657000D01*
X3855476Y-13647476D01*
X4007857Y-13828428D02*
X4017381Y-13837952D01*
X4007857Y-13847476D01*
X3998333Y-13837952D01*
X4007857Y-13828428D01*
X4007857Y-13847476D01*
X4141190Y-13647476D02*
X4160238Y-13647476D01*
X4179286Y-13657000D01*
X4188809Y-13666524D01*
X4198333Y-13685571D01*
X4207857Y-13723667D01*
X4207857Y-13771286D01*
X4198333Y-13809381D01*
X4188809Y-13828428D01*
X4179286Y-13837952D01*
X4160238Y-13847476D01*
X4141190Y-13847476D01*
X4122143Y-13837952D01*
X4112619Y-13828428D01*
X4103095Y-13809381D01*
X4093571Y-13771286D01*
X4093571Y-13723667D01*
X4103095Y-13685571D01*
X4112619Y-13666524D01*
X4122143Y-13657000D01*
X4141190Y-13647476D01*
X4379286Y-13647476D02*
X4341190Y-13647476D01*
X4322143Y-13657000D01*
X4312619Y-13666524D01*
X4293571Y-13695095D01*
X4284048Y-13733190D01*
X4284048Y-13809381D01*
X4293571Y-13828428D01*
X4303095Y-13837952D01*
X4322143Y-13847476D01*
X4360238Y-13847476D01*
X4379286Y-13837952D01*
X4388810Y-13828428D01*
X4398333Y-13809381D01*
X4398333Y-13761762D01*
X4388810Y-13742714D01*
X4379286Y-13733190D01*
X4360238Y-13723667D01*
X4322143Y-13723667D01*
X4303095Y-13733190D01*
X4293571Y-13742714D01*
X4284048Y-13761762D01*
X4465000Y-13647476D02*
X4598333Y-13647476D01*
X4512619Y-13847476D01*
X4712619Y-13647476D02*
X4731667Y-13647476D01*
X4750714Y-13657000D01*
X4760238Y-13666524D01*
X4769762Y-13685571D01*
X4779286Y-13723667D01*
X4779286Y-13771286D01*
X4769762Y-13809381D01*
X4760238Y-13828428D01*
X4750714Y-13837952D01*
X4731667Y-13847476D01*
X4712619Y-13847476D01*
X4693571Y-13837952D01*
X4684048Y-13828428D01*
X4674524Y-13809381D01*
X4665000Y-13771286D01*
X4665000Y-13723667D01*
X4674524Y-13685571D01*
X4684048Y-13666524D01*
X4693571Y-13657000D01*
X4712619Y-13647476D01*
X4855476Y-13647476D02*
X4855476Y-13685571D01*
X4931667Y-13647476D02*
X4931667Y-13685571D01*
X5226905Y-13923667D02*
X5217381Y-13914143D01*
X5198333Y-13885571D01*
X5188810Y-13866524D01*
X5179286Y-13837952D01*
X5169762Y-13790333D01*
X5169762Y-13752238D01*
X5179286Y-13704619D01*
X5188810Y-13676048D01*
X5198333Y-13657000D01*
X5217381Y-13628428D01*
X5226905Y-13618905D01*
X5407857Y-13847476D02*
X5293571Y-13847476D01*
X5350714Y-13847476D02*
X5350714Y-13647476D01*
X5331667Y-13676048D01*
X5312619Y-13695095D01*
X5293571Y-13704619D01*
X5484048Y-13666524D02*
X5493571Y-13657000D01*
X5512619Y-13647476D01*
X5560238Y-13647476D01*
X5579286Y-13657000D01*
X5588810Y-13666524D01*
X5598333Y-13685571D01*
X5598333Y-13704619D01*
X5588810Y-13733190D01*
X5474524Y-13847476D01*
X5598333Y-13847476D01*
X5722143Y-13647476D02*
X5741190Y-13647476D01*
X5760238Y-13657000D01*
X5769762Y-13666524D01*
X5779286Y-13685571D01*
X5788809Y-13723667D01*
X5788809Y-13771286D01*
X5779286Y-13809381D01*
X5769762Y-13828428D01*
X5760238Y-13837952D01*
X5741190Y-13847476D01*
X5722143Y-13847476D01*
X5703095Y-13837952D01*
X5693571Y-13828428D01*
X5684048Y-13809381D01*
X5674524Y-13771286D01*
X5674524Y-13723667D01*
X5684048Y-13685571D01*
X5693571Y-13666524D01*
X5703095Y-13657000D01*
X5722143Y-13647476D01*
X6026905Y-13847476D02*
X6026905Y-13647476D01*
X6112619Y-13847476D02*
X6112619Y-13742714D01*
X6103095Y-13723667D01*
X6084048Y-13714143D01*
X6055476Y-13714143D01*
X6036428Y-13723667D01*
X6026905Y-13733190D01*
X6236428Y-13847476D02*
X6217381Y-13837952D01*
X6207857Y-13828428D01*
X6198333Y-13809381D01*
X6198333Y-13752238D01*
X6207857Y-13733190D01*
X6217381Y-13723667D01*
X6236428Y-13714143D01*
X6265000Y-13714143D01*
X6284048Y-13723667D01*
X6293571Y-13733190D01*
X6303095Y-13752238D01*
X6303095Y-13809381D01*
X6293571Y-13828428D01*
X6284048Y-13837952D01*
X6265000Y-13847476D01*
X6236428Y-13847476D01*
X6417381Y-13847476D02*
X6398333Y-13837952D01*
X6388809Y-13818905D01*
X6388809Y-13647476D01*
X6569762Y-13837952D02*
X6550714Y-13847476D01*
X6512619Y-13847476D01*
X6493571Y-13837952D01*
X6484048Y-13818905D01*
X6484048Y-13742714D01*
X6493571Y-13723667D01*
X6512619Y-13714143D01*
X6550714Y-13714143D01*
X6569762Y-13723667D01*
X6579286Y-13742714D01*
X6579286Y-13761762D01*
X6484048Y-13780809D01*
X6655476Y-13837952D02*
X6674524Y-13847476D01*
X6712619Y-13847476D01*
X6731667Y-13837952D01*
X6741190Y-13818905D01*
X6741190Y-13809381D01*
X6731667Y-13790333D01*
X6712619Y-13780809D01*
X6684048Y-13780809D01*
X6665000Y-13771286D01*
X6655476Y-13752238D01*
X6655476Y-13742714D01*
X6665000Y-13723667D01*
X6684048Y-13714143D01*
X6712619Y-13714143D01*
X6731667Y-13723667D01*
X6807857Y-13923667D02*
X6817381Y-13914143D01*
X6836428Y-13885571D01*
X6845952Y-13866524D01*
X6855476Y-13837952D01*
X6865000Y-13790333D01*
X6865000Y-13752238D01*
X6855476Y-13704619D01*
X6845952Y-13676048D01*
X6836428Y-13657000D01*
X6817381Y-13628428D01*
X6807857Y-13618905D01*
X7169762Y-13923667D02*
X7160238Y-13914143D01*
X7141190Y-13885571D01*
X7131667Y-13866524D01*
X7122143Y-13837952D01*
X7112619Y-13790333D01*
X7112619Y-13752238D01*
X7122143Y-13704619D01*
X7131667Y-13676048D01*
X7141190Y-13657000D01*
X7160238Y-13628428D01*
X7169762Y-13618905D01*
X7245952Y-13714143D02*
X7245952Y-13847476D01*
X7245952Y-13733190D02*
X7255476Y-13723667D01*
X7274524Y-13714143D01*
X7303095Y-13714143D01*
X7322143Y-13723667D01*
X7331667Y-13742714D01*
X7331667Y-13847476D01*
X7455476Y-13847476D02*
X7436428Y-13837952D01*
X7426905Y-13828428D01*
X7417381Y-13809381D01*
X7417381Y-13752238D01*
X7426905Y-13733190D01*
X7436428Y-13723667D01*
X7455476Y-13714143D01*
X7484048Y-13714143D01*
X7503095Y-13723667D01*
X7512619Y-13733190D01*
X7522143Y-13752238D01*
X7522143Y-13809381D01*
X7512619Y-13828428D01*
X7503095Y-13837952D01*
X7484048Y-13847476D01*
X7455476Y-13847476D01*
X7579286Y-13714143D02*
X7655476Y-13714143D01*
X7607857Y-13647476D02*
X7607857Y-13818905D01*
X7617381Y-13837952D01*
X7636428Y-13847476D01*
X7655476Y-13847476D01*
X7874524Y-13714143D02*
X7874524Y-13914143D01*
X7874524Y-13723667D02*
X7893571Y-13714143D01*
X7931667Y-13714143D01*
X7950714Y-13723667D01*
X7960238Y-13733190D01*
X7969762Y-13752238D01*
X7969762Y-13809381D01*
X7960238Y-13828428D01*
X7950714Y-13837952D01*
X7931667Y-13847476D01*
X7893571Y-13847476D01*
X7874524Y-13837952D01*
X8084048Y-13847476D02*
X8065000Y-13837952D01*
X8055476Y-13818905D01*
X8055476Y-13647476D01*
X8245952Y-13847476D02*
X8245952Y-13742714D01*
X8236428Y-13723667D01*
X8217381Y-13714143D01*
X8179286Y-13714143D01*
X8160238Y-13723667D01*
X8245952Y-13837952D02*
X8226905Y-13847476D01*
X8179286Y-13847476D01*
X8160238Y-13837952D01*
X8150714Y-13818905D01*
X8150714Y-13799857D01*
X8160238Y-13780809D01*
X8179286Y-13771286D01*
X8226905Y-13771286D01*
X8245952Y-13761762D01*
X8312619Y-13714143D02*
X8388810Y-13714143D01*
X8341190Y-13647476D02*
X8341190Y-13818905D01*
X8350714Y-13837952D01*
X8369762Y-13847476D01*
X8388810Y-13847476D01*
X8531667Y-13837952D02*
X8512619Y-13847476D01*
X8474524Y-13847476D01*
X8455476Y-13837952D01*
X8445952Y-13818905D01*
X8445952Y-13742714D01*
X8455476Y-13723667D01*
X8474524Y-13714143D01*
X8512619Y-13714143D01*
X8531667Y-13723667D01*
X8541190Y-13742714D01*
X8541190Y-13761762D01*
X8445952Y-13780809D01*
X8712619Y-13847476D02*
X8712619Y-13647476D01*
X8712619Y-13837952D02*
X8693571Y-13847476D01*
X8655476Y-13847476D01*
X8636429Y-13837952D01*
X8626905Y-13828428D01*
X8617381Y-13809381D01*
X8617381Y-13752238D01*
X8626905Y-13733190D01*
X8636429Y-13723667D01*
X8655476Y-13714143D01*
X8693571Y-13714143D01*
X8712619Y-13723667D01*
X8788810Y-13923667D02*
X8798333Y-13914143D01*
X8817381Y-13885571D01*
X8826905Y-13866524D01*
X8836429Y-13837952D01*
X8845952Y-13790333D01*
X8845952Y-13752238D01*
X8836429Y-13704619D01*
X8826905Y-13676048D01*
X8817381Y-13657000D01*
X8798333Y-13628428D01*
X8788810Y-13618905D01*
X1555000Y-14147180D02*
X1655000Y-14047180D01*
X1555000Y-13947180D01*
X1455000Y-14047180D01*
X1555000Y-14147180D01*
X1893571Y-13937656D02*
X2017381Y-13937656D01*
X1950714Y-14013847D01*
X1979286Y-14013847D01*
X1998333Y-14023370D01*
X2007857Y-14032894D01*
X2017381Y-14051942D01*
X2017381Y-14099561D01*
X2007857Y-14118608D01*
X1998333Y-14128132D01*
X1979286Y-14137656D01*
X1922143Y-14137656D01*
X1903095Y-14128132D01*
X1893571Y-14118608D01*
X2103095Y-14118608D02*
X2112619Y-14128132D01*
X2103095Y-14137656D01*
X2093571Y-14128132D01*
X2103095Y-14118608D01*
X2103095Y-14137656D01*
X2284048Y-14004323D02*
X2284048Y-14137656D01*
X2236429Y-13928132D02*
X2188810Y-14070989D01*
X2312619Y-14070989D01*
X2379286Y-13956704D02*
X2388810Y-13947180D01*
X2407857Y-13937656D01*
X2455476Y-13937656D01*
X2474524Y-13947180D01*
X2484048Y-13956704D01*
X2493571Y-13975751D01*
X2493571Y-13994799D01*
X2484048Y-14023370D01*
X2369762Y-14137656D01*
X2493571Y-14137656D01*
X2588810Y-14137656D02*
X2626905Y-14137656D01*
X2645952Y-14128132D01*
X2655476Y-14118608D01*
X2674524Y-14090037D01*
X2684048Y-14051942D01*
X2684048Y-13975751D01*
X2674524Y-13956704D01*
X2665000Y-13947180D01*
X2645952Y-13937656D01*
X2607857Y-13937656D01*
X2588810Y-13947180D01*
X2579286Y-13956704D01*
X2569762Y-13975751D01*
X2569762Y-14023370D01*
X2579286Y-14042418D01*
X2588810Y-14051942D01*
X2607857Y-14061466D01*
X2645952Y-14061466D01*
X2665000Y-14051942D01*
X2674524Y-14042418D01*
X2684048Y-14023370D01*
X2769762Y-14137656D02*
X2769762Y-14004323D01*
X2769762Y-14023370D02*
X2779286Y-14013847D01*
X2798333Y-14004323D01*
X2826905Y-14004323D01*
X2845952Y-14013847D01*
X2855476Y-14032894D01*
X2855476Y-14137656D01*
X2855476Y-14032894D02*
X2865000Y-14013847D01*
X2884048Y-14004323D01*
X2912619Y-14004323D01*
X2931667Y-14013847D01*
X2941190Y-14032894D01*
X2941190Y-14137656D01*
X3036428Y-14137656D02*
X3036428Y-14004323D01*
X3036428Y-14023370D02*
X3045952Y-14013847D01*
X3065000Y-14004323D01*
X3093571Y-14004323D01*
X3112619Y-14013847D01*
X3122143Y-14032894D01*
X3122143Y-14137656D01*
X3122143Y-14032894D02*
X3131667Y-14013847D01*
X3150714Y-14004323D01*
X3179286Y-14004323D01*
X3198333Y-14013847D01*
X3207857Y-14032894D01*
X3207857Y-14137656D01*
X3598333Y-13928132D02*
X3426905Y-14185275D01*
X3855476Y-13937656D02*
X3874524Y-13937656D01*
X3893571Y-13947180D01*
X3903095Y-13956704D01*
X3912619Y-13975751D01*
X3922143Y-14013847D01*
X3922143Y-14061466D01*
X3912619Y-14099561D01*
X3903095Y-14118608D01*
X3893571Y-14128132D01*
X3874524Y-14137656D01*
X3855476Y-14137656D01*
X3836428Y-14128132D01*
X3826905Y-14118608D01*
X3817381Y-14099561D01*
X3807857Y-14061466D01*
X3807857Y-14013847D01*
X3817381Y-13975751D01*
X3826905Y-13956704D01*
X3836428Y-13947180D01*
X3855476Y-13937656D01*
X4007857Y-14118608D02*
X4017381Y-14128132D01*
X4007857Y-14137656D01*
X3998333Y-14128132D01*
X4007857Y-14118608D01*
X4007857Y-14137656D01*
X4207857Y-14137656D02*
X4093571Y-14137656D01*
X4150714Y-14137656D02*
X4150714Y-13937656D01*
X4131667Y-13966228D01*
X4112619Y-13985275D01*
X4093571Y-13994799D01*
X4274524Y-13937656D02*
X4398333Y-13937656D01*
X4331667Y-14013847D01*
X4360238Y-14013847D01*
X4379286Y-14023370D01*
X4388810Y-14032894D01*
X4398333Y-14051942D01*
X4398333Y-14099561D01*
X4388810Y-14118608D01*
X4379286Y-14128132D01*
X4360238Y-14137656D01*
X4303095Y-14137656D01*
X4284048Y-14128132D01*
X4274524Y-14118608D01*
X4579286Y-13937656D02*
X4484048Y-13937656D01*
X4474524Y-14032894D01*
X4484048Y-14023370D01*
X4503095Y-14013847D01*
X4550714Y-14013847D01*
X4569762Y-14023370D01*
X4579286Y-14032894D01*
X4588810Y-14051942D01*
X4588810Y-14099561D01*
X4579286Y-14118608D01*
X4569762Y-14128132D01*
X4550714Y-14137656D01*
X4503095Y-14137656D01*
X4484048Y-14128132D01*
X4474524Y-14118608D01*
X4712619Y-13937656D02*
X4731667Y-13937656D01*
X4750714Y-13947180D01*
X4760238Y-13956704D01*
X4769762Y-13975751D01*
X4779286Y-14013847D01*
X4779286Y-14061466D01*
X4769762Y-14099561D01*
X4760238Y-14118608D01*
X4750714Y-14128132D01*
X4731667Y-14137656D01*
X4712619Y-14137656D01*
X4693571Y-14128132D01*
X4684048Y-14118608D01*
X4674524Y-14099561D01*
X4665000Y-14061466D01*
X4665000Y-14013847D01*
X4674524Y-13975751D01*
X4684048Y-13956704D01*
X4693571Y-13947180D01*
X4712619Y-13937656D01*
X4855476Y-13937656D02*
X4855476Y-13975751D01*
X4931667Y-13937656D02*
X4931667Y-13975751D01*
X5226905Y-14213847D02*
X5217381Y-14204323D01*
X5198333Y-14175751D01*
X5188810Y-14156704D01*
X5179286Y-14128132D01*
X5169762Y-14080513D01*
X5169762Y-14042418D01*
X5179286Y-13994799D01*
X5188810Y-13966228D01*
X5198333Y-13947180D01*
X5217381Y-13918608D01*
X5226905Y-13909085D01*
X5388810Y-13937656D02*
X5350714Y-13937656D01*
X5331667Y-13947180D01*
X5322143Y-13956704D01*
X5303095Y-13985275D01*
X5293571Y-14023370D01*
X5293571Y-14099561D01*
X5303095Y-14118608D01*
X5312619Y-14128132D01*
X5331667Y-14137656D01*
X5369762Y-14137656D01*
X5388810Y-14128132D01*
X5398333Y-14118608D01*
X5407857Y-14099561D01*
X5407857Y-14051942D01*
X5398333Y-14032894D01*
X5388810Y-14023370D01*
X5369762Y-14013847D01*
X5331667Y-14013847D01*
X5312619Y-14023370D01*
X5303095Y-14032894D01*
X5293571Y-14051942D01*
X5531667Y-13937656D02*
X5550714Y-13937656D01*
X5569762Y-13947180D01*
X5579286Y-13956704D01*
X5588810Y-13975751D01*
X5598333Y-14013847D01*
X5598333Y-14061466D01*
X5588810Y-14099561D01*
X5579286Y-14118608D01*
X5569762Y-14128132D01*
X5550714Y-14137656D01*
X5531667Y-14137656D01*
X5512619Y-14128132D01*
X5503095Y-14118608D01*
X5493571Y-14099561D01*
X5484048Y-14061466D01*
X5484048Y-14013847D01*
X5493571Y-13975751D01*
X5503095Y-13956704D01*
X5512619Y-13947180D01*
X5531667Y-13937656D01*
X5836428Y-14137656D02*
X5836428Y-13937656D01*
X5922143Y-14137656D02*
X5922143Y-14032894D01*
X5912619Y-14013847D01*
X5893571Y-14004323D01*
X5865000Y-14004323D01*
X5845952Y-14013847D01*
X5836428Y-14023370D01*
X6045952Y-14137656D02*
X6026905Y-14128132D01*
X6017381Y-14118608D01*
X6007857Y-14099561D01*
X6007857Y-14042418D01*
X6017381Y-14023370D01*
X6026905Y-14013847D01*
X6045952Y-14004323D01*
X6074524Y-14004323D01*
X6093571Y-14013847D01*
X6103095Y-14023370D01*
X6112619Y-14042418D01*
X6112619Y-14099561D01*
X6103095Y-14118608D01*
X6093571Y-14128132D01*
X6074524Y-14137656D01*
X6045952Y-14137656D01*
X6226905Y-14137656D02*
X6207857Y-14128132D01*
X6198333Y-14109085D01*
X6198333Y-13937656D01*
X6379286Y-14128132D02*
X6360238Y-14137656D01*
X6322143Y-14137656D01*
X6303095Y-14128132D01*
X6293571Y-14109085D01*
X6293571Y-14032894D01*
X6303095Y-14013847D01*
X6322143Y-14004323D01*
X6360238Y-14004323D01*
X6379286Y-14013847D01*
X6388809Y-14032894D01*
X6388809Y-14051942D01*
X6293571Y-14070989D01*
X6465000Y-14128132D02*
X6484048Y-14137656D01*
X6522143Y-14137656D01*
X6541190Y-14128132D01*
X6550714Y-14109085D01*
X6550714Y-14099561D01*
X6541190Y-14080513D01*
X6522143Y-14070989D01*
X6493571Y-14070989D01*
X6474524Y-14061466D01*
X6465000Y-14042418D01*
X6465000Y-14032894D01*
X6474524Y-14013847D01*
X6493571Y-14004323D01*
X6522143Y-14004323D01*
X6541190Y-14013847D01*
X6617381Y-14213847D02*
X6626905Y-14204323D01*
X6645952Y-14175751D01*
X6655476Y-14156704D01*
X6665000Y-14128132D01*
X6674524Y-14080513D01*
X6674524Y-14042418D01*
X6665000Y-13994799D01*
X6655476Y-13966228D01*
X6645952Y-13947180D01*
X6626905Y-13918608D01*
X6617381Y-13909085D01*
X6979286Y-14213847D02*
X6969762Y-14204323D01*
X6950714Y-14175751D01*
X6941190Y-14156704D01*
X6931667Y-14128132D01*
X6922143Y-14080513D01*
X6922143Y-14042418D01*
X6931667Y-13994799D01*
X6941190Y-13966228D01*
X6950714Y-13947180D01*
X6969762Y-13918608D01*
X6979286Y-13909085D01*
X7055476Y-14004323D02*
X7055476Y-14137656D01*
X7055476Y-14023370D02*
X7065000Y-14013847D01*
X7084048Y-14004323D01*
X7112619Y-14004323D01*
X7131667Y-14013847D01*
X7141190Y-14032894D01*
X7141190Y-14137656D01*
X7265000Y-14137656D02*
X7245952Y-14128132D01*
X7236428Y-14118608D01*
X7226905Y-14099561D01*
X7226905Y-14042418D01*
X7236428Y-14023370D01*
X7245952Y-14013847D01*
X7265000Y-14004323D01*
X7293571Y-14004323D01*
X7312619Y-14013847D01*
X7322143Y-14023370D01*
X7331667Y-14042418D01*
X7331667Y-14099561D01*
X7322143Y-14118608D01*
X7312619Y-14128132D01*
X7293571Y-14137656D01*
X7265000Y-14137656D01*
X7388809Y-14004323D02*
X7465000Y-14004323D01*
X7417381Y-13937656D02*
X7417381Y-14109085D01*
X7426905Y-14128132D01*
X7445952Y-14137656D01*
X7465000Y-14137656D01*
X7684048Y-14004323D02*
X7684048Y-14204323D01*
X7684048Y-14013847D02*
X7703095Y-14004323D01*
X7741190Y-14004323D01*
X7760238Y-14013847D01*
X7769762Y-14023370D01*
X7779286Y-14042418D01*
X7779286Y-14099561D01*
X7769762Y-14118608D01*
X7760238Y-14128132D01*
X7741190Y-14137656D01*
X7703095Y-14137656D01*
X7684048Y-14128132D01*
X7893571Y-14137656D02*
X7874524Y-14128132D01*
X7865000Y-14109085D01*
X7865000Y-13937656D01*
X8055476Y-14137656D02*
X8055476Y-14032894D01*
X8045952Y-14013847D01*
X8026905Y-14004323D01*
X7988809Y-14004323D01*
X7969762Y-14013847D01*
X8055476Y-14128132D02*
X8036428Y-14137656D01*
X7988809Y-14137656D01*
X7969762Y-14128132D01*
X7960238Y-14109085D01*
X7960238Y-14090037D01*
X7969762Y-14070989D01*
X7988809Y-14061466D01*
X8036428Y-14061466D01*
X8055476Y-14051942D01*
X8122143Y-14004323D02*
X8198333Y-14004323D01*
X8150714Y-13937656D02*
X8150714Y-14109085D01*
X8160238Y-14128132D01*
X8179286Y-14137656D01*
X8198333Y-14137656D01*
X8341190Y-14128132D02*
X8322143Y-14137656D01*
X8284048Y-14137656D01*
X8265000Y-14128132D01*
X8255476Y-14109085D01*
X8255476Y-14032894D01*
X8265000Y-14013847D01*
X8284048Y-14004323D01*
X8322143Y-14004323D01*
X8341190Y-14013847D01*
X8350714Y-14032894D01*
X8350714Y-14051942D01*
X8255476Y-14070989D01*
X8522143Y-14137656D02*
X8522143Y-13937656D01*
X8522143Y-14128132D02*
X8503095Y-14137656D01*
X8465000Y-14137656D01*
X8445952Y-14128132D01*
X8436429Y-14118608D01*
X8426905Y-14099561D01*
X8426905Y-14042418D01*
X8436429Y-14023370D01*
X8445952Y-14013847D01*
X8465000Y-14004323D01*
X8503095Y-14004323D01*
X8522143Y-14013847D01*
X8598333Y-14213847D02*
X8607857Y-14204323D01*
X8626905Y-14175751D01*
X8636429Y-14156704D01*
X8645952Y-14128132D01*
X8655476Y-14080513D01*
X8655476Y-14042418D01*
X8645952Y-13994799D01*
X8636429Y-13966228D01*
X8626905Y-13947180D01*
X8607857Y-13918608D01*
X8598333Y-13909085D01*
M02*
