%TF.GenerationSoftware,KiCad,Pcbnew,(6.0.1)*%
%TF.CreationDate,2022-01-22T18:41:09-05:00*%
%TF.ProjectId,ortho,6f727468-6f2e-46b6-9963-61645f706362,rev?*%
%TF.SameCoordinates,Original*%
%TF.FileFunction,Legend,Top*%
%TF.FilePolarity,Positive*%
%FSLAX46Y46*%
G04 Gerber Fmt 4.6, Leading zero omitted, Abs format (unit mm)*
G04 Created by KiCad (PCBNEW (6.0.1)) date 2022-01-22 18:41:09*
%MOMM*%
%LPD*%
G01*
G04 APERTURE LIST*
%ADD10C,0.150000*%
%ADD11C,0.120000*%
%ADD12C,0.568000*%
G04 APERTURE END LIST*
D10*
X24457142Y-62828571D02*
X24123809Y-62828571D01*
X24123809Y-63352380D02*
X24123809Y-62352380D01*
X24599999Y-62352380D01*
X24933333Y-63066666D02*
X25409523Y-63066666D01*
X24838095Y-63352380D02*
X25171428Y-62352380D01*
X25504761Y-63352380D01*
X26409523Y-63257142D02*
X26361904Y-63304761D01*
X26219047Y-63352380D01*
X26123809Y-63352380D01*
X25980952Y-63304761D01*
X25885714Y-63209523D01*
X25838095Y-63114285D01*
X25790476Y-62923809D01*
X25790476Y-62780952D01*
X25838095Y-62590476D01*
X25885714Y-62495238D01*
X25980952Y-62400000D01*
X26123809Y-62352380D01*
X26219047Y-62352380D01*
X26361904Y-62400000D01*
X26409523Y-62447619D01*
X26838095Y-62828571D02*
X27171428Y-62828571D01*
X27314285Y-63352380D02*
X26838095Y-63352380D01*
X26838095Y-62352380D01*
X27314285Y-62352380D01*
X28504761Y-62352380D02*
X28504761Y-63161904D01*
X28552380Y-63257142D01*
X28599999Y-63304761D01*
X28695238Y-63352380D01*
X28885714Y-63352380D01*
X28980952Y-63304761D01*
X29028571Y-63257142D01*
X29076190Y-63161904D01*
X29076190Y-62352380D01*
X29552380Y-63352380D02*
X29552380Y-62352380D01*
X29933333Y-62352380D01*
X30028571Y-62400000D01*
X30076190Y-62447619D01*
X30123809Y-62542857D01*
X30123809Y-62685714D01*
X30076190Y-62780952D01*
X30028571Y-62828571D01*
X29933333Y-62876190D01*
X29552380Y-62876190D01*
%TO.C,RST1*%
X21432380Y-99923809D02*
X20956190Y-100257142D01*
X21432380Y-100495238D02*
X20432380Y-100495238D01*
X20432380Y-100114285D01*
X20480000Y-100019047D01*
X20527619Y-99971428D01*
X20622857Y-99923809D01*
X20765714Y-99923809D01*
X20860952Y-99971428D01*
X20908571Y-100019047D01*
X20956190Y-100114285D01*
X20956190Y-100495238D01*
X21384761Y-99542857D02*
X21432380Y-99400000D01*
X21432380Y-99161904D01*
X21384761Y-99066666D01*
X21337142Y-99019047D01*
X21241904Y-98971428D01*
X21146666Y-98971428D01*
X21051428Y-99019047D01*
X21003809Y-99066666D01*
X20956190Y-99161904D01*
X20908571Y-99352380D01*
X20860952Y-99447619D01*
X20813333Y-99495238D01*
X20718095Y-99542857D01*
X20622857Y-99542857D01*
X20527619Y-99495238D01*
X20480000Y-99447619D01*
X20432380Y-99352380D01*
X20432380Y-99114285D01*
X20480000Y-98971428D01*
X20432380Y-98685714D02*
X20432380Y-98114285D01*
X21432380Y-98400000D02*
X20432380Y-98400000D01*
X21432380Y-97257142D02*
X21432380Y-97828571D01*
X21432380Y-97542857D02*
X20432380Y-97542857D01*
X20575238Y-97638095D01*
X20670476Y-97733333D01*
X20718095Y-97828571D01*
%TO.C,U1*%
X27538095Y-72252380D02*
X27538095Y-73061904D01*
X27585714Y-73157142D01*
X27633333Y-73204761D01*
X27728571Y-73252380D01*
X27919047Y-73252380D01*
X28014285Y-73204761D01*
X28061904Y-73157142D01*
X28109523Y-73061904D01*
X28109523Y-72252380D01*
X29109523Y-73252380D02*
X28538095Y-73252380D01*
X28823809Y-73252380D02*
X28823809Y-72252380D01*
X28728571Y-72395238D01*
X28633333Y-72490476D01*
X28538095Y-72538095D01*
D11*
%TO.C,RST1*%
X20270000Y-96100000D02*
X20270000Y-95560000D01*
X20270000Y-102240000D02*
X20270000Y-101700000D01*
X16600000Y-102760000D02*
X20500000Y-102760000D01*
X20270000Y-95560000D02*
X20500000Y-95560000D01*
X16600000Y-102760000D02*
X16600000Y-95040000D01*
X16600000Y-95040000D02*
X20500000Y-95040000D01*
X20270000Y-102240000D02*
X20500000Y-102240000D01*
X20270000Y-100600000D02*
X20270000Y-97200000D01*
%TO.C,U1*%
X18400000Y-57300000D02*
X36200000Y-57300000D01*
X36200000Y-57300000D02*
X36200000Y-90300000D01*
X36200000Y-90300000D02*
X18400000Y-90300000D01*
X18400000Y-90300000D02*
X18400000Y-57300000D01*
D12*
X22504000Y-58560000D02*
G75*
G03*
X22504000Y-58560000I-284000J0D01*
G01*
%TD*%
M02*
