%TF.GenerationSoftware,KiCad,Pcbnew,(6.0.1)*%
%TF.CreationDate,2022-01-22T18:41:09-05:00*%
%TF.ProjectId,ortho,6f727468-6f2e-46b6-9963-61645f706362,rev?*%
%TF.SameCoordinates,Original*%
%TF.FileFunction,Legend,Bot*%
%TF.FilePolarity,Positive*%
%FSLAX46Y46*%
G04 Gerber Fmt 4.6, Leading zero omitted, Abs format (unit mm)*
G04 Created by KiCad (PCBNEW (6.0.1)) date 2022-01-22 18:41:09*
%MOMM*%
%LPD*%
G01*
G04 APERTURE LIST*
%ADD10C,0.150000*%
%ADD11C,0.100000*%
%ADD12C,0.120000*%
G04 APERTURE END LIST*
D10*
X32514285Y-110242380D02*
X32514285Y-109242380D01*
X32276190Y-109242380D01*
X32133333Y-109290000D01*
X32038095Y-109385238D01*
X31990476Y-109480476D01*
X31942857Y-109670952D01*
X31942857Y-109813809D01*
X31990476Y-110004285D01*
X32038095Y-110099523D01*
X32133333Y-110194761D01*
X32276190Y-110242380D01*
X32514285Y-110242380D01*
X31133333Y-110194761D02*
X31228571Y-110242380D01*
X31419047Y-110242380D01*
X31514285Y-110194761D01*
X31561904Y-110099523D01*
X31561904Y-109718571D01*
X31514285Y-109623333D01*
X31419047Y-109575714D01*
X31228571Y-109575714D01*
X31133333Y-109623333D01*
X31085714Y-109718571D01*
X31085714Y-109813809D01*
X31561904Y-109909047D01*
X30704761Y-110194761D02*
X30609523Y-110242380D01*
X30419047Y-110242380D01*
X30323809Y-110194761D01*
X30276190Y-110099523D01*
X30276190Y-110051904D01*
X30323809Y-109956666D01*
X30419047Y-109909047D01*
X30561904Y-109909047D01*
X30657142Y-109861428D01*
X30704761Y-109766190D01*
X30704761Y-109718571D01*
X30657142Y-109623333D01*
X30561904Y-109575714D01*
X30419047Y-109575714D01*
X30323809Y-109623333D01*
X29847619Y-110242380D02*
X29847619Y-109575714D01*
X29847619Y-109242380D02*
X29895238Y-109290000D01*
X29847619Y-109337619D01*
X29800000Y-109290000D01*
X29847619Y-109242380D01*
X29847619Y-109337619D01*
X28942857Y-109575714D02*
X28942857Y-110385238D01*
X28990476Y-110480476D01*
X29038095Y-110528095D01*
X29133333Y-110575714D01*
X29276190Y-110575714D01*
X29371428Y-110528095D01*
X28942857Y-110194761D02*
X29038095Y-110242380D01*
X29228571Y-110242380D01*
X29323809Y-110194761D01*
X29371428Y-110147142D01*
X29419047Y-110051904D01*
X29419047Y-109766190D01*
X29371428Y-109670952D01*
X29323809Y-109623333D01*
X29228571Y-109575714D01*
X29038095Y-109575714D01*
X28942857Y-109623333D01*
X28466666Y-109575714D02*
X28466666Y-110242380D01*
X28466666Y-109670952D02*
X28419047Y-109623333D01*
X28323809Y-109575714D01*
X28180952Y-109575714D01*
X28085714Y-109623333D01*
X28038095Y-109718571D01*
X28038095Y-110242380D01*
X27180952Y-110194761D02*
X27276190Y-110242380D01*
X27466666Y-110242380D01*
X27561904Y-110194761D01*
X27609523Y-110099523D01*
X27609523Y-109718571D01*
X27561904Y-109623333D01*
X27466666Y-109575714D01*
X27276190Y-109575714D01*
X27180952Y-109623333D01*
X27133333Y-109718571D01*
X27133333Y-109813809D01*
X27609523Y-109909047D01*
X26276190Y-110242380D02*
X26276190Y-109242380D01*
X26276190Y-110194761D02*
X26371428Y-110242380D01*
X26561904Y-110242380D01*
X26657142Y-110194761D01*
X26704761Y-110147142D01*
X26752380Y-110051904D01*
X26752380Y-109766190D01*
X26704761Y-109670952D01*
X26657142Y-109623333D01*
X26561904Y-109575714D01*
X26371428Y-109575714D01*
X26276190Y-109623333D01*
X25038095Y-110242380D02*
X25038095Y-109242380D01*
X25038095Y-109623333D02*
X24942857Y-109575714D01*
X24752380Y-109575714D01*
X24657142Y-109623333D01*
X24609523Y-109670952D01*
X24561904Y-109766190D01*
X24561904Y-110051904D01*
X24609523Y-110147142D01*
X24657142Y-110194761D01*
X24752380Y-110242380D01*
X24942857Y-110242380D01*
X25038095Y-110194761D01*
X24228571Y-109575714D02*
X23990476Y-110242380D01*
X23752380Y-109575714D02*
X23990476Y-110242380D01*
X24085714Y-110480476D01*
X24133333Y-110528095D01*
X24228571Y-110575714D01*
X32990476Y-111804761D02*
X32847619Y-111852380D01*
X32609523Y-111852380D01*
X32514285Y-111804761D01*
X32466666Y-111757142D01*
X32419047Y-111661904D01*
X32419047Y-111566666D01*
X32466666Y-111471428D01*
X32514285Y-111423809D01*
X32609523Y-111376190D01*
X32800000Y-111328571D01*
X32895238Y-111280952D01*
X32942857Y-111233333D01*
X32990476Y-111138095D01*
X32990476Y-111042857D01*
X32942857Y-110947619D01*
X32895238Y-110900000D01*
X32800000Y-110852380D01*
X32561904Y-110852380D01*
X32419047Y-110900000D01*
X31561904Y-111852380D02*
X31561904Y-111328571D01*
X31609523Y-111233333D01*
X31704761Y-111185714D01*
X31895238Y-111185714D01*
X31990476Y-111233333D01*
X31561904Y-111804761D02*
X31657142Y-111852380D01*
X31895238Y-111852380D01*
X31990476Y-111804761D01*
X32038095Y-111709523D01*
X32038095Y-111614285D01*
X31990476Y-111519047D01*
X31895238Y-111471428D01*
X31657142Y-111471428D01*
X31561904Y-111423809D01*
X31085714Y-111852380D02*
X31085714Y-110852380D01*
X31085714Y-111233333D02*
X30990476Y-111185714D01*
X30800000Y-111185714D01*
X30704761Y-111233333D01*
X30657142Y-111280952D01*
X30609523Y-111376190D01*
X30609523Y-111661904D01*
X30657142Y-111757142D01*
X30704761Y-111804761D01*
X30800000Y-111852380D01*
X30990476Y-111852380D01*
X31085714Y-111804761D01*
X29419047Y-111852380D02*
X29419047Y-110852380D01*
X28847619Y-111852380D01*
X28847619Y-110852380D01*
X27942857Y-111852380D02*
X27942857Y-111328571D01*
X27990476Y-111233333D01*
X28085714Y-111185714D01*
X28276190Y-111185714D01*
X28371428Y-111233333D01*
X27942857Y-111804761D02*
X28038095Y-111852380D01*
X28276190Y-111852380D01*
X28371428Y-111804761D01*
X28419047Y-111709523D01*
X28419047Y-111614285D01*
X28371428Y-111519047D01*
X28276190Y-111471428D01*
X28038095Y-111471428D01*
X27942857Y-111423809D01*
X27609523Y-111185714D02*
X27228571Y-111185714D01*
X27466666Y-110852380D02*
X27466666Y-111709523D01*
X27419047Y-111804761D01*
X27323809Y-111852380D01*
X27228571Y-111852380D01*
X26466666Y-111852380D02*
X26466666Y-111328571D01*
X26514285Y-111233333D01*
X26609523Y-111185714D01*
X26800000Y-111185714D01*
X26895238Y-111233333D01*
X26466666Y-111804761D02*
X26561904Y-111852380D01*
X26800000Y-111852380D01*
X26895238Y-111804761D01*
X26942857Y-111709523D01*
X26942857Y-111614285D01*
X26895238Y-111519047D01*
X26800000Y-111471428D01*
X26561904Y-111471428D01*
X26466666Y-111423809D01*
X25990476Y-111852380D02*
X25990476Y-111185714D01*
X25990476Y-111376190D02*
X25942857Y-111280952D01*
X25895238Y-111233333D01*
X25800000Y-111185714D01*
X25704761Y-111185714D01*
X24942857Y-111852380D02*
X24942857Y-111328571D01*
X24990476Y-111233333D01*
X25085714Y-111185714D01*
X25276190Y-111185714D01*
X25371428Y-111233333D01*
X24942857Y-111804761D02*
X25038095Y-111852380D01*
X25276190Y-111852380D01*
X25371428Y-111804761D01*
X25419047Y-111709523D01*
X25419047Y-111614285D01*
X25371428Y-111519047D01*
X25276190Y-111471428D01*
X25038095Y-111471428D01*
X24942857Y-111423809D01*
X24466666Y-111185714D02*
X24466666Y-112042857D01*
X24514285Y-112138095D01*
X24609523Y-112185714D01*
X24657142Y-112185714D01*
X24466666Y-110852380D02*
X24514285Y-110900000D01*
X24466666Y-110947619D01*
X24419047Y-110900000D01*
X24466666Y-110852380D01*
X24466666Y-110947619D01*
X23561904Y-111852380D02*
X23561904Y-111328571D01*
X23609523Y-111233333D01*
X23704761Y-111185714D01*
X23895238Y-111185714D01*
X23990476Y-111233333D01*
X23561904Y-111804761D02*
X23657142Y-111852380D01*
X23895238Y-111852380D01*
X23990476Y-111804761D01*
X24038095Y-111709523D01*
X24038095Y-111614285D01*
X23990476Y-111519047D01*
X23895238Y-111471428D01*
X23657142Y-111471428D01*
X23561904Y-111423809D01*
X23085714Y-111185714D02*
X23085714Y-111852380D01*
X23085714Y-111280952D02*
X23038095Y-111233333D01*
X22942857Y-111185714D01*
X22800000Y-111185714D01*
X22704761Y-111233333D01*
X22657142Y-111328571D01*
X22657142Y-111852380D01*
X32942857Y-112795714D02*
X32704761Y-113462380D01*
X32466666Y-112795714D01*
X31561904Y-113462380D02*
X32133333Y-113462380D01*
X31847619Y-113462380D02*
X31847619Y-112462380D01*
X31942857Y-112605238D01*
X32038095Y-112700476D01*
X32133333Y-112748095D01*
X30085714Y-113843333D02*
X30133333Y-113795714D01*
X30228571Y-113652857D01*
X30276190Y-113557619D01*
X30323809Y-113414761D01*
X30371428Y-113176666D01*
X30371428Y-112986190D01*
X30323809Y-112748095D01*
X30276190Y-112605238D01*
X30228571Y-112510000D01*
X30133333Y-112367142D01*
X30085714Y-112319523D01*
X29752380Y-112557619D02*
X29704761Y-112510000D01*
X29609523Y-112462380D01*
X29371428Y-112462380D01*
X29276190Y-112510000D01*
X29228571Y-112557619D01*
X29180952Y-112652857D01*
X29180952Y-112748095D01*
X29228571Y-112890952D01*
X29800000Y-113462380D01*
X29180952Y-113462380D01*
X28561904Y-112462380D02*
X28466666Y-112462380D01*
X28371428Y-112510000D01*
X28323809Y-112557619D01*
X28276190Y-112652857D01*
X28228571Y-112843333D01*
X28228571Y-113081428D01*
X28276190Y-113271904D01*
X28323809Y-113367142D01*
X28371428Y-113414761D01*
X28466666Y-113462380D01*
X28561904Y-113462380D01*
X28657142Y-113414761D01*
X28704761Y-113367142D01*
X28752380Y-113271904D01*
X28800000Y-113081428D01*
X28800000Y-112843333D01*
X28752380Y-112652857D01*
X28704761Y-112557619D01*
X28657142Y-112510000D01*
X28561904Y-112462380D01*
X27847619Y-112557619D02*
X27800000Y-112510000D01*
X27704761Y-112462380D01*
X27466666Y-112462380D01*
X27371428Y-112510000D01*
X27323809Y-112557619D01*
X27276190Y-112652857D01*
X27276190Y-112748095D01*
X27323809Y-112890952D01*
X27895238Y-113462380D01*
X27276190Y-113462380D01*
X26895238Y-112557619D02*
X26847619Y-112510000D01*
X26752380Y-112462380D01*
X26514285Y-112462380D01*
X26419047Y-112510000D01*
X26371428Y-112557619D01*
X26323809Y-112652857D01*
X26323809Y-112748095D01*
X26371428Y-112890952D01*
X26942857Y-113462380D01*
X26323809Y-113462380D01*
X25180952Y-112414761D02*
X26038095Y-113700476D01*
X24657142Y-112462380D02*
X24561904Y-112462380D01*
X24466666Y-112510000D01*
X24419047Y-112557619D01*
X24371428Y-112652857D01*
X24323809Y-112843333D01*
X24323809Y-113081428D01*
X24371428Y-113271904D01*
X24419047Y-113367142D01*
X24466666Y-113414761D01*
X24561904Y-113462380D01*
X24657142Y-113462380D01*
X24752380Y-113414761D01*
X24800000Y-113367142D01*
X24847619Y-113271904D01*
X24895238Y-113081428D01*
X24895238Y-112843333D01*
X24847619Y-112652857D01*
X24800000Y-112557619D01*
X24752380Y-112510000D01*
X24657142Y-112462380D01*
X23371428Y-113462380D02*
X23942857Y-113462380D01*
X23657142Y-113462380D02*
X23657142Y-112462380D01*
X23752380Y-112605238D01*
X23847619Y-112700476D01*
X23942857Y-112748095D01*
X23038095Y-113843333D02*
X22990476Y-113795714D01*
X22895238Y-113652857D01*
X22847619Y-113557619D01*
X22800000Y-113414761D01*
X22752380Y-113176666D01*
X22752380Y-112986190D01*
X22800000Y-112748095D01*
X22847619Y-112605238D01*
X22895238Y-112510000D01*
X22990476Y-112367142D01*
X23038095Y-112319523D01*
X32647619Y-66652380D02*
X32980952Y-66176190D01*
X33219047Y-66652380D02*
X33219047Y-65652380D01*
X32838095Y-65652380D01*
X32742857Y-65700000D01*
X32695238Y-65747619D01*
X32647619Y-65842857D01*
X32647619Y-65985714D01*
X32695238Y-66080952D01*
X32742857Y-66128571D01*
X32838095Y-66176190D01*
X33219047Y-66176190D01*
X32266666Y-66604761D02*
X32123809Y-66652380D01*
X31885714Y-66652380D01*
X31790476Y-66604761D01*
X31742857Y-66557142D01*
X31695238Y-66461904D01*
X31695238Y-66366666D01*
X31742857Y-66271428D01*
X31790476Y-66223809D01*
X31885714Y-66176190D01*
X32076190Y-66128571D01*
X32171428Y-66080952D01*
X32219047Y-66033333D01*
X32266666Y-65938095D01*
X32266666Y-65842857D01*
X32219047Y-65747619D01*
X32171428Y-65700000D01*
X32076190Y-65652380D01*
X31838095Y-65652380D01*
X31695238Y-65700000D01*
X31409523Y-65652380D02*
X30838095Y-65652380D01*
X31123809Y-66652380D02*
X31123809Y-65652380D01*
X32761904Y-63200000D02*
X32857142Y-63152380D01*
X33000000Y-63152380D01*
X33142857Y-63200000D01*
X33238095Y-63295238D01*
X33285714Y-63390476D01*
X33333333Y-63580952D01*
X33333333Y-63723809D01*
X33285714Y-63914285D01*
X33238095Y-64009523D01*
X33142857Y-64104761D01*
X33000000Y-64152380D01*
X32904761Y-64152380D01*
X32761904Y-64104761D01*
X32714285Y-64057142D01*
X32714285Y-63723809D01*
X32904761Y-63723809D01*
X32285714Y-64152380D02*
X32285714Y-63152380D01*
X31714285Y-64152380D01*
X31714285Y-63152380D01*
X31238095Y-64152380D02*
X31238095Y-63152380D01*
X31000000Y-63152380D01*
X30857142Y-63200000D01*
X30761904Y-63295238D01*
X30714285Y-63390476D01*
X30666666Y-63580952D01*
X30666666Y-63723809D01*
X30714285Y-63914285D01*
X30761904Y-64009523D01*
X30857142Y-64104761D01*
X31000000Y-64152380D01*
X31238095Y-64152380D01*
X23080952Y-58952380D02*
X23080952Y-57952380D01*
X22842857Y-57952380D01*
X22700000Y-58000000D01*
X22604761Y-58095238D01*
X22557142Y-58190476D01*
X22509523Y-58380952D01*
X22509523Y-58523809D01*
X22557142Y-58714285D01*
X22604761Y-58809523D01*
X22700000Y-58904761D01*
X22842857Y-58952380D01*
X23080952Y-58952380D01*
X22080952Y-58571428D02*
X21319047Y-58571428D01*
X21700000Y-58952380D02*
X21700000Y-58190476D01*
X33280952Y-59052380D02*
X33280952Y-58052380D01*
X33042857Y-58052380D01*
X32900000Y-58100000D01*
X32804761Y-58195238D01*
X32757142Y-58290476D01*
X32709523Y-58480952D01*
X32709523Y-58623809D01*
X32757142Y-58814285D01*
X32804761Y-58909523D01*
X32900000Y-59004761D01*
X33042857Y-59052380D01*
X33280952Y-59052380D01*
X32280952Y-58671428D02*
X31519047Y-58671428D01*
X22500000Y-68700000D02*
X22500000Y-68300000D01*
X21100000Y-68700000D02*
X22500000Y-68700000D01*
X22500000Y-66200000D02*
X22500000Y-66600000D01*
X21100000Y-66200000D02*
X22500000Y-66200000D01*
X23261904Y-67000000D02*
X23357142Y-66952380D01*
X23500000Y-66952380D01*
X23642857Y-67000000D01*
X23738095Y-67095238D01*
X23785714Y-67190476D01*
X23833333Y-67380952D01*
X23833333Y-67523809D01*
X23785714Y-67714285D01*
X23738095Y-67809523D01*
X23642857Y-67904761D01*
X23500000Y-67952380D01*
X23404761Y-67952380D01*
X23261904Y-67904761D01*
X23214285Y-67857142D01*
X23214285Y-67523809D01*
X23404761Y-67523809D01*
X22785714Y-67952380D02*
X22785714Y-66952380D01*
X22214285Y-67952380D01*
X22214285Y-66952380D01*
X21738095Y-67952380D02*
X21738095Y-66952380D01*
X21500000Y-66952380D01*
X21357142Y-67000000D01*
X21261904Y-67095238D01*
X21214285Y-67190476D01*
X21166666Y-67380952D01*
X21166666Y-67523809D01*
X21214285Y-67714285D01*
X21261904Y-67809523D01*
X21357142Y-67904761D01*
X21500000Y-67952380D01*
X21738095Y-67952380D01*
X32690476Y-61702380D02*
X33023809Y-61226190D01*
X33261904Y-61702380D02*
X33261904Y-60702380D01*
X32880952Y-60702380D01*
X32785714Y-60750000D01*
X32738095Y-60797619D01*
X32690476Y-60892857D01*
X32690476Y-61035714D01*
X32738095Y-61130952D01*
X32785714Y-61178571D01*
X32880952Y-61226190D01*
X33261904Y-61226190D01*
X32309523Y-61416666D02*
X31833333Y-61416666D01*
X32404761Y-61702380D02*
X32071428Y-60702380D01*
X31738095Y-61702380D01*
X31500000Y-60702380D02*
X31261904Y-61702380D01*
X31071428Y-60988095D01*
X30880952Y-61702380D01*
X30642857Y-60702380D01*
X71810476Y27487619D02*
X72143809Y27963809D01*
X72381904Y27487619D02*
X72381904Y28487619D01*
X72000952Y28487619D01*
X71905714Y28440000D01*
X71858095Y28392380D01*
X71810476Y28297142D01*
X71810476Y28154285D01*
X71858095Y28059047D01*
X71905714Y28011428D01*
X72000952Y27963809D01*
X72381904Y27963809D01*
X71429523Y27773333D02*
X70953333Y27773333D01*
X71524761Y27487619D02*
X71191428Y28487619D01*
X70858095Y27487619D01*
X70620000Y28487619D02*
X70381904Y27487619D01*
X70191428Y28201904D01*
X70000952Y27487619D01*
X69762857Y28487619D01*
%TO.C,D83*%
X228850000Y-57166666D02*
X228850000Y-56466666D01*
X228683333Y-56466666D01*
X228583333Y-56500000D01*
X228516666Y-56566666D01*
X228483333Y-56633333D01*
X228450000Y-56766666D01*
X228450000Y-56866666D01*
X228483333Y-57000000D01*
X228516666Y-57066666D01*
X228583333Y-57133333D01*
X228683333Y-57166666D01*
X228850000Y-57166666D01*
X228050000Y-56766666D02*
X228116666Y-56733333D01*
X228150000Y-56700000D01*
X228183333Y-56633333D01*
X228183333Y-56600000D01*
X228150000Y-56533333D01*
X228116666Y-56500000D01*
X228050000Y-56466666D01*
X227916666Y-56466666D01*
X227850000Y-56500000D01*
X227816666Y-56533333D01*
X227783333Y-56600000D01*
X227783333Y-56633333D01*
X227816666Y-56700000D01*
X227850000Y-56733333D01*
X227916666Y-56766666D01*
X228050000Y-56766666D01*
X228116666Y-56800000D01*
X228150000Y-56833333D01*
X228183333Y-56900000D01*
X228183333Y-57033333D01*
X228150000Y-57100000D01*
X228116666Y-57133333D01*
X228050000Y-57166666D01*
X227916666Y-57166666D01*
X227850000Y-57133333D01*
X227816666Y-57100000D01*
X227783333Y-57033333D01*
X227783333Y-56900000D01*
X227816666Y-56833333D01*
X227850000Y-56800000D01*
X227916666Y-56766666D01*
X227550000Y-56466666D02*
X227116666Y-56466666D01*
X227350000Y-56733333D01*
X227250000Y-56733333D01*
X227183333Y-56766666D01*
X227150000Y-56800000D01*
X227116666Y-56866666D01*
X227116666Y-57033333D01*
X227150000Y-57100000D01*
X227183333Y-57133333D01*
X227250000Y-57166666D01*
X227450000Y-57166666D01*
X227516666Y-57133333D01*
X227550000Y-57100000D01*
%TO.C,D53*%
X128002380Y-114285714D02*
X127002380Y-114285714D01*
X127002380Y-114523809D01*
X127050000Y-114666666D01*
X127145238Y-114761904D01*
X127240476Y-114809523D01*
X127430952Y-114857142D01*
X127573809Y-114857142D01*
X127764285Y-114809523D01*
X127859523Y-114761904D01*
X127954761Y-114666666D01*
X128002380Y-114523809D01*
X128002380Y-114285714D01*
X127002380Y-115761904D02*
X127002380Y-115285714D01*
X127478571Y-115238095D01*
X127430952Y-115285714D01*
X127383333Y-115380952D01*
X127383333Y-115619047D01*
X127430952Y-115714285D01*
X127478571Y-115761904D01*
X127573809Y-115809523D01*
X127811904Y-115809523D01*
X127907142Y-115761904D01*
X127954761Y-115714285D01*
X128002380Y-115619047D01*
X128002380Y-115380952D01*
X127954761Y-115285714D01*
X127907142Y-115238095D01*
X127002380Y-116142857D02*
X127002380Y-116761904D01*
X127383333Y-116428571D01*
X127383333Y-116571428D01*
X127430952Y-116666666D01*
X127478571Y-116714285D01*
X127573809Y-116761904D01*
X127811904Y-116761904D01*
X127907142Y-116714285D01*
X127954761Y-116666666D01*
X128002380Y-116571428D01*
X128002380Y-116285714D01*
X127954761Y-116190476D01*
X127907142Y-116142857D01*
%TO.C,D38*%
X76102380Y-98785714D02*
X75102380Y-98785714D01*
X75102380Y-99023809D01*
X75150000Y-99166666D01*
X75245238Y-99261904D01*
X75340476Y-99309523D01*
X75530952Y-99357142D01*
X75673809Y-99357142D01*
X75864285Y-99309523D01*
X75959523Y-99261904D01*
X76054761Y-99166666D01*
X76102380Y-99023809D01*
X76102380Y-98785714D01*
X75102380Y-99690476D02*
X75102380Y-100309523D01*
X75483333Y-99976190D01*
X75483333Y-100119047D01*
X75530952Y-100214285D01*
X75578571Y-100261904D01*
X75673809Y-100309523D01*
X75911904Y-100309523D01*
X76007142Y-100261904D01*
X76054761Y-100214285D01*
X76102380Y-100119047D01*
X76102380Y-99833333D01*
X76054761Y-99738095D01*
X76007142Y-99690476D01*
X75530952Y-100880952D02*
X75483333Y-100785714D01*
X75435714Y-100738095D01*
X75340476Y-100690476D01*
X75292857Y-100690476D01*
X75197619Y-100738095D01*
X75150000Y-100785714D01*
X75102380Y-100880952D01*
X75102380Y-101071428D01*
X75150000Y-101166666D01*
X75197619Y-101214285D01*
X75292857Y-101261904D01*
X75340476Y-101261904D01*
X75435714Y-101214285D01*
X75483333Y-101166666D01*
X75530952Y-101071428D01*
X75530952Y-100880952D01*
X75578571Y-100785714D01*
X75626190Y-100738095D01*
X75721428Y-100690476D01*
X75911904Y-100690476D01*
X76007142Y-100738095D01*
X76054761Y-100785714D01*
X76102380Y-100880952D01*
X76102380Y-101071428D01*
X76054761Y-101166666D01*
X76007142Y-101214285D01*
X75911904Y-101261904D01*
X75721428Y-101261904D01*
X75626190Y-101214285D01*
X75578571Y-101166666D01*
X75530952Y-101071428D01*
%TO.C,D85*%
X48850000Y-74166666D02*
X48850000Y-73466666D01*
X48683333Y-73466666D01*
X48583333Y-73500000D01*
X48516666Y-73566666D01*
X48483333Y-73633333D01*
X48450000Y-73766666D01*
X48450000Y-73866666D01*
X48483333Y-74000000D01*
X48516666Y-74066666D01*
X48583333Y-74133333D01*
X48683333Y-74166666D01*
X48850000Y-74166666D01*
X48050000Y-73766666D02*
X48116666Y-73733333D01*
X48150000Y-73700000D01*
X48183333Y-73633333D01*
X48183333Y-73600000D01*
X48150000Y-73533333D01*
X48116666Y-73500000D01*
X48050000Y-73466666D01*
X47916666Y-73466666D01*
X47850000Y-73500000D01*
X47816666Y-73533333D01*
X47783333Y-73600000D01*
X47783333Y-73633333D01*
X47816666Y-73700000D01*
X47850000Y-73733333D01*
X47916666Y-73766666D01*
X48050000Y-73766666D01*
X48116666Y-73800000D01*
X48150000Y-73833333D01*
X48183333Y-73900000D01*
X48183333Y-74033333D01*
X48150000Y-74100000D01*
X48116666Y-74133333D01*
X48050000Y-74166666D01*
X47916666Y-74166666D01*
X47850000Y-74133333D01*
X47816666Y-74100000D01*
X47783333Y-74033333D01*
X47783333Y-73900000D01*
X47816666Y-73833333D01*
X47850000Y-73800000D01*
X47916666Y-73766666D01*
X47150000Y-73466666D02*
X47483333Y-73466666D01*
X47516666Y-73800000D01*
X47483333Y-73766666D01*
X47416666Y-73733333D01*
X47250000Y-73733333D01*
X47183333Y-73766666D01*
X47150000Y-73800000D01*
X47116666Y-73866666D01*
X47116666Y-74033333D01*
X47150000Y-74100000D01*
X47183333Y-74133333D01*
X47250000Y-74166666D01*
X47416666Y-74166666D01*
X47483333Y-74133333D01*
X47516666Y-74100000D01*
%TO.C,D108*%
X247183333Y-91166666D02*
X247183333Y-90466666D01*
X247016666Y-90466666D01*
X246916666Y-90500000D01*
X246850000Y-90566666D01*
X246816666Y-90633333D01*
X246783333Y-90766666D01*
X246783333Y-90866666D01*
X246816666Y-91000000D01*
X246850000Y-91066666D01*
X246916666Y-91133333D01*
X247016666Y-91166666D01*
X247183333Y-91166666D01*
X246116666Y-91166666D02*
X246516666Y-91166666D01*
X246316666Y-91166666D02*
X246316666Y-90466666D01*
X246383333Y-90566666D01*
X246450000Y-90633333D01*
X246516666Y-90666666D01*
X245683333Y-90466666D02*
X245616666Y-90466666D01*
X245550000Y-90500000D01*
X245516666Y-90533333D01*
X245483333Y-90600000D01*
X245450000Y-90733333D01*
X245450000Y-90900000D01*
X245483333Y-91033333D01*
X245516666Y-91100000D01*
X245550000Y-91133333D01*
X245616666Y-91166666D01*
X245683333Y-91166666D01*
X245750000Y-91133333D01*
X245783333Y-91100000D01*
X245816666Y-91033333D01*
X245850000Y-90900000D01*
X245850000Y-90733333D01*
X245816666Y-90600000D01*
X245783333Y-90533333D01*
X245750000Y-90500000D01*
X245683333Y-90466666D01*
X245050000Y-90766666D02*
X245116666Y-90733333D01*
X245150000Y-90700000D01*
X245183333Y-90633333D01*
X245183333Y-90600000D01*
X245150000Y-90533333D01*
X245116666Y-90500000D01*
X245050000Y-90466666D01*
X244916666Y-90466666D01*
X244850000Y-90500000D01*
X244816666Y-90533333D01*
X244783333Y-90600000D01*
X244783333Y-90633333D01*
X244816666Y-90700000D01*
X244850000Y-90733333D01*
X244916666Y-90766666D01*
X245050000Y-90766666D01*
X245116666Y-90800000D01*
X245150000Y-90833333D01*
X245183333Y-90900000D01*
X245183333Y-91033333D01*
X245150000Y-91100000D01*
X245116666Y-91133333D01*
X245050000Y-91166666D01*
X244916666Y-91166666D01*
X244850000Y-91133333D01*
X244816666Y-91100000D01*
X244783333Y-91033333D01*
X244783333Y-90900000D01*
X244816666Y-90833333D01*
X244850000Y-90800000D01*
X244916666Y-90766666D01*
%TO.C,D84*%
X246850000Y-57166666D02*
X246850000Y-56466666D01*
X246683333Y-56466666D01*
X246583333Y-56500000D01*
X246516666Y-56566666D01*
X246483333Y-56633333D01*
X246450000Y-56766666D01*
X246450000Y-56866666D01*
X246483333Y-57000000D01*
X246516666Y-57066666D01*
X246583333Y-57133333D01*
X246683333Y-57166666D01*
X246850000Y-57166666D01*
X246050000Y-56766666D02*
X246116666Y-56733333D01*
X246150000Y-56700000D01*
X246183333Y-56633333D01*
X246183333Y-56600000D01*
X246150000Y-56533333D01*
X246116666Y-56500000D01*
X246050000Y-56466666D01*
X245916666Y-56466666D01*
X245850000Y-56500000D01*
X245816666Y-56533333D01*
X245783333Y-56600000D01*
X245783333Y-56633333D01*
X245816666Y-56700000D01*
X245850000Y-56733333D01*
X245916666Y-56766666D01*
X246050000Y-56766666D01*
X246116666Y-56800000D01*
X246150000Y-56833333D01*
X246183333Y-56900000D01*
X246183333Y-57033333D01*
X246150000Y-57100000D01*
X246116666Y-57133333D01*
X246050000Y-57166666D01*
X245916666Y-57166666D01*
X245850000Y-57133333D01*
X245816666Y-57100000D01*
X245783333Y-57033333D01*
X245783333Y-56900000D01*
X245816666Y-56833333D01*
X245850000Y-56800000D01*
X245916666Y-56766666D01*
X245183333Y-56700000D02*
X245183333Y-57166666D01*
X245350000Y-56433333D02*
X245516666Y-56933333D01*
X245083333Y-56933333D01*
%TO.C,D46*%
X220102380Y-98785714D02*
X219102380Y-98785714D01*
X219102380Y-99023809D01*
X219150000Y-99166666D01*
X219245238Y-99261904D01*
X219340476Y-99309523D01*
X219530952Y-99357142D01*
X219673809Y-99357142D01*
X219864285Y-99309523D01*
X219959523Y-99261904D01*
X220054761Y-99166666D01*
X220102380Y-99023809D01*
X220102380Y-98785714D01*
X219435714Y-100214285D02*
X220102380Y-100214285D01*
X219054761Y-99976190D02*
X219769047Y-99738095D01*
X219769047Y-100357142D01*
X219102380Y-101166666D02*
X219102380Y-100976190D01*
X219150000Y-100880952D01*
X219197619Y-100833333D01*
X219340476Y-100738095D01*
X219530952Y-100690476D01*
X219911904Y-100690476D01*
X220007142Y-100738095D01*
X220054761Y-100785714D01*
X220102380Y-100880952D01*
X220102380Y-101071428D01*
X220054761Y-101166666D01*
X220007142Y-101214285D01*
X219911904Y-101261904D01*
X219673809Y-101261904D01*
X219578571Y-101214285D01*
X219530952Y-101166666D01*
X219483333Y-101071428D01*
X219483333Y-100880952D01*
X219530952Y-100785714D01*
X219578571Y-100738095D01*
X219673809Y-100690476D01*
%TO.C,D106*%
X211183333Y-91166666D02*
X211183333Y-90466666D01*
X211016666Y-90466666D01*
X210916666Y-90500000D01*
X210850000Y-90566666D01*
X210816666Y-90633333D01*
X210783333Y-90766666D01*
X210783333Y-90866666D01*
X210816666Y-91000000D01*
X210850000Y-91066666D01*
X210916666Y-91133333D01*
X211016666Y-91166666D01*
X211183333Y-91166666D01*
X210116666Y-91166666D02*
X210516666Y-91166666D01*
X210316666Y-91166666D02*
X210316666Y-90466666D01*
X210383333Y-90566666D01*
X210450000Y-90633333D01*
X210516666Y-90666666D01*
X209683333Y-90466666D02*
X209616666Y-90466666D01*
X209550000Y-90500000D01*
X209516666Y-90533333D01*
X209483333Y-90600000D01*
X209450000Y-90733333D01*
X209450000Y-90900000D01*
X209483333Y-91033333D01*
X209516666Y-91100000D01*
X209550000Y-91133333D01*
X209616666Y-91166666D01*
X209683333Y-91166666D01*
X209750000Y-91133333D01*
X209783333Y-91100000D01*
X209816666Y-91033333D01*
X209850000Y-90900000D01*
X209850000Y-90733333D01*
X209816666Y-90600000D01*
X209783333Y-90533333D01*
X209750000Y-90500000D01*
X209683333Y-90466666D01*
X208850000Y-90466666D02*
X208983333Y-90466666D01*
X209050000Y-90500000D01*
X209083333Y-90533333D01*
X209150000Y-90633333D01*
X209183333Y-90766666D01*
X209183333Y-91033333D01*
X209150000Y-91100000D01*
X209116666Y-91133333D01*
X209050000Y-91166666D01*
X208916666Y-91166666D01*
X208850000Y-91133333D01*
X208816666Y-91100000D01*
X208783333Y-91033333D01*
X208783333Y-90866666D01*
X208816666Y-90800000D01*
X208850000Y-90766666D01*
X208916666Y-90733333D01*
X209050000Y-90733333D01*
X209116666Y-90766666D01*
X209150000Y-90800000D01*
X209183333Y-90866666D01*
%TO.C,D9*%
X201202380Y-46496904D02*
X200202380Y-46496904D01*
X200202380Y-46735000D01*
X200250000Y-46877857D01*
X200345238Y-46973095D01*
X200440476Y-47020714D01*
X200630952Y-47068333D01*
X200773809Y-47068333D01*
X200964285Y-47020714D01*
X201059523Y-46973095D01*
X201154761Y-46877857D01*
X201202380Y-46735000D01*
X201202380Y-46496904D01*
X201202380Y-47544523D02*
X201202380Y-47735000D01*
X201154761Y-47830238D01*
X201107142Y-47877857D01*
X200964285Y-47973095D01*
X200773809Y-48020714D01*
X200392857Y-48020714D01*
X200297619Y-47973095D01*
X200250000Y-47925476D01*
X200202380Y-47830238D01*
X200202380Y-47639761D01*
X200250000Y-47544523D01*
X200297619Y-47496904D01*
X200392857Y-47449285D01*
X200630952Y-47449285D01*
X200726190Y-47496904D01*
X200773809Y-47544523D01*
X200821428Y-47639761D01*
X200821428Y-47830238D01*
X200773809Y-47925476D01*
X200726190Y-47973095D01*
X200630952Y-48020714D01*
%TO.C,D89*%
X120850000Y-74166666D02*
X120850000Y-73466666D01*
X120683333Y-73466666D01*
X120583333Y-73500000D01*
X120516666Y-73566666D01*
X120483333Y-73633333D01*
X120450000Y-73766666D01*
X120450000Y-73866666D01*
X120483333Y-74000000D01*
X120516666Y-74066666D01*
X120583333Y-74133333D01*
X120683333Y-74166666D01*
X120850000Y-74166666D01*
X120050000Y-73766666D02*
X120116666Y-73733333D01*
X120150000Y-73700000D01*
X120183333Y-73633333D01*
X120183333Y-73600000D01*
X120150000Y-73533333D01*
X120116666Y-73500000D01*
X120050000Y-73466666D01*
X119916666Y-73466666D01*
X119850000Y-73500000D01*
X119816666Y-73533333D01*
X119783333Y-73600000D01*
X119783333Y-73633333D01*
X119816666Y-73700000D01*
X119850000Y-73733333D01*
X119916666Y-73766666D01*
X120050000Y-73766666D01*
X120116666Y-73800000D01*
X120150000Y-73833333D01*
X120183333Y-73900000D01*
X120183333Y-74033333D01*
X120150000Y-74100000D01*
X120116666Y-74133333D01*
X120050000Y-74166666D01*
X119916666Y-74166666D01*
X119850000Y-74133333D01*
X119816666Y-74100000D01*
X119783333Y-74033333D01*
X119783333Y-73900000D01*
X119816666Y-73833333D01*
X119850000Y-73800000D01*
X119916666Y-73766666D01*
X119450000Y-74166666D02*
X119316666Y-74166666D01*
X119250000Y-74133333D01*
X119216666Y-74100000D01*
X119150000Y-74000000D01*
X119116666Y-73866666D01*
X119116666Y-73600000D01*
X119150000Y-73533333D01*
X119183333Y-73500000D01*
X119250000Y-73466666D01*
X119383333Y-73466666D01*
X119450000Y-73500000D01*
X119483333Y-73533333D01*
X119516666Y-73600000D01*
X119516666Y-73766666D01*
X119483333Y-73833333D01*
X119450000Y-73866666D01*
X119383333Y-73900000D01*
X119250000Y-73900000D01*
X119183333Y-73866666D01*
X119150000Y-73833333D01*
X119116666Y-73766666D01*
%TO.C,D6*%
X147202380Y-46496904D02*
X146202380Y-46496904D01*
X146202380Y-46735000D01*
X146250000Y-46877857D01*
X146345238Y-46973095D01*
X146440476Y-47020714D01*
X146630952Y-47068333D01*
X146773809Y-47068333D01*
X146964285Y-47020714D01*
X147059523Y-46973095D01*
X147154761Y-46877857D01*
X147202380Y-46735000D01*
X147202380Y-46496904D01*
X146202380Y-47925476D02*
X146202380Y-47735000D01*
X146250000Y-47639761D01*
X146297619Y-47592142D01*
X146440476Y-47496904D01*
X146630952Y-47449285D01*
X147011904Y-47449285D01*
X147107142Y-47496904D01*
X147154761Y-47544523D01*
X147202380Y-47639761D01*
X147202380Y-47830238D01*
X147154761Y-47925476D01*
X147107142Y-47973095D01*
X147011904Y-48020714D01*
X146773809Y-48020714D01*
X146678571Y-47973095D01*
X146630952Y-47925476D01*
X146583333Y-47830238D01*
X146583333Y-47639761D01*
X146630952Y-47544523D01*
X146678571Y-47496904D01*
X146773809Y-47449285D01*
%TO.C,D64*%
X102850000Y-40166666D02*
X102850000Y-39466666D01*
X102683333Y-39466666D01*
X102583333Y-39500000D01*
X102516666Y-39566666D01*
X102483333Y-39633333D01*
X102450000Y-39766666D01*
X102450000Y-39866666D01*
X102483333Y-40000000D01*
X102516666Y-40066666D01*
X102583333Y-40133333D01*
X102683333Y-40166666D01*
X102850000Y-40166666D01*
X101850000Y-39466666D02*
X101983333Y-39466666D01*
X102050000Y-39500000D01*
X102083333Y-39533333D01*
X102150000Y-39633333D01*
X102183333Y-39766666D01*
X102183333Y-40033333D01*
X102150000Y-40100000D01*
X102116666Y-40133333D01*
X102050000Y-40166666D01*
X101916666Y-40166666D01*
X101850000Y-40133333D01*
X101816666Y-40100000D01*
X101783333Y-40033333D01*
X101783333Y-39866666D01*
X101816666Y-39800000D01*
X101850000Y-39766666D01*
X101916666Y-39733333D01*
X102050000Y-39733333D01*
X102116666Y-39766666D01*
X102150000Y-39800000D01*
X102183333Y-39866666D01*
X101183333Y-39700000D02*
X101183333Y-40166666D01*
X101350000Y-39433333D02*
X101516666Y-39933333D01*
X101083333Y-39933333D01*
%TO.C,D23*%
X238102380Y-64785714D02*
X237102380Y-64785714D01*
X237102380Y-65023809D01*
X237150000Y-65166666D01*
X237245238Y-65261904D01*
X237340476Y-65309523D01*
X237530952Y-65357142D01*
X237673809Y-65357142D01*
X237864285Y-65309523D01*
X237959523Y-65261904D01*
X238054761Y-65166666D01*
X238102380Y-65023809D01*
X238102380Y-64785714D01*
X237197619Y-65738095D02*
X237150000Y-65785714D01*
X237102380Y-65880952D01*
X237102380Y-66119047D01*
X237150000Y-66214285D01*
X237197619Y-66261904D01*
X237292857Y-66309523D01*
X237388095Y-66309523D01*
X237530952Y-66261904D01*
X238102380Y-65690476D01*
X238102380Y-66309523D01*
X237102380Y-66642857D02*
X237102380Y-67261904D01*
X237483333Y-66928571D01*
X237483333Y-67071428D01*
X237530952Y-67166666D01*
X237578571Y-67214285D01*
X237673809Y-67261904D01*
X237911904Y-67261904D01*
X238007142Y-67214285D01*
X238054761Y-67166666D01*
X238102380Y-67071428D01*
X238102380Y-66785714D01*
X238054761Y-66690476D01*
X238007142Y-66642857D01*
%TO.C,D93*%
X192850000Y-74166666D02*
X192850000Y-73466666D01*
X192683333Y-73466666D01*
X192583333Y-73500000D01*
X192516666Y-73566666D01*
X192483333Y-73633333D01*
X192450000Y-73766666D01*
X192450000Y-73866666D01*
X192483333Y-74000000D01*
X192516666Y-74066666D01*
X192583333Y-74133333D01*
X192683333Y-74166666D01*
X192850000Y-74166666D01*
X192116666Y-74166666D02*
X191983333Y-74166666D01*
X191916666Y-74133333D01*
X191883333Y-74100000D01*
X191816666Y-74000000D01*
X191783333Y-73866666D01*
X191783333Y-73600000D01*
X191816666Y-73533333D01*
X191850000Y-73500000D01*
X191916666Y-73466666D01*
X192050000Y-73466666D01*
X192116666Y-73500000D01*
X192150000Y-73533333D01*
X192183333Y-73600000D01*
X192183333Y-73766666D01*
X192150000Y-73833333D01*
X192116666Y-73866666D01*
X192050000Y-73900000D01*
X191916666Y-73900000D01*
X191850000Y-73866666D01*
X191816666Y-73833333D01*
X191783333Y-73766666D01*
X191550000Y-73466666D02*
X191116666Y-73466666D01*
X191350000Y-73733333D01*
X191250000Y-73733333D01*
X191183333Y-73766666D01*
X191150000Y-73800000D01*
X191116666Y-73866666D01*
X191116666Y-74033333D01*
X191150000Y-74100000D01*
X191183333Y-74133333D01*
X191250000Y-74166666D01*
X191450000Y-74166666D01*
X191516666Y-74133333D01*
X191550000Y-74100000D01*
%TO.C,D15*%
X94102380Y-64785714D02*
X93102380Y-64785714D01*
X93102380Y-65023809D01*
X93150000Y-65166666D01*
X93245238Y-65261904D01*
X93340476Y-65309523D01*
X93530952Y-65357142D01*
X93673809Y-65357142D01*
X93864285Y-65309523D01*
X93959523Y-65261904D01*
X94054761Y-65166666D01*
X94102380Y-65023809D01*
X94102380Y-64785714D01*
X94102380Y-66309523D02*
X94102380Y-65738095D01*
X94102380Y-66023809D02*
X93102380Y-66023809D01*
X93245238Y-65928571D01*
X93340476Y-65833333D01*
X93388095Y-65738095D01*
X93102380Y-67214285D02*
X93102380Y-66738095D01*
X93578571Y-66690476D01*
X93530952Y-66738095D01*
X93483333Y-66833333D01*
X93483333Y-67071428D01*
X93530952Y-67166666D01*
X93578571Y-67214285D01*
X93673809Y-67261904D01*
X93911904Y-67261904D01*
X94007142Y-67214285D01*
X94054761Y-67166666D01*
X94102380Y-67071428D01*
X94102380Y-66833333D01*
X94054761Y-66738095D01*
X94007142Y-66690476D01*
%TO.C,D40*%
X112102380Y-98785714D02*
X111102380Y-98785714D01*
X111102380Y-99023809D01*
X111150000Y-99166666D01*
X111245238Y-99261904D01*
X111340476Y-99309523D01*
X111530952Y-99357142D01*
X111673809Y-99357142D01*
X111864285Y-99309523D01*
X111959523Y-99261904D01*
X112054761Y-99166666D01*
X112102380Y-99023809D01*
X112102380Y-98785714D01*
X111435714Y-100214285D02*
X112102380Y-100214285D01*
X111054761Y-99976190D02*
X111769047Y-99738095D01*
X111769047Y-100357142D01*
X111102380Y-100928571D02*
X111102380Y-101023809D01*
X111150000Y-101119047D01*
X111197619Y-101166666D01*
X111292857Y-101214285D01*
X111483333Y-101261904D01*
X111721428Y-101261904D01*
X111911904Y-101214285D01*
X112007142Y-101166666D01*
X112054761Y-101119047D01*
X112102380Y-101023809D01*
X112102380Y-100928571D01*
X112054761Y-100833333D01*
X112007142Y-100785714D01*
X111911904Y-100738095D01*
X111721428Y-100690476D01*
X111483333Y-100690476D01*
X111292857Y-100738095D01*
X111197619Y-100785714D01*
X111150000Y-100833333D01*
X111102380Y-100928571D01*
%TO.C,D43*%
X166102380Y-98810714D02*
X165102380Y-98810714D01*
X165102380Y-99048809D01*
X165150000Y-99191666D01*
X165245238Y-99286904D01*
X165340476Y-99334523D01*
X165530952Y-99382142D01*
X165673809Y-99382142D01*
X165864285Y-99334523D01*
X165959523Y-99286904D01*
X166054761Y-99191666D01*
X166102380Y-99048809D01*
X166102380Y-98810714D01*
X165435714Y-100239285D02*
X166102380Y-100239285D01*
X165054761Y-100001190D02*
X165769047Y-99763095D01*
X165769047Y-100382142D01*
X165102380Y-100667857D02*
X165102380Y-101286904D01*
X165483333Y-100953571D01*
X165483333Y-101096428D01*
X165530952Y-101191666D01*
X165578571Y-101239285D01*
X165673809Y-101286904D01*
X165911904Y-101286904D01*
X166007142Y-101239285D01*
X166054761Y-101191666D01*
X166102380Y-101096428D01*
X166102380Y-100810714D01*
X166054761Y-100715476D01*
X166007142Y-100667857D01*
%TO.C,D30*%
X148102380Y-81760714D02*
X147102380Y-81760714D01*
X147102380Y-81998809D01*
X147150000Y-82141666D01*
X147245238Y-82236904D01*
X147340476Y-82284523D01*
X147530952Y-82332142D01*
X147673809Y-82332142D01*
X147864285Y-82284523D01*
X147959523Y-82236904D01*
X148054761Y-82141666D01*
X148102380Y-81998809D01*
X148102380Y-81760714D01*
X147102380Y-82665476D02*
X147102380Y-83284523D01*
X147483333Y-82951190D01*
X147483333Y-83094047D01*
X147530952Y-83189285D01*
X147578571Y-83236904D01*
X147673809Y-83284523D01*
X147911904Y-83284523D01*
X148007142Y-83236904D01*
X148054761Y-83189285D01*
X148102380Y-83094047D01*
X148102380Y-82808333D01*
X148054761Y-82713095D01*
X148007142Y-82665476D01*
X147102380Y-83903571D02*
X147102380Y-83998809D01*
X147150000Y-84094047D01*
X147197619Y-84141666D01*
X147292857Y-84189285D01*
X147483333Y-84236904D01*
X147721428Y-84236904D01*
X147911904Y-84189285D01*
X148007142Y-84141666D01*
X148054761Y-84094047D01*
X148102380Y-83998809D01*
X148102380Y-83903571D01*
X148054761Y-83808333D01*
X148007142Y-83760714D01*
X147911904Y-83713095D01*
X147721428Y-83665476D01*
X147483333Y-83665476D01*
X147292857Y-83713095D01*
X147197619Y-83760714D01*
X147150000Y-83808333D01*
X147102380Y-83903571D01*
%TO.C,D29*%
X130102380Y-81785714D02*
X129102380Y-81785714D01*
X129102380Y-82023809D01*
X129150000Y-82166666D01*
X129245238Y-82261904D01*
X129340476Y-82309523D01*
X129530952Y-82357142D01*
X129673809Y-82357142D01*
X129864285Y-82309523D01*
X129959523Y-82261904D01*
X130054761Y-82166666D01*
X130102380Y-82023809D01*
X130102380Y-81785714D01*
X129197619Y-82738095D02*
X129150000Y-82785714D01*
X129102380Y-82880952D01*
X129102380Y-83119047D01*
X129150000Y-83214285D01*
X129197619Y-83261904D01*
X129292857Y-83309523D01*
X129388095Y-83309523D01*
X129530952Y-83261904D01*
X130102380Y-82690476D01*
X130102380Y-83309523D01*
X130102380Y-83785714D02*
X130102380Y-83976190D01*
X130054761Y-84071428D01*
X130007142Y-84119047D01*
X129864285Y-84214285D01*
X129673809Y-84261904D01*
X129292857Y-84261904D01*
X129197619Y-84214285D01*
X129150000Y-84166666D01*
X129102380Y-84071428D01*
X129102380Y-83880952D01*
X129150000Y-83785714D01*
X129197619Y-83738095D01*
X129292857Y-83690476D01*
X129530952Y-83690476D01*
X129626190Y-83738095D01*
X129673809Y-83785714D01*
X129721428Y-83880952D01*
X129721428Y-84071428D01*
X129673809Y-84166666D01*
X129626190Y-84214285D01*
X129530952Y-84261904D01*
%TO.C,D96*%
X246850000Y-74166666D02*
X246850000Y-73466666D01*
X246683333Y-73466666D01*
X246583333Y-73500000D01*
X246516666Y-73566666D01*
X246483333Y-73633333D01*
X246450000Y-73766666D01*
X246450000Y-73866666D01*
X246483333Y-74000000D01*
X246516666Y-74066666D01*
X246583333Y-74133333D01*
X246683333Y-74166666D01*
X246850000Y-74166666D01*
X246116666Y-74166666D02*
X245983333Y-74166666D01*
X245916666Y-74133333D01*
X245883333Y-74100000D01*
X245816666Y-74000000D01*
X245783333Y-73866666D01*
X245783333Y-73600000D01*
X245816666Y-73533333D01*
X245850000Y-73500000D01*
X245916666Y-73466666D01*
X246050000Y-73466666D01*
X246116666Y-73500000D01*
X246150000Y-73533333D01*
X246183333Y-73600000D01*
X246183333Y-73766666D01*
X246150000Y-73833333D01*
X246116666Y-73866666D01*
X246050000Y-73900000D01*
X245916666Y-73900000D01*
X245850000Y-73866666D01*
X245816666Y-73833333D01*
X245783333Y-73766666D01*
X245183333Y-73466666D02*
X245316666Y-73466666D01*
X245383333Y-73500000D01*
X245416666Y-73533333D01*
X245483333Y-73633333D01*
X245516666Y-73766666D01*
X245516666Y-74033333D01*
X245483333Y-74100000D01*
X245450000Y-74133333D01*
X245383333Y-74166666D01*
X245250000Y-74166666D01*
X245183333Y-74133333D01*
X245150000Y-74100000D01*
X245116666Y-74033333D01*
X245116666Y-73866666D01*
X245150000Y-73800000D01*
X245183333Y-73766666D01*
X245250000Y-73733333D01*
X245383333Y-73733333D01*
X245450000Y-73766666D01*
X245483333Y-73800000D01*
X245516666Y-73866666D01*
%TO.C,D54*%
X146002380Y-114285714D02*
X145002380Y-114285714D01*
X145002380Y-114523809D01*
X145050000Y-114666666D01*
X145145238Y-114761904D01*
X145240476Y-114809523D01*
X145430952Y-114857142D01*
X145573809Y-114857142D01*
X145764285Y-114809523D01*
X145859523Y-114761904D01*
X145954761Y-114666666D01*
X146002380Y-114523809D01*
X146002380Y-114285714D01*
X145002380Y-115761904D02*
X145002380Y-115285714D01*
X145478571Y-115238095D01*
X145430952Y-115285714D01*
X145383333Y-115380952D01*
X145383333Y-115619047D01*
X145430952Y-115714285D01*
X145478571Y-115761904D01*
X145573809Y-115809523D01*
X145811904Y-115809523D01*
X145907142Y-115761904D01*
X145954761Y-115714285D01*
X146002380Y-115619047D01*
X146002380Y-115380952D01*
X145954761Y-115285714D01*
X145907142Y-115238095D01*
X145335714Y-116666666D02*
X146002380Y-116666666D01*
X144954761Y-116428571D02*
X145669047Y-116190476D01*
X145669047Y-116809523D01*
%TO.C,D105*%
X193183333Y-91166666D02*
X193183333Y-90466666D01*
X193016666Y-90466666D01*
X192916666Y-90500000D01*
X192850000Y-90566666D01*
X192816666Y-90633333D01*
X192783333Y-90766666D01*
X192783333Y-90866666D01*
X192816666Y-91000000D01*
X192850000Y-91066666D01*
X192916666Y-91133333D01*
X193016666Y-91166666D01*
X193183333Y-91166666D01*
X192116666Y-91166666D02*
X192516666Y-91166666D01*
X192316666Y-91166666D02*
X192316666Y-90466666D01*
X192383333Y-90566666D01*
X192450000Y-90633333D01*
X192516666Y-90666666D01*
X191683333Y-90466666D02*
X191616666Y-90466666D01*
X191550000Y-90500000D01*
X191516666Y-90533333D01*
X191483333Y-90600000D01*
X191450000Y-90733333D01*
X191450000Y-90900000D01*
X191483333Y-91033333D01*
X191516666Y-91100000D01*
X191550000Y-91133333D01*
X191616666Y-91166666D01*
X191683333Y-91166666D01*
X191750000Y-91133333D01*
X191783333Y-91100000D01*
X191816666Y-91033333D01*
X191850000Y-90900000D01*
X191850000Y-90733333D01*
X191816666Y-90600000D01*
X191783333Y-90533333D01*
X191750000Y-90500000D01*
X191683333Y-90466666D01*
X190816666Y-90466666D02*
X191150000Y-90466666D01*
X191183333Y-90800000D01*
X191150000Y-90766666D01*
X191083333Y-90733333D01*
X190916666Y-90733333D01*
X190850000Y-90766666D01*
X190816666Y-90800000D01*
X190783333Y-90866666D01*
X190783333Y-91033333D01*
X190816666Y-91100000D01*
X190850000Y-91133333D01*
X190916666Y-91166666D01*
X191083333Y-91166666D01*
X191150000Y-91133333D01*
X191183333Y-91100000D01*
%TO.C,D52*%
X110002380Y-114285714D02*
X109002380Y-114285714D01*
X109002380Y-114523809D01*
X109050000Y-114666666D01*
X109145238Y-114761904D01*
X109240476Y-114809523D01*
X109430952Y-114857142D01*
X109573809Y-114857142D01*
X109764285Y-114809523D01*
X109859523Y-114761904D01*
X109954761Y-114666666D01*
X110002380Y-114523809D01*
X110002380Y-114285714D01*
X109002380Y-115761904D02*
X109002380Y-115285714D01*
X109478571Y-115238095D01*
X109430952Y-115285714D01*
X109383333Y-115380952D01*
X109383333Y-115619047D01*
X109430952Y-115714285D01*
X109478571Y-115761904D01*
X109573809Y-115809523D01*
X109811904Y-115809523D01*
X109907142Y-115761904D01*
X109954761Y-115714285D01*
X110002380Y-115619047D01*
X110002380Y-115380952D01*
X109954761Y-115285714D01*
X109907142Y-115238095D01*
X109097619Y-116190476D02*
X109050000Y-116238095D01*
X109002380Y-116333333D01*
X109002380Y-116571428D01*
X109050000Y-116666666D01*
X109097619Y-116714285D01*
X109192857Y-116761904D01*
X109288095Y-116761904D01*
X109430952Y-116714285D01*
X110002380Y-116142857D01*
X110002380Y-116761904D01*
%TO.C,R2*%
X36366666Y-54052380D02*
X36700000Y-53576190D01*
X36938095Y-54052380D02*
X36938095Y-53052380D01*
X36557142Y-53052380D01*
X36461904Y-53100000D01*
X36414285Y-53147619D01*
X36366666Y-53242857D01*
X36366666Y-53385714D01*
X36414285Y-53480952D01*
X36461904Y-53528571D01*
X36557142Y-53576190D01*
X36938095Y-53576190D01*
X35985714Y-53147619D02*
X35938095Y-53100000D01*
X35842857Y-53052380D01*
X35604761Y-53052380D01*
X35509523Y-53100000D01*
X35461904Y-53147619D01*
X35414285Y-53242857D01*
X35414285Y-53338095D01*
X35461904Y-53480952D01*
X36033333Y-54052380D01*
X35414285Y-54052380D01*
%TO.C,D101*%
X121183333Y-91166666D02*
X121183333Y-90466666D01*
X121016666Y-90466666D01*
X120916666Y-90500000D01*
X120850000Y-90566666D01*
X120816666Y-90633333D01*
X120783333Y-90766666D01*
X120783333Y-90866666D01*
X120816666Y-91000000D01*
X120850000Y-91066666D01*
X120916666Y-91133333D01*
X121016666Y-91166666D01*
X121183333Y-91166666D01*
X120116666Y-91166666D02*
X120516666Y-91166666D01*
X120316666Y-91166666D02*
X120316666Y-90466666D01*
X120383333Y-90566666D01*
X120450000Y-90633333D01*
X120516666Y-90666666D01*
X119683333Y-90466666D02*
X119616666Y-90466666D01*
X119550000Y-90500000D01*
X119516666Y-90533333D01*
X119483333Y-90600000D01*
X119450000Y-90733333D01*
X119450000Y-90900000D01*
X119483333Y-91033333D01*
X119516666Y-91100000D01*
X119550000Y-91133333D01*
X119616666Y-91166666D01*
X119683333Y-91166666D01*
X119750000Y-91133333D01*
X119783333Y-91100000D01*
X119816666Y-91033333D01*
X119850000Y-90900000D01*
X119850000Y-90733333D01*
X119816666Y-90600000D01*
X119783333Y-90533333D01*
X119750000Y-90500000D01*
X119683333Y-90466666D01*
X118783333Y-91166666D02*
X119183333Y-91166666D01*
X118983333Y-91166666D02*
X118983333Y-90466666D01*
X119050000Y-90566666D01*
X119116666Y-90633333D01*
X119183333Y-90666666D01*
%TO.C,D48*%
X253502380Y-98785714D02*
X252502380Y-98785714D01*
X252502380Y-99023809D01*
X252550000Y-99166666D01*
X252645238Y-99261904D01*
X252740476Y-99309523D01*
X252930952Y-99357142D01*
X253073809Y-99357142D01*
X253264285Y-99309523D01*
X253359523Y-99261904D01*
X253454761Y-99166666D01*
X253502380Y-99023809D01*
X253502380Y-98785714D01*
X252835714Y-100214285D02*
X253502380Y-100214285D01*
X252454761Y-99976190D02*
X253169047Y-99738095D01*
X253169047Y-100357142D01*
X252930952Y-100880952D02*
X252883333Y-100785714D01*
X252835714Y-100738095D01*
X252740476Y-100690476D01*
X252692857Y-100690476D01*
X252597619Y-100738095D01*
X252550000Y-100785714D01*
X252502380Y-100880952D01*
X252502380Y-101071428D01*
X252550000Y-101166666D01*
X252597619Y-101214285D01*
X252692857Y-101261904D01*
X252740476Y-101261904D01*
X252835714Y-101214285D01*
X252883333Y-101166666D01*
X252930952Y-101071428D01*
X252930952Y-100880952D01*
X252978571Y-100785714D01*
X253026190Y-100738095D01*
X253121428Y-100690476D01*
X253311904Y-100690476D01*
X253407142Y-100738095D01*
X253454761Y-100785714D01*
X253502380Y-100880952D01*
X253502380Y-101071428D01*
X253454761Y-101166666D01*
X253407142Y-101214285D01*
X253311904Y-101261904D01*
X253121428Y-101261904D01*
X253026190Y-101214285D01*
X252978571Y-101166666D01*
X252930952Y-101071428D01*
%TO.C,D47*%
X238102380Y-98785714D02*
X237102380Y-98785714D01*
X237102380Y-99023809D01*
X237150000Y-99166666D01*
X237245238Y-99261904D01*
X237340476Y-99309523D01*
X237530952Y-99357142D01*
X237673809Y-99357142D01*
X237864285Y-99309523D01*
X237959523Y-99261904D01*
X238054761Y-99166666D01*
X238102380Y-99023809D01*
X238102380Y-98785714D01*
X237435714Y-100214285D02*
X238102380Y-100214285D01*
X237054761Y-99976190D02*
X237769047Y-99738095D01*
X237769047Y-100357142D01*
X237102380Y-100642857D02*
X237102380Y-101309523D01*
X238102380Y-100880952D01*
%TO.C,D49*%
X56102380Y-114285714D02*
X55102380Y-114285714D01*
X55102380Y-114523809D01*
X55150000Y-114666666D01*
X55245238Y-114761904D01*
X55340476Y-114809523D01*
X55530952Y-114857142D01*
X55673809Y-114857142D01*
X55864285Y-114809523D01*
X55959523Y-114761904D01*
X56054761Y-114666666D01*
X56102380Y-114523809D01*
X56102380Y-114285714D01*
X55435714Y-115714285D02*
X56102380Y-115714285D01*
X55054761Y-115476190D02*
X55769047Y-115238095D01*
X55769047Y-115857142D01*
X56102380Y-116285714D02*
X56102380Y-116476190D01*
X56054761Y-116571428D01*
X56007142Y-116619047D01*
X55864285Y-116714285D01*
X55673809Y-116761904D01*
X55292857Y-116761904D01*
X55197619Y-116714285D01*
X55150000Y-116666666D01*
X55102380Y-116571428D01*
X55102380Y-116380952D01*
X55150000Y-116285714D01*
X55197619Y-116238095D01*
X55292857Y-116190476D01*
X55530952Y-116190476D01*
X55626190Y-116238095D01*
X55673809Y-116285714D01*
X55721428Y-116380952D01*
X55721428Y-116571428D01*
X55673809Y-116666666D01*
X55626190Y-116714285D01*
X55530952Y-116761904D01*
%TO.C,D13*%
X58102380Y-64785714D02*
X57102380Y-64785714D01*
X57102380Y-65023809D01*
X57150000Y-65166666D01*
X57245238Y-65261904D01*
X57340476Y-65309523D01*
X57530952Y-65357142D01*
X57673809Y-65357142D01*
X57864285Y-65309523D01*
X57959523Y-65261904D01*
X58054761Y-65166666D01*
X58102380Y-65023809D01*
X58102380Y-64785714D01*
X58102380Y-66309523D02*
X58102380Y-65738095D01*
X58102380Y-66023809D02*
X57102380Y-66023809D01*
X57245238Y-65928571D01*
X57340476Y-65833333D01*
X57388095Y-65738095D01*
X57102380Y-66642857D02*
X57102380Y-67261904D01*
X57483333Y-66928571D01*
X57483333Y-67071428D01*
X57530952Y-67166666D01*
X57578571Y-67214285D01*
X57673809Y-67261904D01*
X57911904Y-67261904D01*
X58007142Y-67214285D01*
X58054761Y-67166666D01*
X58102380Y-67071428D01*
X58102380Y-66785714D01*
X58054761Y-66690476D01*
X58007142Y-66642857D01*
%TO.C,D102*%
X139183333Y-91166666D02*
X139183333Y-90466666D01*
X139016666Y-90466666D01*
X138916666Y-90500000D01*
X138850000Y-90566666D01*
X138816666Y-90633333D01*
X138783333Y-90766666D01*
X138783333Y-90866666D01*
X138816666Y-91000000D01*
X138850000Y-91066666D01*
X138916666Y-91133333D01*
X139016666Y-91166666D01*
X139183333Y-91166666D01*
X138116666Y-91166666D02*
X138516666Y-91166666D01*
X138316666Y-91166666D02*
X138316666Y-90466666D01*
X138383333Y-90566666D01*
X138450000Y-90633333D01*
X138516666Y-90666666D01*
X137683333Y-90466666D02*
X137616666Y-90466666D01*
X137550000Y-90500000D01*
X137516666Y-90533333D01*
X137483333Y-90600000D01*
X137450000Y-90733333D01*
X137450000Y-90900000D01*
X137483333Y-91033333D01*
X137516666Y-91100000D01*
X137550000Y-91133333D01*
X137616666Y-91166666D01*
X137683333Y-91166666D01*
X137750000Y-91133333D01*
X137783333Y-91100000D01*
X137816666Y-91033333D01*
X137850000Y-90900000D01*
X137850000Y-90733333D01*
X137816666Y-90600000D01*
X137783333Y-90533333D01*
X137750000Y-90500000D01*
X137683333Y-90466666D01*
X137183333Y-90533333D02*
X137150000Y-90500000D01*
X137083333Y-90466666D01*
X136916666Y-90466666D01*
X136850000Y-90500000D01*
X136816666Y-90533333D01*
X136783333Y-90600000D01*
X136783333Y-90666666D01*
X136816666Y-90766666D01*
X137216666Y-91166666D01*
X136783333Y-91166666D01*
%TO.C,D63*%
X84850000Y-40166666D02*
X84850000Y-39466666D01*
X84683333Y-39466666D01*
X84583333Y-39500000D01*
X84516666Y-39566666D01*
X84483333Y-39633333D01*
X84450000Y-39766666D01*
X84450000Y-39866666D01*
X84483333Y-40000000D01*
X84516666Y-40066666D01*
X84583333Y-40133333D01*
X84683333Y-40166666D01*
X84850000Y-40166666D01*
X83850000Y-39466666D02*
X83983333Y-39466666D01*
X84050000Y-39500000D01*
X84083333Y-39533333D01*
X84150000Y-39633333D01*
X84183333Y-39766666D01*
X84183333Y-40033333D01*
X84150000Y-40100000D01*
X84116666Y-40133333D01*
X84050000Y-40166666D01*
X83916666Y-40166666D01*
X83850000Y-40133333D01*
X83816666Y-40100000D01*
X83783333Y-40033333D01*
X83783333Y-39866666D01*
X83816666Y-39800000D01*
X83850000Y-39766666D01*
X83916666Y-39733333D01*
X84050000Y-39733333D01*
X84116666Y-39766666D01*
X84150000Y-39800000D01*
X84183333Y-39866666D01*
X83550000Y-39466666D02*
X83116666Y-39466666D01*
X83350000Y-39733333D01*
X83250000Y-39733333D01*
X83183333Y-39766666D01*
X83150000Y-39800000D01*
X83116666Y-39866666D01*
X83116666Y-40033333D01*
X83150000Y-40100000D01*
X83183333Y-40133333D01*
X83250000Y-40166666D01*
X83450000Y-40166666D01*
X83516666Y-40133333D01*
X83550000Y-40100000D01*
%TO.C,D31*%
X166102380Y-81760714D02*
X165102380Y-81760714D01*
X165102380Y-81998809D01*
X165150000Y-82141666D01*
X165245238Y-82236904D01*
X165340476Y-82284523D01*
X165530952Y-82332142D01*
X165673809Y-82332142D01*
X165864285Y-82284523D01*
X165959523Y-82236904D01*
X166054761Y-82141666D01*
X166102380Y-81998809D01*
X166102380Y-81760714D01*
X165102380Y-82665476D02*
X165102380Y-83284523D01*
X165483333Y-82951190D01*
X165483333Y-83094047D01*
X165530952Y-83189285D01*
X165578571Y-83236904D01*
X165673809Y-83284523D01*
X165911904Y-83284523D01*
X166007142Y-83236904D01*
X166054761Y-83189285D01*
X166102380Y-83094047D01*
X166102380Y-82808333D01*
X166054761Y-82713095D01*
X166007142Y-82665476D01*
X166102380Y-84236904D02*
X166102380Y-83665476D01*
X166102380Y-83951190D02*
X165102380Y-83951190D01*
X165245238Y-83855952D01*
X165340476Y-83760714D01*
X165388095Y-83665476D01*
%TO.C,D56*%
X182002380Y-114285714D02*
X181002380Y-114285714D01*
X181002380Y-114523809D01*
X181050000Y-114666666D01*
X181145238Y-114761904D01*
X181240476Y-114809523D01*
X181430952Y-114857142D01*
X181573809Y-114857142D01*
X181764285Y-114809523D01*
X181859523Y-114761904D01*
X181954761Y-114666666D01*
X182002380Y-114523809D01*
X182002380Y-114285714D01*
X181002380Y-115761904D02*
X181002380Y-115285714D01*
X181478571Y-115238095D01*
X181430952Y-115285714D01*
X181383333Y-115380952D01*
X181383333Y-115619047D01*
X181430952Y-115714285D01*
X181478571Y-115761904D01*
X181573809Y-115809523D01*
X181811904Y-115809523D01*
X181907142Y-115761904D01*
X181954761Y-115714285D01*
X182002380Y-115619047D01*
X182002380Y-115380952D01*
X181954761Y-115285714D01*
X181907142Y-115238095D01*
X181002380Y-116666666D02*
X181002380Y-116476190D01*
X181050000Y-116380952D01*
X181097619Y-116333333D01*
X181240476Y-116238095D01*
X181430952Y-116190476D01*
X181811904Y-116190476D01*
X181907142Y-116238095D01*
X181954761Y-116285714D01*
X182002380Y-116380952D01*
X182002380Y-116571428D01*
X181954761Y-116666666D01*
X181907142Y-116714285D01*
X181811904Y-116761904D01*
X181573809Y-116761904D01*
X181478571Y-116714285D01*
X181430952Y-116666666D01*
X181383333Y-116571428D01*
X181383333Y-116380952D01*
X181430952Y-116285714D01*
X181478571Y-116238095D01*
X181573809Y-116190476D01*
%TO.C,D118*%
X211183333Y-108166666D02*
X211183333Y-107466666D01*
X211016666Y-107466666D01*
X210916666Y-107500000D01*
X210850000Y-107566666D01*
X210816666Y-107633333D01*
X210783333Y-107766666D01*
X210783333Y-107866666D01*
X210816666Y-108000000D01*
X210850000Y-108066666D01*
X210916666Y-108133333D01*
X211016666Y-108166666D01*
X211183333Y-108166666D01*
X210116666Y-108166666D02*
X210516666Y-108166666D01*
X210316666Y-108166666D02*
X210316666Y-107466666D01*
X210383333Y-107566666D01*
X210450000Y-107633333D01*
X210516666Y-107666666D01*
X209450000Y-108166666D02*
X209850000Y-108166666D01*
X209650000Y-108166666D02*
X209650000Y-107466666D01*
X209716666Y-107566666D01*
X209783333Y-107633333D01*
X209850000Y-107666666D01*
X209050000Y-107766666D02*
X209116666Y-107733333D01*
X209150000Y-107700000D01*
X209183333Y-107633333D01*
X209183333Y-107600000D01*
X209150000Y-107533333D01*
X209116666Y-107500000D01*
X209050000Y-107466666D01*
X208916666Y-107466666D01*
X208850000Y-107500000D01*
X208816666Y-107533333D01*
X208783333Y-107600000D01*
X208783333Y-107633333D01*
X208816666Y-107700000D01*
X208850000Y-107733333D01*
X208916666Y-107766666D01*
X209050000Y-107766666D01*
X209116666Y-107800000D01*
X209150000Y-107833333D01*
X209183333Y-107900000D01*
X209183333Y-108033333D01*
X209150000Y-108100000D01*
X209116666Y-108133333D01*
X209050000Y-108166666D01*
X208916666Y-108166666D01*
X208850000Y-108133333D01*
X208816666Y-108100000D01*
X208783333Y-108033333D01*
X208783333Y-107900000D01*
X208816666Y-107833333D01*
X208850000Y-107800000D01*
X208916666Y-107766666D01*
%TO.C,D120*%
X247183333Y-108166666D02*
X247183333Y-107466666D01*
X247016666Y-107466666D01*
X246916666Y-107500000D01*
X246850000Y-107566666D01*
X246816666Y-107633333D01*
X246783333Y-107766666D01*
X246783333Y-107866666D01*
X246816666Y-108000000D01*
X246850000Y-108066666D01*
X246916666Y-108133333D01*
X247016666Y-108166666D01*
X247183333Y-108166666D01*
X246116666Y-108166666D02*
X246516666Y-108166666D01*
X246316666Y-108166666D02*
X246316666Y-107466666D01*
X246383333Y-107566666D01*
X246450000Y-107633333D01*
X246516666Y-107666666D01*
X245850000Y-107533333D02*
X245816666Y-107500000D01*
X245750000Y-107466666D01*
X245583333Y-107466666D01*
X245516666Y-107500000D01*
X245483333Y-107533333D01*
X245450000Y-107600000D01*
X245450000Y-107666666D01*
X245483333Y-107766666D01*
X245883333Y-108166666D01*
X245450000Y-108166666D01*
X245016666Y-107466666D02*
X244950000Y-107466666D01*
X244883333Y-107500000D01*
X244850000Y-107533333D01*
X244816666Y-107600000D01*
X244783333Y-107733333D01*
X244783333Y-107900000D01*
X244816666Y-108033333D01*
X244850000Y-108100000D01*
X244883333Y-108133333D01*
X244950000Y-108166666D01*
X245016666Y-108166666D01*
X245083333Y-108133333D01*
X245116666Y-108100000D01*
X245150000Y-108033333D01*
X245183333Y-107900000D01*
X245183333Y-107733333D01*
X245150000Y-107600000D01*
X245116666Y-107533333D01*
X245083333Y-107500000D01*
X245016666Y-107466666D01*
%TO.C,D1*%
X57202380Y-46496904D02*
X56202380Y-46496904D01*
X56202380Y-46735000D01*
X56250000Y-46877857D01*
X56345238Y-46973095D01*
X56440476Y-47020714D01*
X56630952Y-47068333D01*
X56773809Y-47068333D01*
X56964285Y-47020714D01*
X57059523Y-46973095D01*
X57154761Y-46877857D01*
X57202380Y-46735000D01*
X57202380Y-46496904D01*
X57202380Y-48020714D02*
X57202380Y-47449285D01*
X57202380Y-47735000D02*
X56202380Y-47735000D01*
X56345238Y-47639761D01*
X56440476Y-47544523D01*
X56488095Y-47449285D01*
%TO.C,D119*%
X229183333Y-108166666D02*
X229183333Y-107466666D01*
X229016666Y-107466666D01*
X228916666Y-107500000D01*
X228850000Y-107566666D01*
X228816666Y-107633333D01*
X228783333Y-107766666D01*
X228783333Y-107866666D01*
X228816666Y-108000000D01*
X228850000Y-108066666D01*
X228916666Y-108133333D01*
X229016666Y-108166666D01*
X229183333Y-108166666D01*
X228116666Y-108166666D02*
X228516666Y-108166666D01*
X228316666Y-108166666D02*
X228316666Y-107466666D01*
X228383333Y-107566666D01*
X228450000Y-107633333D01*
X228516666Y-107666666D01*
X227450000Y-108166666D02*
X227850000Y-108166666D01*
X227650000Y-108166666D02*
X227650000Y-107466666D01*
X227716666Y-107566666D01*
X227783333Y-107633333D01*
X227850000Y-107666666D01*
X227116666Y-108166666D02*
X226983333Y-108166666D01*
X226916666Y-108133333D01*
X226883333Y-108100000D01*
X226816666Y-108000000D01*
X226783333Y-107866666D01*
X226783333Y-107600000D01*
X226816666Y-107533333D01*
X226850000Y-107500000D01*
X226916666Y-107466666D01*
X227050000Y-107466666D01*
X227116666Y-107500000D01*
X227150000Y-107533333D01*
X227183333Y-107600000D01*
X227183333Y-107766666D01*
X227150000Y-107833333D01*
X227116666Y-107866666D01*
X227050000Y-107900000D01*
X226916666Y-107900000D01*
X226850000Y-107866666D01*
X226816666Y-107833333D01*
X226783333Y-107766666D01*
%TO.C,D71*%
X228850000Y-40166666D02*
X228850000Y-39466666D01*
X228683333Y-39466666D01*
X228583333Y-39500000D01*
X228516666Y-39566666D01*
X228483333Y-39633333D01*
X228450000Y-39766666D01*
X228450000Y-39866666D01*
X228483333Y-40000000D01*
X228516666Y-40066666D01*
X228583333Y-40133333D01*
X228683333Y-40166666D01*
X228850000Y-40166666D01*
X228216666Y-39466666D02*
X227750000Y-39466666D01*
X228050000Y-40166666D01*
X227116666Y-40166666D02*
X227516666Y-40166666D01*
X227316666Y-40166666D02*
X227316666Y-39466666D01*
X227383333Y-39566666D01*
X227450000Y-39633333D01*
X227516666Y-39666666D01*
%TO.C,D92*%
X174850000Y-74166666D02*
X174850000Y-73466666D01*
X174683333Y-73466666D01*
X174583333Y-73500000D01*
X174516666Y-73566666D01*
X174483333Y-73633333D01*
X174450000Y-73766666D01*
X174450000Y-73866666D01*
X174483333Y-74000000D01*
X174516666Y-74066666D01*
X174583333Y-74133333D01*
X174683333Y-74166666D01*
X174850000Y-74166666D01*
X174116666Y-74166666D02*
X173983333Y-74166666D01*
X173916666Y-74133333D01*
X173883333Y-74100000D01*
X173816666Y-74000000D01*
X173783333Y-73866666D01*
X173783333Y-73600000D01*
X173816666Y-73533333D01*
X173850000Y-73500000D01*
X173916666Y-73466666D01*
X174050000Y-73466666D01*
X174116666Y-73500000D01*
X174150000Y-73533333D01*
X174183333Y-73600000D01*
X174183333Y-73766666D01*
X174150000Y-73833333D01*
X174116666Y-73866666D01*
X174050000Y-73900000D01*
X173916666Y-73900000D01*
X173850000Y-73866666D01*
X173816666Y-73833333D01*
X173783333Y-73766666D01*
X173516666Y-73533333D02*
X173483333Y-73500000D01*
X173416666Y-73466666D01*
X173250000Y-73466666D01*
X173183333Y-73500000D01*
X173150000Y-73533333D01*
X173116666Y-73600000D01*
X173116666Y-73666666D01*
X173150000Y-73766666D01*
X173550000Y-74166666D01*
X173116666Y-74166666D01*
%TO.C,D42*%
X148102380Y-98785714D02*
X147102380Y-98785714D01*
X147102380Y-99023809D01*
X147150000Y-99166666D01*
X147245238Y-99261904D01*
X147340476Y-99309523D01*
X147530952Y-99357142D01*
X147673809Y-99357142D01*
X147864285Y-99309523D01*
X147959523Y-99261904D01*
X148054761Y-99166666D01*
X148102380Y-99023809D01*
X148102380Y-98785714D01*
X147435714Y-100214285D02*
X148102380Y-100214285D01*
X147054761Y-99976190D02*
X147769047Y-99738095D01*
X147769047Y-100357142D01*
X147197619Y-100690476D02*
X147150000Y-100738095D01*
X147102380Y-100833333D01*
X147102380Y-101071428D01*
X147150000Y-101166666D01*
X147197619Y-101214285D01*
X147292857Y-101261904D01*
X147388095Y-101261904D01*
X147530952Y-101214285D01*
X148102380Y-100642857D01*
X148102380Y-101261904D01*
%TO.C,D76*%
X102850000Y-57166666D02*
X102850000Y-56466666D01*
X102683333Y-56466666D01*
X102583333Y-56500000D01*
X102516666Y-56566666D01*
X102483333Y-56633333D01*
X102450000Y-56766666D01*
X102450000Y-56866666D01*
X102483333Y-57000000D01*
X102516666Y-57066666D01*
X102583333Y-57133333D01*
X102683333Y-57166666D01*
X102850000Y-57166666D01*
X102216666Y-56466666D02*
X101750000Y-56466666D01*
X102050000Y-57166666D01*
X101183333Y-56466666D02*
X101316666Y-56466666D01*
X101383333Y-56500000D01*
X101416666Y-56533333D01*
X101483333Y-56633333D01*
X101516666Y-56766666D01*
X101516666Y-57033333D01*
X101483333Y-57100000D01*
X101450000Y-57133333D01*
X101383333Y-57166666D01*
X101250000Y-57166666D01*
X101183333Y-57133333D01*
X101150000Y-57100000D01*
X101116666Y-57033333D01*
X101116666Y-56866666D01*
X101150000Y-56800000D01*
X101183333Y-56766666D01*
X101250000Y-56733333D01*
X101383333Y-56733333D01*
X101450000Y-56766666D01*
X101483333Y-56800000D01*
X101516666Y-56866666D01*
%TO.C,D67*%
X156850000Y-40166666D02*
X156850000Y-39466666D01*
X156683333Y-39466666D01*
X156583333Y-39500000D01*
X156516666Y-39566666D01*
X156483333Y-39633333D01*
X156450000Y-39766666D01*
X156450000Y-39866666D01*
X156483333Y-40000000D01*
X156516666Y-40066666D01*
X156583333Y-40133333D01*
X156683333Y-40166666D01*
X156850000Y-40166666D01*
X155850000Y-39466666D02*
X155983333Y-39466666D01*
X156050000Y-39500000D01*
X156083333Y-39533333D01*
X156150000Y-39633333D01*
X156183333Y-39766666D01*
X156183333Y-40033333D01*
X156150000Y-40100000D01*
X156116666Y-40133333D01*
X156050000Y-40166666D01*
X155916666Y-40166666D01*
X155850000Y-40133333D01*
X155816666Y-40100000D01*
X155783333Y-40033333D01*
X155783333Y-39866666D01*
X155816666Y-39800000D01*
X155850000Y-39766666D01*
X155916666Y-39733333D01*
X156050000Y-39733333D01*
X156116666Y-39766666D01*
X156150000Y-39800000D01*
X156183333Y-39866666D01*
X155550000Y-39466666D02*
X155083333Y-39466666D01*
X155383333Y-40166666D01*
%TO.C,D74*%
X66850000Y-57166666D02*
X66850000Y-56466666D01*
X66683333Y-56466666D01*
X66583333Y-56500000D01*
X66516666Y-56566666D01*
X66483333Y-56633333D01*
X66450000Y-56766666D01*
X66450000Y-56866666D01*
X66483333Y-57000000D01*
X66516666Y-57066666D01*
X66583333Y-57133333D01*
X66683333Y-57166666D01*
X66850000Y-57166666D01*
X66216666Y-56466666D02*
X65750000Y-56466666D01*
X66050000Y-57166666D01*
X65183333Y-56700000D02*
X65183333Y-57166666D01*
X65350000Y-56433333D02*
X65516666Y-56933333D01*
X65083333Y-56933333D01*
%TO.C,D62*%
X66850000Y-40166666D02*
X66850000Y-39466666D01*
X66683333Y-39466666D01*
X66583333Y-39500000D01*
X66516666Y-39566666D01*
X66483333Y-39633333D01*
X66450000Y-39766666D01*
X66450000Y-39866666D01*
X66483333Y-40000000D01*
X66516666Y-40066666D01*
X66583333Y-40133333D01*
X66683333Y-40166666D01*
X66850000Y-40166666D01*
X65850000Y-39466666D02*
X65983333Y-39466666D01*
X66050000Y-39500000D01*
X66083333Y-39533333D01*
X66150000Y-39633333D01*
X66183333Y-39766666D01*
X66183333Y-40033333D01*
X66150000Y-40100000D01*
X66116666Y-40133333D01*
X66050000Y-40166666D01*
X65916666Y-40166666D01*
X65850000Y-40133333D01*
X65816666Y-40100000D01*
X65783333Y-40033333D01*
X65783333Y-39866666D01*
X65816666Y-39800000D01*
X65850000Y-39766666D01*
X65916666Y-39733333D01*
X66050000Y-39733333D01*
X66116666Y-39766666D01*
X66150000Y-39800000D01*
X66183333Y-39866666D01*
X65516666Y-39533333D02*
X65483333Y-39500000D01*
X65416666Y-39466666D01*
X65250000Y-39466666D01*
X65183333Y-39500000D01*
X65150000Y-39533333D01*
X65116666Y-39600000D01*
X65116666Y-39666666D01*
X65150000Y-39766666D01*
X65550000Y-40166666D01*
X65116666Y-40166666D01*
%TO.C,D87*%
X84850000Y-74166666D02*
X84850000Y-73466666D01*
X84683333Y-73466666D01*
X84583333Y-73500000D01*
X84516666Y-73566666D01*
X84483333Y-73633333D01*
X84450000Y-73766666D01*
X84450000Y-73866666D01*
X84483333Y-74000000D01*
X84516666Y-74066666D01*
X84583333Y-74133333D01*
X84683333Y-74166666D01*
X84850000Y-74166666D01*
X84050000Y-73766666D02*
X84116666Y-73733333D01*
X84150000Y-73700000D01*
X84183333Y-73633333D01*
X84183333Y-73600000D01*
X84150000Y-73533333D01*
X84116666Y-73500000D01*
X84050000Y-73466666D01*
X83916666Y-73466666D01*
X83850000Y-73500000D01*
X83816666Y-73533333D01*
X83783333Y-73600000D01*
X83783333Y-73633333D01*
X83816666Y-73700000D01*
X83850000Y-73733333D01*
X83916666Y-73766666D01*
X84050000Y-73766666D01*
X84116666Y-73800000D01*
X84150000Y-73833333D01*
X84183333Y-73900000D01*
X84183333Y-74033333D01*
X84150000Y-74100000D01*
X84116666Y-74133333D01*
X84050000Y-74166666D01*
X83916666Y-74166666D01*
X83850000Y-74133333D01*
X83816666Y-74100000D01*
X83783333Y-74033333D01*
X83783333Y-73900000D01*
X83816666Y-73833333D01*
X83850000Y-73800000D01*
X83916666Y-73766666D01*
X83550000Y-73466666D02*
X83083333Y-73466666D01*
X83383333Y-74166666D01*
%TO.C,D112*%
X103183333Y-108166666D02*
X103183333Y-107466666D01*
X103016666Y-107466666D01*
X102916666Y-107500000D01*
X102850000Y-107566666D01*
X102816666Y-107633333D01*
X102783333Y-107766666D01*
X102783333Y-107866666D01*
X102816666Y-108000000D01*
X102850000Y-108066666D01*
X102916666Y-108133333D01*
X103016666Y-108166666D01*
X103183333Y-108166666D01*
X102116666Y-108166666D02*
X102516666Y-108166666D01*
X102316666Y-108166666D02*
X102316666Y-107466666D01*
X102383333Y-107566666D01*
X102450000Y-107633333D01*
X102516666Y-107666666D01*
X101450000Y-108166666D02*
X101850000Y-108166666D01*
X101650000Y-108166666D02*
X101650000Y-107466666D01*
X101716666Y-107566666D01*
X101783333Y-107633333D01*
X101850000Y-107666666D01*
X101183333Y-107533333D02*
X101150000Y-107500000D01*
X101083333Y-107466666D01*
X100916666Y-107466666D01*
X100850000Y-107500000D01*
X100816666Y-107533333D01*
X100783333Y-107600000D01*
X100783333Y-107666666D01*
X100816666Y-107766666D01*
X101216666Y-108166666D01*
X100783333Y-108166666D01*
%TO.C,D109*%
X49183333Y-108166666D02*
X49183333Y-107466666D01*
X49016666Y-107466666D01*
X48916666Y-107500000D01*
X48850000Y-107566666D01*
X48816666Y-107633333D01*
X48783333Y-107766666D01*
X48783333Y-107866666D01*
X48816666Y-108000000D01*
X48850000Y-108066666D01*
X48916666Y-108133333D01*
X49016666Y-108166666D01*
X49183333Y-108166666D01*
X48116666Y-108166666D02*
X48516666Y-108166666D01*
X48316666Y-108166666D02*
X48316666Y-107466666D01*
X48383333Y-107566666D01*
X48450000Y-107633333D01*
X48516666Y-107666666D01*
X47683333Y-107466666D02*
X47616666Y-107466666D01*
X47550000Y-107500000D01*
X47516666Y-107533333D01*
X47483333Y-107600000D01*
X47450000Y-107733333D01*
X47450000Y-107900000D01*
X47483333Y-108033333D01*
X47516666Y-108100000D01*
X47550000Y-108133333D01*
X47616666Y-108166666D01*
X47683333Y-108166666D01*
X47750000Y-108133333D01*
X47783333Y-108100000D01*
X47816666Y-108033333D01*
X47850000Y-107900000D01*
X47850000Y-107733333D01*
X47816666Y-107600000D01*
X47783333Y-107533333D01*
X47750000Y-107500000D01*
X47683333Y-107466666D01*
X47116666Y-108166666D02*
X46983333Y-108166666D01*
X46916666Y-108133333D01*
X46883333Y-108100000D01*
X46816666Y-108000000D01*
X46783333Y-107866666D01*
X46783333Y-107600000D01*
X46816666Y-107533333D01*
X46850000Y-107500000D01*
X46916666Y-107466666D01*
X47050000Y-107466666D01*
X47116666Y-107500000D01*
X47150000Y-107533333D01*
X47183333Y-107600000D01*
X47183333Y-107766666D01*
X47150000Y-107833333D01*
X47116666Y-107866666D01*
X47050000Y-107900000D01*
X46916666Y-107900000D01*
X46850000Y-107866666D01*
X46816666Y-107833333D01*
X46783333Y-107766666D01*
%TO.C,D7*%
X165202380Y-46496904D02*
X164202380Y-46496904D01*
X164202380Y-46735000D01*
X164250000Y-46877857D01*
X164345238Y-46973095D01*
X164440476Y-47020714D01*
X164630952Y-47068333D01*
X164773809Y-47068333D01*
X164964285Y-47020714D01*
X165059523Y-46973095D01*
X165154761Y-46877857D01*
X165202380Y-46735000D01*
X165202380Y-46496904D01*
X164202380Y-47401666D02*
X164202380Y-48068333D01*
X165202380Y-47639761D01*
%TO.C,D88*%
X102850000Y-74166666D02*
X102850000Y-73466666D01*
X102683333Y-73466666D01*
X102583333Y-73500000D01*
X102516666Y-73566666D01*
X102483333Y-73633333D01*
X102450000Y-73766666D01*
X102450000Y-73866666D01*
X102483333Y-74000000D01*
X102516666Y-74066666D01*
X102583333Y-74133333D01*
X102683333Y-74166666D01*
X102850000Y-74166666D01*
X102050000Y-73766666D02*
X102116666Y-73733333D01*
X102150000Y-73700000D01*
X102183333Y-73633333D01*
X102183333Y-73600000D01*
X102150000Y-73533333D01*
X102116666Y-73500000D01*
X102050000Y-73466666D01*
X101916666Y-73466666D01*
X101850000Y-73500000D01*
X101816666Y-73533333D01*
X101783333Y-73600000D01*
X101783333Y-73633333D01*
X101816666Y-73700000D01*
X101850000Y-73733333D01*
X101916666Y-73766666D01*
X102050000Y-73766666D01*
X102116666Y-73800000D01*
X102150000Y-73833333D01*
X102183333Y-73900000D01*
X102183333Y-74033333D01*
X102150000Y-74100000D01*
X102116666Y-74133333D01*
X102050000Y-74166666D01*
X101916666Y-74166666D01*
X101850000Y-74133333D01*
X101816666Y-74100000D01*
X101783333Y-74033333D01*
X101783333Y-73900000D01*
X101816666Y-73833333D01*
X101850000Y-73800000D01*
X101916666Y-73766666D01*
X101383333Y-73766666D02*
X101450000Y-73733333D01*
X101483333Y-73700000D01*
X101516666Y-73633333D01*
X101516666Y-73600000D01*
X101483333Y-73533333D01*
X101450000Y-73500000D01*
X101383333Y-73466666D01*
X101250000Y-73466666D01*
X101183333Y-73500000D01*
X101150000Y-73533333D01*
X101116666Y-73600000D01*
X101116666Y-73633333D01*
X101150000Y-73700000D01*
X101183333Y-73733333D01*
X101250000Y-73766666D01*
X101383333Y-73766666D01*
X101450000Y-73800000D01*
X101483333Y-73833333D01*
X101516666Y-73900000D01*
X101516666Y-74033333D01*
X101483333Y-74100000D01*
X101450000Y-74133333D01*
X101383333Y-74166666D01*
X101250000Y-74166666D01*
X101183333Y-74133333D01*
X101150000Y-74100000D01*
X101116666Y-74033333D01*
X101116666Y-73900000D01*
X101150000Y-73833333D01*
X101183333Y-73800000D01*
X101250000Y-73766666D01*
%TO.C,D90*%
X138850000Y-74166666D02*
X138850000Y-73466666D01*
X138683333Y-73466666D01*
X138583333Y-73500000D01*
X138516666Y-73566666D01*
X138483333Y-73633333D01*
X138450000Y-73766666D01*
X138450000Y-73866666D01*
X138483333Y-74000000D01*
X138516666Y-74066666D01*
X138583333Y-74133333D01*
X138683333Y-74166666D01*
X138850000Y-74166666D01*
X138116666Y-74166666D02*
X137983333Y-74166666D01*
X137916666Y-74133333D01*
X137883333Y-74100000D01*
X137816666Y-74000000D01*
X137783333Y-73866666D01*
X137783333Y-73600000D01*
X137816666Y-73533333D01*
X137850000Y-73500000D01*
X137916666Y-73466666D01*
X138050000Y-73466666D01*
X138116666Y-73500000D01*
X138150000Y-73533333D01*
X138183333Y-73600000D01*
X138183333Y-73766666D01*
X138150000Y-73833333D01*
X138116666Y-73866666D01*
X138050000Y-73900000D01*
X137916666Y-73900000D01*
X137850000Y-73866666D01*
X137816666Y-73833333D01*
X137783333Y-73766666D01*
X137350000Y-73466666D02*
X137283333Y-73466666D01*
X137216666Y-73500000D01*
X137183333Y-73533333D01*
X137150000Y-73600000D01*
X137116666Y-73733333D01*
X137116666Y-73900000D01*
X137150000Y-74033333D01*
X137183333Y-74100000D01*
X137216666Y-74133333D01*
X137283333Y-74166666D01*
X137350000Y-74166666D01*
X137416666Y-74133333D01*
X137450000Y-74100000D01*
X137483333Y-74033333D01*
X137516666Y-73900000D01*
X137516666Y-73733333D01*
X137483333Y-73600000D01*
X137450000Y-73533333D01*
X137416666Y-73500000D01*
X137350000Y-73466666D01*
%TO.C,D111*%
X85183333Y-108166666D02*
X85183333Y-107466666D01*
X85016666Y-107466666D01*
X84916666Y-107500000D01*
X84850000Y-107566666D01*
X84816666Y-107633333D01*
X84783333Y-107766666D01*
X84783333Y-107866666D01*
X84816666Y-108000000D01*
X84850000Y-108066666D01*
X84916666Y-108133333D01*
X85016666Y-108166666D01*
X85183333Y-108166666D01*
X84116666Y-108166666D02*
X84516666Y-108166666D01*
X84316666Y-108166666D02*
X84316666Y-107466666D01*
X84383333Y-107566666D01*
X84450000Y-107633333D01*
X84516666Y-107666666D01*
X83450000Y-108166666D02*
X83850000Y-108166666D01*
X83650000Y-108166666D02*
X83650000Y-107466666D01*
X83716666Y-107566666D01*
X83783333Y-107633333D01*
X83850000Y-107666666D01*
X82783333Y-108166666D02*
X83183333Y-108166666D01*
X82983333Y-108166666D02*
X82983333Y-107466666D01*
X83050000Y-107566666D01*
X83116666Y-107633333D01*
X83183333Y-107666666D01*
%TO.C,D3*%
X93202380Y-46496904D02*
X92202380Y-46496904D01*
X92202380Y-46735000D01*
X92250000Y-46877857D01*
X92345238Y-46973095D01*
X92440476Y-47020714D01*
X92630952Y-47068333D01*
X92773809Y-47068333D01*
X92964285Y-47020714D01*
X93059523Y-46973095D01*
X93154761Y-46877857D01*
X93202380Y-46735000D01*
X93202380Y-46496904D01*
X92202380Y-47401666D02*
X92202380Y-48020714D01*
X92583333Y-47687380D01*
X92583333Y-47830238D01*
X92630952Y-47925476D01*
X92678571Y-47973095D01*
X92773809Y-48020714D01*
X93011904Y-48020714D01*
X93107142Y-47973095D01*
X93154761Y-47925476D01*
X93202380Y-47830238D01*
X93202380Y-47544523D01*
X93154761Y-47449285D01*
X93107142Y-47401666D01*
%TO.C,D66*%
X138850000Y-40166666D02*
X138850000Y-39466666D01*
X138683333Y-39466666D01*
X138583333Y-39500000D01*
X138516666Y-39566666D01*
X138483333Y-39633333D01*
X138450000Y-39766666D01*
X138450000Y-39866666D01*
X138483333Y-40000000D01*
X138516666Y-40066666D01*
X138583333Y-40133333D01*
X138683333Y-40166666D01*
X138850000Y-40166666D01*
X137850000Y-39466666D02*
X137983333Y-39466666D01*
X138050000Y-39500000D01*
X138083333Y-39533333D01*
X138150000Y-39633333D01*
X138183333Y-39766666D01*
X138183333Y-40033333D01*
X138150000Y-40100000D01*
X138116666Y-40133333D01*
X138050000Y-40166666D01*
X137916666Y-40166666D01*
X137850000Y-40133333D01*
X137816666Y-40100000D01*
X137783333Y-40033333D01*
X137783333Y-39866666D01*
X137816666Y-39800000D01*
X137850000Y-39766666D01*
X137916666Y-39733333D01*
X138050000Y-39733333D01*
X138116666Y-39766666D01*
X138150000Y-39800000D01*
X138183333Y-39866666D01*
X137183333Y-39466666D02*
X137316666Y-39466666D01*
X137383333Y-39500000D01*
X137416666Y-39533333D01*
X137483333Y-39633333D01*
X137516666Y-39766666D01*
X137516666Y-40033333D01*
X137483333Y-40100000D01*
X137450000Y-40133333D01*
X137383333Y-40166666D01*
X137250000Y-40166666D01*
X137183333Y-40133333D01*
X137150000Y-40100000D01*
X137116666Y-40033333D01*
X137116666Y-39866666D01*
X137150000Y-39800000D01*
X137183333Y-39766666D01*
X137250000Y-39733333D01*
X137383333Y-39733333D01*
X137450000Y-39766666D01*
X137483333Y-39800000D01*
X137516666Y-39866666D01*
%TO.C,D11*%
X237202380Y-46020714D02*
X236202380Y-46020714D01*
X236202380Y-46258809D01*
X236250000Y-46401666D01*
X236345238Y-46496904D01*
X236440476Y-46544523D01*
X236630952Y-46592142D01*
X236773809Y-46592142D01*
X236964285Y-46544523D01*
X237059523Y-46496904D01*
X237154761Y-46401666D01*
X237202380Y-46258809D01*
X237202380Y-46020714D01*
X237202380Y-47544523D02*
X237202380Y-46973095D01*
X237202380Y-47258809D02*
X236202380Y-47258809D01*
X236345238Y-47163571D01*
X236440476Y-47068333D01*
X236488095Y-46973095D01*
X237202380Y-48496904D02*
X237202380Y-47925476D01*
X237202380Y-48211190D02*
X236202380Y-48211190D01*
X236345238Y-48115952D01*
X236440476Y-48020714D01*
X236488095Y-47925476D01*
%TO.C,D116*%
X175183333Y-108166666D02*
X175183333Y-107466666D01*
X175016666Y-107466666D01*
X174916666Y-107500000D01*
X174850000Y-107566666D01*
X174816666Y-107633333D01*
X174783333Y-107766666D01*
X174783333Y-107866666D01*
X174816666Y-108000000D01*
X174850000Y-108066666D01*
X174916666Y-108133333D01*
X175016666Y-108166666D01*
X175183333Y-108166666D01*
X174116666Y-108166666D02*
X174516666Y-108166666D01*
X174316666Y-108166666D02*
X174316666Y-107466666D01*
X174383333Y-107566666D01*
X174450000Y-107633333D01*
X174516666Y-107666666D01*
X173450000Y-108166666D02*
X173850000Y-108166666D01*
X173650000Y-108166666D02*
X173650000Y-107466666D01*
X173716666Y-107566666D01*
X173783333Y-107633333D01*
X173850000Y-107666666D01*
X172850000Y-107466666D02*
X172983333Y-107466666D01*
X173050000Y-107500000D01*
X173083333Y-107533333D01*
X173150000Y-107633333D01*
X173183333Y-107766666D01*
X173183333Y-108033333D01*
X173150000Y-108100000D01*
X173116666Y-108133333D01*
X173050000Y-108166666D01*
X172916666Y-108166666D01*
X172850000Y-108133333D01*
X172816666Y-108100000D01*
X172783333Y-108033333D01*
X172783333Y-107866666D01*
X172816666Y-107800000D01*
X172850000Y-107766666D01*
X172916666Y-107733333D01*
X173050000Y-107733333D01*
X173116666Y-107766666D01*
X173150000Y-107800000D01*
X173183333Y-107866666D01*
%TO.C,D32*%
X184102380Y-81785714D02*
X183102380Y-81785714D01*
X183102380Y-82023809D01*
X183150000Y-82166666D01*
X183245238Y-82261904D01*
X183340476Y-82309523D01*
X183530952Y-82357142D01*
X183673809Y-82357142D01*
X183864285Y-82309523D01*
X183959523Y-82261904D01*
X184054761Y-82166666D01*
X184102380Y-82023809D01*
X184102380Y-81785714D01*
X183102380Y-82690476D02*
X183102380Y-83309523D01*
X183483333Y-82976190D01*
X183483333Y-83119047D01*
X183530952Y-83214285D01*
X183578571Y-83261904D01*
X183673809Y-83309523D01*
X183911904Y-83309523D01*
X184007142Y-83261904D01*
X184054761Y-83214285D01*
X184102380Y-83119047D01*
X184102380Y-82833333D01*
X184054761Y-82738095D01*
X184007142Y-82690476D01*
X183197619Y-83690476D02*
X183150000Y-83738095D01*
X183102380Y-83833333D01*
X183102380Y-84071428D01*
X183150000Y-84166666D01*
X183197619Y-84214285D01*
X183292857Y-84261904D01*
X183388095Y-84261904D01*
X183530952Y-84214285D01*
X184102380Y-83642857D01*
X184102380Y-84261904D01*
%TO.C,D25*%
X58102380Y-81785714D02*
X57102380Y-81785714D01*
X57102380Y-82023809D01*
X57150000Y-82166666D01*
X57245238Y-82261904D01*
X57340476Y-82309523D01*
X57530952Y-82357142D01*
X57673809Y-82357142D01*
X57864285Y-82309523D01*
X57959523Y-82261904D01*
X58054761Y-82166666D01*
X58102380Y-82023809D01*
X58102380Y-81785714D01*
X57197619Y-82738095D02*
X57150000Y-82785714D01*
X57102380Y-82880952D01*
X57102380Y-83119047D01*
X57150000Y-83214285D01*
X57197619Y-83261904D01*
X57292857Y-83309523D01*
X57388095Y-83309523D01*
X57530952Y-83261904D01*
X58102380Y-82690476D01*
X58102380Y-83309523D01*
X57102380Y-84214285D02*
X57102380Y-83738095D01*
X57578571Y-83690476D01*
X57530952Y-83738095D01*
X57483333Y-83833333D01*
X57483333Y-84071428D01*
X57530952Y-84166666D01*
X57578571Y-84214285D01*
X57673809Y-84261904D01*
X57911904Y-84261904D01*
X58007142Y-84214285D01*
X58054761Y-84166666D01*
X58102380Y-84071428D01*
X58102380Y-83833333D01*
X58054761Y-83738095D01*
X58007142Y-83690476D01*
%TO.C,D50*%
X74102380Y-114385714D02*
X73102380Y-114385714D01*
X73102380Y-114623809D01*
X73150000Y-114766666D01*
X73245238Y-114861904D01*
X73340476Y-114909523D01*
X73530952Y-114957142D01*
X73673809Y-114957142D01*
X73864285Y-114909523D01*
X73959523Y-114861904D01*
X74054761Y-114766666D01*
X74102380Y-114623809D01*
X74102380Y-114385714D01*
X73102380Y-115861904D02*
X73102380Y-115385714D01*
X73578571Y-115338095D01*
X73530952Y-115385714D01*
X73483333Y-115480952D01*
X73483333Y-115719047D01*
X73530952Y-115814285D01*
X73578571Y-115861904D01*
X73673809Y-115909523D01*
X73911904Y-115909523D01*
X74007142Y-115861904D01*
X74054761Y-115814285D01*
X74102380Y-115719047D01*
X74102380Y-115480952D01*
X74054761Y-115385714D01*
X74007142Y-115338095D01*
X73102380Y-116528571D02*
X73102380Y-116623809D01*
X73150000Y-116719047D01*
X73197619Y-116766666D01*
X73292857Y-116814285D01*
X73483333Y-116861904D01*
X73721428Y-116861904D01*
X73911904Y-116814285D01*
X74007142Y-116766666D01*
X74054761Y-116719047D01*
X74102380Y-116623809D01*
X74102380Y-116528571D01*
X74054761Y-116433333D01*
X74007142Y-116385714D01*
X73911904Y-116338095D01*
X73721428Y-116290476D01*
X73483333Y-116290476D01*
X73292857Y-116338095D01*
X73197619Y-116385714D01*
X73150000Y-116433333D01*
X73102380Y-116528571D01*
%TO.C,D115*%
X157183333Y-108166666D02*
X157183333Y-107466666D01*
X157016666Y-107466666D01*
X156916666Y-107500000D01*
X156850000Y-107566666D01*
X156816666Y-107633333D01*
X156783333Y-107766666D01*
X156783333Y-107866666D01*
X156816666Y-108000000D01*
X156850000Y-108066666D01*
X156916666Y-108133333D01*
X157016666Y-108166666D01*
X157183333Y-108166666D01*
X156116666Y-108166666D02*
X156516666Y-108166666D01*
X156316666Y-108166666D02*
X156316666Y-107466666D01*
X156383333Y-107566666D01*
X156450000Y-107633333D01*
X156516666Y-107666666D01*
X155450000Y-108166666D02*
X155850000Y-108166666D01*
X155650000Y-108166666D02*
X155650000Y-107466666D01*
X155716666Y-107566666D01*
X155783333Y-107633333D01*
X155850000Y-107666666D01*
X154816666Y-107466666D02*
X155150000Y-107466666D01*
X155183333Y-107800000D01*
X155150000Y-107766666D01*
X155083333Y-107733333D01*
X154916666Y-107733333D01*
X154850000Y-107766666D01*
X154816666Y-107800000D01*
X154783333Y-107866666D01*
X154783333Y-108033333D01*
X154816666Y-108100000D01*
X154850000Y-108133333D01*
X154916666Y-108166666D01*
X155083333Y-108166666D01*
X155150000Y-108133333D01*
X155183333Y-108100000D01*
%TO.C,D27*%
X94102380Y-81785714D02*
X93102380Y-81785714D01*
X93102380Y-82023809D01*
X93150000Y-82166666D01*
X93245238Y-82261904D01*
X93340476Y-82309523D01*
X93530952Y-82357142D01*
X93673809Y-82357142D01*
X93864285Y-82309523D01*
X93959523Y-82261904D01*
X94054761Y-82166666D01*
X94102380Y-82023809D01*
X94102380Y-81785714D01*
X93197619Y-82738095D02*
X93150000Y-82785714D01*
X93102380Y-82880952D01*
X93102380Y-83119047D01*
X93150000Y-83214285D01*
X93197619Y-83261904D01*
X93292857Y-83309523D01*
X93388095Y-83309523D01*
X93530952Y-83261904D01*
X94102380Y-82690476D01*
X94102380Y-83309523D01*
X93102380Y-83642857D02*
X93102380Y-84309523D01*
X94102380Y-83880952D01*
%TO.C,D86*%
X66850000Y-74166666D02*
X66850000Y-73466666D01*
X66683333Y-73466666D01*
X66583333Y-73500000D01*
X66516666Y-73566666D01*
X66483333Y-73633333D01*
X66450000Y-73766666D01*
X66450000Y-73866666D01*
X66483333Y-74000000D01*
X66516666Y-74066666D01*
X66583333Y-74133333D01*
X66683333Y-74166666D01*
X66850000Y-74166666D01*
X66050000Y-73766666D02*
X66116666Y-73733333D01*
X66150000Y-73700000D01*
X66183333Y-73633333D01*
X66183333Y-73600000D01*
X66150000Y-73533333D01*
X66116666Y-73500000D01*
X66050000Y-73466666D01*
X65916666Y-73466666D01*
X65850000Y-73500000D01*
X65816666Y-73533333D01*
X65783333Y-73600000D01*
X65783333Y-73633333D01*
X65816666Y-73700000D01*
X65850000Y-73733333D01*
X65916666Y-73766666D01*
X66050000Y-73766666D01*
X66116666Y-73800000D01*
X66150000Y-73833333D01*
X66183333Y-73900000D01*
X66183333Y-74033333D01*
X66150000Y-74100000D01*
X66116666Y-74133333D01*
X66050000Y-74166666D01*
X65916666Y-74166666D01*
X65850000Y-74133333D01*
X65816666Y-74100000D01*
X65783333Y-74033333D01*
X65783333Y-73900000D01*
X65816666Y-73833333D01*
X65850000Y-73800000D01*
X65916666Y-73766666D01*
X65183333Y-73466666D02*
X65316666Y-73466666D01*
X65383333Y-73500000D01*
X65416666Y-73533333D01*
X65483333Y-73633333D01*
X65516666Y-73766666D01*
X65516666Y-74033333D01*
X65483333Y-74100000D01*
X65450000Y-74133333D01*
X65383333Y-74166666D01*
X65250000Y-74166666D01*
X65183333Y-74133333D01*
X65150000Y-74100000D01*
X65116666Y-74033333D01*
X65116666Y-73866666D01*
X65150000Y-73800000D01*
X65183333Y-73766666D01*
X65250000Y-73733333D01*
X65383333Y-73733333D01*
X65450000Y-73766666D01*
X65483333Y-73800000D01*
X65516666Y-73866666D01*
%TO.C,D16*%
X112102380Y-64785714D02*
X111102380Y-64785714D01*
X111102380Y-65023809D01*
X111150000Y-65166666D01*
X111245238Y-65261904D01*
X111340476Y-65309523D01*
X111530952Y-65357142D01*
X111673809Y-65357142D01*
X111864285Y-65309523D01*
X111959523Y-65261904D01*
X112054761Y-65166666D01*
X112102380Y-65023809D01*
X112102380Y-64785714D01*
X112102380Y-66309523D02*
X112102380Y-65738095D01*
X112102380Y-66023809D02*
X111102380Y-66023809D01*
X111245238Y-65928571D01*
X111340476Y-65833333D01*
X111388095Y-65738095D01*
X111102380Y-67166666D02*
X111102380Y-66976190D01*
X111150000Y-66880952D01*
X111197619Y-66833333D01*
X111340476Y-66738095D01*
X111530952Y-66690476D01*
X111911904Y-66690476D01*
X112007142Y-66738095D01*
X112054761Y-66785714D01*
X112102380Y-66880952D01*
X112102380Y-67071428D01*
X112054761Y-67166666D01*
X112007142Y-67214285D01*
X111911904Y-67261904D01*
X111673809Y-67261904D01*
X111578571Y-67214285D01*
X111530952Y-67166666D01*
X111483333Y-67071428D01*
X111483333Y-66880952D01*
X111530952Y-66785714D01*
X111578571Y-66738095D01*
X111673809Y-66690476D01*
%TO.C,D68*%
X174850000Y-40166666D02*
X174850000Y-39466666D01*
X174683333Y-39466666D01*
X174583333Y-39500000D01*
X174516666Y-39566666D01*
X174483333Y-39633333D01*
X174450000Y-39766666D01*
X174450000Y-39866666D01*
X174483333Y-40000000D01*
X174516666Y-40066666D01*
X174583333Y-40133333D01*
X174683333Y-40166666D01*
X174850000Y-40166666D01*
X173850000Y-39466666D02*
X173983333Y-39466666D01*
X174050000Y-39500000D01*
X174083333Y-39533333D01*
X174150000Y-39633333D01*
X174183333Y-39766666D01*
X174183333Y-40033333D01*
X174150000Y-40100000D01*
X174116666Y-40133333D01*
X174050000Y-40166666D01*
X173916666Y-40166666D01*
X173850000Y-40133333D01*
X173816666Y-40100000D01*
X173783333Y-40033333D01*
X173783333Y-39866666D01*
X173816666Y-39800000D01*
X173850000Y-39766666D01*
X173916666Y-39733333D01*
X174050000Y-39733333D01*
X174116666Y-39766666D01*
X174150000Y-39800000D01*
X174183333Y-39866666D01*
X173383333Y-39766666D02*
X173450000Y-39733333D01*
X173483333Y-39700000D01*
X173516666Y-39633333D01*
X173516666Y-39600000D01*
X173483333Y-39533333D01*
X173450000Y-39500000D01*
X173383333Y-39466666D01*
X173250000Y-39466666D01*
X173183333Y-39500000D01*
X173150000Y-39533333D01*
X173116666Y-39600000D01*
X173116666Y-39633333D01*
X173150000Y-39700000D01*
X173183333Y-39733333D01*
X173250000Y-39766666D01*
X173383333Y-39766666D01*
X173450000Y-39800000D01*
X173483333Y-39833333D01*
X173516666Y-39900000D01*
X173516666Y-40033333D01*
X173483333Y-40100000D01*
X173450000Y-40133333D01*
X173383333Y-40166666D01*
X173250000Y-40166666D01*
X173183333Y-40133333D01*
X173150000Y-40100000D01*
X173116666Y-40033333D01*
X173116666Y-39900000D01*
X173150000Y-39833333D01*
X173183333Y-39800000D01*
X173250000Y-39766666D01*
%TO.C,D103*%
X157183333Y-91166666D02*
X157183333Y-90466666D01*
X157016666Y-90466666D01*
X156916666Y-90500000D01*
X156850000Y-90566666D01*
X156816666Y-90633333D01*
X156783333Y-90766666D01*
X156783333Y-90866666D01*
X156816666Y-91000000D01*
X156850000Y-91066666D01*
X156916666Y-91133333D01*
X157016666Y-91166666D01*
X157183333Y-91166666D01*
X156116666Y-91166666D02*
X156516666Y-91166666D01*
X156316666Y-91166666D02*
X156316666Y-90466666D01*
X156383333Y-90566666D01*
X156450000Y-90633333D01*
X156516666Y-90666666D01*
X155683333Y-90466666D02*
X155616666Y-90466666D01*
X155550000Y-90500000D01*
X155516666Y-90533333D01*
X155483333Y-90600000D01*
X155450000Y-90733333D01*
X155450000Y-90900000D01*
X155483333Y-91033333D01*
X155516666Y-91100000D01*
X155550000Y-91133333D01*
X155616666Y-91166666D01*
X155683333Y-91166666D01*
X155750000Y-91133333D01*
X155783333Y-91100000D01*
X155816666Y-91033333D01*
X155850000Y-90900000D01*
X155850000Y-90733333D01*
X155816666Y-90600000D01*
X155783333Y-90533333D01*
X155750000Y-90500000D01*
X155683333Y-90466666D01*
X155216666Y-90466666D02*
X154783333Y-90466666D01*
X155016666Y-90733333D01*
X154916666Y-90733333D01*
X154850000Y-90766666D01*
X154816666Y-90800000D01*
X154783333Y-90866666D01*
X154783333Y-91033333D01*
X154816666Y-91100000D01*
X154850000Y-91133333D01*
X154916666Y-91166666D01*
X155116666Y-91166666D01*
X155183333Y-91133333D01*
X155216666Y-91100000D01*
%TO.C,D78*%
X138850000Y-57166666D02*
X138850000Y-56466666D01*
X138683333Y-56466666D01*
X138583333Y-56500000D01*
X138516666Y-56566666D01*
X138483333Y-56633333D01*
X138450000Y-56766666D01*
X138450000Y-56866666D01*
X138483333Y-57000000D01*
X138516666Y-57066666D01*
X138583333Y-57133333D01*
X138683333Y-57166666D01*
X138850000Y-57166666D01*
X138216666Y-56466666D02*
X137750000Y-56466666D01*
X138050000Y-57166666D01*
X137383333Y-56766666D02*
X137450000Y-56733333D01*
X137483333Y-56700000D01*
X137516666Y-56633333D01*
X137516666Y-56600000D01*
X137483333Y-56533333D01*
X137450000Y-56500000D01*
X137383333Y-56466666D01*
X137250000Y-56466666D01*
X137183333Y-56500000D01*
X137150000Y-56533333D01*
X137116666Y-56600000D01*
X137116666Y-56633333D01*
X137150000Y-56700000D01*
X137183333Y-56733333D01*
X137250000Y-56766666D01*
X137383333Y-56766666D01*
X137450000Y-56800000D01*
X137483333Y-56833333D01*
X137516666Y-56900000D01*
X137516666Y-57033333D01*
X137483333Y-57100000D01*
X137450000Y-57133333D01*
X137383333Y-57166666D01*
X137250000Y-57166666D01*
X137183333Y-57133333D01*
X137150000Y-57100000D01*
X137116666Y-57033333D01*
X137116666Y-56900000D01*
X137150000Y-56833333D01*
X137183333Y-56800000D01*
X137250000Y-56766666D01*
%TO.C,R1*%
X36266666Y-56352380D02*
X36600000Y-55876190D01*
X36838095Y-56352380D02*
X36838095Y-55352380D01*
X36457142Y-55352380D01*
X36361904Y-55400000D01*
X36314285Y-55447619D01*
X36266666Y-55542857D01*
X36266666Y-55685714D01*
X36314285Y-55780952D01*
X36361904Y-55828571D01*
X36457142Y-55876190D01*
X36838095Y-55876190D01*
X35314285Y-56352380D02*
X35885714Y-56352380D01*
X35600000Y-56352380D02*
X35600000Y-55352380D01*
X35695238Y-55495238D01*
X35790476Y-55590476D01*
X35885714Y-55638095D01*
%TO.C,D69*%
X192850000Y-40166666D02*
X192850000Y-39466666D01*
X192683333Y-39466666D01*
X192583333Y-39500000D01*
X192516666Y-39566666D01*
X192483333Y-39633333D01*
X192450000Y-39766666D01*
X192450000Y-39866666D01*
X192483333Y-40000000D01*
X192516666Y-40066666D01*
X192583333Y-40133333D01*
X192683333Y-40166666D01*
X192850000Y-40166666D01*
X191850000Y-39466666D02*
X191983333Y-39466666D01*
X192050000Y-39500000D01*
X192083333Y-39533333D01*
X192150000Y-39633333D01*
X192183333Y-39766666D01*
X192183333Y-40033333D01*
X192150000Y-40100000D01*
X192116666Y-40133333D01*
X192050000Y-40166666D01*
X191916666Y-40166666D01*
X191850000Y-40133333D01*
X191816666Y-40100000D01*
X191783333Y-40033333D01*
X191783333Y-39866666D01*
X191816666Y-39800000D01*
X191850000Y-39766666D01*
X191916666Y-39733333D01*
X192050000Y-39733333D01*
X192116666Y-39766666D01*
X192150000Y-39800000D01*
X192183333Y-39866666D01*
X191450000Y-40166666D02*
X191316666Y-40166666D01*
X191250000Y-40133333D01*
X191216666Y-40100000D01*
X191150000Y-40000000D01*
X191116666Y-39866666D01*
X191116666Y-39600000D01*
X191150000Y-39533333D01*
X191183333Y-39500000D01*
X191250000Y-39466666D01*
X191383333Y-39466666D01*
X191450000Y-39500000D01*
X191483333Y-39533333D01*
X191516666Y-39600000D01*
X191516666Y-39766666D01*
X191483333Y-39833333D01*
X191450000Y-39866666D01*
X191383333Y-39900000D01*
X191250000Y-39900000D01*
X191183333Y-39866666D01*
X191150000Y-39833333D01*
X191116666Y-39766666D01*
%TO.C,D24*%
X253702380Y-64785714D02*
X252702380Y-64785714D01*
X252702380Y-65023809D01*
X252750000Y-65166666D01*
X252845238Y-65261904D01*
X252940476Y-65309523D01*
X253130952Y-65357142D01*
X253273809Y-65357142D01*
X253464285Y-65309523D01*
X253559523Y-65261904D01*
X253654761Y-65166666D01*
X253702380Y-65023809D01*
X253702380Y-64785714D01*
X252797619Y-65738095D02*
X252750000Y-65785714D01*
X252702380Y-65880952D01*
X252702380Y-66119047D01*
X252750000Y-66214285D01*
X252797619Y-66261904D01*
X252892857Y-66309523D01*
X252988095Y-66309523D01*
X253130952Y-66261904D01*
X253702380Y-65690476D01*
X253702380Y-66309523D01*
X253035714Y-67166666D02*
X253702380Y-67166666D01*
X252654761Y-66928571D02*
X253369047Y-66690476D01*
X253369047Y-67309523D01*
%TO.C,D60*%
X254002380Y-114285714D02*
X253002380Y-114285714D01*
X253002380Y-114523809D01*
X253050000Y-114666666D01*
X253145238Y-114761904D01*
X253240476Y-114809523D01*
X253430952Y-114857142D01*
X253573809Y-114857142D01*
X253764285Y-114809523D01*
X253859523Y-114761904D01*
X253954761Y-114666666D01*
X254002380Y-114523809D01*
X254002380Y-114285714D01*
X253002380Y-115714285D02*
X253002380Y-115523809D01*
X253050000Y-115428571D01*
X253097619Y-115380952D01*
X253240476Y-115285714D01*
X253430952Y-115238095D01*
X253811904Y-115238095D01*
X253907142Y-115285714D01*
X253954761Y-115333333D01*
X254002380Y-115428571D01*
X254002380Y-115619047D01*
X253954761Y-115714285D01*
X253907142Y-115761904D01*
X253811904Y-115809523D01*
X253573809Y-115809523D01*
X253478571Y-115761904D01*
X253430952Y-115714285D01*
X253383333Y-115619047D01*
X253383333Y-115428571D01*
X253430952Y-115333333D01*
X253478571Y-115285714D01*
X253573809Y-115238095D01*
X253002380Y-116428571D02*
X253002380Y-116523809D01*
X253050000Y-116619047D01*
X253097619Y-116666666D01*
X253192857Y-116714285D01*
X253383333Y-116761904D01*
X253621428Y-116761904D01*
X253811904Y-116714285D01*
X253907142Y-116666666D01*
X253954761Y-116619047D01*
X254002380Y-116523809D01*
X254002380Y-116428571D01*
X253954761Y-116333333D01*
X253907142Y-116285714D01*
X253811904Y-116238095D01*
X253621428Y-116190476D01*
X253383333Y-116190476D01*
X253192857Y-116238095D01*
X253097619Y-116285714D01*
X253050000Y-116333333D01*
X253002380Y-116428571D01*
%TO.C,D94*%
X210850000Y-74166666D02*
X210850000Y-73466666D01*
X210683333Y-73466666D01*
X210583333Y-73500000D01*
X210516666Y-73566666D01*
X210483333Y-73633333D01*
X210450000Y-73766666D01*
X210450000Y-73866666D01*
X210483333Y-74000000D01*
X210516666Y-74066666D01*
X210583333Y-74133333D01*
X210683333Y-74166666D01*
X210850000Y-74166666D01*
X210116666Y-74166666D02*
X209983333Y-74166666D01*
X209916666Y-74133333D01*
X209883333Y-74100000D01*
X209816666Y-74000000D01*
X209783333Y-73866666D01*
X209783333Y-73600000D01*
X209816666Y-73533333D01*
X209850000Y-73500000D01*
X209916666Y-73466666D01*
X210050000Y-73466666D01*
X210116666Y-73500000D01*
X210150000Y-73533333D01*
X210183333Y-73600000D01*
X210183333Y-73766666D01*
X210150000Y-73833333D01*
X210116666Y-73866666D01*
X210050000Y-73900000D01*
X209916666Y-73900000D01*
X209850000Y-73866666D01*
X209816666Y-73833333D01*
X209783333Y-73766666D01*
X209183333Y-73700000D02*
X209183333Y-74166666D01*
X209350000Y-73433333D02*
X209516666Y-73933333D01*
X209083333Y-73933333D01*
%TO.C,D82*%
X210850000Y-57166666D02*
X210850000Y-56466666D01*
X210683333Y-56466666D01*
X210583333Y-56500000D01*
X210516666Y-56566666D01*
X210483333Y-56633333D01*
X210450000Y-56766666D01*
X210450000Y-56866666D01*
X210483333Y-57000000D01*
X210516666Y-57066666D01*
X210583333Y-57133333D01*
X210683333Y-57166666D01*
X210850000Y-57166666D01*
X210050000Y-56766666D02*
X210116666Y-56733333D01*
X210150000Y-56700000D01*
X210183333Y-56633333D01*
X210183333Y-56600000D01*
X210150000Y-56533333D01*
X210116666Y-56500000D01*
X210050000Y-56466666D01*
X209916666Y-56466666D01*
X209850000Y-56500000D01*
X209816666Y-56533333D01*
X209783333Y-56600000D01*
X209783333Y-56633333D01*
X209816666Y-56700000D01*
X209850000Y-56733333D01*
X209916666Y-56766666D01*
X210050000Y-56766666D01*
X210116666Y-56800000D01*
X210150000Y-56833333D01*
X210183333Y-56900000D01*
X210183333Y-57033333D01*
X210150000Y-57100000D01*
X210116666Y-57133333D01*
X210050000Y-57166666D01*
X209916666Y-57166666D01*
X209850000Y-57133333D01*
X209816666Y-57100000D01*
X209783333Y-57033333D01*
X209783333Y-56900000D01*
X209816666Y-56833333D01*
X209850000Y-56800000D01*
X209916666Y-56766666D01*
X209516666Y-56533333D02*
X209483333Y-56500000D01*
X209416666Y-56466666D01*
X209250000Y-56466666D01*
X209183333Y-56500000D01*
X209150000Y-56533333D01*
X209116666Y-56600000D01*
X209116666Y-56666666D01*
X209150000Y-56766666D01*
X209550000Y-57166666D01*
X209116666Y-57166666D01*
%TO.C,D2*%
X75202380Y-46496904D02*
X74202380Y-46496904D01*
X74202380Y-46735000D01*
X74250000Y-46877857D01*
X74345238Y-46973095D01*
X74440476Y-47020714D01*
X74630952Y-47068333D01*
X74773809Y-47068333D01*
X74964285Y-47020714D01*
X75059523Y-46973095D01*
X75154761Y-46877857D01*
X75202380Y-46735000D01*
X75202380Y-46496904D01*
X74297619Y-47449285D02*
X74250000Y-47496904D01*
X74202380Y-47592142D01*
X74202380Y-47830238D01*
X74250000Y-47925476D01*
X74297619Y-47973095D01*
X74392857Y-48020714D01*
X74488095Y-48020714D01*
X74630952Y-47973095D01*
X75202380Y-47401666D01*
X75202380Y-48020714D01*
%TO.C,D22*%
X219952380Y-64785714D02*
X218952380Y-64785714D01*
X218952380Y-65023809D01*
X219000000Y-65166666D01*
X219095238Y-65261904D01*
X219190476Y-65309523D01*
X219380952Y-65357142D01*
X219523809Y-65357142D01*
X219714285Y-65309523D01*
X219809523Y-65261904D01*
X219904761Y-65166666D01*
X219952380Y-65023809D01*
X219952380Y-64785714D01*
X219047619Y-65738095D02*
X219000000Y-65785714D01*
X218952380Y-65880952D01*
X218952380Y-66119047D01*
X219000000Y-66214285D01*
X219047619Y-66261904D01*
X219142857Y-66309523D01*
X219238095Y-66309523D01*
X219380952Y-66261904D01*
X219952380Y-65690476D01*
X219952380Y-66309523D01*
X219047619Y-66690476D02*
X219000000Y-66738095D01*
X218952380Y-66833333D01*
X218952380Y-67071428D01*
X219000000Y-67166666D01*
X219047619Y-67214285D01*
X219142857Y-67261904D01*
X219238095Y-67261904D01*
X219380952Y-67214285D01*
X219952380Y-66642857D01*
X219952380Y-67261904D01*
%TO.C,D72*%
X246850000Y-40166666D02*
X246850000Y-39466666D01*
X246683333Y-39466666D01*
X246583333Y-39500000D01*
X246516666Y-39566666D01*
X246483333Y-39633333D01*
X246450000Y-39766666D01*
X246450000Y-39866666D01*
X246483333Y-40000000D01*
X246516666Y-40066666D01*
X246583333Y-40133333D01*
X246683333Y-40166666D01*
X246850000Y-40166666D01*
X246216666Y-39466666D02*
X245750000Y-39466666D01*
X246050000Y-40166666D01*
X245516666Y-39533333D02*
X245483333Y-39500000D01*
X245416666Y-39466666D01*
X245250000Y-39466666D01*
X245183333Y-39500000D01*
X245150000Y-39533333D01*
X245116666Y-39600000D01*
X245116666Y-39666666D01*
X245150000Y-39766666D01*
X245550000Y-40166666D01*
X245116666Y-40166666D01*
%TO.C,D5*%
X129202380Y-46496904D02*
X128202380Y-46496904D01*
X128202380Y-46735000D01*
X128250000Y-46877857D01*
X128345238Y-46973095D01*
X128440476Y-47020714D01*
X128630952Y-47068333D01*
X128773809Y-47068333D01*
X128964285Y-47020714D01*
X129059523Y-46973095D01*
X129154761Y-46877857D01*
X129202380Y-46735000D01*
X129202380Y-46496904D01*
X128202380Y-47973095D02*
X128202380Y-47496904D01*
X128678571Y-47449285D01*
X128630952Y-47496904D01*
X128583333Y-47592142D01*
X128583333Y-47830238D01*
X128630952Y-47925476D01*
X128678571Y-47973095D01*
X128773809Y-48020714D01*
X129011904Y-48020714D01*
X129107142Y-47973095D01*
X129154761Y-47925476D01*
X129202380Y-47830238D01*
X129202380Y-47592142D01*
X129154761Y-47496904D01*
X129107142Y-47449285D01*
%TO.C,D57*%
X200002380Y-114285714D02*
X199002380Y-114285714D01*
X199002380Y-114523809D01*
X199050000Y-114666666D01*
X199145238Y-114761904D01*
X199240476Y-114809523D01*
X199430952Y-114857142D01*
X199573809Y-114857142D01*
X199764285Y-114809523D01*
X199859523Y-114761904D01*
X199954761Y-114666666D01*
X200002380Y-114523809D01*
X200002380Y-114285714D01*
X199002380Y-115761904D02*
X199002380Y-115285714D01*
X199478571Y-115238095D01*
X199430952Y-115285714D01*
X199383333Y-115380952D01*
X199383333Y-115619047D01*
X199430952Y-115714285D01*
X199478571Y-115761904D01*
X199573809Y-115809523D01*
X199811904Y-115809523D01*
X199907142Y-115761904D01*
X199954761Y-115714285D01*
X200002380Y-115619047D01*
X200002380Y-115380952D01*
X199954761Y-115285714D01*
X199907142Y-115238095D01*
X199002380Y-116142857D02*
X199002380Y-116809523D01*
X200002380Y-116380952D01*
%TO.C,D44*%
X184102380Y-98760714D02*
X183102380Y-98760714D01*
X183102380Y-98998809D01*
X183150000Y-99141666D01*
X183245238Y-99236904D01*
X183340476Y-99284523D01*
X183530952Y-99332142D01*
X183673809Y-99332142D01*
X183864285Y-99284523D01*
X183959523Y-99236904D01*
X184054761Y-99141666D01*
X184102380Y-98998809D01*
X184102380Y-98760714D01*
X183435714Y-100189285D02*
X184102380Y-100189285D01*
X183054761Y-99951190D02*
X183769047Y-99713095D01*
X183769047Y-100332142D01*
X183435714Y-101141666D02*
X184102380Y-101141666D01*
X183054761Y-100903571D02*
X183769047Y-100665476D01*
X183769047Y-101284523D01*
%TO.C,D41*%
X130102380Y-98785714D02*
X129102380Y-98785714D01*
X129102380Y-99023809D01*
X129150000Y-99166666D01*
X129245238Y-99261904D01*
X129340476Y-99309523D01*
X129530952Y-99357142D01*
X129673809Y-99357142D01*
X129864285Y-99309523D01*
X129959523Y-99261904D01*
X130054761Y-99166666D01*
X130102380Y-99023809D01*
X130102380Y-98785714D01*
X129435714Y-100214285D02*
X130102380Y-100214285D01*
X129054761Y-99976190D02*
X129769047Y-99738095D01*
X129769047Y-100357142D01*
X130102380Y-101261904D02*
X130102380Y-100690476D01*
X130102380Y-100976190D02*
X129102380Y-100976190D01*
X129245238Y-100880952D01*
X129340476Y-100785714D01*
X129388095Y-100690476D01*
%TO.C,D4*%
X111202380Y-46496904D02*
X110202380Y-46496904D01*
X110202380Y-46735000D01*
X110250000Y-46877857D01*
X110345238Y-46973095D01*
X110440476Y-47020714D01*
X110630952Y-47068333D01*
X110773809Y-47068333D01*
X110964285Y-47020714D01*
X111059523Y-46973095D01*
X111154761Y-46877857D01*
X111202380Y-46735000D01*
X111202380Y-46496904D01*
X110535714Y-47925476D02*
X111202380Y-47925476D01*
X110154761Y-47687380D02*
X110869047Y-47449285D01*
X110869047Y-48068333D01*
%TO.C,D8*%
X183202380Y-46496904D02*
X182202380Y-46496904D01*
X182202380Y-46735000D01*
X182250000Y-46877857D01*
X182345238Y-46973095D01*
X182440476Y-47020714D01*
X182630952Y-47068333D01*
X182773809Y-47068333D01*
X182964285Y-47020714D01*
X183059523Y-46973095D01*
X183154761Y-46877857D01*
X183202380Y-46735000D01*
X183202380Y-46496904D01*
X182630952Y-47639761D02*
X182583333Y-47544523D01*
X182535714Y-47496904D01*
X182440476Y-47449285D01*
X182392857Y-47449285D01*
X182297619Y-47496904D01*
X182250000Y-47544523D01*
X182202380Y-47639761D01*
X182202380Y-47830238D01*
X182250000Y-47925476D01*
X182297619Y-47973095D01*
X182392857Y-48020714D01*
X182440476Y-48020714D01*
X182535714Y-47973095D01*
X182583333Y-47925476D01*
X182630952Y-47830238D01*
X182630952Y-47639761D01*
X182678571Y-47544523D01*
X182726190Y-47496904D01*
X182821428Y-47449285D01*
X183011904Y-47449285D01*
X183107142Y-47496904D01*
X183154761Y-47544523D01*
X183202380Y-47639761D01*
X183202380Y-47830238D01*
X183154761Y-47925476D01*
X183107142Y-47973095D01*
X183011904Y-48020714D01*
X182821428Y-48020714D01*
X182726190Y-47973095D01*
X182678571Y-47925476D01*
X182630952Y-47830238D01*
%TO.C,D100*%
X103183333Y-91166666D02*
X103183333Y-90466666D01*
X103016666Y-90466666D01*
X102916666Y-90500000D01*
X102850000Y-90566666D01*
X102816666Y-90633333D01*
X102783333Y-90766666D01*
X102783333Y-90866666D01*
X102816666Y-91000000D01*
X102850000Y-91066666D01*
X102916666Y-91133333D01*
X103016666Y-91166666D01*
X103183333Y-91166666D01*
X102116666Y-91166666D02*
X102516666Y-91166666D01*
X102316666Y-91166666D02*
X102316666Y-90466666D01*
X102383333Y-90566666D01*
X102450000Y-90633333D01*
X102516666Y-90666666D01*
X101683333Y-90466666D02*
X101616666Y-90466666D01*
X101550000Y-90500000D01*
X101516666Y-90533333D01*
X101483333Y-90600000D01*
X101450000Y-90733333D01*
X101450000Y-90900000D01*
X101483333Y-91033333D01*
X101516666Y-91100000D01*
X101550000Y-91133333D01*
X101616666Y-91166666D01*
X101683333Y-91166666D01*
X101750000Y-91133333D01*
X101783333Y-91100000D01*
X101816666Y-91033333D01*
X101850000Y-90900000D01*
X101850000Y-90733333D01*
X101816666Y-90600000D01*
X101783333Y-90533333D01*
X101750000Y-90500000D01*
X101683333Y-90466666D01*
X101016666Y-90466666D02*
X100950000Y-90466666D01*
X100883333Y-90500000D01*
X100850000Y-90533333D01*
X100816666Y-90600000D01*
X100783333Y-90733333D01*
X100783333Y-90900000D01*
X100816666Y-91033333D01*
X100850000Y-91100000D01*
X100883333Y-91133333D01*
X100950000Y-91166666D01*
X101016666Y-91166666D01*
X101083333Y-91133333D01*
X101116666Y-91100000D01*
X101150000Y-91033333D01*
X101183333Y-90900000D01*
X101183333Y-90733333D01*
X101150000Y-90600000D01*
X101116666Y-90533333D01*
X101083333Y-90500000D01*
X101016666Y-90466666D01*
%TO.C,D97*%
X48850000Y-91166666D02*
X48850000Y-90466666D01*
X48683333Y-90466666D01*
X48583333Y-90500000D01*
X48516666Y-90566666D01*
X48483333Y-90633333D01*
X48450000Y-90766666D01*
X48450000Y-90866666D01*
X48483333Y-91000000D01*
X48516666Y-91066666D01*
X48583333Y-91133333D01*
X48683333Y-91166666D01*
X48850000Y-91166666D01*
X48116666Y-91166666D02*
X47983333Y-91166666D01*
X47916666Y-91133333D01*
X47883333Y-91100000D01*
X47816666Y-91000000D01*
X47783333Y-90866666D01*
X47783333Y-90600000D01*
X47816666Y-90533333D01*
X47850000Y-90500000D01*
X47916666Y-90466666D01*
X48050000Y-90466666D01*
X48116666Y-90500000D01*
X48150000Y-90533333D01*
X48183333Y-90600000D01*
X48183333Y-90766666D01*
X48150000Y-90833333D01*
X48116666Y-90866666D01*
X48050000Y-90900000D01*
X47916666Y-90900000D01*
X47850000Y-90866666D01*
X47816666Y-90833333D01*
X47783333Y-90766666D01*
X47550000Y-90466666D02*
X47083333Y-90466666D01*
X47383333Y-91166666D01*
%TO.C,D33*%
X202102380Y-81785714D02*
X201102380Y-81785714D01*
X201102380Y-82023809D01*
X201150000Y-82166666D01*
X201245238Y-82261904D01*
X201340476Y-82309523D01*
X201530952Y-82357142D01*
X201673809Y-82357142D01*
X201864285Y-82309523D01*
X201959523Y-82261904D01*
X202054761Y-82166666D01*
X202102380Y-82023809D01*
X202102380Y-81785714D01*
X201102380Y-82690476D02*
X201102380Y-83309523D01*
X201483333Y-82976190D01*
X201483333Y-83119047D01*
X201530952Y-83214285D01*
X201578571Y-83261904D01*
X201673809Y-83309523D01*
X201911904Y-83309523D01*
X202007142Y-83261904D01*
X202054761Y-83214285D01*
X202102380Y-83119047D01*
X202102380Y-82833333D01*
X202054761Y-82738095D01*
X202007142Y-82690476D01*
X201102380Y-83642857D02*
X201102380Y-84261904D01*
X201483333Y-83928571D01*
X201483333Y-84071428D01*
X201530952Y-84166666D01*
X201578571Y-84214285D01*
X201673809Y-84261904D01*
X201911904Y-84261904D01*
X202007142Y-84214285D01*
X202054761Y-84166666D01*
X202102380Y-84071428D01*
X202102380Y-83785714D01*
X202054761Y-83690476D01*
X202007142Y-83642857D01*
%TO.C,D61*%
X48850000Y-40166666D02*
X48850000Y-39466666D01*
X48683333Y-39466666D01*
X48583333Y-39500000D01*
X48516666Y-39566666D01*
X48483333Y-39633333D01*
X48450000Y-39766666D01*
X48450000Y-39866666D01*
X48483333Y-40000000D01*
X48516666Y-40066666D01*
X48583333Y-40133333D01*
X48683333Y-40166666D01*
X48850000Y-40166666D01*
X47850000Y-39466666D02*
X47983333Y-39466666D01*
X48050000Y-39500000D01*
X48083333Y-39533333D01*
X48150000Y-39633333D01*
X48183333Y-39766666D01*
X48183333Y-40033333D01*
X48150000Y-40100000D01*
X48116666Y-40133333D01*
X48050000Y-40166666D01*
X47916666Y-40166666D01*
X47850000Y-40133333D01*
X47816666Y-40100000D01*
X47783333Y-40033333D01*
X47783333Y-39866666D01*
X47816666Y-39800000D01*
X47850000Y-39766666D01*
X47916666Y-39733333D01*
X48050000Y-39733333D01*
X48116666Y-39766666D01*
X48150000Y-39800000D01*
X48183333Y-39866666D01*
X47116666Y-40166666D02*
X47516666Y-40166666D01*
X47316666Y-40166666D02*
X47316666Y-39466666D01*
X47383333Y-39566666D01*
X47450000Y-39633333D01*
X47516666Y-39666666D01*
%TO.C,D55*%
X164002380Y-114285714D02*
X163002380Y-114285714D01*
X163002380Y-114523809D01*
X163050000Y-114666666D01*
X163145238Y-114761904D01*
X163240476Y-114809523D01*
X163430952Y-114857142D01*
X163573809Y-114857142D01*
X163764285Y-114809523D01*
X163859523Y-114761904D01*
X163954761Y-114666666D01*
X164002380Y-114523809D01*
X164002380Y-114285714D01*
X163002380Y-115761904D02*
X163002380Y-115285714D01*
X163478571Y-115238095D01*
X163430952Y-115285714D01*
X163383333Y-115380952D01*
X163383333Y-115619047D01*
X163430952Y-115714285D01*
X163478571Y-115761904D01*
X163573809Y-115809523D01*
X163811904Y-115809523D01*
X163907142Y-115761904D01*
X163954761Y-115714285D01*
X164002380Y-115619047D01*
X164002380Y-115380952D01*
X163954761Y-115285714D01*
X163907142Y-115238095D01*
X163002380Y-116714285D02*
X163002380Y-116238095D01*
X163478571Y-116190476D01*
X163430952Y-116238095D01*
X163383333Y-116333333D01*
X163383333Y-116571428D01*
X163430952Y-116666666D01*
X163478571Y-116714285D01*
X163573809Y-116761904D01*
X163811904Y-116761904D01*
X163907142Y-116714285D01*
X163954761Y-116666666D01*
X164002380Y-116571428D01*
X164002380Y-116333333D01*
X163954761Y-116238095D01*
X163907142Y-116190476D01*
%TO.C,D81*%
X192850000Y-57166666D02*
X192850000Y-56466666D01*
X192683333Y-56466666D01*
X192583333Y-56500000D01*
X192516666Y-56566666D01*
X192483333Y-56633333D01*
X192450000Y-56766666D01*
X192450000Y-56866666D01*
X192483333Y-57000000D01*
X192516666Y-57066666D01*
X192583333Y-57133333D01*
X192683333Y-57166666D01*
X192850000Y-57166666D01*
X192050000Y-56766666D02*
X192116666Y-56733333D01*
X192150000Y-56700000D01*
X192183333Y-56633333D01*
X192183333Y-56600000D01*
X192150000Y-56533333D01*
X192116666Y-56500000D01*
X192050000Y-56466666D01*
X191916666Y-56466666D01*
X191850000Y-56500000D01*
X191816666Y-56533333D01*
X191783333Y-56600000D01*
X191783333Y-56633333D01*
X191816666Y-56700000D01*
X191850000Y-56733333D01*
X191916666Y-56766666D01*
X192050000Y-56766666D01*
X192116666Y-56800000D01*
X192150000Y-56833333D01*
X192183333Y-56900000D01*
X192183333Y-57033333D01*
X192150000Y-57100000D01*
X192116666Y-57133333D01*
X192050000Y-57166666D01*
X191916666Y-57166666D01*
X191850000Y-57133333D01*
X191816666Y-57100000D01*
X191783333Y-57033333D01*
X191783333Y-56900000D01*
X191816666Y-56833333D01*
X191850000Y-56800000D01*
X191916666Y-56766666D01*
X191116666Y-57166666D02*
X191516666Y-57166666D01*
X191316666Y-57166666D02*
X191316666Y-56466666D01*
X191383333Y-56566666D01*
X191450000Y-56633333D01*
X191516666Y-56666666D01*
%TO.C,D45*%
X202102380Y-98785714D02*
X201102380Y-98785714D01*
X201102380Y-99023809D01*
X201150000Y-99166666D01*
X201245238Y-99261904D01*
X201340476Y-99309523D01*
X201530952Y-99357142D01*
X201673809Y-99357142D01*
X201864285Y-99309523D01*
X201959523Y-99261904D01*
X202054761Y-99166666D01*
X202102380Y-99023809D01*
X202102380Y-98785714D01*
X201435714Y-100214285D02*
X202102380Y-100214285D01*
X201054761Y-99976190D02*
X201769047Y-99738095D01*
X201769047Y-100357142D01*
X201102380Y-101214285D02*
X201102380Y-100738095D01*
X201578571Y-100690476D01*
X201530952Y-100738095D01*
X201483333Y-100833333D01*
X201483333Y-101071428D01*
X201530952Y-101166666D01*
X201578571Y-101214285D01*
X201673809Y-101261904D01*
X201911904Y-101261904D01*
X202007142Y-101214285D01*
X202054761Y-101166666D01*
X202102380Y-101071428D01*
X202102380Y-100833333D01*
X202054761Y-100738095D01*
X202007142Y-100690476D01*
%TO.C,D51*%
X91902380Y-114185714D02*
X90902380Y-114185714D01*
X90902380Y-114423809D01*
X90950000Y-114566666D01*
X91045238Y-114661904D01*
X91140476Y-114709523D01*
X91330952Y-114757142D01*
X91473809Y-114757142D01*
X91664285Y-114709523D01*
X91759523Y-114661904D01*
X91854761Y-114566666D01*
X91902380Y-114423809D01*
X91902380Y-114185714D01*
X90902380Y-115661904D02*
X90902380Y-115185714D01*
X91378571Y-115138095D01*
X91330952Y-115185714D01*
X91283333Y-115280952D01*
X91283333Y-115519047D01*
X91330952Y-115614285D01*
X91378571Y-115661904D01*
X91473809Y-115709523D01*
X91711904Y-115709523D01*
X91807142Y-115661904D01*
X91854761Y-115614285D01*
X91902380Y-115519047D01*
X91902380Y-115280952D01*
X91854761Y-115185714D01*
X91807142Y-115138095D01*
X91902380Y-116661904D02*
X91902380Y-116090476D01*
X91902380Y-116376190D02*
X90902380Y-116376190D01*
X91045238Y-116280952D01*
X91140476Y-116185714D01*
X91188095Y-116090476D01*
%TO.C,D110*%
X67183333Y-108166666D02*
X67183333Y-107466666D01*
X67016666Y-107466666D01*
X66916666Y-107500000D01*
X66850000Y-107566666D01*
X66816666Y-107633333D01*
X66783333Y-107766666D01*
X66783333Y-107866666D01*
X66816666Y-108000000D01*
X66850000Y-108066666D01*
X66916666Y-108133333D01*
X67016666Y-108166666D01*
X67183333Y-108166666D01*
X66116666Y-108166666D02*
X66516666Y-108166666D01*
X66316666Y-108166666D02*
X66316666Y-107466666D01*
X66383333Y-107566666D01*
X66450000Y-107633333D01*
X66516666Y-107666666D01*
X65450000Y-108166666D02*
X65850000Y-108166666D01*
X65650000Y-108166666D02*
X65650000Y-107466666D01*
X65716666Y-107566666D01*
X65783333Y-107633333D01*
X65850000Y-107666666D01*
X65016666Y-107466666D02*
X64950000Y-107466666D01*
X64883333Y-107500000D01*
X64850000Y-107533333D01*
X64816666Y-107600000D01*
X64783333Y-107733333D01*
X64783333Y-107900000D01*
X64816666Y-108033333D01*
X64850000Y-108100000D01*
X64883333Y-108133333D01*
X64950000Y-108166666D01*
X65016666Y-108166666D01*
X65083333Y-108133333D01*
X65116666Y-108100000D01*
X65150000Y-108033333D01*
X65183333Y-107900000D01*
X65183333Y-107733333D01*
X65150000Y-107600000D01*
X65116666Y-107533333D01*
X65083333Y-107500000D01*
X65016666Y-107466666D01*
%TO.C,D65*%
X120850000Y-40166666D02*
X120850000Y-39466666D01*
X120683333Y-39466666D01*
X120583333Y-39500000D01*
X120516666Y-39566666D01*
X120483333Y-39633333D01*
X120450000Y-39766666D01*
X120450000Y-39866666D01*
X120483333Y-40000000D01*
X120516666Y-40066666D01*
X120583333Y-40133333D01*
X120683333Y-40166666D01*
X120850000Y-40166666D01*
X119850000Y-39466666D02*
X119983333Y-39466666D01*
X120050000Y-39500000D01*
X120083333Y-39533333D01*
X120150000Y-39633333D01*
X120183333Y-39766666D01*
X120183333Y-40033333D01*
X120150000Y-40100000D01*
X120116666Y-40133333D01*
X120050000Y-40166666D01*
X119916666Y-40166666D01*
X119850000Y-40133333D01*
X119816666Y-40100000D01*
X119783333Y-40033333D01*
X119783333Y-39866666D01*
X119816666Y-39800000D01*
X119850000Y-39766666D01*
X119916666Y-39733333D01*
X120050000Y-39733333D01*
X120116666Y-39766666D01*
X120150000Y-39800000D01*
X120183333Y-39866666D01*
X119150000Y-39466666D02*
X119483333Y-39466666D01*
X119516666Y-39800000D01*
X119483333Y-39766666D01*
X119416666Y-39733333D01*
X119250000Y-39733333D01*
X119183333Y-39766666D01*
X119150000Y-39800000D01*
X119116666Y-39866666D01*
X119116666Y-40033333D01*
X119150000Y-40100000D01*
X119183333Y-40133333D01*
X119250000Y-40166666D01*
X119416666Y-40166666D01*
X119483333Y-40133333D01*
X119516666Y-40100000D01*
%TO.C,D73*%
X48850000Y-57166666D02*
X48850000Y-56466666D01*
X48683333Y-56466666D01*
X48583333Y-56500000D01*
X48516666Y-56566666D01*
X48483333Y-56633333D01*
X48450000Y-56766666D01*
X48450000Y-56866666D01*
X48483333Y-57000000D01*
X48516666Y-57066666D01*
X48583333Y-57133333D01*
X48683333Y-57166666D01*
X48850000Y-57166666D01*
X48216666Y-56466666D02*
X47750000Y-56466666D01*
X48050000Y-57166666D01*
X47550000Y-56466666D02*
X47116666Y-56466666D01*
X47350000Y-56733333D01*
X47250000Y-56733333D01*
X47183333Y-56766666D01*
X47150000Y-56800000D01*
X47116666Y-56866666D01*
X47116666Y-57033333D01*
X47150000Y-57100000D01*
X47183333Y-57133333D01*
X47250000Y-57166666D01*
X47450000Y-57166666D01*
X47516666Y-57133333D01*
X47550000Y-57100000D01*
%TO.C,D58*%
X218002380Y-114285714D02*
X217002380Y-114285714D01*
X217002380Y-114523809D01*
X217050000Y-114666666D01*
X217145238Y-114761904D01*
X217240476Y-114809523D01*
X217430952Y-114857142D01*
X217573809Y-114857142D01*
X217764285Y-114809523D01*
X217859523Y-114761904D01*
X217954761Y-114666666D01*
X218002380Y-114523809D01*
X218002380Y-114285714D01*
X217002380Y-115761904D02*
X217002380Y-115285714D01*
X217478571Y-115238095D01*
X217430952Y-115285714D01*
X217383333Y-115380952D01*
X217383333Y-115619047D01*
X217430952Y-115714285D01*
X217478571Y-115761904D01*
X217573809Y-115809523D01*
X217811904Y-115809523D01*
X217907142Y-115761904D01*
X217954761Y-115714285D01*
X218002380Y-115619047D01*
X218002380Y-115380952D01*
X217954761Y-115285714D01*
X217907142Y-115238095D01*
X217430952Y-116380952D02*
X217383333Y-116285714D01*
X217335714Y-116238095D01*
X217240476Y-116190476D01*
X217192857Y-116190476D01*
X217097619Y-116238095D01*
X217050000Y-116285714D01*
X217002380Y-116380952D01*
X217002380Y-116571428D01*
X217050000Y-116666666D01*
X217097619Y-116714285D01*
X217192857Y-116761904D01*
X217240476Y-116761904D01*
X217335714Y-116714285D01*
X217383333Y-116666666D01*
X217430952Y-116571428D01*
X217430952Y-116380952D01*
X217478571Y-116285714D01*
X217526190Y-116238095D01*
X217621428Y-116190476D01*
X217811904Y-116190476D01*
X217907142Y-116238095D01*
X217954761Y-116285714D01*
X218002380Y-116380952D01*
X218002380Y-116571428D01*
X217954761Y-116666666D01*
X217907142Y-116714285D01*
X217811904Y-116761904D01*
X217621428Y-116761904D01*
X217526190Y-116714285D01*
X217478571Y-116666666D01*
X217430952Y-116571428D01*
%TO.C,D99*%
X84850000Y-91166666D02*
X84850000Y-90466666D01*
X84683333Y-90466666D01*
X84583333Y-90500000D01*
X84516666Y-90566666D01*
X84483333Y-90633333D01*
X84450000Y-90766666D01*
X84450000Y-90866666D01*
X84483333Y-91000000D01*
X84516666Y-91066666D01*
X84583333Y-91133333D01*
X84683333Y-91166666D01*
X84850000Y-91166666D01*
X84116666Y-91166666D02*
X83983333Y-91166666D01*
X83916666Y-91133333D01*
X83883333Y-91100000D01*
X83816666Y-91000000D01*
X83783333Y-90866666D01*
X83783333Y-90600000D01*
X83816666Y-90533333D01*
X83850000Y-90500000D01*
X83916666Y-90466666D01*
X84050000Y-90466666D01*
X84116666Y-90500000D01*
X84150000Y-90533333D01*
X84183333Y-90600000D01*
X84183333Y-90766666D01*
X84150000Y-90833333D01*
X84116666Y-90866666D01*
X84050000Y-90900000D01*
X83916666Y-90900000D01*
X83850000Y-90866666D01*
X83816666Y-90833333D01*
X83783333Y-90766666D01*
X83450000Y-91166666D02*
X83316666Y-91166666D01*
X83250000Y-91133333D01*
X83216666Y-91100000D01*
X83150000Y-91000000D01*
X83116666Y-90866666D01*
X83116666Y-90600000D01*
X83150000Y-90533333D01*
X83183333Y-90500000D01*
X83250000Y-90466666D01*
X83383333Y-90466666D01*
X83450000Y-90500000D01*
X83483333Y-90533333D01*
X83516666Y-90600000D01*
X83516666Y-90766666D01*
X83483333Y-90833333D01*
X83450000Y-90866666D01*
X83383333Y-90900000D01*
X83250000Y-90900000D01*
X83183333Y-90866666D01*
X83150000Y-90833333D01*
X83116666Y-90766666D01*
%TO.C,D21*%
X202102380Y-64810714D02*
X201102380Y-64810714D01*
X201102380Y-65048809D01*
X201150000Y-65191666D01*
X201245238Y-65286904D01*
X201340476Y-65334523D01*
X201530952Y-65382142D01*
X201673809Y-65382142D01*
X201864285Y-65334523D01*
X201959523Y-65286904D01*
X202054761Y-65191666D01*
X202102380Y-65048809D01*
X202102380Y-64810714D01*
X201197619Y-65763095D02*
X201150000Y-65810714D01*
X201102380Y-65905952D01*
X201102380Y-66144047D01*
X201150000Y-66239285D01*
X201197619Y-66286904D01*
X201292857Y-66334523D01*
X201388095Y-66334523D01*
X201530952Y-66286904D01*
X202102380Y-65715476D01*
X202102380Y-66334523D01*
X202102380Y-67286904D02*
X202102380Y-66715476D01*
X202102380Y-67001190D02*
X201102380Y-67001190D01*
X201245238Y-66905952D01*
X201340476Y-66810714D01*
X201388095Y-66715476D01*
%TO.C,D114*%
X139183333Y-108166666D02*
X139183333Y-107466666D01*
X139016666Y-107466666D01*
X138916666Y-107500000D01*
X138850000Y-107566666D01*
X138816666Y-107633333D01*
X138783333Y-107766666D01*
X138783333Y-107866666D01*
X138816666Y-108000000D01*
X138850000Y-108066666D01*
X138916666Y-108133333D01*
X139016666Y-108166666D01*
X139183333Y-108166666D01*
X138116666Y-108166666D02*
X138516666Y-108166666D01*
X138316666Y-108166666D02*
X138316666Y-107466666D01*
X138383333Y-107566666D01*
X138450000Y-107633333D01*
X138516666Y-107666666D01*
X137450000Y-108166666D02*
X137850000Y-108166666D01*
X137650000Y-108166666D02*
X137650000Y-107466666D01*
X137716666Y-107566666D01*
X137783333Y-107633333D01*
X137850000Y-107666666D01*
X136850000Y-107700000D02*
X136850000Y-108166666D01*
X137016666Y-107433333D02*
X137183333Y-107933333D01*
X136750000Y-107933333D01*
%TO.C,D17*%
X130102380Y-64785714D02*
X129102380Y-64785714D01*
X129102380Y-65023809D01*
X129150000Y-65166666D01*
X129245238Y-65261904D01*
X129340476Y-65309523D01*
X129530952Y-65357142D01*
X129673809Y-65357142D01*
X129864285Y-65309523D01*
X129959523Y-65261904D01*
X130054761Y-65166666D01*
X130102380Y-65023809D01*
X130102380Y-64785714D01*
X130102380Y-66309523D02*
X130102380Y-65738095D01*
X130102380Y-66023809D02*
X129102380Y-66023809D01*
X129245238Y-65928571D01*
X129340476Y-65833333D01*
X129388095Y-65738095D01*
X129102380Y-66642857D02*
X129102380Y-67309523D01*
X130102380Y-66880952D01*
%TO.C,D28*%
X112102380Y-81810714D02*
X111102380Y-81810714D01*
X111102380Y-82048809D01*
X111150000Y-82191666D01*
X111245238Y-82286904D01*
X111340476Y-82334523D01*
X111530952Y-82382142D01*
X111673809Y-82382142D01*
X111864285Y-82334523D01*
X111959523Y-82286904D01*
X112054761Y-82191666D01*
X112102380Y-82048809D01*
X112102380Y-81810714D01*
X111197619Y-82763095D02*
X111150000Y-82810714D01*
X111102380Y-82905952D01*
X111102380Y-83144047D01*
X111150000Y-83239285D01*
X111197619Y-83286904D01*
X111292857Y-83334523D01*
X111388095Y-83334523D01*
X111530952Y-83286904D01*
X112102380Y-82715476D01*
X112102380Y-83334523D01*
X111530952Y-83905952D02*
X111483333Y-83810714D01*
X111435714Y-83763095D01*
X111340476Y-83715476D01*
X111292857Y-83715476D01*
X111197619Y-83763095D01*
X111150000Y-83810714D01*
X111102380Y-83905952D01*
X111102380Y-84096428D01*
X111150000Y-84191666D01*
X111197619Y-84239285D01*
X111292857Y-84286904D01*
X111340476Y-84286904D01*
X111435714Y-84239285D01*
X111483333Y-84191666D01*
X111530952Y-84096428D01*
X111530952Y-83905952D01*
X111578571Y-83810714D01*
X111626190Y-83763095D01*
X111721428Y-83715476D01*
X111911904Y-83715476D01*
X112007142Y-83763095D01*
X112054761Y-83810714D01*
X112102380Y-83905952D01*
X112102380Y-84096428D01*
X112054761Y-84191666D01*
X112007142Y-84239285D01*
X111911904Y-84286904D01*
X111721428Y-84286904D01*
X111626190Y-84239285D01*
X111578571Y-84191666D01*
X111530952Y-84096428D01*
%TO.C,D34*%
X220102380Y-81785714D02*
X219102380Y-81785714D01*
X219102380Y-82023809D01*
X219150000Y-82166666D01*
X219245238Y-82261904D01*
X219340476Y-82309523D01*
X219530952Y-82357142D01*
X219673809Y-82357142D01*
X219864285Y-82309523D01*
X219959523Y-82261904D01*
X220054761Y-82166666D01*
X220102380Y-82023809D01*
X220102380Y-81785714D01*
X219102380Y-82690476D02*
X219102380Y-83309523D01*
X219483333Y-82976190D01*
X219483333Y-83119047D01*
X219530952Y-83214285D01*
X219578571Y-83261904D01*
X219673809Y-83309523D01*
X219911904Y-83309523D01*
X220007142Y-83261904D01*
X220054761Y-83214285D01*
X220102380Y-83119047D01*
X220102380Y-82833333D01*
X220054761Y-82738095D01*
X220007142Y-82690476D01*
X219435714Y-84166666D02*
X220102380Y-84166666D01*
X219054761Y-83928571D02*
X219769047Y-83690476D01*
X219769047Y-84309523D01*
%TO.C,D117*%
X193183333Y-108166666D02*
X193183333Y-107466666D01*
X193016666Y-107466666D01*
X192916666Y-107500000D01*
X192850000Y-107566666D01*
X192816666Y-107633333D01*
X192783333Y-107766666D01*
X192783333Y-107866666D01*
X192816666Y-108000000D01*
X192850000Y-108066666D01*
X192916666Y-108133333D01*
X193016666Y-108166666D01*
X193183333Y-108166666D01*
X192116666Y-108166666D02*
X192516666Y-108166666D01*
X192316666Y-108166666D02*
X192316666Y-107466666D01*
X192383333Y-107566666D01*
X192450000Y-107633333D01*
X192516666Y-107666666D01*
X191450000Y-108166666D02*
X191850000Y-108166666D01*
X191650000Y-108166666D02*
X191650000Y-107466666D01*
X191716666Y-107566666D01*
X191783333Y-107633333D01*
X191850000Y-107666666D01*
X191216666Y-107466666D02*
X190750000Y-107466666D01*
X191050000Y-108166666D01*
%TO.C,D14*%
X75952380Y-64785714D02*
X74952380Y-64785714D01*
X74952380Y-65023809D01*
X75000000Y-65166666D01*
X75095238Y-65261904D01*
X75190476Y-65309523D01*
X75380952Y-65357142D01*
X75523809Y-65357142D01*
X75714285Y-65309523D01*
X75809523Y-65261904D01*
X75904761Y-65166666D01*
X75952380Y-65023809D01*
X75952380Y-64785714D01*
X75952380Y-66309523D02*
X75952380Y-65738095D01*
X75952380Y-66023809D02*
X74952380Y-66023809D01*
X75095238Y-65928571D01*
X75190476Y-65833333D01*
X75238095Y-65738095D01*
X75285714Y-67166666D02*
X75952380Y-67166666D01*
X74904761Y-66928571D02*
X75619047Y-66690476D01*
X75619047Y-67309523D01*
%TO.C,D12*%
X252602380Y-46020714D02*
X251602380Y-46020714D01*
X251602380Y-46258809D01*
X251650000Y-46401666D01*
X251745238Y-46496904D01*
X251840476Y-46544523D01*
X252030952Y-46592142D01*
X252173809Y-46592142D01*
X252364285Y-46544523D01*
X252459523Y-46496904D01*
X252554761Y-46401666D01*
X252602380Y-46258809D01*
X252602380Y-46020714D01*
X252602380Y-47544523D02*
X252602380Y-46973095D01*
X252602380Y-47258809D02*
X251602380Y-47258809D01*
X251745238Y-47163571D01*
X251840476Y-47068333D01*
X251888095Y-46973095D01*
X251697619Y-47925476D02*
X251650000Y-47973095D01*
X251602380Y-48068333D01*
X251602380Y-48306428D01*
X251650000Y-48401666D01*
X251697619Y-48449285D01*
X251792857Y-48496904D01*
X251888095Y-48496904D01*
X252030952Y-48449285D01*
X252602380Y-47877857D01*
X252602380Y-48496904D01*
%TO.C,D75*%
X84850000Y-57166666D02*
X84850000Y-56466666D01*
X84683333Y-56466666D01*
X84583333Y-56500000D01*
X84516666Y-56566666D01*
X84483333Y-56633333D01*
X84450000Y-56766666D01*
X84450000Y-56866666D01*
X84483333Y-57000000D01*
X84516666Y-57066666D01*
X84583333Y-57133333D01*
X84683333Y-57166666D01*
X84850000Y-57166666D01*
X84216666Y-56466666D02*
X83750000Y-56466666D01*
X84050000Y-57166666D01*
X83150000Y-56466666D02*
X83483333Y-56466666D01*
X83516666Y-56800000D01*
X83483333Y-56766666D01*
X83416666Y-56733333D01*
X83250000Y-56733333D01*
X83183333Y-56766666D01*
X83150000Y-56800000D01*
X83116666Y-56866666D01*
X83116666Y-57033333D01*
X83150000Y-57100000D01*
X83183333Y-57133333D01*
X83250000Y-57166666D01*
X83416666Y-57166666D01*
X83483333Y-57133333D01*
X83516666Y-57100000D01*
%TO.C,D70*%
X210850000Y-40166666D02*
X210850000Y-39466666D01*
X210683333Y-39466666D01*
X210583333Y-39500000D01*
X210516666Y-39566666D01*
X210483333Y-39633333D01*
X210450000Y-39766666D01*
X210450000Y-39866666D01*
X210483333Y-40000000D01*
X210516666Y-40066666D01*
X210583333Y-40133333D01*
X210683333Y-40166666D01*
X210850000Y-40166666D01*
X210216666Y-39466666D02*
X209750000Y-39466666D01*
X210050000Y-40166666D01*
X209350000Y-39466666D02*
X209283333Y-39466666D01*
X209216666Y-39500000D01*
X209183333Y-39533333D01*
X209150000Y-39600000D01*
X209116666Y-39733333D01*
X209116666Y-39900000D01*
X209150000Y-40033333D01*
X209183333Y-40100000D01*
X209216666Y-40133333D01*
X209283333Y-40166666D01*
X209350000Y-40166666D01*
X209416666Y-40133333D01*
X209450000Y-40100000D01*
X209483333Y-40033333D01*
X209516666Y-39900000D01*
X209516666Y-39733333D01*
X209483333Y-39600000D01*
X209450000Y-39533333D01*
X209416666Y-39500000D01*
X209350000Y-39466666D01*
%TO.C,D107*%
X229183333Y-91166666D02*
X229183333Y-90466666D01*
X229016666Y-90466666D01*
X228916666Y-90500000D01*
X228850000Y-90566666D01*
X228816666Y-90633333D01*
X228783333Y-90766666D01*
X228783333Y-90866666D01*
X228816666Y-91000000D01*
X228850000Y-91066666D01*
X228916666Y-91133333D01*
X229016666Y-91166666D01*
X229183333Y-91166666D01*
X228116666Y-91166666D02*
X228516666Y-91166666D01*
X228316666Y-91166666D02*
X228316666Y-90466666D01*
X228383333Y-90566666D01*
X228450000Y-90633333D01*
X228516666Y-90666666D01*
X227683333Y-90466666D02*
X227616666Y-90466666D01*
X227550000Y-90500000D01*
X227516666Y-90533333D01*
X227483333Y-90600000D01*
X227450000Y-90733333D01*
X227450000Y-90900000D01*
X227483333Y-91033333D01*
X227516666Y-91100000D01*
X227550000Y-91133333D01*
X227616666Y-91166666D01*
X227683333Y-91166666D01*
X227750000Y-91133333D01*
X227783333Y-91100000D01*
X227816666Y-91033333D01*
X227850000Y-90900000D01*
X227850000Y-90733333D01*
X227816666Y-90600000D01*
X227783333Y-90533333D01*
X227750000Y-90500000D01*
X227683333Y-90466666D01*
X227216666Y-90466666D02*
X226750000Y-90466666D01*
X227050000Y-91166666D01*
%TO.C,D20*%
X184102380Y-64760714D02*
X183102380Y-64760714D01*
X183102380Y-64998809D01*
X183150000Y-65141666D01*
X183245238Y-65236904D01*
X183340476Y-65284523D01*
X183530952Y-65332142D01*
X183673809Y-65332142D01*
X183864285Y-65284523D01*
X183959523Y-65236904D01*
X184054761Y-65141666D01*
X184102380Y-64998809D01*
X184102380Y-64760714D01*
X183197619Y-65713095D02*
X183150000Y-65760714D01*
X183102380Y-65855952D01*
X183102380Y-66094047D01*
X183150000Y-66189285D01*
X183197619Y-66236904D01*
X183292857Y-66284523D01*
X183388095Y-66284523D01*
X183530952Y-66236904D01*
X184102380Y-65665476D01*
X184102380Y-66284523D01*
X183102380Y-66903571D02*
X183102380Y-66998809D01*
X183150000Y-67094047D01*
X183197619Y-67141666D01*
X183292857Y-67189285D01*
X183483333Y-67236904D01*
X183721428Y-67236904D01*
X183911904Y-67189285D01*
X184007142Y-67141666D01*
X184054761Y-67094047D01*
X184102380Y-66998809D01*
X184102380Y-66903571D01*
X184054761Y-66808333D01*
X184007142Y-66760714D01*
X183911904Y-66713095D01*
X183721428Y-66665476D01*
X183483333Y-66665476D01*
X183292857Y-66713095D01*
X183197619Y-66760714D01*
X183150000Y-66808333D01*
X183102380Y-66903571D01*
%TO.C,D37*%
X58102380Y-98785714D02*
X57102380Y-98785714D01*
X57102380Y-99023809D01*
X57150000Y-99166666D01*
X57245238Y-99261904D01*
X57340476Y-99309523D01*
X57530952Y-99357142D01*
X57673809Y-99357142D01*
X57864285Y-99309523D01*
X57959523Y-99261904D01*
X58054761Y-99166666D01*
X58102380Y-99023809D01*
X58102380Y-98785714D01*
X57102380Y-99690476D02*
X57102380Y-100309523D01*
X57483333Y-99976190D01*
X57483333Y-100119047D01*
X57530952Y-100214285D01*
X57578571Y-100261904D01*
X57673809Y-100309523D01*
X57911904Y-100309523D01*
X58007142Y-100261904D01*
X58054761Y-100214285D01*
X58102380Y-100119047D01*
X58102380Y-99833333D01*
X58054761Y-99738095D01*
X58007142Y-99690476D01*
X57102380Y-100642857D02*
X57102380Y-101309523D01*
X58102380Y-100880952D01*
%TO.C,D77*%
X120850000Y-57166666D02*
X120850000Y-56466666D01*
X120683333Y-56466666D01*
X120583333Y-56500000D01*
X120516666Y-56566666D01*
X120483333Y-56633333D01*
X120450000Y-56766666D01*
X120450000Y-56866666D01*
X120483333Y-57000000D01*
X120516666Y-57066666D01*
X120583333Y-57133333D01*
X120683333Y-57166666D01*
X120850000Y-57166666D01*
X120216666Y-56466666D02*
X119750000Y-56466666D01*
X120050000Y-57166666D01*
X119550000Y-56466666D02*
X119083333Y-56466666D01*
X119383333Y-57166666D01*
%TO.C,D113*%
X121183333Y-108166666D02*
X121183333Y-107466666D01*
X121016666Y-107466666D01*
X120916666Y-107500000D01*
X120850000Y-107566666D01*
X120816666Y-107633333D01*
X120783333Y-107766666D01*
X120783333Y-107866666D01*
X120816666Y-108000000D01*
X120850000Y-108066666D01*
X120916666Y-108133333D01*
X121016666Y-108166666D01*
X121183333Y-108166666D01*
X120116666Y-108166666D02*
X120516666Y-108166666D01*
X120316666Y-108166666D02*
X120316666Y-107466666D01*
X120383333Y-107566666D01*
X120450000Y-107633333D01*
X120516666Y-107666666D01*
X119450000Y-108166666D02*
X119850000Y-108166666D01*
X119650000Y-108166666D02*
X119650000Y-107466666D01*
X119716666Y-107566666D01*
X119783333Y-107633333D01*
X119850000Y-107666666D01*
X119216666Y-107466666D02*
X118783333Y-107466666D01*
X119016666Y-107733333D01*
X118916666Y-107733333D01*
X118850000Y-107766666D01*
X118816666Y-107800000D01*
X118783333Y-107866666D01*
X118783333Y-108033333D01*
X118816666Y-108100000D01*
X118850000Y-108133333D01*
X118916666Y-108166666D01*
X119116666Y-108166666D01*
X119183333Y-108133333D01*
X119216666Y-108100000D01*
%TO.C,D19*%
X166102380Y-64785714D02*
X165102380Y-64785714D01*
X165102380Y-65023809D01*
X165150000Y-65166666D01*
X165245238Y-65261904D01*
X165340476Y-65309523D01*
X165530952Y-65357142D01*
X165673809Y-65357142D01*
X165864285Y-65309523D01*
X165959523Y-65261904D01*
X166054761Y-65166666D01*
X166102380Y-65023809D01*
X166102380Y-64785714D01*
X166102380Y-66309523D02*
X166102380Y-65738095D01*
X166102380Y-66023809D02*
X165102380Y-66023809D01*
X165245238Y-65928571D01*
X165340476Y-65833333D01*
X165388095Y-65738095D01*
X166102380Y-66785714D02*
X166102380Y-66976190D01*
X166054761Y-67071428D01*
X166007142Y-67119047D01*
X165864285Y-67214285D01*
X165673809Y-67261904D01*
X165292857Y-67261904D01*
X165197619Y-67214285D01*
X165150000Y-67166666D01*
X165102380Y-67071428D01*
X165102380Y-66880952D01*
X165150000Y-66785714D01*
X165197619Y-66738095D01*
X165292857Y-66690476D01*
X165530952Y-66690476D01*
X165626190Y-66738095D01*
X165673809Y-66785714D01*
X165721428Y-66880952D01*
X165721428Y-67071428D01*
X165673809Y-67166666D01*
X165626190Y-67214285D01*
X165530952Y-67261904D01*
%TO.C,D59*%
X236002380Y-114285714D02*
X235002380Y-114285714D01*
X235002380Y-114523809D01*
X235050000Y-114666666D01*
X235145238Y-114761904D01*
X235240476Y-114809523D01*
X235430952Y-114857142D01*
X235573809Y-114857142D01*
X235764285Y-114809523D01*
X235859523Y-114761904D01*
X235954761Y-114666666D01*
X236002380Y-114523809D01*
X236002380Y-114285714D01*
X235002380Y-115761904D02*
X235002380Y-115285714D01*
X235478571Y-115238095D01*
X235430952Y-115285714D01*
X235383333Y-115380952D01*
X235383333Y-115619047D01*
X235430952Y-115714285D01*
X235478571Y-115761904D01*
X235573809Y-115809523D01*
X235811904Y-115809523D01*
X235907142Y-115761904D01*
X235954761Y-115714285D01*
X236002380Y-115619047D01*
X236002380Y-115380952D01*
X235954761Y-115285714D01*
X235907142Y-115238095D01*
X236002380Y-116285714D02*
X236002380Y-116476190D01*
X235954761Y-116571428D01*
X235907142Y-116619047D01*
X235764285Y-116714285D01*
X235573809Y-116761904D01*
X235192857Y-116761904D01*
X235097619Y-116714285D01*
X235050000Y-116666666D01*
X235002380Y-116571428D01*
X235002380Y-116380952D01*
X235050000Y-116285714D01*
X235097619Y-116238095D01*
X235192857Y-116190476D01*
X235430952Y-116190476D01*
X235526190Y-116238095D01*
X235573809Y-116285714D01*
X235621428Y-116380952D01*
X235621428Y-116571428D01*
X235573809Y-116666666D01*
X235526190Y-116714285D01*
X235430952Y-116761904D01*
%TO.C,D18*%
X148102380Y-64760714D02*
X147102380Y-64760714D01*
X147102380Y-64998809D01*
X147150000Y-65141666D01*
X147245238Y-65236904D01*
X147340476Y-65284523D01*
X147530952Y-65332142D01*
X147673809Y-65332142D01*
X147864285Y-65284523D01*
X147959523Y-65236904D01*
X148054761Y-65141666D01*
X148102380Y-64998809D01*
X148102380Y-64760714D01*
X148102380Y-66284523D02*
X148102380Y-65713095D01*
X148102380Y-65998809D02*
X147102380Y-65998809D01*
X147245238Y-65903571D01*
X147340476Y-65808333D01*
X147388095Y-65713095D01*
X147530952Y-66855952D02*
X147483333Y-66760714D01*
X147435714Y-66713095D01*
X147340476Y-66665476D01*
X147292857Y-66665476D01*
X147197619Y-66713095D01*
X147150000Y-66760714D01*
X147102380Y-66855952D01*
X147102380Y-67046428D01*
X147150000Y-67141666D01*
X147197619Y-67189285D01*
X147292857Y-67236904D01*
X147340476Y-67236904D01*
X147435714Y-67189285D01*
X147483333Y-67141666D01*
X147530952Y-67046428D01*
X147530952Y-66855952D01*
X147578571Y-66760714D01*
X147626190Y-66713095D01*
X147721428Y-66665476D01*
X147911904Y-66665476D01*
X148007142Y-66713095D01*
X148054761Y-66760714D01*
X148102380Y-66855952D01*
X148102380Y-67046428D01*
X148054761Y-67141666D01*
X148007142Y-67189285D01*
X147911904Y-67236904D01*
X147721428Y-67236904D01*
X147626190Y-67189285D01*
X147578571Y-67141666D01*
X147530952Y-67046428D01*
%TO.C,D80*%
X174850000Y-57166666D02*
X174850000Y-56466666D01*
X174683333Y-56466666D01*
X174583333Y-56500000D01*
X174516666Y-56566666D01*
X174483333Y-56633333D01*
X174450000Y-56766666D01*
X174450000Y-56866666D01*
X174483333Y-57000000D01*
X174516666Y-57066666D01*
X174583333Y-57133333D01*
X174683333Y-57166666D01*
X174850000Y-57166666D01*
X174050000Y-56766666D02*
X174116666Y-56733333D01*
X174150000Y-56700000D01*
X174183333Y-56633333D01*
X174183333Y-56600000D01*
X174150000Y-56533333D01*
X174116666Y-56500000D01*
X174050000Y-56466666D01*
X173916666Y-56466666D01*
X173850000Y-56500000D01*
X173816666Y-56533333D01*
X173783333Y-56600000D01*
X173783333Y-56633333D01*
X173816666Y-56700000D01*
X173850000Y-56733333D01*
X173916666Y-56766666D01*
X174050000Y-56766666D01*
X174116666Y-56800000D01*
X174150000Y-56833333D01*
X174183333Y-56900000D01*
X174183333Y-57033333D01*
X174150000Y-57100000D01*
X174116666Y-57133333D01*
X174050000Y-57166666D01*
X173916666Y-57166666D01*
X173850000Y-57133333D01*
X173816666Y-57100000D01*
X173783333Y-57033333D01*
X173783333Y-56900000D01*
X173816666Y-56833333D01*
X173850000Y-56800000D01*
X173916666Y-56766666D01*
X173350000Y-56466666D02*
X173283333Y-56466666D01*
X173216666Y-56500000D01*
X173183333Y-56533333D01*
X173150000Y-56600000D01*
X173116666Y-56733333D01*
X173116666Y-56900000D01*
X173150000Y-57033333D01*
X173183333Y-57100000D01*
X173216666Y-57133333D01*
X173283333Y-57166666D01*
X173350000Y-57166666D01*
X173416666Y-57133333D01*
X173450000Y-57100000D01*
X173483333Y-57033333D01*
X173516666Y-56900000D01*
X173516666Y-56733333D01*
X173483333Y-56600000D01*
X173450000Y-56533333D01*
X173416666Y-56500000D01*
X173350000Y-56466666D01*
%TO.C,D95*%
X228850000Y-74166666D02*
X228850000Y-73466666D01*
X228683333Y-73466666D01*
X228583333Y-73500000D01*
X228516666Y-73566666D01*
X228483333Y-73633333D01*
X228450000Y-73766666D01*
X228450000Y-73866666D01*
X228483333Y-74000000D01*
X228516666Y-74066666D01*
X228583333Y-74133333D01*
X228683333Y-74166666D01*
X228850000Y-74166666D01*
X228116666Y-74166666D02*
X227983333Y-74166666D01*
X227916666Y-74133333D01*
X227883333Y-74100000D01*
X227816666Y-74000000D01*
X227783333Y-73866666D01*
X227783333Y-73600000D01*
X227816666Y-73533333D01*
X227850000Y-73500000D01*
X227916666Y-73466666D01*
X228050000Y-73466666D01*
X228116666Y-73500000D01*
X228150000Y-73533333D01*
X228183333Y-73600000D01*
X228183333Y-73766666D01*
X228150000Y-73833333D01*
X228116666Y-73866666D01*
X228050000Y-73900000D01*
X227916666Y-73900000D01*
X227850000Y-73866666D01*
X227816666Y-73833333D01*
X227783333Y-73766666D01*
X227150000Y-73466666D02*
X227483333Y-73466666D01*
X227516666Y-73800000D01*
X227483333Y-73766666D01*
X227416666Y-73733333D01*
X227250000Y-73733333D01*
X227183333Y-73766666D01*
X227150000Y-73800000D01*
X227116666Y-73866666D01*
X227116666Y-74033333D01*
X227150000Y-74100000D01*
X227183333Y-74133333D01*
X227250000Y-74166666D01*
X227416666Y-74166666D01*
X227483333Y-74133333D01*
X227516666Y-74100000D01*
%TO.C,D35*%
X238102380Y-81785714D02*
X237102380Y-81785714D01*
X237102380Y-82023809D01*
X237150000Y-82166666D01*
X237245238Y-82261904D01*
X237340476Y-82309523D01*
X237530952Y-82357142D01*
X237673809Y-82357142D01*
X237864285Y-82309523D01*
X237959523Y-82261904D01*
X238054761Y-82166666D01*
X238102380Y-82023809D01*
X238102380Y-81785714D01*
X237102380Y-82690476D02*
X237102380Y-83309523D01*
X237483333Y-82976190D01*
X237483333Y-83119047D01*
X237530952Y-83214285D01*
X237578571Y-83261904D01*
X237673809Y-83309523D01*
X237911904Y-83309523D01*
X238007142Y-83261904D01*
X238054761Y-83214285D01*
X238102380Y-83119047D01*
X238102380Y-82833333D01*
X238054761Y-82738095D01*
X238007142Y-82690476D01*
X237102380Y-84214285D02*
X237102380Y-83738095D01*
X237578571Y-83690476D01*
X237530952Y-83738095D01*
X237483333Y-83833333D01*
X237483333Y-84071428D01*
X237530952Y-84166666D01*
X237578571Y-84214285D01*
X237673809Y-84261904D01*
X237911904Y-84261904D01*
X238007142Y-84214285D01*
X238054761Y-84166666D01*
X238102380Y-84071428D01*
X238102380Y-83833333D01*
X238054761Y-83738095D01*
X238007142Y-83690476D01*
%TO.C,D79*%
X156850000Y-57166666D02*
X156850000Y-56466666D01*
X156683333Y-56466666D01*
X156583333Y-56500000D01*
X156516666Y-56566666D01*
X156483333Y-56633333D01*
X156450000Y-56766666D01*
X156450000Y-56866666D01*
X156483333Y-57000000D01*
X156516666Y-57066666D01*
X156583333Y-57133333D01*
X156683333Y-57166666D01*
X156850000Y-57166666D01*
X156216666Y-56466666D02*
X155750000Y-56466666D01*
X156050000Y-57166666D01*
X155450000Y-57166666D02*
X155316666Y-57166666D01*
X155250000Y-57133333D01*
X155216666Y-57100000D01*
X155150000Y-57000000D01*
X155116666Y-56866666D01*
X155116666Y-56600000D01*
X155150000Y-56533333D01*
X155183333Y-56500000D01*
X155250000Y-56466666D01*
X155383333Y-56466666D01*
X155450000Y-56500000D01*
X155483333Y-56533333D01*
X155516666Y-56600000D01*
X155516666Y-56766666D01*
X155483333Y-56833333D01*
X155450000Y-56866666D01*
X155383333Y-56900000D01*
X155250000Y-56900000D01*
X155183333Y-56866666D01*
X155150000Y-56833333D01*
X155116666Y-56766666D01*
%TO.C,D39*%
X94102380Y-98785714D02*
X93102380Y-98785714D01*
X93102380Y-99023809D01*
X93150000Y-99166666D01*
X93245238Y-99261904D01*
X93340476Y-99309523D01*
X93530952Y-99357142D01*
X93673809Y-99357142D01*
X93864285Y-99309523D01*
X93959523Y-99261904D01*
X94054761Y-99166666D01*
X94102380Y-99023809D01*
X94102380Y-98785714D01*
X93102380Y-99690476D02*
X93102380Y-100309523D01*
X93483333Y-99976190D01*
X93483333Y-100119047D01*
X93530952Y-100214285D01*
X93578571Y-100261904D01*
X93673809Y-100309523D01*
X93911904Y-100309523D01*
X94007142Y-100261904D01*
X94054761Y-100214285D01*
X94102380Y-100119047D01*
X94102380Y-99833333D01*
X94054761Y-99738095D01*
X94007142Y-99690476D01*
X94102380Y-100785714D02*
X94102380Y-100976190D01*
X94054761Y-101071428D01*
X94007142Y-101119047D01*
X93864285Y-101214285D01*
X93673809Y-101261904D01*
X93292857Y-101261904D01*
X93197619Y-101214285D01*
X93150000Y-101166666D01*
X93102380Y-101071428D01*
X93102380Y-100880952D01*
X93150000Y-100785714D01*
X93197619Y-100738095D01*
X93292857Y-100690476D01*
X93530952Y-100690476D01*
X93626190Y-100738095D01*
X93673809Y-100785714D01*
X93721428Y-100880952D01*
X93721428Y-101071428D01*
X93673809Y-101166666D01*
X93626190Y-101214285D01*
X93530952Y-101261904D01*
%TO.C,D36*%
X253502380Y-81785714D02*
X252502380Y-81785714D01*
X252502380Y-82023809D01*
X252550000Y-82166666D01*
X252645238Y-82261904D01*
X252740476Y-82309523D01*
X252930952Y-82357142D01*
X253073809Y-82357142D01*
X253264285Y-82309523D01*
X253359523Y-82261904D01*
X253454761Y-82166666D01*
X253502380Y-82023809D01*
X253502380Y-81785714D01*
X252502380Y-82690476D02*
X252502380Y-83309523D01*
X252883333Y-82976190D01*
X252883333Y-83119047D01*
X252930952Y-83214285D01*
X252978571Y-83261904D01*
X253073809Y-83309523D01*
X253311904Y-83309523D01*
X253407142Y-83261904D01*
X253454761Y-83214285D01*
X253502380Y-83119047D01*
X253502380Y-82833333D01*
X253454761Y-82738095D01*
X253407142Y-82690476D01*
X252502380Y-84166666D02*
X252502380Y-83976190D01*
X252550000Y-83880952D01*
X252597619Y-83833333D01*
X252740476Y-83738095D01*
X252930952Y-83690476D01*
X253311904Y-83690476D01*
X253407142Y-83738095D01*
X253454761Y-83785714D01*
X253502380Y-83880952D01*
X253502380Y-84071428D01*
X253454761Y-84166666D01*
X253407142Y-84214285D01*
X253311904Y-84261904D01*
X253073809Y-84261904D01*
X252978571Y-84214285D01*
X252930952Y-84166666D01*
X252883333Y-84071428D01*
X252883333Y-83880952D01*
X252930952Y-83785714D01*
X252978571Y-83738095D01*
X253073809Y-83690476D01*
%TO.C,D10*%
X219202380Y-46045714D02*
X218202380Y-46045714D01*
X218202380Y-46283809D01*
X218250000Y-46426666D01*
X218345238Y-46521904D01*
X218440476Y-46569523D01*
X218630952Y-46617142D01*
X218773809Y-46617142D01*
X218964285Y-46569523D01*
X219059523Y-46521904D01*
X219154761Y-46426666D01*
X219202380Y-46283809D01*
X219202380Y-46045714D01*
X219202380Y-47569523D02*
X219202380Y-46998095D01*
X219202380Y-47283809D02*
X218202380Y-47283809D01*
X218345238Y-47188571D01*
X218440476Y-47093333D01*
X218488095Y-46998095D01*
X218202380Y-48188571D02*
X218202380Y-48283809D01*
X218250000Y-48379047D01*
X218297619Y-48426666D01*
X218392857Y-48474285D01*
X218583333Y-48521904D01*
X218821428Y-48521904D01*
X219011904Y-48474285D01*
X219107142Y-48426666D01*
X219154761Y-48379047D01*
X219202380Y-48283809D01*
X219202380Y-48188571D01*
X219154761Y-48093333D01*
X219107142Y-48045714D01*
X219011904Y-47998095D01*
X218821428Y-47950476D01*
X218583333Y-47950476D01*
X218392857Y-47998095D01*
X218297619Y-48045714D01*
X218250000Y-48093333D01*
X218202380Y-48188571D01*
%TO.C,D104*%
X175183333Y-91166666D02*
X175183333Y-90466666D01*
X175016666Y-90466666D01*
X174916666Y-90500000D01*
X174850000Y-90566666D01*
X174816666Y-90633333D01*
X174783333Y-90766666D01*
X174783333Y-90866666D01*
X174816666Y-91000000D01*
X174850000Y-91066666D01*
X174916666Y-91133333D01*
X175016666Y-91166666D01*
X175183333Y-91166666D01*
X174116666Y-91166666D02*
X174516666Y-91166666D01*
X174316666Y-91166666D02*
X174316666Y-90466666D01*
X174383333Y-90566666D01*
X174450000Y-90633333D01*
X174516666Y-90666666D01*
X173683333Y-90466666D02*
X173616666Y-90466666D01*
X173550000Y-90500000D01*
X173516666Y-90533333D01*
X173483333Y-90600000D01*
X173450000Y-90733333D01*
X173450000Y-90900000D01*
X173483333Y-91033333D01*
X173516666Y-91100000D01*
X173550000Y-91133333D01*
X173616666Y-91166666D01*
X173683333Y-91166666D01*
X173750000Y-91133333D01*
X173783333Y-91100000D01*
X173816666Y-91033333D01*
X173850000Y-90900000D01*
X173850000Y-90733333D01*
X173816666Y-90600000D01*
X173783333Y-90533333D01*
X173750000Y-90500000D01*
X173683333Y-90466666D01*
X172850000Y-90700000D02*
X172850000Y-91166666D01*
X173016666Y-90433333D02*
X173183333Y-90933333D01*
X172750000Y-90933333D01*
%TO.C,D26*%
X76102380Y-81760714D02*
X75102380Y-81760714D01*
X75102380Y-81998809D01*
X75150000Y-82141666D01*
X75245238Y-82236904D01*
X75340476Y-82284523D01*
X75530952Y-82332142D01*
X75673809Y-82332142D01*
X75864285Y-82284523D01*
X75959523Y-82236904D01*
X76054761Y-82141666D01*
X76102380Y-81998809D01*
X76102380Y-81760714D01*
X75197619Y-82713095D02*
X75150000Y-82760714D01*
X75102380Y-82855952D01*
X75102380Y-83094047D01*
X75150000Y-83189285D01*
X75197619Y-83236904D01*
X75292857Y-83284523D01*
X75388095Y-83284523D01*
X75530952Y-83236904D01*
X76102380Y-82665476D01*
X76102380Y-83284523D01*
X75102380Y-84141666D02*
X75102380Y-83951190D01*
X75150000Y-83855952D01*
X75197619Y-83808333D01*
X75340476Y-83713095D01*
X75530952Y-83665476D01*
X75911904Y-83665476D01*
X76007142Y-83713095D01*
X76054761Y-83760714D01*
X76102380Y-83855952D01*
X76102380Y-84046428D01*
X76054761Y-84141666D01*
X76007142Y-84189285D01*
X75911904Y-84236904D01*
X75673809Y-84236904D01*
X75578571Y-84189285D01*
X75530952Y-84141666D01*
X75483333Y-84046428D01*
X75483333Y-83855952D01*
X75530952Y-83760714D01*
X75578571Y-83713095D01*
X75673809Y-83665476D01*
%TO.C,D98*%
X67100000Y-91166666D02*
X67100000Y-90466666D01*
X66933333Y-90466666D01*
X66833333Y-90500000D01*
X66766666Y-90566666D01*
X66733333Y-90633333D01*
X66700000Y-90766666D01*
X66700000Y-90866666D01*
X66733333Y-91000000D01*
X66766666Y-91066666D01*
X66833333Y-91133333D01*
X66933333Y-91166666D01*
X67100000Y-91166666D01*
X66366666Y-91166666D02*
X66233333Y-91166666D01*
X66166666Y-91133333D01*
X66133333Y-91100000D01*
X66066666Y-91000000D01*
X66033333Y-90866666D01*
X66033333Y-90600000D01*
X66066666Y-90533333D01*
X66100000Y-90500000D01*
X66166666Y-90466666D01*
X66300000Y-90466666D01*
X66366666Y-90500000D01*
X66400000Y-90533333D01*
X66433333Y-90600000D01*
X66433333Y-90766666D01*
X66400000Y-90833333D01*
X66366666Y-90866666D01*
X66300000Y-90900000D01*
X66166666Y-90900000D01*
X66100000Y-90866666D01*
X66066666Y-90833333D01*
X66033333Y-90766666D01*
X65633333Y-90766666D02*
X65700000Y-90733333D01*
X65733333Y-90700000D01*
X65766666Y-90633333D01*
X65766666Y-90600000D01*
X65733333Y-90533333D01*
X65700000Y-90500000D01*
X65633333Y-90466666D01*
X65500000Y-90466666D01*
X65433333Y-90500000D01*
X65400000Y-90533333D01*
X65366666Y-90600000D01*
X65366666Y-90633333D01*
X65400000Y-90700000D01*
X65433333Y-90733333D01*
X65500000Y-90766666D01*
X65633333Y-90766666D01*
X65700000Y-90800000D01*
X65733333Y-90833333D01*
X65766666Y-90900000D01*
X65766666Y-91033333D01*
X65733333Y-91100000D01*
X65700000Y-91133333D01*
X65633333Y-91166666D01*
X65500000Y-91166666D01*
X65433333Y-91133333D01*
X65400000Y-91100000D01*
X65366666Y-91033333D01*
X65366666Y-90900000D01*
X65400000Y-90833333D01*
X65433333Y-90800000D01*
X65500000Y-90766666D01*
%TO.C,D91*%
X156850000Y-74166666D02*
X156850000Y-73466666D01*
X156683333Y-73466666D01*
X156583333Y-73500000D01*
X156516666Y-73566666D01*
X156483333Y-73633333D01*
X156450000Y-73766666D01*
X156450000Y-73866666D01*
X156483333Y-74000000D01*
X156516666Y-74066666D01*
X156583333Y-74133333D01*
X156683333Y-74166666D01*
X156850000Y-74166666D01*
X156116666Y-74166666D02*
X155983333Y-74166666D01*
X155916666Y-74133333D01*
X155883333Y-74100000D01*
X155816666Y-74000000D01*
X155783333Y-73866666D01*
X155783333Y-73600000D01*
X155816666Y-73533333D01*
X155850000Y-73500000D01*
X155916666Y-73466666D01*
X156050000Y-73466666D01*
X156116666Y-73500000D01*
X156150000Y-73533333D01*
X156183333Y-73600000D01*
X156183333Y-73766666D01*
X156150000Y-73833333D01*
X156116666Y-73866666D01*
X156050000Y-73900000D01*
X155916666Y-73900000D01*
X155850000Y-73866666D01*
X155816666Y-73833333D01*
X155783333Y-73766666D01*
X155116666Y-74166666D02*
X155516666Y-74166666D01*
X155316666Y-74166666D02*
X155316666Y-73466666D01*
X155383333Y-73566666D01*
X155450000Y-73633333D01*
X155516666Y-73666666D01*
D11*
%TO.C,D83*%
X225200000Y-53350000D02*
X225800000Y-53350000D01*
X225800000Y-53350000D02*
X225800000Y-52750000D01*
X225800000Y-52750000D02*
X225200000Y-53350000D01*
G36*
X225800000Y-53350000D02*
G01*
X225200000Y-53350000D01*
X225800000Y-52750000D01*
X225800000Y-53350000D01*
G37*
X225800000Y-53350000D02*
X225200000Y-53350000D01*
X225800000Y-52750000D01*
X225800000Y-53350000D01*
D12*
%TO.C,D53*%
X124940000Y-117360000D02*
X124940000Y-114500000D01*
X126860000Y-114500000D02*
X126860000Y-117360000D01*
X126860000Y-117360000D02*
X124940000Y-117360000D01*
%TO.C,D38*%
X74960000Y-101860000D02*
X73040000Y-101860000D01*
X74960000Y-99000000D02*
X74960000Y-101860000D01*
X73040000Y-101860000D02*
X73040000Y-99000000D01*
D11*
%TO.C,D85*%
X45200000Y-70350000D02*
X45800000Y-70350000D01*
X45800000Y-70350000D02*
X45800000Y-69750000D01*
X45800000Y-69750000D02*
X45200000Y-70350000D01*
G36*
X45800000Y-70350000D02*
G01*
X45200000Y-70350000D01*
X45800000Y-69750000D01*
X45800000Y-70350000D01*
G37*
X45800000Y-70350000D02*
X45200000Y-70350000D01*
X45800000Y-69750000D01*
X45800000Y-70350000D01*
%TO.C,D108*%
X243200000Y-87350000D02*
X243800000Y-87350000D01*
X243800000Y-87350000D02*
X243800000Y-86750000D01*
X243800000Y-86750000D02*
X243200000Y-87350000D01*
G36*
X243800000Y-87350000D02*
G01*
X243200000Y-87350000D01*
X243800000Y-86750000D01*
X243800000Y-87350000D01*
G37*
X243800000Y-87350000D02*
X243200000Y-87350000D01*
X243800000Y-86750000D01*
X243800000Y-87350000D01*
%TO.C,D84*%
X243200000Y-53350000D02*
X243800000Y-53350000D01*
X243800000Y-53350000D02*
X243800000Y-52750000D01*
X243800000Y-52750000D02*
X243200000Y-53350000D01*
G36*
X243800000Y-53350000D02*
G01*
X243200000Y-53350000D01*
X243800000Y-52750000D01*
X243800000Y-53350000D01*
G37*
X243800000Y-53350000D02*
X243200000Y-53350000D01*
X243800000Y-52750000D01*
X243800000Y-53350000D01*
D12*
%TO.C,D46*%
X218960000Y-101860000D02*
X217040000Y-101860000D01*
X217040000Y-101860000D02*
X217040000Y-99000000D01*
X218960000Y-99000000D02*
X218960000Y-101860000D01*
D11*
%TO.C,D106*%
X207200000Y-87350000D02*
X207800000Y-87350000D01*
X207800000Y-87350000D02*
X207800000Y-86750000D01*
X207800000Y-86750000D02*
X207200000Y-87350000D01*
G36*
X207800000Y-87350000D02*
G01*
X207200000Y-87350000D01*
X207800000Y-86750000D01*
X207800000Y-87350000D01*
G37*
X207800000Y-87350000D02*
X207200000Y-87350000D01*
X207800000Y-86750000D01*
X207800000Y-87350000D01*
D12*
%TO.C,D9*%
X198140000Y-49095000D02*
X198140000Y-46235000D01*
X200060000Y-46235000D02*
X200060000Y-49095000D01*
X200060000Y-49095000D02*
X198140000Y-49095000D01*
D11*
%TO.C,D89*%
X117200000Y-70350000D02*
X117800000Y-70350000D01*
X117800000Y-70350000D02*
X117800000Y-69750000D01*
X117800000Y-69750000D02*
X117200000Y-70350000D01*
G36*
X117800000Y-70350000D02*
G01*
X117200000Y-70350000D01*
X117800000Y-69750000D01*
X117800000Y-70350000D01*
G37*
X117800000Y-70350000D02*
X117200000Y-70350000D01*
X117800000Y-69750000D01*
X117800000Y-70350000D01*
D12*
%TO.C,D6*%
X146060000Y-49095000D02*
X144140000Y-49095000D01*
X144140000Y-49095000D02*
X144140000Y-46235000D01*
X146060000Y-46235000D02*
X146060000Y-49095000D01*
D11*
%TO.C,D64*%
X99200000Y-36350000D02*
X99800000Y-36350000D01*
X99800000Y-36350000D02*
X99800000Y-35750000D01*
X99800000Y-35750000D02*
X99200000Y-36350000D01*
G36*
X99800000Y-36350000D02*
G01*
X99200000Y-36350000D01*
X99800000Y-35750000D01*
X99800000Y-36350000D01*
G37*
X99800000Y-36350000D02*
X99200000Y-36350000D01*
X99800000Y-35750000D01*
X99800000Y-36350000D01*
D12*
%TO.C,D23*%
X235040000Y-67860000D02*
X235040000Y-65000000D01*
X236960000Y-65000000D02*
X236960000Y-67860000D01*
X236960000Y-67860000D02*
X235040000Y-67860000D01*
D11*
%TO.C,D93*%
X189200000Y-70350000D02*
X189800000Y-70350000D01*
X189800000Y-70350000D02*
X189800000Y-69750000D01*
X189800000Y-69750000D02*
X189200000Y-70350000D01*
G36*
X189800000Y-70350000D02*
G01*
X189200000Y-70350000D01*
X189800000Y-69750000D01*
X189800000Y-70350000D01*
G37*
X189800000Y-70350000D02*
X189200000Y-70350000D01*
X189800000Y-69750000D01*
X189800000Y-70350000D01*
D12*
%TO.C,D15*%
X92960000Y-65000000D02*
X92960000Y-67860000D01*
X91040000Y-67860000D02*
X91040000Y-65000000D01*
X92960000Y-67860000D02*
X91040000Y-67860000D01*
%TO.C,D40*%
X110960000Y-99000000D02*
X110960000Y-101860000D01*
X110960000Y-101860000D02*
X109040000Y-101860000D01*
X109040000Y-101860000D02*
X109040000Y-99000000D01*
%TO.C,D43*%
X163040000Y-101885000D02*
X163040000Y-99025000D01*
X164960000Y-99025000D02*
X164960000Y-101885000D01*
X164960000Y-101885000D02*
X163040000Y-101885000D01*
%TO.C,D30*%
X145040000Y-84835000D02*
X145040000Y-81975000D01*
X146960000Y-81975000D02*
X146960000Y-84835000D01*
X146960000Y-84835000D02*
X145040000Y-84835000D01*
%TO.C,D29*%
X128960000Y-84860000D02*
X127040000Y-84860000D01*
X128960000Y-82000000D02*
X128960000Y-84860000D01*
X127040000Y-84860000D02*
X127040000Y-82000000D01*
D11*
%TO.C,D96*%
X243200000Y-70350000D02*
X243800000Y-70350000D01*
X243800000Y-70350000D02*
X243800000Y-69750000D01*
X243800000Y-69750000D02*
X243200000Y-70350000D01*
G36*
X243800000Y-70350000D02*
G01*
X243200000Y-70350000D01*
X243800000Y-69750000D01*
X243800000Y-70350000D01*
G37*
X243800000Y-70350000D02*
X243200000Y-70350000D01*
X243800000Y-69750000D01*
X243800000Y-70350000D01*
D12*
%TO.C,D54*%
X144860000Y-117360000D02*
X142940000Y-117360000D01*
X144860000Y-114500000D02*
X144860000Y-117360000D01*
X142940000Y-117360000D02*
X142940000Y-114500000D01*
D11*
%TO.C,D105*%
X189200000Y-87350000D02*
X189800000Y-87350000D01*
X189800000Y-87350000D02*
X189800000Y-86750000D01*
X189800000Y-86750000D02*
X189200000Y-87350000D01*
G36*
X189800000Y-87350000D02*
G01*
X189200000Y-87350000D01*
X189800000Y-86750000D01*
X189800000Y-87350000D01*
G37*
X189800000Y-87350000D02*
X189200000Y-87350000D01*
X189800000Y-86750000D01*
X189800000Y-87350000D01*
D12*
%TO.C,D52*%
X108860000Y-114500000D02*
X108860000Y-117360000D01*
X106940000Y-117360000D02*
X106940000Y-114500000D01*
X108860000Y-117360000D02*
X106940000Y-117360000D01*
%TO.C,R2*%
X39327064Y-52765000D02*
X38872936Y-52765000D01*
X39327064Y-54235000D02*
X38872936Y-54235000D01*
D11*
%TO.C,D101*%
X117200000Y-87350000D02*
X117800000Y-87350000D01*
X117800000Y-87350000D02*
X117800000Y-86750000D01*
X117800000Y-86750000D02*
X117200000Y-87350000D01*
G36*
X117800000Y-87350000D02*
G01*
X117200000Y-87350000D01*
X117800000Y-86750000D01*
X117800000Y-87350000D01*
G37*
X117800000Y-87350000D02*
X117200000Y-87350000D01*
X117800000Y-86750000D01*
X117800000Y-87350000D01*
D12*
%TO.C,D48*%
X250440000Y-101860000D02*
X250440000Y-99000000D01*
X252360000Y-99000000D02*
X252360000Y-101860000D01*
X252360000Y-101860000D02*
X250440000Y-101860000D01*
%TO.C,D47*%
X235040000Y-101860000D02*
X235040000Y-99000000D01*
X236960000Y-99000000D02*
X236960000Y-101860000D01*
X236960000Y-101860000D02*
X235040000Y-101860000D01*
%TO.C,D49*%
X53040000Y-117360000D02*
X53040000Y-114500000D01*
X54960000Y-114500000D02*
X54960000Y-117360000D01*
X54960000Y-117360000D02*
X53040000Y-117360000D01*
%TO.C,D13*%
X55040000Y-67860000D02*
X55040000Y-65000000D01*
X56960000Y-67860000D02*
X55040000Y-67860000D01*
X56960000Y-65000000D02*
X56960000Y-67860000D01*
D11*
%TO.C,D102*%
X135200000Y-87350000D02*
X135800000Y-87350000D01*
X135800000Y-87350000D02*
X135800000Y-86750000D01*
X135800000Y-86750000D02*
X135200000Y-87350000D01*
G36*
X135800000Y-87350000D02*
G01*
X135200000Y-87350000D01*
X135800000Y-86750000D01*
X135800000Y-87350000D01*
G37*
X135800000Y-87350000D02*
X135200000Y-87350000D01*
X135800000Y-86750000D01*
X135800000Y-87350000D01*
%TO.C,D63*%
X81200000Y-36350000D02*
X81800000Y-36350000D01*
X81800000Y-36350000D02*
X81800000Y-35750000D01*
X81800000Y-35750000D02*
X81200000Y-36350000D01*
G36*
X81800000Y-36350000D02*
G01*
X81200000Y-36350000D01*
X81800000Y-35750000D01*
X81800000Y-36350000D01*
G37*
X81800000Y-36350000D02*
X81200000Y-36350000D01*
X81800000Y-35750000D01*
X81800000Y-36350000D01*
D12*
%TO.C,D31*%
X164960000Y-84835000D02*
X163040000Y-84835000D01*
X163040000Y-84835000D02*
X163040000Y-81975000D01*
X164960000Y-81975000D02*
X164960000Y-84835000D01*
%TO.C,D56*%
X180860000Y-117360000D02*
X178940000Y-117360000D01*
X180860000Y-114500000D02*
X180860000Y-117360000D01*
X178940000Y-117360000D02*
X178940000Y-114500000D01*
D11*
%TO.C,D118*%
X207200000Y-104350000D02*
X207800000Y-104350000D01*
X207800000Y-104350000D02*
X207800000Y-103750000D01*
X207800000Y-103750000D02*
X207200000Y-104350000D01*
G36*
X207800000Y-104350000D02*
G01*
X207200000Y-104350000D01*
X207800000Y-103750000D01*
X207800000Y-104350000D01*
G37*
X207800000Y-104350000D02*
X207200000Y-104350000D01*
X207800000Y-103750000D01*
X207800000Y-104350000D01*
%TO.C,D120*%
X243200000Y-104350000D02*
X243800000Y-104350000D01*
X243800000Y-104350000D02*
X243800000Y-103750000D01*
X243800000Y-103750000D02*
X243200000Y-104350000D01*
G36*
X243800000Y-104350000D02*
G01*
X243200000Y-104350000D01*
X243800000Y-103750000D01*
X243800000Y-104350000D01*
G37*
X243800000Y-104350000D02*
X243200000Y-104350000D01*
X243800000Y-103750000D01*
X243800000Y-104350000D01*
D12*
%TO.C,D1*%
X56060000Y-49095000D02*
X54140000Y-49095000D01*
X54140000Y-49095000D02*
X54140000Y-46235000D01*
X56060000Y-46235000D02*
X56060000Y-49095000D01*
D11*
%TO.C,D119*%
X225200000Y-104350000D02*
X225800000Y-104350000D01*
X225800000Y-104350000D02*
X225800000Y-103750000D01*
X225800000Y-103750000D02*
X225200000Y-104350000D01*
G36*
X225800000Y-104350000D02*
G01*
X225200000Y-104350000D01*
X225800000Y-103750000D01*
X225800000Y-104350000D01*
G37*
X225800000Y-104350000D02*
X225200000Y-104350000D01*
X225800000Y-103750000D01*
X225800000Y-104350000D01*
%TO.C,D71*%
X225200000Y-36350000D02*
X225800000Y-36350000D01*
X225800000Y-36350000D02*
X225800000Y-35750000D01*
X225800000Y-35750000D02*
X225200000Y-36350000D01*
G36*
X225800000Y-36350000D02*
G01*
X225200000Y-36350000D01*
X225800000Y-35750000D01*
X225800000Y-36350000D01*
G37*
X225800000Y-36350000D02*
X225200000Y-36350000D01*
X225800000Y-35750000D01*
X225800000Y-36350000D01*
%TO.C,D92*%
X171200000Y-70350000D02*
X171800000Y-70350000D01*
X171800000Y-70350000D02*
X171800000Y-69750000D01*
X171800000Y-69750000D02*
X171200000Y-70350000D01*
G36*
X171800000Y-70350000D02*
G01*
X171200000Y-70350000D01*
X171800000Y-69750000D01*
X171800000Y-70350000D01*
G37*
X171800000Y-70350000D02*
X171200000Y-70350000D01*
X171800000Y-69750000D01*
X171800000Y-70350000D01*
D12*
%TO.C,D42*%
X146960000Y-101860000D02*
X145040000Y-101860000D01*
X146960000Y-99000000D02*
X146960000Y-101860000D01*
X145040000Y-101860000D02*
X145040000Y-99000000D01*
D11*
%TO.C,D76*%
X99200000Y-53350000D02*
X99800000Y-53350000D01*
X99800000Y-53350000D02*
X99800000Y-52750000D01*
X99800000Y-52750000D02*
X99200000Y-53350000D01*
G36*
X99800000Y-53350000D02*
G01*
X99200000Y-53350000D01*
X99800000Y-52750000D01*
X99800000Y-53350000D01*
G37*
X99800000Y-53350000D02*
X99200000Y-53350000D01*
X99800000Y-52750000D01*
X99800000Y-53350000D01*
%TO.C,D67*%
X153200000Y-36350000D02*
X153800000Y-36350000D01*
X153800000Y-36350000D02*
X153800000Y-35750000D01*
X153800000Y-35750000D02*
X153200000Y-36350000D01*
G36*
X153800000Y-36350000D02*
G01*
X153200000Y-36350000D01*
X153800000Y-35750000D01*
X153800000Y-36350000D01*
G37*
X153800000Y-36350000D02*
X153200000Y-36350000D01*
X153800000Y-35750000D01*
X153800000Y-36350000D01*
%TO.C,D74*%
X63200000Y-53350000D02*
X63800000Y-53350000D01*
X63800000Y-53350000D02*
X63800000Y-52750000D01*
X63800000Y-52750000D02*
X63200000Y-53350000D01*
G36*
X63800000Y-53350000D02*
G01*
X63200000Y-53350000D01*
X63800000Y-52750000D01*
X63800000Y-53350000D01*
G37*
X63800000Y-53350000D02*
X63200000Y-53350000D01*
X63800000Y-52750000D01*
X63800000Y-53350000D01*
%TO.C,D62*%
X63200000Y-36350000D02*
X63800000Y-36350000D01*
X63800000Y-36350000D02*
X63800000Y-35750000D01*
X63800000Y-35750000D02*
X63200000Y-36350000D01*
G36*
X63800000Y-36350000D02*
G01*
X63200000Y-36350000D01*
X63800000Y-35750000D01*
X63800000Y-36350000D01*
G37*
X63800000Y-36350000D02*
X63200000Y-36350000D01*
X63800000Y-35750000D01*
X63800000Y-36350000D01*
%TO.C,D87*%
X81200000Y-70350000D02*
X81800000Y-70350000D01*
X81800000Y-70350000D02*
X81800000Y-69750000D01*
X81800000Y-69750000D02*
X81200000Y-70350000D01*
G36*
X81800000Y-70350000D02*
G01*
X81200000Y-70350000D01*
X81800000Y-69750000D01*
X81800000Y-70350000D01*
G37*
X81800000Y-70350000D02*
X81200000Y-70350000D01*
X81800000Y-69750000D01*
X81800000Y-70350000D01*
%TO.C,D112*%
X99200000Y-104350000D02*
X99800000Y-104350000D01*
X99800000Y-104350000D02*
X99800000Y-103750000D01*
X99800000Y-103750000D02*
X99200000Y-104350000D01*
G36*
X99800000Y-104350000D02*
G01*
X99200000Y-104350000D01*
X99800000Y-103750000D01*
X99800000Y-104350000D01*
G37*
X99800000Y-104350000D02*
X99200000Y-104350000D01*
X99800000Y-103750000D01*
X99800000Y-104350000D01*
%TO.C,D109*%
X45200000Y-104350000D02*
X45800000Y-104350000D01*
X45800000Y-104350000D02*
X45800000Y-103750000D01*
X45800000Y-103750000D02*
X45200000Y-104350000D01*
G36*
X45800000Y-104350000D02*
G01*
X45200000Y-104350000D01*
X45800000Y-103750000D01*
X45800000Y-104350000D01*
G37*
X45800000Y-104350000D02*
X45200000Y-104350000D01*
X45800000Y-103750000D01*
X45800000Y-104350000D01*
D12*
%TO.C,D7*%
X162140000Y-49095000D02*
X162140000Y-46235000D01*
X164060000Y-46235000D02*
X164060000Y-49095000D01*
X164060000Y-49095000D02*
X162140000Y-49095000D01*
D11*
%TO.C,D88*%
X99200000Y-70350000D02*
X99800000Y-70350000D01*
X99800000Y-70350000D02*
X99800000Y-69750000D01*
X99800000Y-69750000D02*
X99200000Y-70350000D01*
G36*
X99800000Y-70350000D02*
G01*
X99200000Y-70350000D01*
X99800000Y-69750000D01*
X99800000Y-70350000D01*
G37*
X99800000Y-70350000D02*
X99200000Y-70350000D01*
X99800000Y-69750000D01*
X99800000Y-70350000D01*
%TO.C,D90*%
X135200000Y-70350000D02*
X135800000Y-70350000D01*
X135800000Y-70350000D02*
X135800000Y-69750000D01*
X135800000Y-69750000D02*
X135200000Y-70350000D01*
G36*
X135800000Y-70350000D02*
G01*
X135200000Y-70350000D01*
X135800000Y-69750000D01*
X135800000Y-70350000D01*
G37*
X135800000Y-70350000D02*
X135200000Y-70350000D01*
X135800000Y-69750000D01*
X135800000Y-70350000D01*
%TO.C,D111*%
X81200000Y-104350000D02*
X81800000Y-104350000D01*
X81800000Y-104350000D02*
X81800000Y-103750000D01*
X81800000Y-103750000D02*
X81200000Y-104350000D01*
G36*
X81800000Y-104350000D02*
G01*
X81200000Y-104350000D01*
X81800000Y-103750000D01*
X81800000Y-104350000D01*
G37*
X81800000Y-104350000D02*
X81200000Y-104350000D01*
X81800000Y-103750000D01*
X81800000Y-104350000D01*
D12*
%TO.C,D3*%
X92060000Y-46235000D02*
X92060000Y-49095000D01*
X90140000Y-49095000D02*
X90140000Y-46235000D01*
X92060000Y-49095000D02*
X90140000Y-49095000D01*
D11*
%TO.C,D66*%
X135200000Y-36350000D02*
X135800000Y-36350000D01*
X135800000Y-36350000D02*
X135800000Y-35750000D01*
X135800000Y-35750000D02*
X135200000Y-36350000D01*
G36*
X135800000Y-36350000D02*
G01*
X135200000Y-36350000D01*
X135800000Y-35750000D01*
X135800000Y-36350000D01*
G37*
X135800000Y-36350000D02*
X135200000Y-36350000D01*
X135800000Y-35750000D01*
X135800000Y-36350000D01*
D12*
%TO.C,D11*%
X234140000Y-49095000D02*
X234140000Y-46235000D01*
X236060000Y-46235000D02*
X236060000Y-49095000D01*
X236060000Y-49095000D02*
X234140000Y-49095000D01*
D11*
%TO.C,D116*%
X171200000Y-104350000D02*
X171800000Y-104350000D01*
X171800000Y-104350000D02*
X171800000Y-103750000D01*
X171800000Y-103750000D02*
X171200000Y-104350000D01*
G36*
X171800000Y-104350000D02*
G01*
X171200000Y-104350000D01*
X171800000Y-103750000D01*
X171800000Y-104350000D01*
G37*
X171800000Y-104350000D02*
X171200000Y-104350000D01*
X171800000Y-103750000D01*
X171800000Y-104350000D01*
D12*
%TO.C,D32*%
X181040000Y-84860000D02*
X181040000Y-82000000D01*
X182960000Y-84860000D02*
X181040000Y-84860000D01*
X182960000Y-82000000D02*
X182960000Y-84860000D01*
%TO.C,D25*%
X55040000Y-84860000D02*
X55040000Y-82000000D01*
X56960000Y-84860000D02*
X55040000Y-84860000D01*
X56960000Y-82000000D02*
X56960000Y-84860000D01*
%TO.C,D50*%
X71040000Y-117460000D02*
X71040000Y-114600000D01*
X72960000Y-117460000D02*
X71040000Y-117460000D01*
X72960000Y-114600000D02*
X72960000Y-117460000D01*
D11*
%TO.C,D115*%
X153200000Y-104350000D02*
X153800000Y-104350000D01*
X153800000Y-104350000D02*
X153800000Y-103750000D01*
X153800000Y-103750000D02*
X153200000Y-104350000D01*
G36*
X153800000Y-104350000D02*
G01*
X153200000Y-104350000D01*
X153800000Y-103750000D01*
X153800000Y-104350000D01*
G37*
X153800000Y-104350000D02*
X153200000Y-104350000D01*
X153800000Y-103750000D01*
X153800000Y-104350000D01*
D12*
%TO.C,D27*%
X92960000Y-84860000D02*
X91040000Y-84860000D01*
X91040000Y-84860000D02*
X91040000Y-82000000D01*
X92960000Y-82000000D02*
X92960000Y-84860000D01*
D11*
%TO.C,D86*%
X63200000Y-70350000D02*
X63800000Y-70350000D01*
X63800000Y-70350000D02*
X63800000Y-69750000D01*
X63800000Y-69750000D02*
X63200000Y-70350000D01*
G36*
X63800000Y-70350000D02*
G01*
X63200000Y-70350000D01*
X63800000Y-69750000D01*
X63800000Y-70350000D01*
G37*
X63800000Y-70350000D02*
X63200000Y-70350000D01*
X63800000Y-69750000D01*
X63800000Y-70350000D01*
D12*
%TO.C,D16*%
X109040000Y-67860000D02*
X109040000Y-65000000D01*
X110960000Y-67860000D02*
X109040000Y-67860000D01*
X110960000Y-65000000D02*
X110960000Y-67860000D01*
D11*
%TO.C,D68*%
X171200000Y-36350000D02*
X171800000Y-36350000D01*
X171800000Y-36350000D02*
X171800000Y-35750000D01*
X171800000Y-35750000D02*
X171200000Y-36350000D01*
G36*
X171800000Y-36350000D02*
G01*
X171200000Y-36350000D01*
X171800000Y-35750000D01*
X171800000Y-36350000D01*
G37*
X171800000Y-36350000D02*
X171200000Y-36350000D01*
X171800000Y-35750000D01*
X171800000Y-36350000D01*
%TO.C,D103*%
X153200000Y-87350000D02*
X153800000Y-87350000D01*
X153800000Y-87350000D02*
X153800000Y-86750000D01*
X153800000Y-86750000D02*
X153200000Y-87350000D01*
G36*
X153800000Y-87350000D02*
G01*
X153200000Y-87350000D01*
X153800000Y-86750000D01*
X153800000Y-87350000D01*
G37*
X153800000Y-87350000D02*
X153200000Y-87350000D01*
X153800000Y-86750000D01*
X153800000Y-87350000D01*
%TO.C,D78*%
X135200000Y-53350000D02*
X135800000Y-53350000D01*
X135800000Y-53350000D02*
X135800000Y-52750000D01*
X135800000Y-52750000D02*
X135200000Y-53350000D01*
G36*
X135800000Y-53350000D02*
G01*
X135200000Y-53350000D01*
X135800000Y-52750000D01*
X135800000Y-53350000D01*
G37*
X135800000Y-53350000D02*
X135200000Y-53350000D01*
X135800000Y-52750000D01*
X135800000Y-53350000D01*
D12*
%TO.C,R1*%
X39327064Y-56535000D02*
X38872936Y-56535000D01*
X39327064Y-55065000D02*
X38872936Y-55065000D01*
D11*
%TO.C,D69*%
X189200000Y-36350000D02*
X189800000Y-36350000D01*
X189800000Y-36350000D02*
X189800000Y-35750000D01*
X189800000Y-35750000D02*
X189200000Y-36350000D01*
G36*
X189800000Y-36350000D02*
G01*
X189200000Y-36350000D01*
X189800000Y-35750000D01*
X189800000Y-36350000D01*
G37*
X189800000Y-36350000D02*
X189200000Y-36350000D01*
X189800000Y-35750000D01*
X189800000Y-36350000D01*
D12*
%TO.C,D24*%
X252560000Y-65000000D02*
X252560000Y-67860000D01*
X250640000Y-67860000D02*
X250640000Y-65000000D01*
X252560000Y-67860000D02*
X250640000Y-67860000D01*
%TO.C,D60*%
X252860000Y-117360000D02*
X250940000Y-117360000D01*
X250940000Y-117360000D02*
X250940000Y-114500000D01*
X252860000Y-114500000D02*
X252860000Y-117360000D01*
D11*
%TO.C,D94*%
X207200000Y-70350000D02*
X207800000Y-70350000D01*
X207800000Y-70350000D02*
X207800000Y-69750000D01*
X207800000Y-69750000D02*
X207200000Y-70350000D01*
G36*
X207800000Y-70350000D02*
G01*
X207200000Y-70350000D01*
X207800000Y-69750000D01*
X207800000Y-70350000D01*
G37*
X207800000Y-70350000D02*
X207200000Y-70350000D01*
X207800000Y-69750000D01*
X207800000Y-70350000D01*
%TO.C,D82*%
X207200000Y-53350000D02*
X207800000Y-53350000D01*
X207800000Y-53350000D02*
X207800000Y-52750000D01*
X207800000Y-52750000D02*
X207200000Y-53350000D01*
G36*
X207800000Y-53350000D02*
G01*
X207200000Y-53350000D01*
X207800000Y-52750000D01*
X207800000Y-53350000D01*
G37*
X207800000Y-53350000D02*
X207200000Y-53350000D01*
X207800000Y-52750000D01*
X207800000Y-53350000D01*
D12*
%TO.C,D2*%
X74060000Y-46235000D02*
X74060000Y-49095000D01*
X72140000Y-49095000D02*
X72140000Y-46235000D01*
X74060000Y-49095000D02*
X72140000Y-49095000D01*
%TO.C,D22*%
X218960000Y-65025000D02*
X218960000Y-67885000D01*
X217040000Y-67885000D02*
X217040000Y-65025000D01*
X218960000Y-67885000D02*
X217040000Y-67885000D01*
D11*
%TO.C,D72*%
X243200000Y-36350000D02*
X243800000Y-36350000D01*
X243800000Y-36350000D02*
X243800000Y-35750000D01*
X243800000Y-35750000D02*
X243200000Y-36350000D01*
G36*
X243800000Y-36350000D02*
G01*
X243200000Y-36350000D01*
X243800000Y-35750000D01*
X243800000Y-36350000D01*
G37*
X243800000Y-36350000D02*
X243200000Y-36350000D01*
X243800000Y-35750000D01*
X243800000Y-36350000D01*
D12*
%TO.C,D5*%
X128060000Y-49095000D02*
X126140000Y-49095000D01*
X126140000Y-49095000D02*
X126140000Y-46235000D01*
X128060000Y-46235000D02*
X128060000Y-49095000D01*
%TO.C,D57*%
X198860000Y-117360000D02*
X196940000Y-117360000D01*
X196940000Y-117360000D02*
X196940000Y-114500000D01*
X198860000Y-114500000D02*
X198860000Y-117360000D01*
%TO.C,D44*%
X182960000Y-101835000D02*
X181040000Y-101835000D01*
X181040000Y-101835000D02*
X181040000Y-98975000D01*
X182960000Y-98975000D02*
X182960000Y-101835000D01*
%TO.C,D41*%
X127040000Y-101860000D02*
X127040000Y-99000000D01*
X128960000Y-99000000D02*
X128960000Y-101860000D01*
X128960000Y-101860000D02*
X127040000Y-101860000D01*
%TO.C,D4*%
X110060000Y-46235000D02*
X110060000Y-49095000D01*
X108140000Y-49095000D02*
X108140000Y-46235000D01*
X110060000Y-49095000D02*
X108140000Y-49095000D01*
%TO.C,D8*%
X180140000Y-49095000D02*
X180140000Y-46235000D01*
X182060000Y-46235000D02*
X182060000Y-49095000D01*
X182060000Y-49095000D02*
X180140000Y-49095000D01*
D11*
%TO.C,D100*%
X99200000Y-87350000D02*
X99800000Y-87350000D01*
X99800000Y-87350000D02*
X99800000Y-86750000D01*
X99800000Y-86750000D02*
X99200000Y-87350000D01*
G36*
X99800000Y-87350000D02*
G01*
X99200000Y-87350000D01*
X99800000Y-86750000D01*
X99800000Y-87350000D01*
G37*
X99800000Y-87350000D02*
X99200000Y-87350000D01*
X99800000Y-86750000D01*
X99800000Y-87350000D01*
%TO.C,D97*%
X45200000Y-87350000D02*
X45800000Y-87350000D01*
X45800000Y-87350000D02*
X45800000Y-86750000D01*
X45800000Y-86750000D02*
X45200000Y-87350000D01*
G36*
X45800000Y-87350000D02*
G01*
X45200000Y-87350000D01*
X45800000Y-86750000D01*
X45800000Y-87350000D01*
G37*
X45800000Y-87350000D02*
X45200000Y-87350000D01*
X45800000Y-86750000D01*
X45800000Y-87350000D01*
D12*
%TO.C,D33*%
X200960000Y-84860000D02*
X199040000Y-84860000D01*
X199040000Y-84860000D02*
X199040000Y-82000000D01*
X200960000Y-82000000D02*
X200960000Y-84860000D01*
D11*
%TO.C,D61*%
X45200000Y-36350000D02*
X45800000Y-36350000D01*
X45800000Y-36350000D02*
X45800000Y-35750000D01*
X45800000Y-35750000D02*
X45200000Y-36350000D01*
G36*
X45800000Y-36350000D02*
G01*
X45200000Y-36350000D01*
X45800000Y-35750000D01*
X45800000Y-36350000D01*
G37*
X45800000Y-36350000D02*
X45200000Y-36350000D01*
X45800000Y-35750000D01*
X45800000Y-36350000D01*
D12*
%TO.C,D55*%
X162860000Y-117360000D02*
X160940000Y-117360000D01*
X162860000Y-114500000D02*
X162860000Y-117360000D01*
X160940000Y-117360000D02*
X160940000Y-114500000D01*
D11*
%TO.C,D81*%
X189200000Y-53350000D02*
X189800000Y-53350000D01*
X189800000Y-53350000D02*
X189800000Y-52750000D01*
X189800000Y-52750000D02*
X189200000Y-53350000D01*
G36*
X189800000Y-53350000D02*
G01*
X189200000Y-53350000D01*
X189800000Y-52750000D01*
X189800000Y-53350000D01*
G37*
X189800000Y-53350000D02*
X189200000Y-53350000D01*
X189800000Y-52750000D01*
X189800000Y-53350000D01*
D12*
%TO.C,D45*%
X200960000Y-101860000D02*
X199040000Y-101860000D01*
X200960000Y-99000000D02*
X200960000Y-101860000D01*
X199040000Y-101860000D02*
X199040000Y-99000000D01*
%TO.C,D51*%
X90760000Y-117260000D02*
X88840000Y-117260000D01*
X90760000Y-114400000D02*
X90760000Y-117260000D01*
X88840000Y-117260000D02*
X88840000Y-114400000D01*
D11*
%TO.C,D110*%
X63200000Y-104350000D02*
X63800000Y-104350000D01*
X63800000Y-104350000D02*
X63800000Y-103750000D01*
X63800000Y-103750000D02*
X63200000Y-104350000D01*
G36*
X63800000Y-104350000D02*
G01*
X63200000Y-104350000D01*
X63800000Y-103750000D01*
X63800000Y-104350000D01*
G37*
X63800000Y-104350000D02*
X63200000Y-104350000D01*
X63800000Y-103750000D01*
X63800000Y-104350000D01*
%TO.C,D65*%
X117200000Y-36350000D02*
X117800000Y-36350000D01*
X117800000Y-36350000D02*
X117800000Y-35750000D01*
X117800000Y-35750000D02*
X117200000Y-36350000D01*
G36*
X117800000Y-36350000D02*
G01*
X117200000Y-36350000D01*
X117800000Y-35750000D01*
X117800000Y-36350000D01*
G37*
X117800000Y-36350000D02*
X117200000Y-36350000D01*
X117800000Y-35750000D01*
X117800000Y-36350000D01*
%TO.C,D73*%
X45200000Y-53350000D02*
X45800000Y-53350000D01*
X45800000Y-53350000D02*
X45800000Y-52750000D01*
X45800000Y-52750000D02*
X45200000Y-53350000D01*
G36*
X45800000Y-53350000D02*
G01*
X45200000Y-53350000D01*
X45800000Y-52750000D01*
X45800000Y-53350000D01*
G37*
X45800000Y-53350000D02*
X45200000Y-53350000D01*
X45800000Y-52750000D01*
X45800000Y-53350000D01*
D12*
%TO.C,D58*%
X214940000Y-117360000D02*
X214940000Y-114500000D01*
X216860000Y-114500000D02*
X216860000Y-117360000D01*
X216860000Y-117360000D02*
X214940000Y-117360000D01*
D11*
%TO.C,D99*%
X81200000Y-87350000D02*
X81800000Y-87350000D01*
X81800000Y-87350000D02*
X81800000Y-86750000D01*
X81800000Y-86750000D02*
X81200000Y-87350000D01*
G36*
X81800000Y-87350000D02*
G01*
X81200000Y-87350000D01*
X81800000Y-86750000D01*
X81800000Y-87350000D01*
G37*
X81800000Y-87350000D02*
X81200000Y-87350000D01*
X81800000Y-86750000D01*
X81800000Y-87350000D01*
D12*
%TO.C,D21*%
X199040000Y-67885000D02*
X199040000Y-65025000D01*
X200960000Y-65025000D02*
X200960000Y-67885000D01*
X200960000Y-67885000D02*
X199040000Y-67885000D01*
D11*
%TO.C,D114*%
X135200000Y-104350000D02*
X135800000Y-104350000D01*
X135800000Y-104350000D02*
X135800000Y-103750000D01*
X135800000Y-103750000D02*
X135200000Y-104350000D01*
G36*
X135800000Y-104350000D02*
G01*
X135200000Y-104350000D01*
X135800000Y-103750000D01*
X135800000Y-104350000D01*
G37*
X135800000Y-104350000D02*
X135200000Y-104350000D01*
X135800000Y-103750000D01*
X135800000Y-104350000D01*
D12*
%TO.C,D17*%
X128960000Y-65000000D02*
X128960000Y-67860000D01*
X127040000Y-67860000D02*
X127040000Y-65000000D01*
X128960000Y-67860000D02*
X127040000Y-67860000D01*
%TO.C,D28*%
X110960000Y-84885000D02*
X109040000Y-84885000D01*
X109040000Y-84885000D02*
X109040000Y-82025000D01*
X110960000Y-82025000D02*
X110960000Y-84885000D01*
%TO.C,D34*%
X218960000Y-82000000D02*
X218960000Y-84860000D01*
X218960000Y-84860000D02*
X217040000Y-84860000D01*
X217040000Y-84860000D02*
X217040000Y-82000000D01*
D11*
%TO.C,D117*%
X189200000Y-104350000D02*
X189800000Y-104350000D01*
X189800000Y-104350000D02*
X189800000Y-103750000D01*
X189800000Y-103750000D02*
X189200000Y-104350000D01*
G36*
X189800000Y-104350000D02*
G01*
X189200000Y-104350000D01*
X189800000Y-103750000D01*
X189800000Y-104350000D01*
G37*
X189800000Y-104350000D02*
X189200000Y-104350000D01*
X189800000Y-103750000D01*
X189800000Y-104350000D01*
D12*
%TO.C,D14*%
X74960000Y-65000000D02*
X74960000Y-67860000D01*
X74960000Y-67860000D02*
X73040000Y-67860000D01*
X73040000Y-67860000D02*
X73040000Y-65000000D01*
%TO.C,D12*%
X249540000Y-49095000D02*
X249540000Y-46235000D01*
X251460000Y-46235000D02*
X251460000Y-49095000D01*
X251460000Y-49095000D02*
X249540000Y-49095000D01*
D11*
%TO.C,D75*%
X81200000Y-53350000D02*
X81800000Y-53350000D01*
X81800000Y-53350000D02*
X81800000Y-52750000D01*
X81800000Y-52750000D02*
X81200000Y-53350000D01*
G36*
X81800000Y-53350000D02*
G01*
X81200000Y-53350000D01*
X81800000Y-52750000D01*
X81800000Y-53350000D01*
G37*
X81800000Y-53350000D02*
X81200000Y-53350000D01*
X81800000Y-52750000D01*
X81800000Y-53350000D01*
%TO.C,D70*%
X207200000Y-36350000D02*
X207800000Y-36350000D01*
X207800000Y-36350000D02*
X207800000Y-35750000D01*
X207800000Y-35750000D02*
X207200000Y-36350000D01*
G36*
X207800000Y-36350000D02*
G01*
X207200000Y-36350000D01*
X207800000Y-35750000D01*
X207800000Y-36350000D01*
G37*
X207800000Y-36350000D02*
X207200000Y-36350000D01*
X207800000Y-35750000D01*
X207800000Y-36350000D01*
%TO.C,D107*%
X225200000Y-87350000D02*
X225800000Y-87350000D01*
X225800000Y-87350000D02*
X225800000Y-86750000D01*
X225800000Y-86750000D02*
X225200000Y-87350000D01*
G36*
X225800000Y-87350000D02*
G01*
X225200000Y-87350000D01*
X225800000Y-86750000D01*
X225800000Y-87350000D01*
G37*
X225800000Y-87350000D02*
X225200000Y-87350000D01*
X225800000Y-86750000D01*
X225800000Y-87350000D01*
D12*
%TO.C,D20*%
X182960000Y-64975000D02*
X182960000Y-67835000D01*
X181040000Y-67835000D02*
X181040000Y-64975000D01*
X182960000Y-67835000D02*
X181040000Y-67835000D01*
%TO.C,D37*%
X55040000Y-101860000D02*
X55040000Y-99000000D01*
X56960000Y-101860000D02*
X55040000Y-101860000D01*
X56960000Y-99000000D02*
X56960000Y-101860000D01*
D11*
%TO.C,D77*%
X117200000Y-53350000D02*
X117800000Y-53350000D01*
X117800000Y-53350000D02*
X117800000Y-52750000D01*
X117800000Y-52750000D02*
X117200000Y-53350000D01*
G36*
X117800000Y-53350000D02*
G01*
X117200000Y-53350000D01*
X117800000Y-52750000D01*
X117800000Y-53350000D01*
G37*
X117800000Y-53350000D02*
X117200000Y-53350000D01*
X117800000Y-52750000D01*
X117800000Y-53350000D01*
%TO.C,D113*%
X117200000Y-104350000D02*
X117800000Y-104350000D01*
X117800000Y-104350000D02*
X117800000Y-103750000D01*
X117800000Y-103750000D02*
X117200000Y-104350000D01*
G36*
X117800000Y-104350000D02*
G01*
X117200000Y-104350000D01*
X117800000Y-103750000D01*
X117800000Y-104350000D01*
G37*
X117800000Y-104350000D02*
X117200000Y-104350000D01*
X117800000Y-103750000D01*
X117800000Y-104350000D01*
D12*
%TO.C,D19*%
X164960000Y-67860000D02*
X163040000Y-67860000D01*
X164960000Y-65000000D02*
X164960000Y-67860000D01*
X163040000Y-67860000D02*
X163040000Y-65000000D01*
%TO.C,D59*%
X232940000Y-117360000D02*
X232940000Y-114500000D01*
X234860000Y-114500000D02*
X234860000Y-117360000D01*
X234860000Y-117360000D02*
X232940000Y-117360000D01*
%TO.C,D18*%
X145040000Y-67835000D02*
X145040000Y-64975000D01*
X146960000Y-64975000D02*
X146960000Y-67835000D01*
X146960000Y-67835000D02*
X145040000Y-67835000D01*
D11*
%TO.C,D80*%
X171200000Y-53350000D02*
X171800000Y-53350000D01*
X171800000Y-53350000D02*
X171800000Y-52750000D01*
X171800000Y-52750000D02*
X171200000Y-53350000D01*
G36*
X171800000Y-53350000D02*
G01*
X171200000Y-53350000D01*
X171800000Y-52750000D01*
X171800000Y-53350000D01*
G37*
X171800000Y-53350000D02*
X171200000Y-53350000D01*
X171800000Y-52750000D01*
X171800000Y-53350000D01*
%TO.C,D95*%
X225200000Y-70350000D02*
X225800000Y-70350000D01*
X225800000Y-70350000D02*
X225800000Y-69750000D01*
X225800000Y-69750000D02*
X225200000Y-70350000D01*
G36*
X225800000Y-70350000D02*
G01*
X225200000Y-70350000D01*
X225800000Y-69750000D01*
X225800000Y-70350000D01*
G37*
X225800000Y-70350000D02*
X225200000Y-70350000D01*
X225800000Y-69750000D01*
X225800000Y-70350000D01*
D12*
%TO.C,D35*%
X236960000Y-84860000D02*
X235040000Y-84860000D01*
X236960000Y-82000000D02*
X236960000Y-84860000D01*
X235040000Y-84860000D02*
X235040000Y-82000000D01*
D11*
%TO.C,D79*%
X153200000Y-53350000D02*
X153800000Y-53350000D01*
X153800000Y-53350000D02*
X153800000Y-52750000D01*
X153800000Y-52750000D02*
X153200000Y-53350000D01*
G36*
X153800000Y-53350000D02*
G01*
X153200000Y-53350000D01*
X153800000Y-52750000D01*
X153800000Y-53350000D01*
G37*
X153800000Y-53350000D02*
X153200000Y-53350000D01*
X153800000Y-52750000D01*
X153800000Y-53350000D01*
D12*
%TO.C,D39*%
X91040000Y-101860000D02*
X91040000Y-99000000D01*
X92960000Y-101860000D02*
X91040000Y-101860000D01*
X92960000Y-99000000D02*
X92960000Y-101860000D01*
%TO.C,D36*%
X250440000Y-84860000D02*
X250440000Y-82000000D01*
X252360000Y-82000000D02*
X252360000Y-84860000D01*
X252360000Y-84860000D02*
X250440000Y-84860000D01*
%TO.C,D10*%
X216140000Y-49120000D02*
X216140000Y-46260000D01*
X218060000Y-46260000D02*
X218060000Y-49120000D01*
X218060000Y-49120000D02*
X216140000Y-49120000D01*
D11*
%TO.C,D104*%
X171200000Y-87350000D02*
X171800000Y-87350000D01*
X171800000Y-87350000D02*
X171800000Y-86750000D01*
X171800000Y-86750000D02*
X171200000Y-87350000D01*
G36*
X171800000Y-87350000D02*
G01*
X171200000Y-87350000D01*
X171800000Y-86750000D01*
X171800000Y-87350000D01*
G37*
X171800000Y-87350000D02*
X171200000Y-87350000D01*
X171800000Y-86750000D01*
X171800000Y-87350000D01*
D12*
%TO.C,D26*%
X74960000Y-84835000D02*
X73040000Y-84835000D01*
X74960000Y-81975000D02*
X74960000Y-84835000D01*
X73040000Y-84835000D02*
X73040000Y-81975000D01*
D11*
%TO.C,D98*%
X63450000Y-87350000D02*
X64050000Y-87350000D01*
X64050000Y-87350000D02*
X64050000Y-86750000D01*
X64050000Y-86750000D02*
X63450000Y-87350000D01*
G36*
X64050000Y-87350000D02*
G01*
X63450000Y-87350000D01*
X64050000Y-86750000D01*
X64050000Y-87350000D01*
G37*
X64050000Y-87350000D02*
X63450000Y-87350000D01*
X64050000Y-86750000D01*
X64050000Y-87350000D01*
%TO.C,D91*%
X153200000Y-70350000D02*
X153800000Y-70350000D01*
X153800000Y-70350000D02*
X153800000Y-69750000D01*
X153800000Y-69750000D02*
X153200000Y-70350000D01*
G36*
X153800000Y-70350000D02*
G01*
X153200000Y-70350000D01*
X153800000Y-69750000D01*
X153800000Y-70350000D01*
G37*
X153800000Y-70350000D02*
X153200000Y-70350000D01*
X153800000Y-69750000D01*
X153800000Y-70350000D01*
%TD*%
M02*
