M48
; DRILL file {KiCad (6.0.1)} date Sat 22 Jan 2022 06:42:16 PM EST
; FORMAT={-:-/ absolute / metric / decimal}
; #@! TF.CreationDate,2022-01-22T18:42:16-05:00
; #@! TF.GenerationSoftware,Kicad,Pcbnew,(6.0.1)
; #@! TF.FileFunction,Plated,1,2,PTH
FMAT,2
METRIC
; #@! TA.AperFunction,Plated,PTH,ViaDrill
T1C0.400
; #@! TA.AperFunction,Plated,PTH,ComponentDrill
T2C0.990
; #@! TA.AperFunction,Plated,PTH,ComponentDrill
T3C1.000
; #@! TA.AperFunction,Plated,PTH,ComponentDrill
T4C1.100
; #@! TA.AperFunction,Plated,PTH,ComponentDrill
T5C1.270
; #@! TA.AperFunction,Plated,PTH,ComponentDrill
T6C1.300
%
G90
G05
T1
X38.2Y-111.0
X40.0Y-50.5
X40.7Y-116.2
X42.8Y-55.5
X43.116Y-67.0
X43.116Y-84.0
X43.116Y-101.0
X51.3Y-57.6
X51.3Y-68.2
X51.6Y-92.0
X51.6Y-102.6
X58.0Y-54.7
X58.0Y-69.2
X58.0Y-89.3
X58.0Y-103.4
X61.7Y-54.7
X79.8Y-54.7
X97.8Y-55.1
X115.2Y-54.5
X133.8Y-54.338
X151.4Y-54.1
X169.7Y-54.2
X187.8Y-54.4
X205.7Y-54.55
X224.0Y-55.0
X225.5Y-90.2
X241.4Y-53.9
X242.4Y-73.8
X242.8Y-39.6
X242.9Y-107.9
X243.5Y-90.501
T2
X19.3Y-96.4
X19.3Y-101.4
T3
X19.68Y-58.56
X19.68Y-63.64
X19.68Y-66.18
X19.68Y-68.72
X19.68Y-71.26
X19.68Y-73.8
X19.68Y-76.34
X19.68Y-78.88
X19.68Y-81.42
X19.68Y-83.96
X19.68Y-86.5
X19.68Y-89.04
X34.92Y-58.56
X34.92Y-61.1
X34.92Y-63.64
X34.92Y-66.18
X34.92Y-68.72
X34.92Y-71.26
X34.92Y-73.8
X34.92Y-76.34
X34.92Y-78.88
X34.92Y-81.42
X34.92Y-83.96
X34.92Y-86.5
X34.92Y-89.04
T4
X19.68Y-61.1
T5
X43.0Y-46.3
X43.0Y-63.3
X43.0Y-80.3
X43.0Y-97.3
X43.0Y-114.3
X48.0Y-48.4
X48.0Y-65.4
X48.0Y-82.4
X48.0Y-99.4
X48.0Y-116.4
X61.0Y-46.3
X61.0Y-63.3
X61.0Y-80.3
X61.0Y-97.3
X61.0Y-114.3
X66.0Y-48.4
X66.0Y-65.4
X66.0Y-82.4
X66.0Y-99.4
X66.0Y-116.4
X79.0Y-46.3
X79.0Y-63.3
X79.0Y-80.3
X79.0Y-97.3
X79.0Y-114.3
X84.0Y-48.4
X84.0Y-65.4
X84.0Y-82.4
X84.0Y-99.4
X84.0Y-116.4
X97.0Y-46.3
X97.0Y-63.3
X97.0Y-80.3
X97.0Y-97.3
X97.0Y-114.3
X102.0Y-48.4
X102.0Y-65.4
X102.0Y-82.4
X102.0Y-99.4
X102.0Y-116.4
X115.0Y-46.3
X115.0Y-63.3
X115.0Y-80.3
X115.0Y-97.3
X115.0Y-114.3
X120.0Y-48.4
X120.0Y-65.4
X120.0Y-82.4
X120.0Y-99.4
X120.0Y-116.4
X133.0Y-46.3
X133.0Y-63.3
X133.0Y-80.3
X133.0Y-97.3
X133.0Y-114.3
X138.0Y-48.4
X138.0Y-65.4
X138.0Y-82.4
X138.0Y-99.4
X138.0Y-116.4
X151.0Y-46.3
X151.0Y-63.3
X151.0Y-80.3
X151.0Y-97.3
X151.0Y-114.3
X156.0Y-48.4
X156.0Y-65.4
X156.0Y-82.4
X156.0Y-99.4
X156.0Y-116.4
X169.0Y-46.3
X169.0Y-63.3
X169.0Y-80.3
X169.0Y-97.3
X169.0Y-114.3
X174.0Y-48.4
X174.0Y-65.4
X174.0Y-82.4
X174.0Y-99.4
X174.0Y-116.4
X187.0Y-46.3
X187.0Y-63.3
X187.0Y-80.3
X187.0Y-97.3
X187.0Y-114.3
X192.0Y-48.4
X192.0Y-65.4
X192.0Y-82.4
X192.0Y-99.4
X192.0Y-116.4
X205.0Y-46.3
X205.0Y-63.3
X205.0Y-80.3
X205.0Y-97.3
X205.0Y-114.3
X210.0Y-48.4
X210.0Y-65.4
X210.0Y-82.4
X210.0Y-99.4
X210.0Y-116.4
X223.0Y-46.3
X223.0Y-63.3
X223.0Y-80.3
X223.0Y-97.3
X223.0Y-114.3
X228.0Y-48.4
X228.0Y-65.4
X228.0Y-82.4
X228.0Y-99.4
X228.0Y-116.4
X241.0Y-46.3
X241.0Y-63.3
X241.0Y-80.3
X241.0Y-97.3
X241.0Y-114.3
X246.0Y-48.4
X246.0Y-65.4
X246.0Y-82.4
X246.0Y-99.4
X246.0Y-116.4
T6
X21.79Y-95.39
X21.79Y-102.4
T0
M30
