%FSLAX45Y45*%
G04 Gerber Fmt 4.5, Leading zero omitted, Abs format (unit mm)*
G04 Created by KiCad (PCBNEW (6.0.1)) date 2022-01-22 18:42:36*
%MOMM*%
%LPD*%
G01*
G04 APERTURE LIST*
%TA.AperFunction,Profile*%
%ADD10C,0.100000*%
%TD*%
%ADD11C,0.200000*%
%ADD12C,0.040000*%
%ADD13C,0.099000*%
%ADD14C,0.100000*%
%ADD15C,0.110000*%
%ADD16C,0.127000*%
%ADD17C,0.130000*%
G04 APERTURE END LIST*
D10*
X9075000Y-5185000D02*
G75*
G03*
X9075000Y-5065000I0J60000D01*
G01*
X3765000Y-5190000D02*
G75*
G03*
X3765000Y-5070000I0J60000D01*
G01*
X17677000Y-5185000D02*
G75*
G03*
X17677000Y-5065000I0J60000D01*
G01*
X18645000Y-5060515D02*
G75*
G03*
X18645000Y-5180515I0J-60000D01*
G01*
X11845000Y-5065000D02*
X12680000Y-5065000D01*
X23975000Y-5074885D02*
X25185000Y-5074885D01*
X4600000Y-5065000D02*
X5435000Y-5065000D01*
X10050000Y-5065000D02*
G75*
G03*
X10050000Y-5185000I0J-60000D01*
G01*
X12680000Y-5185000D02*
G75*
G03*
X12680000Y-5065000I0J60000D01*
G01*
X16842000Y-5185000D02*
X17677000Y-5185000D01*
X8240000Y-5065000D02*
G75*
G03*
X8240000Y-5185000I0J-60000D01*
G01*
X15032000Y-5185000D02*
X15867000Y-5185000D01*
X10050000Y-5065000D02*
X10885000Y-5065000D01*
X22270000Y-5190000D02*
X23030000Y-5190000D01*
X23030000Y-5190000D02*
G75*
G03*
X23030000Y-5070000I0J60000D01*
G01*
X2445000Y-5190000D02*
X3765000Y-5190000D01*
X23975000Y-5194885D02*
X25185000Y-5194885D01*
X4600000Y-5185000D02*
X5435000Y-5185000D01*
X20445000Y-5185000D02*
X21280000Y-5185000D01*
X25185000Y-5194885D02*
G75*
G03*
X25185000Y-5074885I0J60000D01*
G01*
X20445000Y-5065000D02*
G75*
G03*
X20445000Y-5185000I0J-60000D01*
G01*
X8240000Y-5065000D02*
X9075000Y-5065000D01*
X15032000Y-5065000D02*
G75*
G03*
X15032000Y-5185000I0J-60000D01*
G01*
X11845000Y-5065000D02*
G75*
G03*
X11845000Y-5185000I0J-60000D01*
G01*
X7245000Y-5185000D02*
G75*
G03*
X7245000Y-5065000I0J60000D01*
G01*
X1660000Y-3400000D02*
X25600000Y-3400000D01*
X25600000Y-3400000D02*
X25600000Y-12320000D01*
X25600000Y-12320000D02*
X1660000Y-12320000D01*
X1660000Y-12320000D02*
X1660000Y-3400000D01*
X15867000Y-5185000D02*
G75*
G03*
X15867000Y-5065000I0J60000D01*
G01*
X22270000Y-5070000D02*
X23030000Y-5070000D01*
X19480000Y-5180515D02*
G75*
G03*
X19480000Y-5060515I0J60000D01*
G01*
X8240000Y-5185000D02*
X9075000Y-5185000D01*
X4600000Y-5065000D02*
G75*
G03*
X4600000Y-5185000I0J-60000D01*
G01*
X16842000Y-5065000D02*
X17677000Y-5065000D01*
X13655000Y-5065000D02*
X14490000Y-5065000D01*
X20445000Y-5065000D02*
X21280000Y-5065000D01*
X21280000Y-5185000D02*
G75*
G03*
X21280000Y-5065000I0J60000D01*
G01*
X15032000Y-5065000D02*
X15867000Y-5065000D01*
X5435000Y-5185000D02*
G75*
G03*
X5435000Y-5065000I0J60000D01*
G01*
X10050000Y-5185000D02*
X10885000Y-5185000D01*
X11845000Y-5185000D02*
X12680000Y-5185000D01*
X6410000Y-5185000D02*
X7245000Y-5185000D01*
X6410000Y-5065000D02*
X7245000Y-5065000D01*
X22270000Y-5070000D02*
G75*
G03*
X22270000Y-5190000I0J-60000D01*
G01*
X13655000Y-5185000D02*
X14490000Y-5185000D01*
X23975000Y-5074885D02*
G75*
G03*
X23975000Y-5194885I0J-60000D01*
G01*
X10885000Y-5185000D02*
G75*
G03*
X10885000Y-5065000I0J60000D01*
G01*
X14490000Y-5185000D02*
G75*
G03*
X14490000Y-5065000I0J60000D01*
G01*
X6410000Y-5065000D02*
G75*
G03*
X6410000Y-5185000I0J-60000D01*
G01*
X18645000Y-5060515D02*
X19480000Y-5060515D01*
X2445000Y-5070000D02*
G75*
G03*
X2445000Y-5190000I0J-60000D01*
G01*
X13655000Y-5065000D02*
G75*
G03*
X13655000Y-5185000I0J-60000D01*
G01*
X18645000Y-5180515D02*
X19480000Y-5180515D01*
X16842000Y-5065000D02*
G75*
G03*
X16842000Y-5185000I0J-60000D01*
G01*
X2445000Y-5070000D02*
X3765000Y-5070000D01*
D11*
D12*
X3800050Y-11080000D02*
X3840050Y-11120000D01*
X3840050Y-11080000D02*
X3800050Y-11120000D01*
X3980000Y-5030000D02*
X4020000Y-5070000D01*
X4020000Y-5030000D02*
X3980000Y-5070000D01*
X4050000Y-11600000D02*
X4090000Y-11640000D01*
X4090000Y-11600000D02*
X4050000Y-11640000D01*
X4260000Y-5530000D02*
X4300000Y-5570000D01*
X4300000Y-5530000D02*
X4260000Y-5570000D01*
X4291650Y-6680000D02*
X4331650Y-6720000D01*
X4331650Y-6680000D02*
X4291650Y-6720000D01*
X4291650Y-8380000D02*
X4331650Y-8420000D01*
X4331650Y-8380000D02*
X4291650Y-8420000D01*
X4291650Y-10080000D02*
X4331650Y-10120000D01*
X4331650Y-10080000D02*
X4291650Y-10120000D01*
X5110000Y-5740000D02*
X5150000Y-5780000D01*
X5150000Y-5740000D02*
X5110000Y-5780000D01*
X5110000Y-6800000D02*
X5150000Y-6840000D01*
X5150000Y-6800000D02*
X5110000Y-6840000D01*
X5140000Y-9180000D02*
X5180000Y-9220000D01*
X5180000Y-9180000D02*
X5140000Y-9220000D01*
X5140000Y-10240000D02*
X5180000Y-10280000D01*
X5180000Y-10240000D02*
X5140000Y-10280000D01*
X5780000Y-5450000D02*
X5820000Y-5490000D01*
X5820000Y-5450000D02*
X5780000Y-5490000D01*
X5780000Y-6900000D02*
X5820000Y-6940000D01*
X5820000Y-6900000D02*
X5780000Y-6940000D01*
X5780000Y-8910000D02*
X5820000Y-8950000D01*
X5820000Y-8910000D02*
X5780000Y-8950000D01*
X5780000Y-10320000D02*
X5820000Y-10360000D01*
X5820000Y-10320000D02*
X5780000Y-10360000D01*
X6150000Y-5450000D02*
X6190000Y-5490000D01*
X6190000Y-5450000D02*
X6150000Y-5490000D01*
X7960000Y-5450000D02*
X8000000Y-5490000D01*
X8000000Y-5450000D02*
X7960000Y-5490000D01*
X9760000Y-5490000D02*
X9800000Y-5530000D01*
X9800000Y-5490000D02*
X9760000Y-5530000D01*
X11500000Y-5430000D02*
X11540000Y-5470000D01*
X11540000Y-5430000D02*
X11500000Y-5470000D01*
X13360000Y-5413776D02*
X13400000Y-5453776D01*
X13400000Y-5413776D02*
X13360000Y-5453776D01*
X15120000Y-5390000D02*
X15160000Y-5430000D01*
X15160000Y-5390000D02*
X15120000Y-5430000D01*
X16950000Y-5400000D02*
X16990000Y-5440000D01*
X16990000Y-5400000D02*
X16950000Y-5440000D01*
X18760000Y-5420000D02*
X18800000Y-5460000D01*
X18800000Y-5420000D02*
X18760000Y-5460000D01*
X20550000Y-5435000D02*
X20590000Y-5475000D01*
X20590000Y-5435000D02*
X20550000Y-5475000D01*
X22380000Y-5480000D02*
X22420000Y-5520000D01*
X22420000Y-5480000D02*
X22380000Y-5520000D01*
X22530000Y-9000000D02*
X22570000Y-9040000D01*
X22570000Y-9000000D02*
X22530000Y-9040000D01*
X24120000Y-5370000D02*
X24160000Y-5410000D01*
X24160000Y-5370000D02*
X24120000Y-5410000D01*
X24220000Y-7360000D02*
X24260000Y-7400000D01*
X24260000Y-7360000D02*
X24220000Y-7400000D01*
X24260000Y-3940000D02*
X24300000Y-3980000D01*
X24300000Y-3940000D02*
X24260000Y-3980000D01*
X24270000Y-10770000D02*
X24310000Y-10810000D01*
X24310000Y-10770000D02*
X24270000Y-10810000D01*
X24330000Y-9030050D02*
X24370000Y-9070050D01*
X24370000Y-9030050D02*
X24330000Y-9070050D01*
D13*
X1979500Y-9640000D02*
G75*
G03*
X1979500Y-9640000I-49500J0D01*
G01*
X1979500Y-10140000D02*
G75*
G03*
X1979500Y-10140000I-49500J0D01*
G01*
D14*
X1968000Y-5806000D02*
X1968000Y-5906000D01*
X1918000Y-5856000D02*
X2018000Y-5856000D01*
X1968000Y-6314000D02*
X1968000Y-6414000D01*
X1918000Y-6364000D02*
X2018000Y-6364000D01*
X1968000Y-6568000D02*
X1968000Y-6668000D01*
X1918000Y-6618000D02*
X2018000Y-6618000D01*
X1968000Y-6822000D02*
X1968000Y-6922000D01*
X1918000Y-6872000D02*
X2018000Y-6872000D01*
X1968000Y-7076000D02*
X1968000Y-7176000D01*
X1918000Y-7126000D02*
X2018000Y-7126000D01*
X1968000Y-7330000D02*
X1968000Y-7430000D01*
X1918000Y-7380000D02*
X2018000Y-7380000D01*
X1968000Y-7584000D02*
X1968000Y-7684000D01*
X1918000Y-7634000D02*
X2018000Y-7634000D01*
X1968000Y-7838000D02*
X1968000Y-7938000D01*
X1918000Y-7888000D02*
X2018000Y-7888000D01*
X1968000Y-8092000D02*
X1968000Y-8192000D01*
X1918000Y-8142000D02*
X2018000Y-8142000D01*
X1968000Y-8346000D02*
X1968000Y-8446000D01*
X1918000Y-8396000D02*
X2018000Y-8396000D01*
X1968000Y-8600000D02*
X1968000Y-8700000D01*
X1918000Y-8650000D02*
X2018000Y-8650000D01*
X1968000Y-8854000D02*
X1968000Y-8954000D01*
X1918000Y-8904000D02*
X2018000Y-8904000D01*
X3492000Y-5806000D02*
X3492000Y-5906000D01*
X3442000Y-5856000D02*
X3542000Y-5856000D01*
X3492000Y-6060000D02*
X3492000Y-6160000D01*
X3442000Y-6110000D02*
X3542000Y-6110000D01*
X3492000Y-6314000D02*
X3492000Y-6414000D01*
X3442000Y-6364000D02*
X3542000Y-6364000D01*
X3492000Y-6568000D02*
X3492000Y-6668000D01*
X3442000Y-6618000D02*
X3542000Y-6618000D01*
X3492000Y-6822000D02*
X3492000Y-6922000D01*
X3442000Y-6872000D02*
X3542000Y-6872000D01*
X3492000Y-7076000D02*
X3492000Y-7176000D01*
X3442000Y-7126000D02*
X3542000Y-7126000D01*
X3492000Y-7330000D02*
X3492000Y-7430000D01*
X3442000Y-7380000D02*
X3542000Y-7380000D01*
X3492000Y-7584000D02*
X3492000Y-7684000D01*
X3442000Y-7634000D02*
X3542000Y-7634000D01*
X3492000Y-7838000D02*
X3492000Y-7938000D01*
X3442000Y-7888000D02*
X3542000Y-7888000D01*
X3492000Y-8092000D02*
X3492000Y-8192000D01*
X3442000Y-8142000D02*
X3542000Y-8142000D01*
X3492000Y-8346000D02*
X3492000Y-8446000D01*
X3442000Y-8396000D02*
X3542000Y-8396000D01*
X3492000Y-8600000D02*
X3492000Y-8700000D01*
X3442000Y-8650000D02*
X3542000Y-8650000D01*
X3492000Y-8854000D02*
X3492000Y-8954000D01*
X3442000Y-8904000D02*
X3542000Y-8904000D01*
D15*
X2006891Y-6148891D02*
X2006891Y-6071109D01*
X1929109Y-6071109D01*
X1929109Y-6148891D01*
X2006891Y-6148891D01*
D16*
X4300000Y-4693500D02*
X4363500Y-4630000D01*
X4300000Y-4566500D01*
X4236500Y-4630000D01*
X4300000Y-4693500D01*
X4300000Y-6393500D02*
X4363500Y-6330000D01*
X4300000Y-6266500D01*
X4236500Y-6330000D01*
X4300000Y-6393500D01*
X4300000Y-8093500D02*
X4363500Y-8030000D01*
X4300000Y-7966500D01*
X4236500Y-8030000D01*
X4300000Y-8093500D01*
X4300000Y-9793500D02*
X4363500Y-9730000D01*
X4300000Y-9666500D01*
X4236500Y-9730000D01*
X4300000Y-9793500D01*
X4300000Y-11493500D02*
X4363500Y-11430000D01*
X4300000Y-11366500D01*
X4236500Y-11430000D01*
X4300000Y-11493500D01*
X4800000Y-4903500D02*
X4863500Y-4840000D01*
X4800000Y-4776500D01*
X4736500Y-4840000D01*
X4800000Y-4903500D01*
X4800000Y-6603500D02*
X4863500Y-6540000D01*
X4800000Y-6476500D01*
X4736500Y-6540000D01*
X4800000Y-6603500D01*
X4800000Y-8303500D02*
X4863500Y-8240000D01*
X4800000Y-8176500D01*
X4736500Y-8240000D01*
X4800000Y-8303500D01*
X4800000Y-10003500D02*
X4863500Y-9940000D01*
X4800000Y-9876500D01*
X4736500Y-9940000D01*
X4800000Y-10003500D01*
X4800000Y-11703500D02*
X4863500Y-11640000D01*
X4800000Y-11576500D01*
X4736500Y-11640000D01*
X4800000Y-11703500D01*
X6100000Y-4693500D02*
X6163500Y-4630000D01*
X6100000Y-4566500D01*
X6036500Y-4630000D01*
X6100000Y-4693500D01*
X6100000Y-6393500D02*
X6163500Y-6330000D01*
X6100000Y-6266500D01*
X6036500Y-6330000D01*
X6100000Y-6393500D01*
X6100000Y-8093500D02*
X6163500Y-8030000D01*
X6100000Y-7966500D01*
X6036500Y-8030000D01*
X6100000Y-8093500D01*
X6100000Y-9793500D02*
X6163500Y-9730000D01*
X6100000Y-9666500D01*
X6036500Y-9730000D01*
X6100000Y-9793500D01*
X6100000Y-11493500D02*
X6163500Y-11430000D01*
X6100000Y-11366500D01*
X6036500Y-11430000D01*
X6100000Y-11493500D01*
X6600000Y-4903500D02*
X6663500Y-4840000D01*
X6600000Y-4776500D01*
X6536500Y-4840000D01*
X6600000Y-4903500D01*
X6600000Y-6603500D02*
X6663500Y-6540000D01*
X6600000Y-6476500D01*
X6536500Y-6540000D01*
X6600000Y-6603500D01*
X6600000Y-8303500D02*
X6663500Y-8240000D01*
X6600000Y-8176500D01*
X6536500Y-8240000D01*
X6600000Y-8303500D01*
X6600000Y-10003500D02*
X6663500Y-9940000D01*
X6600000Y-9876500D01*
X6536500Y-9940000D01*
X6600000Y-10003500D01*
X6600000Y-11703500D02*
X6663500Y-11640000D01*
X6600000Y-11576500D01*
X6536500Y-11640000D01*
X6600000Y-11703500D01*
X7900000Y-4693500D02*
X7963500Y-4630000D01*
X7900000Y-4566500D01*
X7836500Y-4630000D01*
X7900000Y-4693500D01*
X7900000Y-6393500D02*
X7963500Y-6330000D01*
X7900000Y-6266500D01*
X7836500Y-6330000D01*
X7900000Y-6393500D01*
X7900000Y-8093500D02*
X7963500Y-8030000D01*
X7900000Y-7966500D01*
X7836500Y-8030000D01*
X7900000Y-8093500D01*
X7900000Y-9793500D02*
X7963500Y-9730000D01*
X7900000Y-9666500D01*
X7836500Y-9730000D01*
X7900000Y-9793500D01*
X7900000Y-11493500D02*
X7963500Y-11430000D01*
X7900000Y-11366500D01*
X7836500Y-11430000D01*
X7900000Y-11493500D01*
X8400000Y-4903500D02*
X8463500Y-4840000D01*
X8400000Y-4776500D01*
X8336500Y-4840000D01*
X8400000Y-4903500D01*
X8400000Y-6603500D02*
X8463500Y-6540000D01*
X8400000Y-6476500D01*
X8336500Y-6540000D01*
X8400000Y-6603500D01*
X8400000Y-8303500D02*
X8463500Y-8240000D01*
X8400000Y-8176500D01*
X8336500Y-8240000D01*
X8400000Y-8303500D01*
X8400000Y-10003500D02*
X8463500Y-9940000D01*
X8400000Y-9876500D01*
X8336500Y-9940000D01*
X8400000Y-10003500D01*
X8400000Y-11703500D02*
X8463500Y-11640000D01*
X8400000Y-11576500D01*
X8336500Y-11640000D01*
X8400000Y-11703500D01*
X9700000Y-4693500D02*
X9763500Y-4630000D01*
X9700000Y-4566500D01*
X9636500Y-4630000D01*
X9700000Y-4693500D01*
X9700000Y-6393500D02*
X9763500Y-6330000D01*
X9700000Y-6266500D01*
X9636500Y-6330000D01*
X9700000Y-6393500D01*
X9700000Y-8093500D02*
X9763500Y-8030000D01*
X9700000Y-7966500D01*
X9636500Y-8030000D01*
X9700000Y-8093500D01*
X9700000Y-9793500D02*
X9763500Y-9730000D01*
X9700000Y-9666500D01*
X9636500Y-9730000D01*
X9700000Y-9793500D01*
X9700000Y-11493500D02*
X9763500Y-11430000D01*
X9700000Y-11366500D01*
X9636500Y-11430000D01*
X9700000Y-11493500D01*
X10200000Y-4903500D02*
X10263500Y-4840000D01*
X10200000Y-4776500D01*
X10136500Y-4840000D01*
X10200000Y-4903500D01*
X10200000Y-6603500D02*
X10263500Y-6540000D01*
X10200000Y-6476500D01*
X10136500Y-6540000D01*
X10200000Y-6603500D01*
X10200000Y-8303500D02*
X10263500Y-8240000D01*
X10200000Y-8176500D01*
X10136500Y-8240000D01*
X10200000Y-8303500D01*
X10200000Y-10003500D02*
X10263500Y-9940000D01*
X10200000Y-9876500D01*
X10136500Y-9940000D01*
X10200000Y-10003500D01*
X10200000Y-11703500D02*
X10263500Y-11640000D01*
X10200000Y-11576500D01*
X10136500Y-11640000D01*
X10200000Y-11703500D01*
X11500000Y-4693500D02*
X11563500Y-4630000D01*
X11500000Y-4566500D01*
X11436500Y-4630000D01*
X11500000Y-4693500D01*
X11500000Y-6393500D02*
X11563500Y-6330000D01*
X11500000Y-6266500D01*
X11436500Y-6330000D01*
X11500000Y-6393500D01*
X11500000Y-8093500D02*
X11563500Y-8030000D01*
X11500000Y-7966500D01*
X11436500Y-8030000D01*
X11500000Y-8093500D01*
X11500000Y-9793500D02*
X11563500Y-9730000D01*
X11500000Y-9666500D01*
X11436500Y-9730000D01*
X11500000Y-9793500D01*
X11500000Y-11493500D02*
X11563500Y-11430000D01*
X11500000Y-11366500D01*
X11436500Y-11430000D01*
X11500000Y-11493500D01*
X12000000Y-4903500D02*
X12063500Y-4840000D01*
X12000000Y-4776500D01*
X11936500Y-4840000D01*
X12000000Y-4903500D01*
X12000000Y-6603500D02*
X12063500Y-6540000D01*
X12000000Y-6476500D01*
X11936500Y-6540000D01*
X12000000Y-6603500D01*
X12000000Y-8303500D02*
X12063500Y-8240000D01*
X12000000Y-8176500D01*
X11936500Y-8240000D01*
X12000000Y-8303500D01*
X12000000Y-10003500D02*
X12063500Y-9940000D01*
X12000000Y-9876500D01*
X11936500Y-9940000D01*
X12000000Y-10003500D01*
X12000000Y-11703500D02*
X12063500Y-11640000D01*
X12000000Y-11576500D01*
X11936500Y-11640000D01*
X12000000Y-11703500D01*
X13300000Y-4693500D02*
X13363500Y-4630000D01*
X13300000Y-4566500D01*
X13236500Y-4630000D01*
X13300000Y-4693500D01*
X13300000Y-6393500D02*
X13363500Y-6330000D01*
X13300000Y-6266500D01*
X13236500Y-6330000D01*
X13300000Y-6393500D01*
X13300000Y-8093500D02*
X13363500Y-8030000D01*
X13300000Y-7966500D01*
X13236500Y-8030000D01*
X13300000Y-8093500D01*
X13300000Y-9793500D02*
X13363500Y-9730000D01*
X13300000Y-9666500D01*
X13236500Y-9730000D01*
X13300000Y-9793500D01*
X13300000Y-11493500D02*
X13363500Y-11430000D01*
X13300000Y-11366500D01*
X13236500Y-11430000D01*
X13300000Y-11493500D01*
X13800000Y-4903500D02*
X13863500Y-4840000D01*
X13800000Y-4776500D01*
X13736500Y-4840000D01*
X13800000Y-4903500D01*
X13800000Y-6603500D02*
X13863500Y-6540000D01*
X13800000Y-6476500D01*
X13736500Y-6540000D01*
X13800000Y-6603500D01*
X13800000Y-8303500D02*
X13863500Y-8240000D01*
X13800000Y-8176500D01*
X13736500Y-8240000D01*
X13800000Y-8303500D01*
X13800000Y-10003500D02*
X13863500Y-9940000D01*
X13800000Y-9876500D01*
X13736500Y-9940000D01*
X13800000Y-10003500D01*
X13800000Y-11703500D02*
X13863500Y-11640000D01*
X13800000Y-11576500D01*
X13736500Y-11640000D01*
X13800000Y-11703500D01*
X15100000Y-4693500D02*
X15163500Y-4630000D01*
X15100000Y-4566500D01*
X15036500Y-4630000D01*
X15100000Y-4693500D01*
X15100000Y-6393500D02*
X15163500Y-6330000D01*
X15100000Y-6266500D01*
X15036500Y-6330000D01*
X15100000Y-6393500D01*
X15100000Y-8093500D02*
X15163500Y-8030000D01*
X15100000Y-7966500D01*
X15036500Y-8030000D01*
X15100000Y-8093500D01*
X15100000Y-9793500D02*
X15163500Y-9730000D01*
X15100000Y-9666500D01*
X15036500Y-9730000D01*
X15100000Y-9793500D01*
X15100000Y-11493500D02*
X15163500Y-11430000D01*
X15100000Y-11366500D01*
X15036500Y-11430000D01*
X15100000Y-11493500D01*
X15600000Y-4903500D02*
X15663500Y-4840000D01*
X15600000Y-4776500D01*
X15536500Y-4840000D01*
X15600000Y-4903500D01*
X15600000Y-6603500D02*
X15663500Y-6540000D01*
X15600000Y-6476500D01*
X15536500Y-6540000D01*
X15600000Y-6603500D01*
X15600000Y-8303500D02*
X15663500Y-8240000D01*
X15600000Y-8176500D01*
X15536500Y-8240000D01*
X15600000Y-8303500D01*
X15600000Y-10003500D02*
X15663500Y-9940000D01*
X15600000Y-9876500D01*
X15536500Y-9940000D01*
X15600000Y-10003500D01*
X15600000Y-11703500D02*
X15663500Y-11640000D01*
X15600000Y-11576500D01*
X15536500Y-11640000D01*
X15600000Y-11703500D01*
X16900000Y-4693500D02*
X16963500Y-4630000D01*
X16900000Y-4566500D01*
X16836500Y-4630000D01*
X16900000Y-4693500D01*
X16900000Y-6393500D02*
X16963500Y-6330000D01*
X16900000Y-6266500D01*
X16836500Y-6330000D01*
X16900000Y-6393500D01*
X16900000Y-8093500D02*
X16963500Y-8030000D01*
X16900000Y-7966500D01*
X16836500Y-8030000D01*
X16900000Y-8093500D01*
X16900000Y-9793500D02*
X16963500Y-9730000D01*
X16900000Y-9666500D01*
X16836500Y-9730000D01*
X16900000Y-9793500D01*
X16900000Y-11493500D02*
X16963500Y-11430000D01*
X16900000Y-11366500D01*
X16836500Y-11430000D01*
X16900000Y-11493500D01*
X17400000Y-4903500D02*
X17463500Y-4840000D01*
X17400000Y-4776500D01*
X17336500Y-4840000D01*
X17400000Y-4903500D01*
X17400000Y-6603500D02*
X17463500Y-6540000D01*
X17400000Y-6476500D01*
X17336500Y-6540000D01*
X17400000Y-6603500D01*
X17400000Y-8303500D02*
X17463500Y-8240000D01*
X17400000Y-8176500D01*
X17336500Y-8240000D01*
X17400000Y-8303500D01*
X17400000Y-10003500D02*
X17463500Y-9940000D01*
X17400000Y-9876500D01*
X17336500Y-9940000D01*
X17400000Y-10003500D01*
X17400000Y-11703500D02*
X17463500Y-11640000D01*
X17400000Y-11576500D01*
X17336500Y-11640000D01*
X17400000Y-11703500D01*
X18700000Y-4693500D02*
X18763500Y-4630000D01*
X18700000Y-4566500D01*
X18636500Y-4630000D01*
X18700000Y-4693500D01*
X18700000Y-6393500D02*
X18763500Y-6330000D01*
X18700000Y-6266500D01*
X18636500Y-6330000D01*
X18700000Y-6393500D01*
X18700000Y-8093500D02*
X18763500Y-8030000D01*
X18700000Y-7966500D01*
X18636500Y-8030000D01*
X18700000Y-8093500D01*
X18700000Y-9793500D02*
X18763500Y-9730000D01*
X18700000Y-9666500D01*
X18636500Y-9730000D01*
X18700000Y-9793500D01*
X18700000Y-11493500D02*
X18763500Y-11430000D01*
X18700000Y-11366500D01*
X18636500Y-11430000D01*
X18700000Y-11493500D01*
X19200000Y-4903500D02*
X19263500Y-4840000D01*
X19200000Y-4776500D01*
X19136500Y-4840000D01*
X19200000Y-4903500D01*
X19200000Y-6603500D02*
X19263500Y-6540000D01*
X19200000Y-6476500D01*
X19136500Y-6540000D01*
X19200000Y-6603500D01*
X19200000Y-8303500D02*
X19263500Y-8240000D01*
X19200000Y-8176500D01*
X19136500Y-8240000D01*
X19200000Y-8303500D01*
X19200000Y-10003500D02*
X19263500Y-9940000D01*
X19200000Y-9876500D01*
X19136500Y-9940000D01*
X19200000Y-10003500D01*
X19200000Y-11703500D02*
X19263500Y-11640000D01*
X19200000Y-11576500D01*
X19136500Y-11640000D01*
X19200000Y-11703500D01*
X20500000Y-4693500D02*
X20563500Y-4630000D01*
X20500000Y-4566500D01*
X20436500Y-4630000D01*
X20500000Y-4693500D01*
X20500000Y-6393500D02*
X20563500Y-6330000D01*
X20500000Y-6266500D01*
X20436500Y-6330000D01*
X20500000Y-6393500D01*
X20500000Y-8093500D02*
X20563500Y-8030000D01*
X20500000Y-7966500D01*
X20436500Y-8030000D01*
X20500000Y-8093500D01*
X20500000Y-9793500D02*
X20563500Y-9730000D01*
X20500000Y-9666500D01*
X20436500Y-9730000D01*
X20500000Y-9793500D01*
X20500000Y-11493500D02*
X20563500Y-11430000D01*
X20500000Y-11366500D01*
X20436500Y-11430000D01*
X20500000Y-11493500D01*
X21000000Y-4903500D02*
X21063500Y-4840000D01*
X21000000Y-4776500D01*
X20936500Y-4840000D01*
X21000000Y-4903500D01*
X21000000Y-6603500D02*
X21063500Y-6540000D01*
X21000000Y-6476500D01*
X20936500Y-6540000D01*
X21000000Y-6603500D01*
X21000000Y-8303500D02*
X21063500Y-8240000D01*
X21000000Y-8176500D01*
X20936500Y-8240000D01*
X21000000Y-8303500D01*
X21000000Y-10003500D02*
X21063500Y-9940000D01*
X21000000Y-9876500D01*
X20936500Y-9940000D01*
X21000000Y-10003500D01*
X21000000Y-11703500D02*
X21063500Y-11640000D01*
X21000000Y-11576500D01*
X20936500Y-11640000D01*
X21000000Y-11703500D01*
X22300000Y-4693500D02*
X22363500Y-4630000D01*
X22300000Y-4566500D01*
X22236500Y-4630000D01*
X22300000Y-4693500D01*
X22300000Y-6393500D02*
X22363500Y-6330000D01*
X22300000Y-6266500D01*
X22236500Y-6330000D01*
X22300000Y-6393500D01*
X22300000Y-8093500D02*
X22363500Y-8030000D01*
X22300000Y-7966500D01*
X22236500Y-8030000D01*
X22300000Y-8093500D01*
X22300000Y-9793500D02*
X22363500Y-9730000D01*
X22300000Y-9666500D01*
X22236500Y-9730000D01*
X22300000Y-9793500D01*
X22300000Y-11493500D02*
X22363500Y-11430000D01*
X22300000Y-11366500D01*
X22236500Y-11430000D01*
X22300000Y-11493500D01*
X22800000Y-4903500D02*
X22863500Y-4840000D01*
X22800000Y-4776500D01*
X22736500Y-4840000D01*
X22800000Y-4903500D01*
X22800000Y-6603500D02*
X22863500Y-6540000D01*
X22800000Y-6476500D01*
X22736500Y-6540000D01*
X22800000Y-6603500D01*
X22800000Y-8303500D02*
X22863500Y-8240000D01*
X22800000Y-8176500D01*
X22736500Y-8240000D01*
X22800000Y-8303500D01*
X22800000Y-10003500D02*
X22863500Y-9940000D01*
X22800000Y-9876500D01*
X22736500Y-9940000D01*
X22800000Y-10003500D01*
X22800000Y-11703500D02*
X22863500Y-11640000D01*
X22800000Y-11576500D01*
X22736500Y-11640000D01*
X22800000Y-11703500D01*
X24100000Y-4693500D02*
X24163500Y-4630000D01*
X24100000Y-4566500D01*
X24036500Y-4630000D01*
X24100000Y-4693500D01*
X24100000Y-6393500D02*
X24163500Y-6330000D01*
X24100000Y-6266500D01*
X24036500Y-6330000D01*
X24100000Y-6393500D01*
X24100000Y-8093500D02*
X24163500Y-8030000D01*
X24100000Y-7966500D01*
X24036500Y-8030000D01*
X24100000Y-8093500D01*
X24100000Y-9793500D02*
X24163500Y-9730000D01*
X24100000Y-9666500D01*
X24036500Y-9730000D01*
X24100000Y-9793500D01*
X24100000Y-11493500D02*
X24163500Y-11430000D01*
X24100000Y-11366500D01*
X24036500Y-11430000D01*
X24100000Y-11493500D01*
X24600000Y-4903500D02*
X24663500Y-4840000D01*
X24600000Y-4776500D01*
X24536500Y-4840000D01*
X24600000Y-4903500D01*
X24600000Y-6603500D02*
X24663500Y-6540000D01*
X24600000Y-6476500D01*
X24536500Y-6540000D01*
X24600000Y-6603500D01*
X24600000Y-8303500D02*
X24663500Y-8240000D01*
X24600000Y-8176500D01*
X24536500Y-8240000D01*
X24600000Y-8303500D01*
X24600000Y-10003500D02*
X24663500Y-9940000D01*
X24600000Y-9876500D01*
X24536500Y-9940000D01*
X24600000Y-10003500D01*
X24600000Y-11703500D02*
X24663500Y-11640000D01*
X24600000Y-11576500D01*
X24536500Y-11640000D01*
X24600000Y-11703500D01*
D17*
X2114000Y-9474000D02*
X2244000Y-9604000D01*
X2244000Y-9474000D02*
X2114000Y-9604000D01*
X2244000Y-9539000D02*
G75*
G03*
X2244000Y-9539000I-65000J0D01*
G01*
X2114000Y-10175000D02*
X2244000Y-10305000D01*
X2244000Y-10175000D02*
X2114000Y-10305000D01*
X2244000Y-10240000D02*
G75*
G03*
X2244000Y-10240000I-65000J0D01*
G01*
D11*
X1912619Y-12635476D02*
X1912619Y-12435476D01*
X1960238Y-12435476D01*
X1988809Y-12445000D01*
X2007857Y-12464048D01*
X2017381Y-12483095D01*
X2026905Y-12521190D01*
X2026905Y-12549762D01*
X2017381Y-12587857D01*
X2007857Y-12606905D01*
X1988809Y-12625952D01*
X1960238Y-12635476D01*
X1912619Y-12635476D01*
X2112619Y-12635476D02*
X2112619Y-12502143D01*
X2112619Y-12540238D02*
X2122143Y-12521190D01*
X2131667Y-12511667D01*
X2150714Y-12502143D01*
X2169762Y-12502143D01*
X2236429Y-12635476D02*
X2236429Y-12502143D01*
X2236429Y-12435476D02*
X2226905Y-12445000D01*
X2236429Y-12454524D01*
X2245952Y-12445000D01*
X2236429Y-12435476D01*
X2236429Y-12454524D01*
X2360238Y-12635476D02*
X2341190Y-12625952D01*
X2331667Y-12606905D01*
X2331667Y-12435476D01*
X2465000Y-12635476D02*
X2445952Y-12625952D01*
X2436429Y-12606905D01*
X2436429Y-12435476D01*
X2693571Y-12635476D02*
X2693571Y-12435476D01*
X2760238Y-12578333D01*
X2826905Y-12435476D01*
X2826905Y-12635476D01*
X3007857Y-12635476D02*
X3007857Y-12530714D01*
X2998333Y-12511667D01*
X2979286Y-12502143D01*
X2941190Y-12502143D01*
X2922143Y-12511667D01*
X3007857Y-12625952D02*
X2988809Y-12635476D01*
X2941190Y-12635476D01*
X2922143Y-12625952D01*
X2912619Y-12606905D01*
X2912619Y-12587857D01*
X2922143Y-12568809D01*
X2941190Y-12559286D01*
X2988809Y-12559286D01*
X3007857Y-12549762D01*
X3103095Y-12502143D02*
X3103095Y-12702143D01*
X3103095Y-12511667D02*
X3122143Y-12502143D01*
X3160238Y-12502143D01*
X3179286Y-12511667D01*
X3188809Y-12521190D01*
X3198333Y-12540238D01*
X3198333Y-12597381D01*
X3188809Y-12616428D01*
X3179286Y-12625952D01*
X3160238Y-12635476D01*
X3122143Y-12635476D01*
X3103095Y-12625952D01*
X3284048Y-12616428D02*
X3293571Y-12625952D01*
X3284048Y-12635476D01*
X3274524Y-12625952D01*
X3284048Y-12616428D01*
X3284048Y-12635476D01*
X3284048Y-12511667D02*
X3293571Y-12521190D01*
X3284048Y-12530714D01*
X3274524Y-12521190D01*
X3284048Y-12511667D01*
X3284048Y-12530714D01*
D12*
X1615000Y-12945000D02*
X1655000Y-12985000D01*
X1655000Y-12945000D02*
X1615000Y-12985000D01*
D11*
X1950714Y-12855476D02*
X1969762Y-12855476D01*
X1988809Y-12865000D01*
X1998333Y-12874524D01*
X2007857Y-12893571D01*
X2017381Y-12931667D01*
X2017381Y-12979286D01*
X2007857Y-13017381D01*
X1998333Y-13036428D01*
X1988809Y-13045952D01*
X1969762Y-13055476D01*
X1950714Y-13055476D01*
X1931667Y-13045952D01*
X1922143Y-13036428D01*
X1912619Y-13017381D01*
X1903095Y-12979286D01*
X1903095Y-12931667D01*
X1912619Y-12893571D01*
X1922143Y-12874524D01*
X1931667Y-12865000D01*
X1950714Y-12855476D01*
X2103095Y-13036428D02*
X2112619Y-13045952D01*
X2103095Y-13055476D01*
X2093571Y-13045952D01*
X2103095Y-13036428D01*
X2103095Y-13055476D01*
X2284048Y-12922143D02*
X2284048Y-13055476D01*
X2236429Y-12845952D02*
X2188810Y-12988809D01*
X2312619Y-12988809D01*
X2426905Y-12855476D02*
X2445952Y-12855476D01*
X2465000Y-12865000D01*
X2474524Y-12874524D01*
X2484048Y-12893571D01*
X2493571Y-12931667D01*
X2493571Y-12979286D01*
X2484048Y-13017381D01*
X2474524Y-13036428D01*
X2465000Y-13045952D01*
X2445952Y-13055476D01*
X2426905Y-13055476D01*
X2407857Y-13045952D01*
X2398333Y-13036428D01*
X2388810Y-13017381D01*
X2379286Y-12979286D01*
X2379286Y-12931667D01*
X2388810Y-12893571D01*
X2398333Y-12874524D01*
X2407857Y-12865000D01*
X2426905Y-12855476D01*
X2617381Y-12855476D02*
X2636429Y-12855476D01*
X2655476Y-12865000D01*
X2665000Y-12874524D01*
X2674524Y-12893571D01*
X2684048Y-12931667D01*
X2684048Y-12979286D01*
X2674524Y-13017381D01*
X2665000Y-13036428D01*
X2655476Y-13045952D01*
X2636429Y-13055476D01*
X2617381Y-13055476D01*
X2598333Y-13045952D01*
X2588810Y-13036428D01*
X2579286Y-13017381D01*
X2569762Y-12979286D01*
X2569762Y-12931667D01*
X2579286Y-12893571D01*
X2588810Y-12874524D01*
X2598333Y-12865000D01*
X2617381Y-12855476D01*
X2769762Y-13055476D02*
X2769762Y-12922143D01*
X2769762Y-12941190D02*
X2779286Y-12931667D01*
X2798333Y-12922143D01*
X2826905Y-12922143D01*
X2845952Y-12931667D01*
X2855476Y-12950714D01*
X2855476Y-13055476D01*
X2855476Y-12950714D02*
X2865000Y-12931667D01*
X2884048Y-12922143D01*
X2912619Y-12922143D01*
X2931667Y-12931667D01*
X2941190Y-12950714D01*
X2941190Y-13055476D01*
X3036428Y-13055476D02*
X3036428Y-12922143D01*
X3036428Y-12941190D02*
X3045952Y-12931667D01*
X3065000Y-12922143D01*
X3093571Y-12922143D01*
X3112619Y-12931667D01*
X3122143Y-12950714D01*
X3122143Y-13055476D01*
X3122143Y-12950714D02*
X3131667Y-12931667D01*
X3150714Y-12922143D01*
X3179286Y-12922143D01*
X3198333Y-12931667D01*
X3207857Y-12950714D01*
X3207857Y-13055476D01*
X3598333Y-12845952D02*
X3426905Y-13103095D01*
X3855476Y-12855476D02*
X3874524Y-12855476D01*
X3893571Y-12865000D01*
X3903095Y-12874524D01*
X3912619Y-12893571D01*
X3922143Y-12931667D01*
X3922143Y-12979286D01*
X3912619Y-13017381D01*
X3903095Y-13036428D01*
X3893571Y-13045952D01*
X3874524Y-13055476D01*
X3855476Y-13055476D01*
X3836428Y-13045952D01*
X3826905Y-13036428D01*
X3817381Y-13017381D01*
X3807857Y-12979286D01*
X3807857Y-12931667D01*
X3817381Y-12893571D01*
X3826905Y-12874524D01*
X3836428Y-12865000D01*
X3855476Y-12855476D01*
X4007857Y-13036428D02*
X4017381Y-13045952D01*
X4007857Y-13055476D01*
X3998333Y-13045952D01*
X4007857Y-13036428D01*
X4007857Y-13055476D01*
X4141190Y-12855476D02*
X4160238Y-12855476D01*
X4179286Y-12865000D01*
X4188809Y-12874524D01*
X4198333Y-12893571D01*
X4207857Y-12931667D01*
X4207857Y-12979286D01*
X4198333Y-13017381D01*
X4188809Y-13036428D01*
X4179286Y-13045952D01*
X4160238Y-13055476D01*
X4141190Y-13055476D01*
X4122143Y-13045952D01*
X4112619Y-13036428D01*
X4103095Y-13017381D01*
X4093571Y-12979286D01*
X4093571Y-12931667D01*
X4103095Y-12893571D01*
X4112619Y-12874524D01*
X4122143Y-12865000D01*
X4141190Y-12855476D01*
X4398333Y-13055476D02*
X4284048Y-13055476D01*
X4341190Y-13055476D02*
X4341190Y-12855476D01*
X4322143Y-12884048D01*
X4303095Y-12903095D01*
X4284048Y-12912619D01*
X4579286Y-12855476D02*
X4484048Y-12855476D01*
X4474524Y-12950714D01*
X4484048Y-12941190D01*
X4503095Y-12931667D01*
X4550714Y-12931667D01*
X4569762Y-12941190D01*
X4579286Y-12950714D01*
X4588810Y-12969762D01*
X4588810Y-13017381D01*
X4579286Y-13036428D01*
X4569762Y-13045952D01*
X4550714Y-13055476D01*
X4503095Y-13055476D01*
X4484048Y-13045952D01*
X4474524Y-13036428D01*
X4655476Y-12855476D02*
X4788810Y-12855476D01*
X4703095Y-13055476D01*
X4855476Y-12855476D02*
X4855476Y-12893571D01*
X4931667Y-12855476D02*
X4931667Y-12893571D01*
X5226905Y-13131667D02*
X5217381Y-13122143D01*
X5198333Y-13093571D01*
X5188810Y-13074524D01*
X5179286Y-13045952D01*
X5169762Y-12998333D01*
X5169762Y-12960238D01*
X5179286Y-12912619D01*
X5188810Y-12884048D01*
X5198333Y-12865000D01*
X5217381Y-12836428D01*
X5226905Y-12826905D01*
X5284048Y-12855476D02*
X5407857Y-12855476D01*
X5341190Y-12931667D01*
X5369762Y-12931667D01*
X5388810Y-12941190D01*
X5398333Y-12950714D01*
X5407857Y-12969762D01*
X5407857Y-13017381D01*
X5398333Y-13036428D01*
X5388810Y-13045952D01*
X5369762Y-13055476D01*
X5312619Y-13055476D01*
X5293571Y-13045952D01*
X5284048Y-13036428D01*
X5598333Y-13055476D02*
X5484048Y-13055476D01*
X5541190Y-13055476D02*
X5541190Y-12855476D01*
X5522143Y-12884048D01*
X5503095Y-12903095D01*
X5484048Y-12912619D01*
X5836428Y-13055476D02*
X5836428Y-12855476D01*
X5922143Y-13055476D02*
X5922143Y-12950714D01*
X5912619Y-12931667D01*
X5893571Y-12922143D01*
X5865000Y-12922143D01*
X5845952Y-12931667D01*
X5836428Y-12941190D01*
X6045952Y-13055476D02*
X6026905Y-13045952D01*
X6017381Y-13036428D01*
X6007857Y-13017381D01*
X6007857Y-12960238D01*
X6017381Y-12941190D01*
X6026905Y-12931667D01*
X6045952Y-12922143D01*
X6074524Y-12922143D01*
X6093571Y-12931667D01*
X6103095Y-12941190D01*
X6112619Y-12960238D01*
X6112619Y-13017381D01*
X6103095Y-13036428D01*
X6093571Y-13045952D01*
X6074524Y-13055476D01*
X6045952Y-13055476D01*
X6226905Y-13055476D02*
X6207857Y-13045952D01*
X6198333Y-13026905D01*
X6198333Y-12855476D01*
X6379286Y-13045952D02*
X6360238Y-13055476D01*
X6322143Y-13055476D01*
X6303095Y-13045952D01*
X6293571Y-13026905D01*
X6293571Y-12950714D01*
X6303095Y-12931667D01*
X6322143Y-12922143D01*
X6360238Y-12922143D01*
X6379286Y-12931667D01*
X6388809Y-12950714D01*
X6388809Y-12969762D01*
X6293571Y-12988809D01*
X6465000Y-13045952D02*
X6484048Y-13055476D01*
X6522143Y-13055476D01*
X6541190Y-13045952D01*
X6550714Y-13026905D01*
X6550714Y-13017381D01*
X6541190Y-12998333D01*
X6522143Y-12988809D01*
X6493571Y-12988809D01*
X6474524Y-12979286D01*
X6465000Y-12960238D01*
X6465000Y-12950714D01*
X6474524Y-12931667D01*
X6493571Y-12922143D01*
X6522143Y-12922143D01*
X6541190Y-12931667D01*
X6617381Y-13131667D02*
X6626905Y-13122143D01*
X6645952Y-13093571D01*
X6655476Y-13074524D01*
X6665000Y-13045952D01*
X6674524Y-12998333D01*
X6674524Y-12960238D01*
X6665000Y-12912619D01*
X6655476Y-12884048D01*
X6645952Y-12865000D01*
X6626905Y-12836428D01*
X6617381Y-12826905D01*
D13*
X1655000Y-13229000D02*
G75*
G03*
X1655000Y-13229000I-49500J0D01*
G01*
D11*
X1950714Y-13119476D02*
X1969762Y-13119476D01*
X1988809Y-13129000D01*
X1998333Y-13138524D01*
X2007857Y-13157571D01*
X2017381Y-13195667D01*
X2017381Y-13243286D01*
X2007857Y-13281381D01*
X1998333Y-13300428D01*
X1988809Y-13309952D01*
X1969762Y-13319476D01*
X1950714Y-13319476D01*
X1931667Y-13309952D01*
X1922143Y-13300428D01*
X1912619Y-13281381D01*
X1903095Y-13243286D01*
X1903095Y-13195667D01*
X1912619Y-13157571D01*
X1922143Y-13138524D01*
X1931667Y-13129000D01*
X1950714Y-13119476D01*
X2103095Y-13300428D02*
X2112619Y-13309952D01*
X2103095Y-13319476D01*
X2093571Y-13309952D01*
X2103095Y-13300428D01*
X2103095Y-13319476D01*
X2207857Y-13319476D02*
X2245952Y-13319476D01*
X2265000Y-13309952D01*
X2274524Y-13300428D01*
X2293571Y-13271857D01*
X2303095Y-13233762D01*
X2303095Y-13157571D01*
X2293571Y-13138524D01*
X2284048Y-13129000D01*
X2265000Y-13119476D01*
X2226905Y-13119476D01*
X2207857Y-13129000D01*
X2198333Y-13138524D01*
X2188810Y-13157571D01*
X2188810Y-13205190D01*
X2198333Y-13224238D01*
X2207857Y-13233762D01*
X2226905Y-13243286D01*
X2265000Y-13243286D01*
X2284048Y-13233762D01*
X2293571Y-13224238D01*
X2303095Y-13205190D01*
X2398333Y-13319476D02*
X2436429Y-13319476D01*
X2455476Y-13309952D01*
X2465000Y-13300428D01*
X2484048Y-13271857D01*
X2493571Y-13233762D01*
X2493571Y-13157571D01*
X2484048Y-13138524D01*
X2474524Y-13129000D01*
X2455476Y-13119476D01*
X2417381Y-13119476D01*
X2398333Y-13129000D01*
X2388810Y-13138524D01*
X2379286Y-13157571D01*
X2379286Y-13205190D01*
X2388810Y-13224238D01*
X2398333Y-13233762D01*
X2417381Y-13243286D01*
X2455476Y-13243286D01*
X2474524Y-13233762D01*
X2484048Y-13224238D01*
X2493571Y-13205190D01*
X2617381Y-13119476D02*
X2636429Y-13119476D01*
X2655476Y-13129000D01*
X2665000Y-13138524D01*
X2674524Y-13157571D01*
X2684048Y-13195667D01*
X2684048Y-13243286D01*
X2674524Y-13281381D01*
X2665000Y-13300428D01*
X2655476Y-13309952D01*
X2636429Y-13319476D01*
X2617381Y-13319476D01*
X2598333Y-13309952D01*
X2588810Y-13300428D01*
X2579286Y-13281381D01*
X2569762Y-13243286D01*
X2569762Y-13195667D01*
X2579286Y-13157571D01*
X2588810Y-13138524D01*
X2598333Y-13129000D01*
X2617381Y-13119476D01*
X2769762Y-13319476D02*
X2769762Y-13186143D01*
X2769762Y-13205190D02*
X2779286Y-13195667D01*
X2798333Y-13186143D01*
X2826905Y-13186143D01*
X2845952Y-13195667D01*
X2855476Y-13214714D01*
X2855476Y-13319476D01*
X2855476Y-13214714D02*
X2865000Y-13195667D01*
X2884048Y-13186143D01*
X2912619Y-13186143D01*
X2931667Y-13195667D01*
X2941190Y-13214714D01*
X2941190Y-13319476D01*
X3036428Y-13319476D02*
X3036428Y-13186143D01*
X3036428Y-13205190D02*
X3045952Y-13195667D01*
X3065000Y-13186143D01*
X3093571Y-13186143D01*
X3112619Y-13195667D01*
X3122143Y-13214714D01*
X3122143Y-13319476D01*
X3122143Y-13214714D02*
X3131667Y-13195667D01*
X3150714Y-13186143D01*
X3179286Y-13186143D01*
X3198333Y-13195667D01*
X3207857Y-13214714D01*
X3207857Y-13319476D01*
X3598333Y-13109952D02*
X3426905Y-13367095D01*
X3855476Y-13119476D02*
X3874524Y-13119476D01*
X3893571Y-13129000D01*
X3903095Y-13138524D01*
X3912619Y-13157571D01*
X3922143Y-13195667D01*
X3922143Y-13243286D01*
X3912619Y-13281381D01*
X3903095Y-13300428D01*
X3893571Y-13309952D01*
X3874524Y-13319476D01*
X3855476Y-13319476D01*
X3836428Y-13309952D01*
X3826905Y-13300428D01*
X3817381Y-13281381D01*
X3807857Y-13243286D01*
X3807857Y-13195667D01*
X3817381Y-13157571D01*
X3826905Y-13138524D01*
X3836428Y-13129000D01*
X3855476Y-13119476D01*
X4007857Y-13300428D02*
X4017381Y-13309952D01*
X4007857Y-13319476D01*
X3998333Y-13309952D01*
X4007857Y-13300428D01*
X4007857Y-13319476D01*
X4141190Y-13119476D02*
X4160238Y-13119476D01*
X4179286Y-13129000D01*
X4188809Y-13138524D01*
X4198333Y-13157571D01*
X4207857Y-13195667D01*
X4207857Y-13243286D01*
X4198333Y-13281381D01*
X4188809Y-13300428D01*
X4179286Y-13309952D01*
X4160238Y-13319476D01*
X4141190Y-13319476D01*
X4122143Y-13309952D01*
X4112619Y-13300428D01*
X4103095Y-13281381D01*
X4093571Y-13243286D01*
X4093571Y-13195667D01*
X4103095Y-13157571D01*
X4112619Y-13138524D01*
X4122143Y-13129000D01*
X4141190Y-13119476D01*
X4274524Y-13119476D02*
X4398333Y-13119476D01*
X4331667Y-13195667D01*
X4360238Y-13195667D01*
X4379286Y-13205190D01*
X4388810Y-13214714D01*
X4398333Y-13233762D01*
X4398333Y-13281381D01*
X4388810Y-13300428D01*
X4379286Y-13309952D01*
X4360238Y-13319476D01*
X4303095Y-13319476D01*
X4284048Y-13309952D01*
X4274524Y-13300428D01*
X4493571Y-13319476D02*
X4531667Y-13319476D01*
X4550714Y-13309952D01*
X4560238Y-13300428D01*
X4579286Y-13271857D01*
X4588810Y-13233762D01*
X4588810Y-13157571D01*
X4579286Y-13138524D01*
X4569762Y-13129000D01*
X4550714Y-13119476D01*
X4512619Y-13119476D01*
X4493571Y-13129000D01*
X4484048Y-13138524D01*
X4474524Y-13157571D01*
X4474524Y-13205190D01*
X4484048Y-13224238D01*
X4493571Y-13233762D01*
X4512619Y-13243286D01*
X4550714Y-13243286D01*
X4569762Y-13233762D01*
X4579286Y-13224238D01*
X4588810Y-13205190D01*
X4712619Y-13119476D02*
X4731667Y-13119476D01*
X4750714Y-13129000D01*
X4760238Y-13138524D01*
X4769762Y-13157571D01*
X4779286Y-13195667D01*
X4779286Y-13243286D01*
X4769762Y-13281381D01*
X4760238Y-13300428D01*
X4750714Y-13309952D01*
X4731667Y-13319476D01*
X4712619Y-13319476D01*
X4693571Y-13309952D01*
X4684048Y-13300428D01*
X4674524Y-13281381D01*
X4665000Y-13243286D01*
X4665000Y-13195667D01*
X4674524Y-13157571D01*
X4684048Y-13138524D01*
X4693571Y-13129000D01*
X4712619Y-13119476D01*
X4855476Y-13119476D02*
X4855476Y-13157571D01*
X4931667Y-13119476D02*
X4931667Y-13157571D01*
X5226905Y-13395667D02*
X5217381Y-13386143D01*
X5198333Y-13357571D01*
X5188810Y-13338524D01*
X5179286Y-13309952D01*
X5169762Y-13262333D01*
X5169762Y-13224238D01*
X5179286Y-13176619D01*
X5188810Y-13148048D01*
X5198333Y-13129000D01*
X5217381Y-13100428D01*
X5226905Y-13090905D01*
X5293571Y-13138524D02*
X5303095Y-13129000D01*
X5322143Y-13119476D01*
X5369762Y-13119476D01*
X5388810Y-13129000D01*
X5398333Y-13138524D01*
X5407857Y-13157571D01*
X5407857Y-13176619D01*
X5398333Y-13205190D01*
X5284048Y-13319476D01*
X5407857Y-13319476D01*
X5645952Y-13319476D02*
X5645952Y-13119476D01*
X5731667Y-13319476D02*
X5731667Y-13214714D01*
X5722143Y-13195667D01*
X5703095Y-13186143D01*
X5674524Y-13186143D01*
X5655476Y-13195667D01*
X5645952Y-13205190D01*
X5855476Y-13319476D02*
X5836428Y-13309952D01*
X5826905Y-13300428D01*
X5817381Y-13281381D01*
X5817381Y-13224238D01*
X5826905Y-13205190D01*
X5836428Y-13195667D01*
X5855476Y-13186143D01*
X5884048Y-13186143D01*
X5903095Y-13195667D01*
X5912619Y-13205190D01*
X5922143Y-13224238D01*
X5922143Y-13281381D01*
X5912619Y-13300428D01*
X5903095Y-13309952D01*
X5884048Y-13319476D01*
X5855476Y-13319476D01*
X6036428Y-13319476D02*
X6017381Y-13309952D01*
X6007857Y-13290905D01*
X6007857Y-13119476D01*
X6188809Y-13309952D02*
X6169762Y-13319476D01*
X6131667Y-13319476D01*
X6112619Y-13309952D01*
X6103095Y-13290905D01*
X6103095Y-13214714D01*
X6112619Y-13195667D01*
X6131667Y-13186143D01*
X6169762Y-13186143D01*
X6188809Y-13195667D01*
X6198333Y-13214714D01*
X6198333Y-13233762D01*
X6103095Y-13252809D01*
X6274524Y-13309952D02*
X6293571Y-13319476D01*
X6331667Y-13319476D01*
X6350714Y-13309952D01*
X6360238Y-13290905D01*
X6360238Y-13281381D01*
X6350714Y-13262333D01*
X6331667Y-13252809D01*
X6303095Y-13252809D01*
X6284048Y-13243286D01*
X6274524Y-13224238D01*
X6274524Y-13214714D01*
X6284048Y-13195667D01*
X6303095Y-13186143D01*
X6331667Y-13186143D01*
X6350714Y-13195667D01*
X6426905Y-13395667D02*
X6436428Y-13386143D01*
X6455476Y-13357571D01*
X6465000Y-13338524D01*
X6474524Y-13309952D01*
X6484048Y-13262333D01*
X6484048Y-13224238D01*
X6474524Y-13176619D01*
X6465000Y-13148048D01*
X6455476Y-13129000D01*
X6436428Y-13100428D01*
X6426905Y-13090905D01*
D14*
X1605000Y-13443000D02*
X1605000Y-13543000D01*
X1555000Y-13493000D02*
X1655000Y-13493000D01*
D11*
X2017381Y-13583476D02*
X1903095Y-13583476D01*
X1960238Y-13583476D02*
X1960238Y-13383476D01*
X1941190Y-13412048D01*
X1922143Y-13431095D01*
X1903095Y-13440619D01*
X2103095Y-13564428D02*
X2112619Y-13573952D01*
X2103095Y-13583476D01*
X2093571Y-13573952D01*
X2103095Y-13564428D01*
X2103095Y-13583476D01*
X2236429Y-13383476D02*
X2255476Y-13383476D01*
X2274524Y-13393000D01*
X2284048Y-13402524D01*
X2293571Y-13421571D01*
X2303095Y-13459667D01*
X2303095Y-13507286D01*
X2293571Y-13545381D01*
X2284048Y-13564428D01*
X2274524Y-13573952D01*
X2255476Y-13583476D01*
X2236429Y-13583476D01*
X2217381Y-13573952D01*
X2207857Y-13564428D01*
X2198333Y-13545381D01*
X2188810Y-13507286D01*
X2188810Y-13459667D01*
X2198333Y-13421571D01*
X2207857Y-13402524D01*
X2217381Y-13393000D01*
X2236429Y-13383476D01*
X2426905Y-13383476D02*
X2445952Y-13383476D01*
X2465000Y-13393000D01*
X2474524Y-13402524D01*
X2484048Y-13421571D01*
X2493571Y-13459667D01*
X2493571Y-13507286D01*
X2484048Y-13545381D01*
X2474524Y-13564428D01*
X2465000Y-13573952D01*
X2445952Y-13583476D01*
X2426905Y-13583476D01*
X2407857Y-13573952D01*
X2398333Y-13564428D01*
X2388810Y-13545381D01*
X2379286Y-13507286D01*
X2379286Y-13459667D01*
X2388810Y-13421571D01*
X2398333Y-13402524D01*
X2407857Y-13393000D01*
X2426905Y-13383476D01*
X2617381Y-13383476D02*
X2636429Y-13383476D01*
X2655476Y-13393000D01*
X2665000Y-13402524D01*
X2674524Y-13421571D01*
X2684048Y-13459667D01*
X2684048Y-13507286D01*
X2674524Y-13545381D01*
X2665000Y-13564428D01*
X2655476Y-13573952D01*
X2636429Y-13583476D01*
X2617381Y-13583476D01*
X2598333Y-13573952D01*
X2588810Y-13564428D01*
X2579286Y-13545381D01*
X2569762Y-13507286D01*
X2569762Y-13459667D01*
X2579286Y-13421571D01*
X2588810Y-13402524D01*
X2598333Y-13393000D01*
X2617381Y-13383476D01*
X2769762Y-13583476D02*
X2769762Y-13450143D01*
X2769762Y-13469190D02*
X2779286Y-13459667D01*
X2798333Y-13450143D01*
X2826905Y-13450143D01*
X2845952Y-13459667D01*
X2855476Y-13478714D01*
X2855476Y-13583476D01*
X2855476Y-13478714D02*
X2865000Y-13459667D01*
X2884048Y-13450143D01*
X2912619Y-13450143D01*
X2931667Y-13459667D01*
X2941190Y-13478714D01*
X2941190Y-13583476D01*
X3036428Y-13583476D02*
X3036428Y-13450143D01*
X3036428Y-13469190D02*
X3045952Y-13459667D01*
X3065000Y-13450143D01*
X3093571Y-13450143D01*
X3112619Y-13459667D01*
X3122143Y-13478714D01*
X3122143Y-13583476D01*
X3122143Y-13478714D02*
X3131667Y-13459667D01*
X3150714Y-13450143D01*
X3179286Y-13450143D01*
X3198333Y-13459667D01*
X3207857Y-13478714D01*
X3207857Y-13583476D01*
X3598333Y-13373952D02*
X3426905Y-13631095D01*
X3855476Y-13383476D02*
X3874524Y-13383476D01*
X3893571Y-13393000D01*
X3903095Y-13402524D01*
X3912619Y-13421571D01*
X3922143Y-13459667D01*
X3922143Y-13507286D01*
X3912619Y-13545381D01*
X3903095Y-13564428D01*
X3893571Y-13573952D01*
X3874524Y-13583476D01*
X3855476Y-13583476D01*
X3836428Y-13573952D01*
X3826905Y-13564428D01*
X3817381Y-13545381D01*
X3807857Y-13507286D01*
X3807857Y-13459667D01*
X3817381Y-13421571D01*
X3826905Y-13402524D01*
X3836428Y-13393000D01*
X3855476Y-13383476D01*
X4007857Y-13564428D02*
X4017381Y-13573952D01*
X4007857Y-13583476D01*
X3998333Y-13573952D01*
X4007857Y-13564428D01*
X4007857Y-13583476D01*
X4141190Y-13383476D02*
X4160238Y-13383476D01*
X4179286Y-13393000D01*
X4188809Y-13402524D01*
X4198333Y-13421571D01*
X4207857Y-13459667D01*
X4207857Y-13507286D01*
X4198333Y-13545381D01*
X4188809Y-13564428D01*
X4179286Y-13573952D01*
X4160238Y-13583476D01*
X4141190Y-13583476D01*
X4122143Y-13573952D01*
X4112619Y-13564428D01*
X4103095Y-13545381D01*
X4093571Y-13507286D01*
X4093571Y-13459667D01*
X4103095Y-13421571D01*
X4112619Y-13402524D01*
X4122143Y-13393000D01*
X4141190Y-13383476D01*
X4274524Y-13383476D02*
X4398333Y-13383476D01*
X4331667Y-13459667D01*
X4360238Y-13459667D01*
X4379286Y-13469190D01*
X4388810Y-13478714D01*
X4398333Y-13497762D01*
X4398333Y-13545381D01*
X4388810Y-13564428D01*
X4379286Y-13573952D01*
X4360238Y-13583476D01*
X4303095Y-13583476D01*
X4284048Y-13573952D01*
X4274524Y-13564428D01*
X4493571Y-13583476D02*
X4531667Y-13583476D01*
X4550714Y-13573952D01*
X4560238Y-13564428D01*
X4579286Y-13535857D01*
X4588810Y-13497762D01*
X4588810Y-13421571D01*
X4579286Y-13402524D01*
X4569762Y-13393000D01*
X4550714Y-13383476D01*
X4512619Y-13383476D01*
X4493571Y-13393000D01*
X4484048Y-13402524D01*
X4474524Y-13421571D01*
X4474524Y-13469190D01*
X4484048Y-13488238D01*
X4493571Y-13497762D01*
X4512619Y-13507286D01*
X4550714Y-13507286D01*
X4569762Y-13497762D01*
X4579286Y-13488238D01*
X4588810Y-13469190D01*
X4760238Y-13450143D02*
X4760238Y-13583476D01*
X4712619Y-13373952D02*
X4665000Y-13516809D01*
X4788810Y-13516809D01*
X4855476Y-13383476D02*
X4855476Y-13421571D01*
X4931667Y-13383476D02*
X4931667Y-13421571D01*
X5226905Y-13659667D02*
X5217381Y-13650143D01*
X5198333Y-13621571D01*
X5188810Y-13602524D01*
X5179286Y-13573952D01*
X5169762Y-13526333D01*
X5169762Y-13488238D01*
X5179286Y-13440619D01*
X5188810Y-13412048D01*
X5198333Y-13393000D01*
X5217381Y-13364428D01*
X5226905Y-13354905D01*
X5293571Y-13402524D02*
X5303095Y-13393000D01*
X5322143Y-13383476D01*
X5369762Y-13383476D01*
X5388810Y-13393000D01*
X5398333Y-13402524D01*
X5407857Y-13421571D01*
X5407857Y-13440619D01*
X5398333Y-13469190D01*
X5284048Y-13583476D01*
X5407857Y-13583476D01*
X5588810Y-13383476D02*
X5493571Y-13383476D01*
X5484048Y-13478714D01*
X5493571Y-13469190D01*
X5512619Y-13459667D01*
X5560238Y-13459667D01*
X5579286Y-13469190D01*
X5588810Y-13478714D01*
X5598333Y-13497762D01*
X5598333Y-13545381D01*
X5588810Y-13564428D01*
X5579286Y-13573952D01*
X5560238Y-13583476D01*
X5512619Y-13583476D01*
X5493571Y-13573952D01*
X5484048Y-13564428D01*
X5836428Y-13583476D02*
X5836428Y-13383476D01*
X5922143Y-13583476D02*
X5922143Y-13478714D01*
X5912619Y-13459667D01*
X5893571Y-13450143D01*
X5865000Y-13450143D01*
X5845952Y-13459667D01*
X5836428Y-13469190D01*
X6045952Y-13583476D02*
X6026905Y-13573952D01*
X6017381Y-13564428D01*
X6007857Y-13545381D01*
X6007857Y-13488238D01*
X6017381Y-13469190D01*
X6026905Y-13459667D01*
X6045952Y-13450143D01*
X6074524Y-13450143D01*
X6093571Y-13459667D01*
X6103095Y-13469190D01*
X6112619Y-13488238D01*
X6112619Y-13545381D01*
X6103095Y-13564428D01*
X6093571Y-13573952D01*
X6074524Y-13583476D01*
X6045952Y-13583476D01*
X6226905Y-13583476D02*
X6207857Y-13573952D01*
X6198333Y-13554905D01*
X6198333Y-13383476D01*
X6379286Y-13573952D02*
X6360238Y-13583476D01*
X6322143Y-13583476D01*
X6303095Y-13573952D01*
X6293571Y-13554905D01*
X6293571Y-13478714D01*
X6303095Y-13459667D01*
X6322143Y-13450143D01*
X6360238Y-13450143D01*
X6379286Y-13459667D01*
X6388809Y-13478714D01*
X6388809Y-13497762D01*
X6293571Y-13516809D01*
X6465000Y-13573952D02*
X6484048Y-13583476D01*
X6522143Y-13583476D01*
X6541190Y-13573952D01*
X6550714Y-13554905D01*
X6550714Y-13545381D01*
X6541190Y-13526333D01*
X6522143Y-13516809D01*
X6493571Y-13516809D01*
X6474524Y-13507286D01*
X6465000Y-13488238D01*
X6465000Y-13478714D01*
X6474524Y-13459667D01*
X6493571Y-13450143D01*
X6522143Y-13450143D01*
X6541190Y-13459667D01*
X6617381Y-13659667D02*
X6626905Y-13650143D01*
X6645952Y-13621571D01*
X6655476Y-13602524D01*
X6665000Y-13573952D01*
X6674524Y-13526333D01*
X6674524Y-13488238D01*
X6665000Y-13440619D01*
X6655476Y-13412048D01*
X6645952Y-13393000D01*
X6626905Y-13364428D01*
X6617381Y-13354905D01*
D15*
X1638891Y-13795891D02*
X1638891Y-13718109D01*
X1561109Y-13718109D01*
X1561109Y-13795891D01*
X1638891Y-13795891D01*
D11*
X2017381Y-13847476D02*
X1903095Y-13847476D01*
X1960238Y-13847476D02*
X1960238Y-13647476D01*
X1941190Y-13676048D01*
X1922143Y-13695095D01*
X1903095Y-13704619D01*
X2103095Y-13828428D02*
X2112619Y-13837952D01*
X2103095Y-13847476D01*
X2093571Y-13837952D01*
X2103095Y-13828428D01*
X2103095Y-13847476D01*
X2303095Y-13847476D02*
X2188810Y-13847476D01*
X2245952Y-13847476D02*
X2245952Y-13647476D01*
X2226905Y-13676048D01*
X2207857Y-13695095D01*
X2188810Y-13704619D01*
X2426905Y-13647476D02*
X2445952Y-13647476D01*
X2465000Y-13657000D01*
X2474524Y-13666524D01*
X2484048Y-13685571D01*
X2493571Y-13723667D01*
X2493571Y-13771286D01*
X2484048Y-13809381D01*
X2474524Y-13828428D01*
X2465000Y-13837952D01*
X2445952Y-13847476D01*
X2426905Y-13847476D01*
X2407857Y-13837952D01*
X2398333Y-13828428D01*
X2388810Y-13809381D01*
X2379286Y-13771286D01*
X2379286Y-13723667D01*
X2388810Y-13685571D01*
X2398333Y-13666524D01*
X2407857Y-13657000D01*
X2426905Y-13647476D01*
X2617381Y-13647476D02*
X2636429Y-13647476D01*
X2655476Y-13657000D01*
X2665000Y-13666524D01*
X2674524Y-13685571D01*
X2684048Y-13723667D01*
X2684048Y-13771286D01*
X2674524Y-13809381D01*
X2665000Y-13828428D01*
X2655476Y-13837952D01*
X2636429Y-13847476D01*
X2617381Y-13847476D01*
X2598333Y-13837952D01*
X2588810Y-13828428D01*
X2579286Y-13809381D01*
X2569762Y-13771286D01*
X2569762Y-13723667D01*
X2579286Y-13685571D01*
X2588810Y-13666524D01*
X2598333Y-13657000D01*
X2617381Y-13647476D01*
X2769762Y-13847476D02*
X2769762Y-13714143D01*
X2769762Y-13733190D02*
X2779286Y-13723667D01*
X2798333Y-13714143D01*
X2826905Y-13714143D01*
X2845952Y-13723667D01*
X2855476Y-13742714D01*
X2855476Y-13847476D01*
X2855476Y-13742714D02*
X2865000Y-13723667D01*
X2884048Y-13714143D01*
X2912619Y-13714143D01*
X2931667Y-13723667D01*
X2941190Y-13742714D01*
X2941190Y-13847476D01*
X3036428Y-13847476D02*
X3036428Y-13714143D01*
X3036428Y-13733190D02*
X3045952Y-13723667D01*
X3065000Y-13714143D01*
X3093571Y-13714143D01*
X3112619Y-13723667D01*
X3122143Y-13742714D01*
X3122143Y-13847476D01*
X3122143Y-13742714D02*
X3131667Y-13723667D01*
X3150714Y-13714143D01*
X3179286Y-13714143D01*
X3198333Y-13723667D01*
X3207857Y-13742714D01*
X3207857Y-13847476D01*
X3598333Y-13637952D02*
X3426905Y-13895095D01*
X3855476Y-13647476D02*
X3874524Y-13647476D01*
X3893571Y-13657000D01*
X3903095Y-13666524D01*
X3912619Y-13685571D01*
X3922143Y-13723667D01*
X3922143Y-13771286D01*
X3912619Y-13809381D01*
X3903095Y-13828428D01*
X3893571Y-13837952D01*
X3874524Y-13847476D01*
X3855476Y-13847476D01*
X3836428Y-13837952D01*
X3826905Y-13828428D01*
X3817381Y-13809381D01*
X3807857Y-13771286D01*
X3807857Y-13723667D01*
X3817381Y-13685571D01*
X3826905Y-13666524D01*
X3836428Y-13657000D01*
X3855476Y-13647476D01*
X4007857Y-13828428D02*
X4017381Y-13837952D01*
X4007857Y-13847476D01*
X3998333Y-13837952D01*
X4007857Y-13828428D01*
X4007857Y-13847476D01*
X4141190Y-13647476D02*
X4160238Y-13647476D01*
X4179286Y-13657000D01*
X4188809Y-13666524D01*
X4198333Y-13685571D01*
X4207857Y-13723667D01*
X4207857Y-13771286D01*
X4198333Y-13809381D01*
X4188809Y-13828428D01*
X4179286Y-13837952D01*
X4160238Y-13847476D01*
X4141190Y-13847476D01*
X4122143Y-13837952D01*
X4112619Y-13828428D01*
X4103095Y-13809381D01*
X4093571Y-13771286D01*
X4093571Y-13723667D01*
X4103095Y-13685571D01*
X4112619Y-13666524D01*
X4122143Y-13657000D01*
X4141190Y-13647476D01*
X4379286Y-13714143D02*
X4379286Y-13847476D01*
X4331667Y-13637952D02*
X4284048Y-13780809D01*
X4407857Y-13780809D01*
X4465000Y-13647476D02*
X4588810Y-13647476D01*
X4522143Y-13723667D01*
X4550714Y-13723667D01*
X4569762Y-13733190D01*
X4579286Y-13742714D01*
X4588810Y-13761762D01*
X4588810Y-13809381D01*
X4579286Y-13828428D01*
X4569762Y-13837952D01*
X4550714Y-13847476D01*
X4493571Y-13847476D01*
X4474524Y-13837952D01*
X4465000Y-13828428D01*
X4655476Y-13647476D02*
X4779286Y-13647476D01*
X4712619Y-13723667D01*
X4741190Y-13723667D01*
X4760238Y-13733190D01*
X4769762Y-13742714D01*
X4779286Y-13761762D01*
X4779286Y-13809381D01*
X4769762Y-13828428D01*
X4760238Y-13837952D01*
X4741190Y-13847476D01*
X4684048Y-13847476D01*
X4665000Y-13837952D01*
X4655476Y-13828428D01*
X4855476Y-13647476D02*
X4855476Y-13685571D01*
X4931667Y-13647476D02*
X4931667Y-13685571D01*
X5226905Y-13923667D02*
X5217381Y-13914143D01*
X5198333Y-13885571D01*
X5188810Y-13866524D01*
X5179286Y-13837952D01*
X5169762Y-13790333D01*
X5169762Y-13752238D01*
X5179286Y-13704619D01*
X5188810Y-13676048D01*
X5198333Y-13657000D01*
X5217381Y-13628428D01*
X5226905Y-13618905D01*
X5407857Y-13847476D02*
X5293571Y-13847476D01*
X5350714Y-13847476D02*
X5350714Y-13647476D01*
X5331667Y-13676048D01*
X5312619Y-13695095D01*
X5293571Y-13704619D01*
X5645952Y-13847476D02*
X5645952Y-13647476D01*
X5731667Y-13847476D02*
X5731667Y-13742714D01*
X5722143Y-13723667D01*
X5703095Y-13714143D01*
X5674524Y-13714143D01*
X5655476Y-13723667D01*
X5645952Y-13733190D01*
X5855476Y-13847476D02*
X5836428Y-13837952D01*
X5826905Y-13828428D01*
X5817381Y-13809381D01*
X5817381Y-13752238D01*
X5826905Y-13733190D01*
X5836428Y-13723667D01*
X5855476Y-13714143D01*
X5884048Y-13714143D01*
X5903095Y-13723667D01*
X5912619Y-13733190D01*
X5922143Y-13752238D01*
X5922143Y-13809381D01*
X5912619Y-13828428D01*
X5903095Y-13837952D01*
X5884048Y-13847476D01*
X5855476Y-13847476D01*
X6036428Y-13847476D02*
X6017381Y-13837952D01*
X6007857Y-13818905D01*
X6007857Y-13647476D01*
X6188809Y-13837952D02*
X6169762Y-13847476D01*
X6131667Y-13847476D01*
X6112619Y-13837952D01*
X6103095Y-13818905D01*
X6103095Y-13742714D01*
X6112619Y-13723667D01*
X6131667Y-13714143D01*
X6169762Y-13714143D01*
X6188809Y-13723667D01*
X6198333Y-13742714D01*
X6198333Y-13761762D01*
X6103095Y-13780809D01*
X6265000Y-13923667D02*
X6274524Y-13914143D01*
X6293571Y-13885571D01*
X6303095Y-13866524D01*
X6312619Y-13837952D01*
X6322143Y-13790333D01*
X6322143Y-13752238D01*
X6312619Y-13704619D01*
X6303095Y-13676048D01*
X6293571Y-13657000D01*
X6274524Y-13628428D01*
X6265000Y-13618905D01*
D16*
X1591500Y-14084500D02*
X1655000Y-14021000D01*
X1591500Y-13957500D01*
X1528000Y-14021000D01*
X1591500Y-14084500D01*
D11*
X2017381Y-14111476D02*
X1903095Y-14111476D01*
X1960238Y-14111476D02*
X1960238Y-13911476D01*
X1941190Y-13940048D01*
X1922143Y-13959095D01*
X1903095Y-13968619D01*
X2103095Y-14092428D02*
X2112619Y-14101952D01*
X2103095Y-14111476D01*
X2093571Y-14101952D01*
X2103095Y-14092428D01*
X2103095Y-14111476D01*
X2188810Y-13930524D02*
X2198333Y-13921000D01*
X2217381Y-13911476D01*
X2265000Y-13911476D01*
X2284048Y-13921000D01*
X2293571Y-13930524D01*
X2303095Y-13949571D01*
X2303095Y-13968619D01*
X2293571Y-13997190D01*
X2179286Y-14111476D01*
X2303095Y-14111476D01*
X2369762Y-13911476D02*
X2503095Y-13911476D01*
X2417381Y-14111476D01*
X2617381Y-13911476D02*
X2636429Y-13911476D01*
X2655476Y-13921000D01*
X2665000Y-13930524D01*
X2674524Y-13949571D01*
X2684048Y-13987667D01*
X2684048Y-14035286D01*
X2674524Y-14073381D01*
X2665000Y-14092428D01*
X2655476Y-14101952D01*
X2636429Y-14111476D01*
X2617381Y-14111476D01*
X2598333Y-14101952D01*
X2588810Y-14092428D01*
X2579286Y-14073381D01*
X2569762Y-14035286D01*
X2569762Y-13987667D01*
X2579286Y-13949571D01*
X2588810Y-13930524D01*
X2598333Y-13921000D01*
X2617381Y-13911476D01*
X2769762Y-14111476D02*
X2769762Y-13978143D01*
X2769762Y-13997190D02*
X2779286Y-13987667D01*
X2798333Y-13978143D01*
X2826905Y-13978143D01*
X2845952Y-13987667D01*
X2855476Y-14006714D01*
X2855476Y-14111476D01*
X2855476Y-14006714D02*
X2865000Y-13987667D01*
X2884048Y-13978143D01*
X2912619Y-13978143D01*
X2931667Y-13987667D01*
X2941190Y-14006714D01*
X2941190Y-14111476D01*
X3036428Y-14111476D02*
X3036428Y-13978143D01*
X3036428Y-13997190D02*
X3045952Y-13987667D01*
X3065000Y-13978143D01*
X3093571Y-13978143D01*
X3112619Y-13987667D01*
X3122143Y-14006714D01*
X3122143Y-14111476D01*
X3122143Y-14006714D02*
X3131667Y-13987667D01*
X3150714Y-13978143D01*
X3179286Y-13978143D01*
X3198333Y-13987667D01*
X3207857Y-14006714D01*
X3207857Y-14111476D01*
X3598333Y-13901952D02*
X3426905Y-14159095D01*
X3855476Y-13911476D02*
X3874524Y-13911476D01*
X3893571Y-13921000D01*
X3903095Y-13930524D01*
X3912619Y-13949571D01*
X3922143Y-13987667D01*
X3922143Y-14035286D01*
X3912619Y-14073381D01*
X3903095Y-14092428D01*
X3893571Y-14101952D01*
X3874524Y-14111476D01*
X3855476Y-14111476D01*
X3836428Y-14101952D01*
X3826905Y-14092428D01*
X3817381Y-14073381D01*
X3807857Y-14035286D01*
X3807857Y-13987667D01*
X3817381Y-13949571D01*
X3826905Y-13930524D01*
X3836428Y-13921000D01*
X3855476Y-13911476D01*
X4007857Y-14092428D02*
X4017381Y-14101952D01*
X4007857Y-14111476D01*
X3998333Y-14101952D01*
X4007857Y-14092428D01*
X4007857Y-14111476D01*
X4141190Y-13911476D02*
X4160238Y-13911476D01*
X4179286Y-13921000D01*
X4188809Y-13930524D01*
X4198333Y-13949571D01*
X4207857Y-13987667D01*
X4207857Y-14035286D01*
X4198333Y-14073381D01*
X4188809Y-14092428D01*
X4179286Y-14101952D01*
X4160238Y-14111476D01*
X4141190Y-14111476D01*
X4122143Y-14101952D01*
X4112619Y-14092428D01*
X4103095Y-14073381D01*
X4093571Y-14035286D01*
X4093571Y-13987667D01*
X4103095Y-13949571D01*
X4112619Y-13930524D01*
X4122143Y-13921000D01*
X4141190Y-13911476D01*
X4388810Y-13911476D02*
X4293571Y-13911476D01*
X4284048Y-14006714D01*
X4293571Y-13997190D01*
X4312619Y-13987667D01*
X4360238Y-13987667D01*
X4379286Y-13997190D01*
X4388810Y-14006714D01*
X4398333Y-14025762D01*
X4398333Y-14073381D01*
X4388810Y-14092428D01*
X4379286Y-14101952D01*
X4360238Y-14111476D01*
X4312619Y-14111476D01*
X4293571Y-14101952D01*
X4284048Y-14092428D01*
X4522143Y-13911476D02*
X4541190Y-13911476D01*
X4560238Y-13921000D01*
X4569762Y-13930524D01*
X4579286Y-13949571D01*
X4588810Y-13987667D01*
X4588810Y-14035286D01*
X4579286Y-14073381D01*
X4569762Y-14092428D01*
X4560238Y-14101952D01*
X4541190Y-14111476D01*
X4522143Y-14111476D01*
X4503095Y-14101952D01*
X4493571Y-14092428D01*
X4484048Y-14073381D01*
X4474524Y-14035286D01*
X4474524Y-13987667D01*
X4484048Y-13949571D01*
X4493571Y-13930524D01*
X4503095Y-13921000D01*
X4522143Y-13911476D01*
X4712619Y-13911476D02*
X4731667Y-13911476D01*
X4750714Y-13921000D01*
X4760238Y-13930524D01*
X4769762Y-13949571D01*
X4779286Y-13987667D01*
X4779286Y-14035286D01*
X4769762Y-14073381D01*
X4760238Y-14092428D01*
X4750714Y-14101952D01*
X4731667Y-14111476D01*
X4712619Y-14111476D01*
X4693571Y-14101952D01*
X4684048Y-14092428D01*
X4674524Y-14073381D01*
X4665000Y-14035286D01*
X4665000Y-13987667D01*
X4674524Y-13949571D01*
X4684048Y-13930524D01*
X4693571Y-13921000D01*
X4712619Y-13911476D01*
X4855476Y-13911476D02*
X4855476Y-13949571D01*
X4931667Y-13911476D02*
X4931667Y-13949571D01*
X5226905Y-14187667D02*
X5217381Y-14178143D01*
X5198333Y-14149571D01*
X5188810Y-14130524D01*
X5179286Y-14101952D01*
X5169762Y-14054333D01*
X5169762Y-14016238D01*
X5179286Y-13968619D01*
X5188810Y-13940048D01*
X5198333Y-13921000D01*
X5217381Y-13892428D01*
X5226905Y-13882905D01*
X5407857Y-14111476D02*
X5293571Y-14111476D01*
X5350714Y-14111476D02*
X5350714Y-13911476D01*
X5331667Y-13940048D01*
X5312619Y-13959095D01*
X5293571Y-13968619D01*
X5484048Y-13930524D02*
X5493571Y-13921000D01*
X5512619Y-13911476D01*
X5560238Y-13911476D01*
X5579286Y-13921000D01*
X5588810Y-13930524D01*
X5598333Y-13949571D01*
X5598333Y-13968619D01*
X5588810Y-13997190D01*
X5474524Y-14111476D01*
X5598333Y-14111476D01*
X5722143Y-13911476D02*
X5741190Y-13911476D01*
X5760238Y-13921000D01*
X5769762Y-13930524D01*
X5779286Y-13949571D01*
X5788809Y-13987667D01*
X5788809Y-14035286D01*
X5779286Y-14073381D01*
X5769762Y-14092428D01*
X5760238Y-14101952D01*
X5741190Y-14111476D01*
X5722143Y-14111476D01*
X5703095Y-14101952D01*
X5693571Y-14092428D01*
X5684048Y-14073381D01*
X5674524Y-14035286D01*
X5674524Y-13987667D01*
X5684048Y-13949571D01*
X5693571Y-13930524D01*
X5703095Y-13921000D01*
X5722143Y-13911476D01*
X6026905Y-14111476D02*
X6026905Y-13911476D01*
X6112619Y-14111476D02*
X6112619Y-14006714D01*
X6103095Y-13987667D01*
X6084048Y-13978143D01*
X6055476Y-13978143D01*
X6036428Y-13987667D01*
X6026905Y-13997190D01*
X6236428Y-14111476D02*
X6217381Y-14101952D01*
X6207857Y-14092428D01*
X6198333Y-14073381D01*
X6198333Y-14016238D01*
X6207857Y-13997190D01*
X6217381Y-13987667D01*
X6236428Y-13978143D01*
X6265000Y-13978143D01*
X6284048Y-13987667D01*
X6293571Y-13997190D01*
X6303095Y-14016238D01*
X6303095Y-14073381D01*
X6293571Y-14092428D01*
X6284048Y-14101952D01*
X6265000Y-14111476D01*
X6236428Y-14111476D01*
X6417381Y-14111476D02*
X6398333Y-14101952D01*
X6388809Y-14082905D01*
X6388809Y-13911476D01*
X6569762Y-14101952D02*
X6550714Y-14111476D01*
X6512619Y-14111476D01*
X6493571Y-14101952D01*
X6484048Y-14082905D01*
X6484048Y-14006714D01*
X6493571Y-13987667D01*
X6512619Y-13978143D01*
X6550714Y-13978143D01*
X6569762Y-13987667D01*
X6579286Y-14006714D01*
X6579286Y-14025762D01*
X6484048Y-14044809D01*
X6655476Y-14101952D02*
X6674524Y-14111476D01*
X6712619Y-14111476D01*
X6731667Y-14101952D01*
X6741190Y-14082905D01*
X6741190Y-14073381D01*
X6731667Y-14054333D01*
X6712619Y-14044809D01*
X6684048Y-14044809D01*
X6665000Y-14035286D01*
X6655476Y-14016238D01*
X6655476Y-14006714D01*
X6665000Y-13987667D01*
X6684048Y-13978143D01*
X6712619Y-13978143D01*
X6731667Y-13987667D01*
X6807857Y-14187667D02*
X6817381Y-14178143D01*
X6836428Y-14149571D01*
X6845952Y-14130524D01*
X6855476Y-14101952D01*
X6865000Y-14054333D01*
X6865000Y-14016238D01*
X6855476Y-13968619D01*
X6845952Y-13940048D01*
X6836428Y-13921000D01*
X6817381Y-13892428D01*
X6807857Y-13882905D01*
D17*
X1525000Y-14220000D02*
X1655000Y-14350000D01*
X1655000Y-14220000D02*
X1525000Y-14350000D01*
X1655000Y-14285000D02*
G75*
G03*
X1655000Y-14285000I-65000J0D01*
G01*
D11*
X2017381Y-14375476D02*
X1903095Y-14375476D01*
X1960238Y-14375476D02*
X1960238Y-14175476D01*
X1941190Y-14204048D01*
X1922143Y-14223095D01*
X1903095Y-14232619D01*
X2103095Y-14356428D02*
X2112619Y-14365952D01*
X2103095Y-14375476D01*
X2093571Y-14365952D01*
X2103095Y-14356428D01*
X2103095Y-14375476D01*
X2179286Y-14175476D02*
X2303095Y-14175476D01*
X2236429Y-14251667D01*
X2265000Y-14251667D01*
X2284048Y-14261190D01*
X2293571Y-14270714D01*
X2303095Y-14289762D01*
X2303095Y-14337381D01*
X2293571Y-14356428D01*
X2284048Y-14365952D01*
X2265000Y-14375476D01*
X2207857Y-14375476D01*
X2188810Y-14365952D01*
X2179286Y-14356428D01*
X2426905Y-14175476D02*
X2445952Y-14175476D01*
X2465000Y-14185000D01*
X2474524Y-14194524D01*
X2484048Y-14213571D01*
X2493571Y-14251667D01*
X2493571Y-14299286D01*
X2484048Y-14337381D01*
X2474524Y-14356428D01*
X2465000Y-14365952D01*
X2445952Y-14375476D01*
X2426905Y-14375476D01*
X2407857Y-14365952D01*
X2398333Y-14356428D01*
X2388810Y-14337381D01*
X2379286Y-14299286D01*
X2379286Y-14251667D01*
X2388810Y-14213571D01*
X2398333Y-14194524D01*
X2407857Y-14185000D01*
X2426905Y-14175476D01*
X2617381Y-14175476D02*
X2636429Y-14175476D01*
X2655476Y-14185000D01*
X2665000Y-14194524D01*
X2674524Y-14213571D01*
X2684048Y-14251667D01*
X2684048Y-14299286D01*
X2674524Y-14337381D01*
X2665000Y-14356428D01*
X2655476Y-14365952D01*
X2636429Y-14375476D01*
X2617381Y-14375476D01*
X2598333Y-14365952D01*
X2588810Y-14356428D01*
X2579286Y-14337381D01*
X2569762Y-14299286D01*
X2569762Y-14251667D01*
X2579286Y-14213571D01*
X2588810Y-14194524D01*
X2598333Y-14185000D01*
X2617381Y-14175476D01*
X2769762Y-14375476D02*
X2769762Y-14242143D01*
X2769762Y-14261190D02*
X2779286Y-14251667D01*
X2798333Y-14242143D01*
X2826905Y-14242143D01*
X2845952Y-14251667D01*
X2855476Y-14270714D01*
X2855476Y-14375476D01*
X2855476Y-14270714D02*
X2865000Y-14251667D01*
X2884048Y-14242143D01*
X2912619Y-14242143D01*
X2931667Y-14251667D01*
X2941190Y-14270714D01*
X2941190Y-14375476D01*
X3036428Y-14375476D02*
X3036428Y-14242143D01*
X3036428Y-14261190D02*
X3045952Y-14251667D01*
X3065000Y-14242143D01*
X3093571Y-14242143D01*
X3112619Y-14251667D01*
X3122143Y-14270714D01*
X3122143Y-14375476D01*
X3122143Y-14270714D02*
X3131667Y-14251667D01*
X3150714Y-14242143D01*
X3179286Y-14242143D01*
X3198333Y-14251667D01*
X3207857Y-14270714D01*
X3207857Y-14375476D01*
X3598333Y-14165952D02*
X3426905Y-14423095D01*
X3855476Y-14175476D02*
X3874524Y-14175476D01*
X3893571Y-14185000D01*
X3903095Y-14194524D01*
X3912619Y-14213571D01*
X3922143Y-14251667D01*
X3922143Y-14299286D01*
X3912619Y-14337381D01*
X3903095Y-14356428D01*
X3893571Y-14365952D01*
X3874524Y-14375476D01*
X3855476Y-14375476D01*
X3836428Y-14365952D01*
X3826905Y-14356428D01*
X3817381Y-14337381D01*
X3807857Y-14299286D01*
X3807857Y-14251667D01*
X3817381Y-14213571D01*
X3826905Y-14194524D01*
X3836428Y-14185000D01*
X3855476Y-14175476D01*
X4007857Y-14356428D02*
X4017381Y-14365952D01*
X4007857Y-14375476D01*
X3998333Y-14365952D01*
X4007857Y-14356428D01*
X4007857Y-14375476D01*
X4141190Y-14175476D02*
X4160238Y-14175476D01*
X4179286Y-14185000D01*
X4188809Y-14194524D01*
X4198333Y-14213571D01*
X4207857Y-14251667D01*
X4207857Y-14299286D01*
X4198333Y-14337381D01*
X4188809Y-14356428D01*
X4179286Y-14365952D01*
X4160238Y-14375476D01*
X4141190Y-14375476D01*
X4122143Y-14365952D01*
X4112619Y-14356428D01*
X4103095Y-14337381D01*
X4093571Y-14299286D01*
X4093571Y-14251667D01*
X4103095Y-14213571D01*
X4112619Y-14194524D01*
X4122143Y-14185000D01*
X4141190Y-14175476D01*
X4388810Y-14175476D02*
X4293571Y-14175476D01*
X4284048Y-14270714D01*
X4293571Y-14261190D01*
X4312619Y-14251667D01*
X4360238Y-14251667D01*
X4379286Y-14261190D01*
X4388810Y-14270714D01*
X4398333Y-14289762D01*
X4398333Y-14337381D01*
X4388810Y-14356428D01*
X4379286Y-14365952D01*
X4360238Y-14375476D01*
X4312619Y-14375476D01*
X4293571Y-14365952D01*
X4284048Y-14356428D01*
X4588810Y-14375476D02*
X4474524Y-14375476D01*
X4531667Y-14375476D02*
X4531667Y-14175476D01*
X4512619Y-14204048D01*
X4493571Y-14223095D01*
X4474524Y-14232619D01*
X4665000Y-14194524D02*
X4674524Y-14185000D01*
X4693571Y-14175476D01*
X4741190Y-14175476D01*
X4760238Y-14185000D01*
X4769762Y-14194524D01*
X4779286Y-14213571D01*
X4779286Y-14232619D01*
X4769762Y-14261190D01*
X4655476Y-14375476D01*
X4779286Y-14375476D01*
X4855476Y-14175476D02*
X4855476Y-14213571D01*
X4931667Y-14175476D02*
X4931667Y-14213571D01*
X5226905Y-14451667D02*
X5217381Y-14442143D01*
X5198333Y-14413571D01*
X5188810Y-14394524D01*
X5179286Y-14365952D01*
X5169762Y-14318333D01*
X5169762Y-14280238D01*
X5179286Y-14232619D01*
X5188810Y-14204048D01*
X5198333Y-14185000D01*
X5217381Y-14156428D01*
X5226905Y-14146905D01*
X5293571Y-14194524D02*
X5303095Y-14185000D01*
X5322143Y-14175476D01*
X5369762Y-14175476D01*
X5388810Y-14185000D01*
X5398333Y-14194524D01*
X5407857Y-14213571D01*
X5407857Y-14232619D01*
X5398333Y-14261190D01*
X5284048Y-14375476D01*
X5407857Y-14375476D01*
X5645952Y-14375476D02*
X5645952Y-14175476D01*
X5731667Y-14375476D02*
X5731667Y-14270714D01*
X5722143Y-14251667D01*
X5703095Y-14242143D01*
X5674524Y-14242143D01*
X5655476Y-14251667D01*
X5645952Y-14261190D01*
X5855476Y-14375476D02*
X5836428Y-14365952D01*
X5826905Y-14356428D01*
X5817381Y-14337381D01*
X5817381Y-14280238D01*
X5826905Y-14261190D01*
X5836428Y-14251667D01*
X5855476Y-14242143D01*
X5884048Y-14242143D01*
X5903095Y-14251667D01*
X5912619Y-14261190D01*
X5922143Y-14280238D01*
X5922143Y-14337381D01*
X5912619Y-14356428D01*
X5903095Y-14365952D01*
X5884048Y-14375476D01*
X5855476Y-14375476D01*
X6036428Y-14375476D02*
X6017381Y-14365952D01*
X6007857Y-14346905D01*
X6007857Y-14175476D01*
X6188809Y-14365952D02*
X6169762Y-14375476D01*
X6131667Y-14375476D01*
X6112619Y-14365952D01*
X6103095Y-14346905D01*
X6103095Y-14270714D01*
X6112619Y-14251667D01*
X6131667Y-14242143D01*
X6169762Y-14242143D01*
X6188809Y-14251667D01*
X6198333Y-14270714D01*
X6198333Y-14289762D01*
X6103095Y-14308809D01*
X6274524Y-14365952D02*
X6293571Y-14375476D01*
X6331667Y-14375476D01*
X6350714Y-14365952D01*
X6360238Y-14346905D01*
X6360238Y-14337381D01*
X6350714Y-14318333D01*
X6331667Y-14308809D01*
X6303095Y-14308809D01*
X6284048Y-14299286D01*
X6274524Y-14280238D01*
X6274524Y-14270714D01*
X6284048Y-14251667D01*
X6303095Y-14242143D01*
X6331667Y-14242143D01*
X6350714Y-14251667D01*
X6426905Y-14451667D02*
X6436428Y-14442143D01*
X6455476Y-14413571D01*
X6465000Y-14394524D01*
X6474524Y-14365952D01*
X6484048Y-14318333D01*
X6484048Y-14280238D01*
X6474524Y-14232619D01*
X6465000Y-14204048D01*
X6455476Y-14185000D01*
X6436428Y-14156428D01*
X6426905Y-14146905D01*
M02*
