%TF.GenerationSoftware,KiCad,Pcbnew,(6.0.1)*%
%TF.CreationDate,2022-01-22T18:41:09-05:00*%
%TF.ProjectId,ortho,6f727468-6f2e-46b6-9963-61645f706362,rev?*%
%TF.SameCoordinates,Original*%
%TF.FileFunction,Soldermask,Top*%
%TF.FilePolarity,Negative*%
%FSLAX46Y46*%
G04 Gerber Fmt 4.6, Leading zero omitted, Abs format (unit mm)*
G04 Created by KiCad (PCBNEW (6.0.1)) date 2022-01-22 18:41:09*
%MOMM*%
%LPD*%
G01*
G04 APERTURE LIST*
%ADD10C,0.787400*%
%ADD11C,0.990600*%
%ADD12C,1.701800*%
%ADD13C,3.429000*%
%ADD14C,2.032000*%
%ADD15C,1.200000*%
%ADD16C,2.100000*%
%ADD17C,1.750000*%
%ADD18R,3.048000X1.524000*%
%ADD19O,3.048000X1.524000*%
G04 APERTURE END LIST*
D10*
%TO.C,REF\u002A\u002A*%
X233580000Y-51246000D03*
X234850000Y-51246000D03*
X234850000Y-51246000D03*
X237390000Y-51246000D03*
X236120000Y-51246000D03*
X232310000Y-51246000D03*
%TD*%
D11*
%TO.C,SW25*%
X53220000Y-72300000D03*
D12*
X42500000Y-76500000D03*
X53500000Y-76500000D03*
D13*
X48000000Y-76500000D03*
D14*
X48000000Y-82400000D03*
X43000000Y-80300000D03*
%TD*%
D12*
%TO.C,SW4*%
X107500000Y-42500000D03*
D13*
X102000000Y-42500000D03*
D11*
X107220000Y-38300000D03*
D12*
X96500000Y-42500000D03*
D14*
X102000000Y-48400000D03*
X97000000Y-46300000D03*
%TD*%
D12*
%TO.C,SW23*%
X233500000Y-59500000D03*
D13*
X228000000Y-59500000D03*
D11*
X233220000Y-55300000D03*
D12*
X222500000Y-59500000D03*
D14*
X228000000Y-65400000D03*
X223000000Y-63300000D03*
%TD*%
D12*
%TO.C,SW41*%
X125500000Y-93500000D03*
D11*
X125220000Y-89300000D03*
D12*
X114500000Y-93500000D03*
D13*
X120000000Y-93500000D03*
D14*
X120000000Y-99400000D03*
X115000000Y-97300000D03*
%TD*%
D11*
%TO.C,SW11*%
X233220000Y-38300000D03*
D12*
X233500000Y-42500000D03*
D13*
X228000000Y-42500000D03*
D12*
X222500000Y-42500000D03*
D14*
X228000000Y-48400000D03*
X223000000Y-46300000D03*
%TD*%
D12*
%TO.C,SW21*%
X186500000Y-59500000D03*
D13*
X192000000Y-59500000D03*
D12*
X197500000Y-59500000D03*
D11*
X197220000Y-55300000D03*
D14*
X192000000Y-65400000D03*
X187000000Y-63300000D03*
%TD*%
D11*
%TO.C,SW56*%
X179220000Y-106300000D03*
D12*
X179500000Y-110500000D03*
X168500000Y-110500000D03*
D13*
X174000000Y-110500000D03*
D14*
X174000000Y-116400000D03*
X169000000Y-114300000D03*
%TD*%
D10*
%TO.C,REF\u002A\u002A*%
X147400000Y-51296000D03*
%TD*%
D11*
%TO.C,SW32*%
X179220000Y-72300000D03*
D12*
X168500000Y-76500000D03*
D13*
X174000000Y-76500000D03*
D12*
X179500000Y-76500000D03*
D14*
X174000000Y-82400000D03*
X169000000Y-80300000D03*
%TD*%
D10*
%TO.C,REF\u002A\u002A*%
X60470000Y-51250000D03*
X59200000Y-51250000D03*
X61740000Y-51250000D03*
X56660000Y-51250000D03*
X57930000Y-51250000D03*
%TD*%
D12*
%TO.C,SW10*%
X215500000Y-42500000D03*
D11*
X215220000Y-38300000D03*
D13*
X210000000Y-42500000D03*
D12*
X204500000Y-42500000D03*
D14*
X210000000Y-48400000D03*
X205000000Y-46300000D03*
%TD*%
D12*
%TO.C,SW51*%
X78500000Y-110500000D03*
D11*
X89220000Y-106300000D03*
D13*
X84000000Y-110500000D03*
D12*
X89500000Y-110500000D03*
D14*
X84000000Y-116400000D03*
X79000000Y-114300000D03*
%TD*%
D10*
%TO.C,REF\u002A\u002A*%
X184160000Y-51250000D03*
X179080000Y-51250000D03*
X182890000Y-51250000D03*
X181620000Y-51250000D03*
X180350000Y-51250000D03*
%TD*%
D12*
%TO.C,SW33*%
X186500000Y-76500000D03*
X197500000Y-76500000D03*
D13*
X192000000Y-76500000D03*
D11*
X197220000Y-72300000D03*
D14*
X192000000Y-82400000D03*
X187000000Y-80300000D03*
%TD*%
D11*
%TO.C,SW59*%
X233220000Y-106300000D03*
D12*
X233500000Y-110500000D03*
X222500000Y-110500000D03*
D13*
X228000000Y-110500000D03*
D14*
X228000000Y-116400000D03*
X223000000Y-114300000D03*
%TD*%
D12*
%TO.C,SW14*%
X60500000Y-59500000D03*
D11*
X71220000Y-55300000D03*
D12*
X71500000Y-59500000D03*
D13*
X66000000Y-59500000D03*
D14*
X66000000Y-65400000D03*
X61000000Y-63300000D03*
%TD*%
D12*
%TO.C,SW44*%
X168500000Y-93500000D03*
D11*
X179220000Y-89300000D03*
D12*
X179500000Y-93500000D03*
D13*
X174000000Y-93500000D03*
D14*
X174000000Y-99400000D03*
X169000000Y-97300000D03*
%TD*%
D12*
%TO.C,SW47*%
X233500000Y-93500000D03*
X222500000Y-93500000D03*
D13*
X228000000Y-93500000D03*
D11*
X233220000Y-89300000D03*
D14*
X228000000Y-99400000D03*
X223000000Y-97300000D03*
%TD*%
D12*
%TO.C,SW42*%
X132500000Y-93500000D03*
X143500000Y-93500000D03*
D13*
X138000000Y-93500000D03*
D11*
X143220000Y-89300000D03*
D14*
X138000000Y-99400000D03*
X133000000Y-97300000D03*
%TD*%
D13*
%TO.C,SW6*%
X138000000Y-42500000D03*
D12*
X132500000Y-42500000D03*
X143500000Y-42500000D03*
D11*
X143220000Y-38300000D03*
D14*
X138000000Y-48400000D03*
X133000000Y-46300000D03*
%TD*%
D12*
%TO.C,SW29*%
X125500000Y-76500000D03*
X114500000Y-76500000D03*
D11*
X125220000Y-72300000D03*
D13*
X120000000Y-76500000D03*
D14*
X120000000Y-82400000D03*
X115000000Y-80300000D03*
%TD*%
D10*
%TO.C,REF\u002A\u002A*%
X215060000Y-51246000D03*
X218870000Y-51246000D03*
X217600000Y-51246000D03*
X216330000Y-51246000D03*
X217600000Y-51246000D03*
X220140000Y-51246000D03*
%TD*%
D11*
%TO.C,SW26*%
X71220000Y-72300000D03*
D13*
X66000000Y-76500000D03*
D12*
X71500000Y-76500000D03*
X60500000Y-76500000D03*
D14*
X66000000Y-82400000D03*
X61000000Y-80300000D03*
%TD*%
D12*
%TO.C,SW9*%
X186500000Y-42500000D03*
X197500000Y-42500000D03*
D13*
X192000000Y-42500000D03*
D11*
X197220000Y-38300000D03*
D14*
X192000000Y-48400000D03*
X187000000Y-46300000D03*
%TD*%
D12*
%TO.C,SW15*%
X78500000Y-59500000D03*
D13*
X84000000Y-59500000D03*
D12*
X89500000Y-59500000D03*
D11*
X89220000Y-55300000D03*
D14*
X84000000Y-65400000D03*
X79000000Y-63300000D03*
%TD*%
D12*
%TO.C,SW30*%
X143500000Y-76500000D03*
D11*
X143220000Y-72300000D03*
D12*
X132500000Y-76500000D03*
D13*
X138000000Y-76500000D03*
D14*
X138000000Y-82400000D03*
X133000000Y-80300000D03*
%TD*%
D13*
%TO.C,SW3*%
X84000000Y-42500000D03*
D12*
X78500000Y-42500000D03*
D11*
X89220000Y-38300000D03*
D12*
X89500000Y-42500000D03*
D14*
X84000000Y-48400000D03*
X79000000Y-46300000D03*
%TD*%
D13*
%TO.C,SW39*%
X84000000Y-93500000D03*
D12*
X78500000Y-93500000D03*
D11*
X89220000Y-89300000D03*
D12*
X89500000Y-93500000D03*
D14*
X84000000Y-99400000D03*
X79000000Y-97300000D03*
%TD*%
D13*
%TO.C,SW22*%
X210000000Y-59500000D03*
D12*
X204500000Y-59500000D03*
D11*
X215220000Y-55300000D03*
D12*
X215500000Y-59500000D03*
D14*
X210000000Y-65400000D03*
X205000000Y-63300000D03*
%TD*%
D11*
%TO.C,SW35*%
X233220000Y-72300000D03*
D13*
X228000000Y-76500000D03*
D12*
X233500000Y-76500000D03*
X222500000Y-76500000D03*
D14*
X228000000Y-82400000D03*
X223000000Y-80300000D03*
%TD*%
D12*
%TO.C,SW19*%
X150500000Y-59500000D03*
D11*
X161220000Y-55300000D03*
D12*
X161500000Y-59500000D03*
D13*
X156000000Y-59500000D03*
D14*
X156000000Y-65400000D03*
X151000000Y-63300000D03*
%TD*%
D10*
%TO.C,REF\u002A\u002A*%
X19090000Y-51100000D03*
X22900000Y-51100000D03*
X20360000Y-51100000D03*
X17820000Y-51100000D03*
X21630000Y-51100000D03*
%TD*%
D12*
%TO.C,SW43*%
X161500000Y-93500000D03*
D11*
X161220000Y-89300000D03*
D13*
X156000000Y-93500000D03*
D12*
X150500000Y-93500000D03*
D14*
X156000000Y-99400000D03*
X151000000Y-97300000D03*
%TD*%
D12*
%TO.C,SW7*%
X161500000Y-42500000D03*
X150500000Y-42500000D03*
D11*
X161220000Y-38300000D03*
D13*
X156000000Y-42500000D03*
D14*
X156000000Y-48400000D03*
X151000000Y-46300000D03*
%TD*%
D12*
%TO.C,SW13*%
X42500000Y-59500000D03*
D13*
X48000000Y-59500000D03*
D11*
X53220000Y-55300000D03*
D12*
X53500000Y-59500000D03*
D14*
X48000000Y-65400000D03*
X43000000Y-63300000D03*
%TD*%
D13*
%TO.C,SW37*%
X48000000Y-93500000D03*
D12*
X53500000Y-93500000D03*
D11*
X53220000Y-89300000D03*
D12*
X42500000Y-93500000D03*
D14*
X48000000Y-99400000D03*
X43000000Y-97300000D03*
%TD*%
D12*
%TO.C,SW57*%
X197500000Y-110500000D03*
X186500000Y-110500000D03*
D11*
X197220000Y-106300000D03*
D13*
X192000000Y-110500000D03*
D14*
X192000000Y-116400000D03*
X187000000Y-114300000D03*
%TD*%
D10*
%TO.C,REF\u002A\u002A*%
X199600000Y-51200000D03*
X197060000Y-51200000D03*
X198330000Y-51200000D03*
X200870000Y-51200000D03*
X199600000Y-51200000D03*
X202140000Y-51200000D03*
%TD*%
%TO.C,REF\u002A\u002A*%
X111180000Y-51244850D03*
X112450000Y-51244850D03*
X114990000Y-51244850D03*
X116260000Y-51244850D03*
X113720000Y-51244850D03*
%TD*%
D12*
%TO.C,SW55*%
X150500000Y-110500000D03*
D11*
X161220000Y-106300000D03*
D13*
X156000000Y-110500000D03*
D12*
X161500000Y-110500000D03*
D14*
X156000000Y-116400000D03*
X151000000Y-114300000D03*
%TD*%
D12*
%TO.C,SW40*%
X107500000Y-93500000D03*
X96500000Y-93500000D03*
D11*
X107220000Y-89300000D03*
D13*
X102000000Y-93500000D03*
D14*
X102000000Y-99400000D03*
X97000000Y-97300000D03*
%TD*%
D10*
%TO.C,REF\u002A\u002A*%
X79790000Y-51244850D03*
X78520000Y-51244850D03*
X77250000Y-51244850D03*
X75980000Y-51244850D03*
X74710000Y-51244850D03*
%TD*%
D12*
%TO.C,SW5*%
X114500000Y-42500000D03*
D13*
X120000000Y-42500000D03*
D11*
X125220000Y-38300000D03*
D12*
X125500000Y-42500000D03*
D14*
X120000000Y-48400000D03*
X115000000Y-46300000D03*
%TD*%
D13*
%TO.C,SW18*%
X138000000Y-59500000D03*
D11*
X143220000Y-55300000D03*
D12*
X132500000Y-59500000D03*
X143500000Y-59500000D03*
D14*
X138000000Y-65400000D03*
X133000000Y-63300000D03*
%TD*%
D12*
%TO.C,SW28*%
X96500000Y-76500000D03*
X107500000Y-76500000D03*
D13*
X102000000Y-76500000D03*
D11*
X107220000Y-72300000D03*
D14*
X102000000Y-82400000D03*
X97000000Y-80300000D03*
%TD*%
D10*
%TO.C,REF\u002A\u002A*%
X164790000Y-51250000D03*
X163520000Y-51250000D03*
X166060000Y-51250000D03*
X160980000Y-51250000D03*
X162250000Y-51250000D03*
%TD*%
D13*
%TO.C,SW54*%
X138000000Y-110500000D03*
D11*
X143220000Y-106300000D03*
D12*
X132500000Y-110500000D03*
X143500000Y-110500000D03*
D14*
X138000000Y-116400000D03*
X133000000Y-114300000D03*
%TD*%
D13*
%TO.C,SW34*%
X210000000Y-76500000D03*
D12*
X204500000Y-76500000D03*
X215500000Y-76500000D03*
D11*
X215220000Y-72300000D03*
D14*
X210000000Y-82400000D03*
X205000000Y-80300000D03*
%TD*%
D12*
%TO.C,SW46*%
X215500000Y-93500000D03*
D11*
X215220000Y-89300000D03*
D13*
X210000000Y-93500000D03*
D12*
X204500000Y-93500000D03*
D14*
X210000000Y-99400000D03*
X205000000Y-97300000D03*
%TD*%
D12*
%TO.C,SW8*%
X179500000Y-42500000D03*
D11*
X179220000Y-38300000D03*
D13*
X174000000Y-42500000D03*
D12*
X168500000Y-42500000D03*
D14*
X174000000Y-48400000D03*
X169000000Y-46300000D03*
%TD*%
D10*
%TO.C,REF\u002A\u002A*%
X96870000Y-51250000D03*
X94330000Y-51250000D03*
X98140000Y-51250000D03*
X95600000Y-51250000D03*
X93060000Y-51250000D03*
%TD*%
D13*
%TO.C,SW2*%
X66000000Y-42500000D03*
D12*
X60500000Y-42500000D03*
D11*
X71220000Y-38300000D03*
D12*
X71500000Y-42500000D03*
D14*
X66000000Y-48400000D03*
X61000000Y-46300000D03*
%TD*%
D12*
%TO.C,SW20*%
X179500000Y-59500000D03*
X168500000Y-59500000D03*
D11*
X179220000Y-55300000D03*
D13*
X174000000Y-59500000D03*
D14*
X174000000Y-65400000D03*
X169000000Y-63300000D03*
%TD*%
D12*
%TO.C,SW1*%
X53500000Y-42500000D03*
X42500000Y-42500000D03*
D11*
X53220000Y-38300000D03*
D13*
X48000000Y-42500000D03*
D14*
X48000000Y-48400000D03*
X43000000Y-46300000D03*
%TD*%
D12*
%TO.C,SW36*%
X240500000Y-76500000D03*
D11*
X251220000Y-72300000D03*
D12*
X251500000Y-76500000D03*
D13*
X246000000Y-76500000D03*
D14*
X246000000Y-82400000D03*
X241000000Y-80300000D03*
%TD*%
D12*
%TO.C,SW27*%
X89500000Y-76500000D03*
D13*
X84000000Y-76500000D03*
D11*
X89220000Y-72300000D03*
D12*
X78500000Y-76500000D03*
D14*
X84000000Y-82400000D03*
X79000000Y-80300000D03*
%TD*%
D13*
%TO.C,SW48*%
X246000000Y-93500000D03*
D12*
X251500000Y-93500000D03*
D11*
X251220000Y-89300000D03*
D12*
X240500000Y-93500000D03*
D14*
X246000000Y-99400000D03*
X241000000Y-97300000D03*
%TD*%
D11*
%TO.C,SW24*%
X251220000Y-55300000D03*
D12*
X251500000Y-59500000D03*
X240500000Y-59500000D03*
D13*
X246000000Y-59500000D03*
D14*
X246000000Y-65400000D03*
X241000000Y-63300000D03*
%TD*%
D11*
%TO.C,SW60*%
X251220000Y-106300000D03*
D12*
X240500000Y-110500000D03*
D13*
X246000000Y-110500000D03*
D12*
X251500000Y-110500000D03*
D14*
X246000000Y-116400000D03*
X241000000Y-114300000D03*
%TD*%
D11*
%TO.C,SW12*%
X251220000Y-38300000D03*
D13*
X246000000Y-42500000D03*
D12*
X240500000Y-42500000D03*
X251500000Y-42500000D03*
D14*
X246000000Y-48400000D03*
X241000000Y-46300000D03*
%TD*%
D15*
%TO.C,RST1*%
X18090000Y-98900000D03*
D16*
X21790000Y-102400000D03*
X21790000Y-95390000D03*
D17*
X19300000Y-101400000D03*
X19300000Y-96400000D03*
%TD*%
D12*
%TO.C,SW45*%
X197500000Y-93500000D03*
D13*
X192000000Y-93500000D03*
D12*
X186500000Y-93500000D03*
D11*
X197220000Y-89300000D03*
D14*
X192000000Y-99400000D03*
X187000000Y-97300000D03*
%TD*%
D12*
%TO.C,SW38*%
X71500000Y-93500000D03*
D11*
X71220000Y-89300000D03*
D13*
X66000000Y-93500000D03*
D12*
X60500000Y-93500000D03*
D14*
X66000000Y-99400000D03*
X61000000Y-97300000D03*
%TD*%
D13*
%TO.C,SW16*%
X102000000Y-59500000D03*
D12*
X107500000Y-59500000D03*
D11*
X107220000Y-55300000D03*
D12*
X96500000Y-59500000D03*
D14*
X102000000Y-65400000D03*
X97000000Y-63300000D03*
%TD*%
D12*
%TO.C,SW17*%
X114500000Y-59500000D03*
X125500000Y-59500000D03*
D11*
X125220000Y-55300000D03*
D13*
X120000000Y-59500000D03*
D14*
X120000000Y-65400000D03*
X115000000Y-63300000D03*
%TD*%
D13*
%TO.C,SW52*%
X102000000Y-110500000D03*
D11*
X107220000Y-106300000D03*
D12*
X96500000Y-110500000D03*
X107500000Y-110500000D03*
D14*
X102000000Y-116400000D03*
X97000000Y-114300000D03*
%TD*%
D10*
%TO.C,REF\u002A\u002A*%
X134190000Y-51250000D03*
X129110000Y-51250000D03*
X130380000Y-51250000D03*
X132920000Y-51250000D03*
X131650000Y-51250000D03*
%TD*%
D12*
%TO.C,SW53*%
X125500000Y-110500000D03*
D11*
X125220000Y-106300000D03*
D13*
X120000000Y-110500000D03*
D12*
X114500000Y-110500000D03*
D14*
X120000000Y-116400000D03*
X115000000Y-114300000D03*
%TD*%
D12*
%TO.C,SW58*%
X215500000Y-110500000D03*
D13*
X210000000Y-110500000D03*
D12*
X204500000Y-110500000D03*
D11*
X215220000Y-106300000D03*
D14*
X210000000Y-116400000D03*
X205000000Y-114300000D03*
%TD*%
D12*
%TO.C,SW49*%
X42500000Y-110500000D03*
D11*
X53220000Y-106300000D03*
D13*
X48000000Y-110500000D03*
D12*
X53500000Y-110500000D03*
D14*
X48000000Y-116400000D03*
X43000000Y-114300000D03*
%TD*%
D12*
%TO.C,SW31*%
X161500000Y-76500000D03*
X150500000Y-76500000D03*
D11*
X161220000Y-72300000D03*
D13*
X156000000Y-76500000D03*
D14*
X156000000Y-82400000D03*
X151000000Y-80300000D03*
%TD*%
D12*
%TO.C,SW50*%
X71500000Y-110500000D03*
D11*
X71220000Y-106300000D03*
D12*
X60500000Y-110500000D03*
D13*
X66000000Y-110500000D03*
D14*
X66000000Y-116400000D03*
X61000000Y-114300000D03*
%TD*%
D18*
%TO.C,U1*%
X18918000Y-58560000D03*
D19*
X18918000Y-61100000D03*
X18918000Y-63640000D03*
X18918000Y-66180000D03*
X18918000Y-68720000D03*
X18918000Y-71260000D03*
X18918000Y-73800000D03*
X18918000Y-76340000D03*
X18918000Y-78880000D03*
X18918000Y-81420000D03*
X18918000Y-83960000D03*
X18918000Y-86500000D03*
X18918000Y-89040000D03*
X35682000Y-89040000D03*
X35682000Y-86500000D03*
X35682000Y-83960000D03*
X35682000Y-81420000D03*
X35682000Y-78880000D03*
X35682000Y-76340000D03*
X35682000Y-73800000D03*
X35682000Y-71260000D03*
X35682000Y-68720000D03*
X35682000Y-66180000D03*
X35682000Y-63640000D03*
X35682000Y-61100000D03*
X35682000Y-58560000D03*
%TD*%
M02*
